<svg width="337.000000" height="29.000000" viewBox="0 0 337 29" fill="none" xmlns="http://www.w3.org/2000/svg" xmlns:xlink="http://www.w3.org/1999/xlink">
	<desc>
			Created with Pixso.
	</desc>
	<defs>
		<linearGradient x1="330.412811" y1="29.003479" x2="2.763947" y2="1.182648" id="paint_linear_6249_14333_0" gradientUnits="userSpaceOnUse">
			<stop stop-color="#533CA3"/>
			<stop offset="0.294518" stop-color="#BF5AB8"/>
			<stop offset="0.682384" stop-color="#ED641F"/>
			<stop offset="1.000000" stop-color="#FFE322"/>
		</linearGradient>
	</defs>
	<path id="Underline_4" d="M307.44 13.13C306.82 13.04 306.19 12.95 305.57 12.85C304.69 12.71 303.55 12.82 303.06 12.29C303.01 12.32 302.95 12.36 302.89 12.39C302.98 12.46 303.06 12.54 303.17 12.62C302.07 12.55 301.02 12.48 299.97 12.41C299.94 12.44 299.92 12.46 299.89 12.49C300.34 12.58 300.79 12.67 301.15 12.75C300.91 12.75 300.37 12.81 300.2 12.74C299.09 12.22 297.38 12.33 296.05 12.06C296.07 12.01 296.1 11.97 296.12 11.93C296.99 11.97 297.84 12.01 298.71 12.06C298.72 12.05 298.73 12.04 298.74 12.02C298.44 11.97 298.14 11.92 297.84 11.87C297.85 11.84 297.86 11.82 297.86 11.79C298.61 11.83 299.37 11.87 300.12 11.91C300.14 11.9 300.16 11.88 300.17 11.87C300.01 11.83 299.85 11.79 299.68 11.75C299.67 11.72 299.67 11.69 299.66 11.66C300.32 11.63 300.96 11.6 301.62 11.56C301.61 11.53 301.61 11.5 301.6 11.47C300.86 11.57 300.18 11.35 299.36 11.51C298.9 11.61 298.16 11.46 297.58 11.35C298 11.33 298.43 11.3 298.85 11.27C298.85 11.26 298.84 11.24 298.83 11.22C298.19 11.22 297.55 11.22 296.78 11.22C297.01 11.33 297.17 11.41 297.47 11.56C296.38 11.5 295.5 11.43 294.61 11.4C293.43 11.37 292.25 11.37 291.07 11.33C290.8 11.33 290.53 11.24 290.28 11.11C293.3 11.09 296.33 11.06 299.35 11.04C299.35 11.01 299.36 10.97 299.36 10.93C298.6 10.87 297.84 10.8 297.09 10.73C297.09 10.71 297.09 10.7 297.1 10.68C298.14 10.68 299.2 10.68 300.24 10.68C300.25 10.64 300.26 10.59 300.28 10.55C300.05 10.55 299.82 10.54 299.59 10.55C299.22 10.55 298.86 10.57 298.49 10.57C298.16 10.56 297.82 10.52 297.43 10.5C297.53 10.41 297.6 10.34 297.65 10.3C296.98 10.24 296.32 10.18 295.65 10.12C295.66 10.1 295.66 10.07 295.67 10.05C296.38 10.08 297.09 10.12 297.79 10.15C297.79 10.12 297.79 10.09 297.79 10.05C298.05 10.06 298.3 10.06 298.55 10.07C298.55 10.05 298.56 10.03 298.56 10.01C296.85 9.91 295.15 9.8 293.19 9.67C294.02 9.62 294.66 9.58 295.29 9.54C295.29 9.5 295.3 9.47 295.3 9.44C294.94 9.44 294.58 9.46 294.21 9.46C293.74 9.46 293.25 9.47 292.79 9.43C292.38 9.39 292 9.29 291.64 9.13C292.57 9.13 293.51 9.13 294.45 9.13C293.3 8.74 291.99 9.05 290.8 8.93C290.8 8.9 290.8 8.86 290.8 8.83C291.4 8.83 292.01 8.85 292.61 8.82C293.72 8.79 294.83 8.85 295.95 8.67C296.74 8.54 297.75 8.62 298.65 8.64C299.35 8.65 300.04 8.7 300.77 8.73C300.47 8.75 300.17 8.77 299.89 8.79C299.91 8.83 299.92 8.87 299.94 8.91C300.58 8.85 301.24 8.82 301.84 8.72C302.33 8.64 302.72 8.44 303.21 8.37C303.69 8.3 304.26 8.35 304.77 8.33C305.16 8.31 305.54 8.23 305.93 8.23C306.49 8.22 307.04 8.26 307.6 8.27C308 8.29 308.39 8.29 308.8 8.3C308.81 8.26 308.82 8.23 308.82 8.2C308.39 8.19 307.97 8.17 307.55 8.16C307.55 8.14 307.55 8.13 307.56 8.11C308.33 8.09 309.1 8.06 309.87 8.04C309.87 8.02 309.87 8 309.87 7.99C306.22 7.99 302.56 7.99 298.91 7.99C298.91 7.96 298.91 7.94 298.91 7.92C300.24 7.85 301.58 7.76 302.9 7.74C304.25 7.73 305.6 7.81 306.96 7.81C308.79 7.82 310.63 7.84 312.45 7.75C314.12 7.67 315.76 7.46 317.42 7.26C315.75 7.24 314.07 7.23 312.41 7.21C310.98 7.19 309.5 7.23 308.13 7.1C306.14 6.92 304.15 6.96 302.15 6.92C300.32 6.89 298.51 6.79 296.7 6.78C295.89 6.78 295.08 6.92 294.26 6.98C294.06 7 293.84 6.95 293.4 6.9C293.94 6.85 294.27 6.81 294.74 6.77C293.82 6.46 292.84 6.53 291.92 6.44C292.54 6.44 293.15 6.44 293.81 6.44C293.47 6.38 293.18 6.34 292.88 6.29C292.9 6.26 292.9 6.23 292.92 6.2C293.59 6.23 294.26 6.26 294.93 6.29C294.94 6.27 294.95 6.25 294.96 6.23C294.84 6.2 294.73 6.17 294.62 6.14C294.83 6.01 295.23 6.07 296.61 6.44C296.37 6.47 296.16 6.5 295.96 6.53C296.01 6.54 296.06 6.55 296.09 6.57C297.58 6.57 299.07 6.57 300.55 6.57C300.56 6.53 300.56 6.5 300.57 6.47C299.08 6.35 297.59 6.24 296.1 6.13C296.09 6.11 296.08 6.09 296.07 6.07C298.45 6.02 300.84 5.98 303.22 5.93C303.23 5.89 303.23 5.86 303.24 5.82C303.01 5.78 302.77 5.73 302.36 5.65C302.9 5.67 303.25 5.68 303.6 5.69C303.61 5.68 303.62 5.67 303.63 5.65C303.36 5.61 303.09 5.55 302.73 5.49C302.92 5.42 303.04 5.38 303 5.4C301.16 5.34 299.22 5.27 297.27 5.21C296.57 5.18 295.87 5.18 295.16 5.15C294.15 5.12 293.14 5.07 292.13 5.02C292.13 4.99 292.14 4.96 292.14 4.93C296.01 4.93 299.86 4.93 303.73 4.93C303.74 4.9 303.74 4.87 303.75 4.85C302.8 4.82 301.84 4.76 300.89 4.76C298.3 4.75 295.72 4.79 293.12 4.77C291.79 4.76 290.48 4.67 289.15 4.63C288.83 4.63 288.49 4.72 288.16 4.76C288 4.79 287.82 4.83 287.65 4.82C286.87 4.78 286.09 4.72 285.31 4.69C284.08 4.66 282.86 4.64 281.64 4.62C280.76 4.61 279.88 4.62 278.99 4.62C279.02 4.6 279.11 4.54 279.23 4.45C278.34 4.42 277.48 4.41 276.62 4.37C275.26 4.3 273.91 4.22 272.55 4.13C270.94 4.02 269.35 3.87 267.73 3.8C267.07 3.77 266.38 3.91 265.7 3.94C265.25 3.97 264.79 3.96 264.36 3.92C263.16 3.81 261.97 3.68 260.78 3.56C260.1 3.85 258.92 3.53 258.28 3.92C258.18 3.97 257.74 3.93 257.46 3.93C257.5 3.81 257.54 3.69 257.59 3.58C256.72 3.76 256.36 3.34 255.7 3.25C255.21 3.18 254.71 3.13 254.21 3.08C253.86 3.05 253.49 3.04 253.13 3.02C253.06 3.02 252.98 3 252.91 3C252.14 2.98 251.38 2.97 250.56 2.96C250.43 2.99 250.18 3.12 249.92 3.12C248.95 3.12 247.97 3.08 246.99 3.04C246.09 3.01 245.18 2.96 244.28 2.93C243.12 2.88 241.97 2.84 240.74 2.87C241.29 2.94 241.85 3.01 242.39 3.08C242.36 3.12 242.33 3.15 242.31 3.19C241.24 3.04 240.18 2.9 239.12 2.75C239.14 2.7 239.15 2.66 239.16 2.61C240.67 2.61 242.17 2.61 243.74 2.61C243.66 2.48 242.81 2.49 243.59 2.24C241.57 2.14 239.75 2.05 237.75 1.95C238.02 2.05 238.17 2.1 238.34 2.16C236.86 2.24 235.41 2.32 233.9 2.4C235.78 2.61 237.61 2.82 239.46 3.03C239.44 3.09 239.42 3.14 239.4 3.2C237.02 3.14 234.64 3.09 232.27 3.04C232.27 2.98 232.27 2.94 232.27 2.89C232.89 2.89 233.51 2.89 234.32 2.89C233.35 2.62 232.55 2.76 231.74 2.8C231.01 2.83 230.27 2.84 229.52 2.85C229.36 2.85 229.2 2.74 229.01 2.73C228.68 2.7 228.34 2.71 228.01 2.7C227.68 2.7 227.34 2.7 226.93 2.7C227.15 2.77 227.32 2.82 227.52 2.88C226.95 2.91 226.41 2.95 225.88 2.95C225.66 2.95 225.44 2.85 225.27 2.73C224.89 2.75 224.5 2.77 224.11 2.79C224.1 2.76 224.08 2.72 224.07 2.69C225.68 2.46 227.43 2.65 229.05 2.43C228.91 2.39 228.73 2.34 228.57 2.29C228.58 2.27 228.6 2.24 228.62 2.22C229.2 2.3 229.78 2.38 230.4 2.46C230.29 2.52 230.18 2.57 229.9 2.72C230.73 2.7 231.36 2.68 232.03 2.67C231.97 2.56 231.93 2.49 231.88 2.39C232.49 2.44 233.03 2.49 233.59 2.54C233.6 2.5 233.62 2.47 233.63 2.43C231.65 2.03 229.36 2.31 227.31 2.02C227.62 2.08 227.91 2.15 228.21 2.22C228.2 2.24 228.19 2.26 228.17 2.28C226.93 2.15 225.69 2.01 224.45 1.87C224.42 1.9 224.4 1.93 224.37 1.95C224.96 2.07 225.57 2.18 226.26 2.31C226.08 2.35 225.94 2.41 225.81 2.41C224 2.38 222.2 2.35 220.38 2.31C220.19 2.3 220.03 2.23 219.85 2.19C219.81 2.21 219.78 2.24 219.74 2.27C219.94 2.32 220.12 2.38 220.33 2.42C220.56 2.46 220.82 2.48 221.3 2.55C220.9 2.64 220.73 2.67 220.52 2.72C220.75 2.79 220.93 2.84 221.15 2.91C220.36 3.21 219.41 3.06 218.58 3.14C217.26 3.25 215.94 3.18 214.63 3.2C214.02 3.2 213.34 3.37 212.83 3.3C211.35 3.09 209.84 3.25 208.42 3.14C207.47 3.06 206.48 3.14 205.56 2.96C205.75 2.96 205.95 2.96 206.13 2.96C206.14 2.94 206.14 2.93 206.15 2.91C205.86 2.89 205.57 2.87 205.28 2.85C205.13 2.92 204.97 3.05 204.82 3.05C204.43 3.04 204.06 2.97 203.67 2.95C202.62 2.89 201.56 2.84 200.52 2.78C200.32 2.77 200.13 2.73 199.94 2.7C200.71 2.63 201.47 2.61 202.22 2.63C202.7 2.64 203.17 2.69 203.63 2.74C203.87 2.77 204.07 2.83 204.29 2.87C204.28 2.91 204.27 2.95 204.26 2.98C204.6 2.94 204.94 2.9 205.28 2.85C205.59 2.78 205.93 2.64 206.2 2.66C206.95 2.72 207.62 2.73 208.34 2.58C208.78 2.5 209.34 2.53 209.85 2.51C209.87 2.48 209.88 2.45 209.9 2.42C209.33 2.35 208.77 2.27 208.2 2.2C208.41 2.16 208.65 2.11 208.87 2.07C208.86 2.04 208.85 2.01 208.84 1.98C207.17 2.23 205.49 2.19 203.82 2.01C203.81 2.04 203.79 2.07 203.78 2.1C204.03 2.14 204.28 2.17 204.53 2.2C204.53 2.22 204.53 2.24 204.53 2.25C204.08 2.24 203.63 2.24 203.19 2.21C203.11 2.21 202.97 2.13 202.97 2.09C202.97 2.05 203.1 1.98 203.19 1.97C203.42 1.95 203.65 1.95 203.89 1.93C202.81 1.93 201.75 1.93 200.54 1.93C201.22 2.06 201.81 2.17 202.62 2.33C200.36 2.48 198.3 2.29 196.03 2.31C196.65 2.39 197.05 2.45 197.44 2.5C197.43 2.55 197.43 2.58 197.42 2.62C196.99 2.6 196.56 2.6 196.17 2.55C195.97 2.53 195.85 2.41 195.69 2.33C195.73 2.29 195.77 2.26 195.82 2.22C194.44 2.16 193.06 2.1 191.69 2.03C191.69 1.98 191.7 1.94 191.7 1.88C193.12 1.81 194.55 1.74 195.97 1.68C195.97 1.67 195.97 1.66 195.96 1.64C194.43 1.64 192.92 1.64 191.38 1.64C191.84 1.59 192.31 1.54 192.78 1.49C192.77 1.47 192.76 1.45 192.74 1.43C191.16 1.51 189.58 1.59 188.02 1.67C189 1.82 189.97 1.97 191.09 2.14C189.5 2.23 188.1 2.31 186.71 2.39C186.71 2.41 186.71 2.44 186.71 2.46C187.14 2.48 187.56 2.49 188.08 2.5C187.68 2.74 187.86 2.81 188.45 2.85C189.56 2.92 190.66 3.04 191.76 3.14C191.78 3.1 191.8 3.07 191.82 3.03C190.86 2.94 189.9 2.86 188.76 2.76C189.1 2.71 189.27 2.68 189.67 2.62C189.07 2.58 188.69 2.56 188.3 2.53C188.31 2.52 188.31 2.49 188.32 2.48C189.27 2.48 190.22 2.48 191.18 2.48C191.18 2.5 191.19 2.52 191.19 2.55C190.98 2.58 190.79 2.6 190.58 2.62C191.17 2.7 191.74 2.91 192.32 2.6C192.43 2.54 192.99 2.6 193.32 2.64C193.81 2.69 194.27 2.82 194.76 2.83C196.35 2.86 197.95 2.84 199.54 2.86C199.83 2.87 200.12 2.95 200.42 3C200.4 3.03 200.38 3.06 200.36 3.1C199.44 3.1 198.51 3.1 197.59 3.1C197.18 3.1 196.79 3.1 196.38 3.1C196.01 3.1 195.64 3.11 195.26 3.11C194.86 3.11 194.54 3.06 194.1 3.21C193.74 3.34 192.9 3.22 192.28 3.22C191.63 3.22 190.97 3.22 190.32 3.25C189.64 3.28 188.94 3.44 188.34 3.15C188.28 3.12 188.13 3.11 188.04 3.12C186.98 3.24 185.96 3.21 184.97 2.96C185.03 3 185.09 3.05 185.13 3.1C184.83 3.12 184.53 3.15 184.26 3.18C184.36 2.99 184.43 2.87 184.51 2.7C185.1 2.77 185.75 2.83 186.39 2.9C185.58 2.55 184.54 2.55 183.53 2.49C182.89 2.46 182.26 2.42 181.62 2.4C181.06 2.39 180.5 2.42 179.93 2.41C179.31 2.39 178.69 2.36 178.08 2.31C177.07 2.24 176.07 2.14 175.04 2.09C176.12 2.42 177.66 2.26 178.85 2.69C176.41 2.7 174.17 2.69 171.82 2.52C172.09 2.35 172.23 2.27 172.39 2.16C172.67 2.2 172.98 2.25 173.36 2.31C173.04 2.1 173.05 2.08 171.53 1.94C170.87 1.88 170.18 1.89 169.5 1.79C170.36 1.75 171.21 1.72 172.06 1.68C169.45 1.48 166.78 1.87 164.18 1.55C165.74 1.38 167.37 1.77 168.91 1.42C168.28 1.45 167.64 1.48 166.99 1.5C167.13 1.41 167.25 1.33 167.38 1.24L167.4 1.25C165.7 1.28 164.01 1.33 162.32 1.34C161.09 1.35 159.87 1.31 158.66 1.27C158 1.25 157.34 1.19 156.7 1.14C156.53 1.12 156.4 1.04 156.17 0.95C156.24 1.07 156.29 1.16 156.34 1.25C155.82 1.33 155.07 1.35 154.91 1.69C154.1 1.67 153.27 1.65 152.45 1.61C151.94 1.58 151.32 1.71 150.96 1.43C150.92 1.4 150.65 1.41 150.49 1.42C149.31 1.46 148.13 1.5 146.95 1.55C146.78 1.56 146.62 1.63 146.46 1.74C148.67 1.31 150.65 1.9 152.77 1.93C151.52 2.05 150.26 2.16 148.96 2.05C148.36 2 147.75 1.97 147.14 1.94C146.77 1.91 146.37 1.93 146.05 1.87C145.74 1.81 145.51 1.66 145.21 1.54C145.59 1.49 145.88 1.45 146.16 1.4C145.42 1.39 144.69 1.36 143.97 1.35C144.74 1.19 145.5 1.08 146.15 1.41C146.72 1.39 147.3 1.35 147.87 1.35C149.14 1.33 150.42 1.34 151.8 1.34C151.62 1.39 151.54 1.42 151.45 1.44C151.46 1.47 151.48 1.49 151.49 1.52C152.14 1.45 152.78 1.37 153.44 1.33C154.01 1.29 154.6 1.3 155.2 1.28C155.19 1.24 155.17 1.19 155.16 1.15C152.79 1.15 150.43 1.15 148.06 1.15C148.05 1.12 148.04 1.09 148.03 1.06C148.42 1.01 148.79 0.97 149.18 0.93C149 0.84 148.84 0.77 148.54 0.62C148.57 0.77 148.59 0.84 148.6 0.94C147.57 0.94 146.53 0.94 145.33 0.94C145.51 0.91 145.64 0.89 145.84 0.86C145.15 0.75 144.57 0.66 143.96 0.56C144.51 0.52 145.04 0.48 145.58 0.44C145.58 0.43 145.57 0.42 145.57 0.4C144.86 0.4 144.14 0.4 143.37 0.4C143.31 0.61 143.26 0.82 143.2 1.08C142.18 1.03 141.16 0.95 140.14 0.95C139.25 0.95 138.36 1.05 137.47 1.09C137.12 1.11 136.76 1.09 136.41 1.08L136.42 1.09C135.56 0.78 134.6 0.92 133.85 1.11C133.43 1.22 133.24 1.22 132.85 1.17C132.54 1.14 132.17 1.17 131.84 1.15C131.59 1.14 131.35 1.09 131.1 1.06C130.59 1.06 130.09 1.06 129.58 1.06C129.89 0.93 130.2 0.85 130.51 0.86C130.71 0.86 130.89 0.99 131.08 1.07C131.8 0.95 132.5 0.82 133.23 0.72C133.53 0.68 133.89 0.71 134.36 0.71C133.57 0.43 132.78 0.5 132.05 0.55C131.03 0.62 130.05 0.76 129.02 0.86C129.1 0.9 129.22 0.97 129.35 1.04C129.33 1.07 129.3 1.1 129.29 1.13C128.83 1.11 128.36 1.09 127.82 1.06C127.2 1.23 126.32 1.12 125.51 1.12C124.68 1.12 123.84 1.06 122.98 1.03C122.95 0.98 122.91 0.91 122.89 0.88C123.3 0.8 123.7 0.72 124.15 0.63C123.71 0.39 122.8 0.66 122.75 0.31C123.68 0.23 124.52 0.16 125.35 0.09C125.35 0.06 125.35 0.02 125.35 0C124.45 0 123.56 0 122.55 0C122.3 0.22 118.65 0.76 117.07 0.71C117.19 0.78 117.28 0.83 117.39 0.89C116.5 0.89 115.62 0.89 114.75 0.89C114.61 0.89 114.44 0.85 114.36 0.87C113.37 1.15 112.45 0.77 111.54 0.9C111.6 0.73 111.63 0.62 111.67 0.51L111.7 0.52C110.87 0.73 109.66 0.82 109.64 0.67C109.81 0.66 109.98 0.64 110.15 0.63C110.04 0.57 109.95 0.52 109.86 0.46C108.01 0.74 105.11 0.83 103.82 0.71C103.96 0.8 104.03 0.89 104.14 0.9C104.7 0.93 105.28 0.94 105.85 0.94C107.43 0.91 109.01 0.87 110.6 0.86C110.79 0.85 110.97 0.96 111.16 1.02C110.97 1.08 110.81 1.18 110.61 1.19C109.18 1.34 107.8 1.12 106.38 1.08C105.91 1.07 105.42 1.17 104.92 1.19C104.56 1.2 104.18 1.16 103.82 1.14C103.53 1.13 103.23 1.12 102.94 1.11C102.92 1.14 102.91 1.17 102.9 1.2C103.16 1.24 103.43 1.27 103.93 1.33C102.8 1.57 101.78 1.38 100.85 1.48C100.88 1.4 100.9 1.35 100.92 1.3C101.36 1.28 101.87 1.26 102.37 1.24C102.37 1.21 102.36 1.18 102.36 1.15C101.75 1.15 101.15 1.15 100.53 1.15C100.53 1.13 100.53 1.11 100.52 1.09C100.76 1.07 101.01 1.04 101.41 1.01C100.13 0.82 98.93 1.35 97.78 0.98C96.98 1.01 96.1 1.05 95.22 1.07C95.1 1.08 94.96 0.97 94.73 0.87C93.92 0.87 92.94 0.87 91.79 0.87C92.1 0.8 92.27 0.77 92.43 0.74C92.41 0.71 92.39 0.67 92.37 0.64C90.61 0.91 88.73 0.74 86.95 1.04C87.85 1.04 88.73 1.04 89.62 1.04C85.74 1.24 81.87 1.56 77.93 1.41C78.08 1.4 78.23 1.39 78.38 1.38C78.95 1.33 79.53 1.34 80.12 1.3C81.65 1.18 83.25 1.21 84.82 1.16C85.37 1.15 85.92 1.08 86.47 1.04C86.46 1.01 86.45 0.98 86.44 0.95C85.27 0.98 84.1 1.02 82.94 1.04C80.8 1.06 78.67 1.08 76.53 1.08C75.47 1.08 74.4 0.99 73.34 1.02C72.48 1.05 71.64 1.2 70.79 1.28C70.32 1.32 69.82 1.37 69.34 1.36C67.81 1.32 66.3 1.25 64.78 1.2C64.77 1.24 64.75 1.27 64.74 1.3C65.02 1.32 65.29 1.34 65.58 1.36C65.59 1.39 65.59 1.42 65.59 1.44C64.42 1.5 63.24 1.56 62.07 1.62C62.06 1.61 62.05 1.59 62.04 1.57C62.38 1.53 62.72 1.48 63.06 1.44C61.68 1.55 60.43 1.19 59.05 1.29C57.63 1.39 56.16 1.4 54.71 1.45C54.69 1.49 54.67 1.52 54.65 1.56C54.94 1.63 55.23 1.71 55.69 1.84C55.11 1.85 54.65 1.86 54.18 1.87C54.17 1.85 54.16 1.83 54.15 1.8C54.25 1.78 54.36 1.75 54.47 1.72C54.43 1.71 54.4 1.68 54.37 1.68C53.84 1.63 53.3 1.59 52.78 1.55C52.64 1.53 52.46 1.5 52.4 1.52C51.58 1.82 50.8 1.47 49.98 1.5C49.16 1.53 48.31 1.46 47.47 1.43C47.46 1.39 47.44 1.35 47.43 1.32C48.13 1.25 48.83 1.14 49.53 1.13C52.09 1.09 54.66 1.09 57.22 1.06C58.4 1.04 59.58 0.97 60.76 0.95C61.12 0.94 61.48 1 61.84 1C62.98 1 64.12 0.99 65.26 0.98C65.31 0.98 65.37 0.94 65.42 0.89C64.56 0.98 63.81 0.73 62.88 0.86C62.14 0.95 61.26 0.81 60.43 0.81C59.25 0.8 58.05 0.82 56.87 0.81C56.44 0.81 56.01 0.71 55.6 0.72C54.93 0.73 54.27 0.81 53.61 0.84C51.39 0.94 49.17 1.09 46.94 1.12C44.88 1.15 42.75 1.16 40.74 1C39.22 0.87 37.98 1.02 36.67 1.21C36.47 1.24 36.34 1.35 36.12 1.45C35.08 1.41 33.89 1.36 32.76 1.32C33.62 0.84 34.99 1.19 36.05 0.94C34.74 0.94 33.42 0.94 31.9 0.94C32.29 1 32.53 1.04 32.97 1.1C32.53 1.16 32.27 1.22 32.02 1.22C30.21 1.25 28.42 1.26 26.61 1.3C23.6 1.37 20.59 1.46 17.58 1.55C15.18 1.63 12.79 1.73 10.38 1.81C9.98 1.82 9.58 1.76 9.17 1.72C9.17 1.69 9.18 1.66 9.18 1.63C11 1.47 12.8 1.27 14.63 1.16C16.57 1.04 18.53 0.99 20.49 0.91C20.48 0.88 20.48 0.84 20.47 0.81C19.1 0.86 17.73 0.89 16.36 0.95C15.01 1.01 13.64 1.08 12.29 1.15C10.9 1.24 9.51 1.33 8.12 1.42C6.74 1.51 5.36 1.6 3.87 1.7C3.85 1.57 3.87 1.46 3.8 1.36C3.74 1.26 3.62 1.12 3.44 1.09C3.24 1.07 2.79 1.12 2.73 1.18C2.21 1.72 0.98 2.01 0 2.48C0.47 2.52 0.77 2.52 1.05 2.56C1.36 2.6 1.66 2.67 1.95 2.73C2.09 2.76 2.21 2.81 2.35 2.85C2.39 2.78 2.4 2.71 2.49 2.66C2.7 2.52 2.9 2.37 3.2 2.28C3.34 2.23 3.7 2.31 4.01 2.34C3.42 2.57 2.96 2.76 2.33 3C2.89 3.05 3.2 3.06 3.48 3.1C3.81 3.15 4.12 3.23 4.44 3.29C4.58 3.32 4.74 3.37 4.87 3.36C4.94 3.36 5.06 3.26 5.05 3.21C4.92 2.86 5.56 2.86 6.18 2.7C6.01 2.87 5.92 2.95 5.87 3.03C5.62 3.48 5.66 3.5 6.77 3.52C7.03 3.52 7.28 3.55 7.55 3.56C7.78 3.58 8.01 3.6 8.24 3.61C8.04 4.03 8.06 4.04 9.09 4.07C9.64 4.08 10.17 4.13 10.71 4.22C10.43 4.22 10.12 4.24 9.85 4.22C8.94 4.15 8.21 4.09 7.43 4.49C6.95 4.74 5.69 4.73 4.75 4.82C4.48 4.84 4.18 4.82 3.68 4.82C4.33 5.08 4.86 5.3 5.29 5.47C5.08 5.89 4.95 6.24 4.71 6.58C4.59 6.73 4.25 6.85 4 6.99C3.86 7.07 3.62 7.14 3.59 7.22C3.42 7.86 3.54 8.48 4.04 9.09C4.07 9.12 4.19 9.15 4.35 9.21C4 9.33 3.68 9.45 3.35 9.57C3.84 9.88 3.24 10.09 2.76 10.31C3.99 10.61 4.77 10.97 4.5 11.61C4.45 11.71 4.95 11.85 5.17 11.96C4.63 12.08 4.11 12.2 3.44 12.36C3.86 12.43 4.07 12.47 4.32 12.51C4.1 12.6 3.88 12.67 3.59 12.77C3.95 12.87 4.24 12.95 4.62 13.06C4.39 13.17 4.17 13.28 3.98 13.37C4.15 13.53 4.61 13.78 4.48 13.87C4.16 14.07 3.56 14.19 2.99 14.37C3.15 14.75 4.29 14.7 4.98 14.94C4.57 15.05 4.18 15.15 3.8 15.25C3.89 15.26 3.97 15.27 4.06 15.28C4.12 15.41 4.33 15.57 4.23 15.68C3.93 15.98 3.52 16.28 3.11 16.56C2.9 16.7 2.84 16.78 3.16 16.93C3.63 17.17 4.15 17.43 3.5 17.78C3.37 17.85 3.29 17.99 3.36 18.07C3.83 18.55 2.88 18.9 2.76 19.34C2.89 19.41 3.06 19.49 3.29 19.6C2.92 19.62 2.67 19.64 2.62 19.64C2.81 19.78 3.07 19.94 3.22 20.12C3.44 20.37 3.37 20.66 4.1 20.81C4.26 20.84 4.35 21.03 4.32 21.14C4.27 21.4 4.43 21.58 5.05 21.65C5.21 21.68 5.37 21.72 5.54 21.76C5.51 21.79 5.46 21.83 5.42 21.87C4.94 21.95 4.46 22.02 3.98 22.1C3.98 22.12 3.97 22.14 3.97 22.16C4.42 22.17 4.9 22.16 5.33 22.2C5.62 22.23 5.94 22.31 6.13 22.4C6.39 22.54 6.54 22.72 6.75 22.88C7.19 23.22 7.08 23.34 6.21 23.49C6 23.53 5.81 23.57 5.61 23.61C5.63 23.64 5.64 23.67 5.66 23.7C6.29 23.7 6.91 23.7 7.57 23.7C7.86 23.95 8.21 24.22 8.47 24.51C8.65 24.72 8.54 24.92 8.24 25.15C7.67 25.58 8.11 25.83 9.43 25.88C9.17 25.97 8.95 26.05 8.73 26.12C8.76 26.15 8.79 26.18 8.82 26.2C9.25 26.15 9.68 26.09 10.2 26.03C10.42 26.18 10.49 26.46 11.23 26.47C11.33 26.47 11.4 26.62 11.52 26.69C11.65 26.78 11.77 26.9 11.96 26.93C12.63 27.04 12.76 27.27 12.84 27.52L12.82 27.52C13.48 27.35 13.48 27.35 14.79 27.55C14.29 27.83 14.22 27.84 13.66 27.64C13.71 27.72 13.72 27.81 13.82 27.88C13.9 27.94 14.19 28.01 14.21 28C14.89 27.7 15.64 27.94 16.36 27.95C16.75 27.95 17.13 27.91 17.53 27.9C17.6 27.94 17.68 27.97 17.75 28.01C17.3 28.12 16.85 28.22 16.41 28.33C16.5 28.39 16.59 28.44 16.69 28.5C17.66 28.39 18.62 28.26 19.6 28.19C20.45 28.12 21.34 28.13 22.2 28.12C23.38 28.11 24.56 28.13 25.74 28.12C26.81 28.11 27.88 28.08 28.95 28.04C29.71 28.01 30.48 27.94 31.24 27.94C31.88 27.94 32.52 28.01 33.16 28.04L33.13 28.03C33.97 27.99 34.81 27.95 35.65 27.91C35.78 27.9 35.99 27.89 36.04 27.92C36.74 28.33 37.79 28.11 38.84 28.19C38.49 28.36 38.2 28.51 37.91 28.65C37.93 28.67 37.94 28.7 37.96 28.72C38.92 28.61 39.87 28.47 40.85 28.4C41.65 28.34 42.49 28.36 43.31 28.36C44.98 28.36 46.65 28.37 48.32 28.35C50.36 28.32 52.39 28.25 54.43 28.2C54.67 28.19 54.9 28.21 55.23 28.22C55.06 28.3 54.96 28.35 54.7 28.48C55.93 28.44 56.97 28.63 58.01 28.33C58.39 28.23 58.96 28.25 59.44 28.16C60.38 28.01 61.46 28.01 62.48 27.94C62.51 27.97 62.55 28 62.58 28.03C62.27 28.17 61.98 28.31 61.68 28.45C61.71 28.48 61.75 28.5 61.78 28.53C62.77 28.41 63.76 28.25 64.79 28.18C65.51 28.12 66.27 28.16 67.01 28.16C68.74 28.16 70.47 28.18 72.19 28.15C73.56 28.12 74.92 28 76.3 27.98C77.09 27.97 77.89 28.09 78.69 28.12C79.66 28.16 80.61 28.25 81.61 28.02C82.18 27.89 82.99 27.95 83.7 27.94C84.04 27.93 84.38 27.95 84.79 27.96C84.7 27.88 84.65 27.83 84.58 27.78C85.01 27.78 85.4 27.78 85.91 27.78C85.68 27.92 85.51 28.03 85.2 28.22C86.35 28.09 87.29 27.94 88.27 27.87C89.07 27.81 89.92 27.82 90.73 27.85C93.17 27.92 95.6 28.03 98.03 27.84C98.52 27.81 99.04 27.85 99.55 27.86C100.18 27.87 100.82 27.88 101.45 27.9C101.8 27.91 102.34 27.78 102.35 28.09C102.35 28.12 102.53 28.15 102.62 28.15C103.47 28.15 104.37 28.22 105.13 28.12C106.42 27.94 107.67 28.06 108.93 28.07C109.38 28.08 109.83 28.09 110.27 28.1C112.05 28.13 113.82 28.17 115.6 28.2C116.22 28.21 116.85 28.2 117.29 28.2C116.72 28.39 116.04 28.61 115.22 28.88C117.01 29.05 118.48 28.87 120.1 28.69C119.16 28.57 118.4 28.46 117.58 28.35C118.39 28.08 119.29 28.08 120.18 28.09C120.29 28.09 120.45 28.09 120.47 28.12C121.02 28.59 122 28.42 122.86 28.43C122.94 28.43 123.02 28.44 123.25 28.45C122.88 28.63 122.56 28.78 122.25 28.92C122.27 28.95 122.29 28.97 122.31 29C123.3 28.89 124.26 28.76 125.27 28.68C126.07 28.62 126.9 28.63 127.72 28.63C129.33 28.62 130.94 28.65 132.56 28.62C134.12 28.59 135.67 28.47 137.24 28.44C138.92 28.4 140.59 28.42 142.26 28.41C143.26 28.4 144.26 28.41 145.4 28.41C145.4 28.25 145.4 28.08 145.4 27.88C148.01 27.84 150.71 27.81 153.41 27.75C155.16 27.72 156.9 27.61 158.64 27.58C159.91 27.56 161.19 27.61 162.47 27.64C163.08 27.65 163.69 27.68 164.3 27.7C166.99 27.78 169.68 27.86 172.38 27.94C173.8 27.97 175.22 27.99 176.65 28.02C178.89 28.05 181.13 28.07 183.36 28.11C186.01 28.16 188.66 28.24 191.3 28.3C193.78 28.35 196.25 28.35 198.71 28.44C201.07 28.52 203.38 28.37 205.71 28.32C206.79 28.29 207.87 28.31 208.96 28.3C211.03 28.28 213.11 28.28 215.19 28.22C216.88 28.18 218.57 28.08 220.26 28.02C221.9 27.97 223.53 27.95 225.16 27.89C226.89 27.83 228.62 27.71 230.35 27.64C231.08 27.61 231.82 27.66 232.54 27.65C234.15 27.64 235.77 27.64 237.37 27.59C239 27.54 240.62 27.43 242.24 27.36C243.84 27.28 245.45 27.18 247.05 27.14C249.04 27.1 251.04 27.12 253.05 27.11C253.75 27.1 254.45 27.06 255.15 27.04C256.71 27 258.29 26.97 259.85 26.92C260.74 26.9 261.63 26.85 262.54 26.83C263.01 26.82 263.49 26.84 263.96 26.84C265.4 26.82 266.84 26.81 268.28 26.8C268.93 26.79 269.59 26.79 270.24 26.8C271.14 26.82 271.98 26.86 272.91 26.69C273.69 26.55 274.72 26.67 275.64 26.66C276.04 26.66 276.44 26.62 276.84 26.6C276.84 26.57 276.84 26.54 276.84 26.51C275.81 26.46 274.77 26.41 273.74 26.36C273.75 26.33 273.76 26.31 273.76 26.29C275 26.29 276.23 26.29 277.62 26.29C277.45 26.2 277.38 26.16 277.26 26.1C279.15 25.85 281.04 26.1 282.98 26.03C282.87 25.95 282.79 25.89 282.67 25.81C284.22 25.81 285.73 25.81 287.24 25.81C287.24 25.79 287.24 25.78 287.24 25.76C286.74 25.71 286.24 25.66 285.74 25.61C285.75 25.57 285.76 25.53 285.77 25.49C288.05 25.45 290.34 25.41 292.63 25.38C292.64 25.36 292.65 25.35 292.66 25.34C291.51 25.25 290.36 25.15 289.21 25.06C289.22 25.01 289.23 24.97 289.25 24.92C289.51 24.91 289.82 24.86 290.03 24.91C290.73 25.06 291.4 25.02 292.15 24.98C293.46 24.91 294.79 24.91 296.17 24.89C296.03 24.53 296.38 24.5 297.14 24.53C299.08 24.61 301.05 24.62 303.01 24.66C303.01 24.62 303.03 24.59 303.04 24.55C302.85 24.53 302.66 24.51 302.46 24.5C302.23 24.48 302 24.48 301.61 24.48C301.92 24.38 302.12 24.32 302.32 24.26C302.12 24.22 301.89 24.18 301.45 24.1C301.81 24.07 302.01 24.06 302.2 24.04L302.18 24.05C301.61 24.02 301.05 23.98 300.49 23.98C299.33 23.96 298.17 23.95 297.01 23.95C295.89 23.95 294.76 23.97 293.63 23.96C293.18 23.96 292.73 23.9 292.27 23.87C292.28 23.84 292.29 23.81 292.29 23.78C293.91 23.75 295.54 23.74 297.16 23.7C298.72 23.66 300.36 24.01 302.07 23.49C301.58 23.44 301.28 23.37 300.96 23.37C298.65 23.34 296.34 23.3 294.02 23.3C292.52 23.31 291.02 23.38 289.52 23.43C289.42 23.43 289.31 23.42 289.2 23.36C289.81 23.34 290.43 23.32 291.04 23.3C291.05 23.28 291.06 23.26 291.07 23.24C290.7 23.22 290.33 23.16 289.96 23.17C288.66 23.19 287.31 23.35 286.09 23.23C284.65 23.1 283.35 23.41 281.99 23.3C281.76 23.28 281.56 23.21 281.24 23.14C282.08 23.11 282.72 23.09 283.37 23.06C283.36 23.03 283.36 23 283.35 22.96C282.52 22.96 281.69 22.96 280.87 22.96C280.87 22.95 280.87 22.93 280.87 22.91C282.43 22.88 283.99 22.84 285.55 22.81C285.55 22.78 285.55 22.75 285.55 22.72C282.3 22.72 279.05 22.72 275.8 22.72C275.79 22.71 275.79 22.7 275.78 22.69C276.62 22.62 277.47 22.53 278.33 22.49C280.43 22.38 282.53 22.28 284.65 22.23C286.71 22.17 288.77 22.2 290.83 22.18C291.94 22.16 293.04 22.11 294.16 22.07C294.76 22.04 295.35 22.01 295.95 21.93C294.67 21.93 293.39 21.93 292.11 21.93C292.1 21.92 292.1 21.91 292.1 21.9C292.35 21.88 292.59 21.85 292.84 21.82C292.04 21.7 291.1 21.99 290.25 21.57C293.18 21.4 295.98 21.24 298.79 21.08C298.81 21.1 298.82 21.12 298.84 21.14C298.71 21.12 298.58 21.1 298.42 21.07C298.51 21.03 298.55 21.01 298.59 21.01C298.82 21 299.06 21 299.3 21C299.45 21.26 300.95 21.27 303.22 21C302.62 21.02 302.02 21.04 301.42 21.06C301.42 21.04 301.41 21.02 301.41 20.99C305.24 20.8 309.07 20.61 312.91 20.42C312.91 20.39 312.9 20.35 312.9 20.32C312.75 20.31 312.59 20.31 312.44 20.31C311.67 20.31 310.73 20.19 310.16 20.34C309.53 20.51 308.91 20.45 308.32 20.51C307.29 20.62 306.19 20.61 305.12 20.65C304.06 20.69 303 20.73 301.93 20.73C300.2 20.75 298.47 20.72 296.74 20.73C295.28 20.73 293.84 20.76 292.38 20.77C292.16 20.78 291.95 20.78 291.7 20.79C292.44 20.59 292.44 20.61 293.37 20.64C293.75 20.66 294.15 20.54 294.55 20.53C295.32 20.49 296.09 20.49 296.86 20.47C297.17 20.45 297.5 20.48 297.74 20.29C297.87 20.18 298.48 20.17 298.88 20.12C298.9 20.15 298.92 20.18 298.94 20.21C298.65 20.27 298.36 20.32 298.07 20.38C298.08 20.4 298.08 20.42 298.09 20.44C298.83 20.44 299.56 20.45 300.31 20.44C301.4 20.43 302.49 20.41 303.58 20.39C304.24 20.38 304.99 20.43 305.54 20.31C306.85 20.05 308.15 20.28 309.44 20.23C310.92 20.18 312.4 20.14 313.89 20.11C314.73 20.09 315.57 20.09 316.42 20.08C316.93 20.07 317.45 20.08 317.96 20.06C318.37 20.04 318.78 20.06 319.17 19.88C319.46 19.75 320.18 19.8 320.72 19.77C321.43 19.73 322.14 19.7 322.85 19.6C315.88 19.99 308.87 19.96 301.88 19.97C301.87 19.94 301.87 19.9 301.86 19.87C302.98 19.82 304.11 19.78 305.23 19.73C305.24 19.71 305.26 19.69 305.28 19.67C304.69 19.56 304.11 19.46 303.51 19.35C303.52 19.32 303.52 19.3 303.53 19.28C304.67 19.28 305.81 19.28 307.13 19.28C306.61 19.16 306.24 19.07 305.86 18.99C304.37 19.17 302.91 19.22 301.6 18.81C301.6 18.77 301.62 18.73 301.63 18.69C303.04 18.79 304.44 18.89 305.85 18.99C305.98 18.99 306.11 18.99 306.43 18.99C306.16 18.9 306.02 18.86 305.89 18.82C305.91 18.79 305.93 18.76 305.95 18.74C306.59 18.8 307.23 18.87 307.87 18.94C307.88 18.9 307.9 18.86 307.91 18.82C306.74 18.76 305.56 18.7 304.34 18.64C304.57 18.6 304.77 18.57 304.98 18.54C304.9 18.49 304.83 18.45 304.84 18.46C305.99 18.38 307.13 18.3 308.26 18.22C308.27 18.24 308.28 18.26 308.29 18.28C308.06 18.31 307.82 18.34 307.6 18.37C309.83 18.47 312.04 18.55 314.39 18.31C313.49 18.22 312.81 18.15 312.11 18.08C312.14 18.03 312.17 17.98 312.19 17.93C313.03 17.91 313.86 17.92 314.56 18.17C314.97 18.32 315.15 18.31 315.74 18.17C315.86 18.13 316.09 18.17 316.27 18.17C316.52 18.18 316.77 18.19 317.03 18.2C317.04 18.16 317.06 18.12 317.07 18.07C315.74 17.97 314.4 17.88 313.08 17.78C313.08 17.76 313.09 17.73 313.09 17.71C313.8 17.74 314.53 17.81 315.22 17.77C315.95 17.74 316.64 17.6 317.32 17.43C315.22 17.39 313.15 17.69 311.08 17.38C312.98 17.29 314.89 17.2 316.7 17.11C317.31 17.05 317.85 17 318.38 16.94C318.38 16.93 318.38 16.91 318.38 16.9C316.37 16.94 314.37 16.99 312.35 17.03C312.34 16.97 312.34 16.92 312.33 16.86C317.4 16.69 322.49 16.52 327.59 16.34C326.77 16.18 325.95 16.14 325.01 16.21C324.27 16.27 323.46 16.19 322.56 16.17C322.8 16.12 322.94 16.09 323.14 16.05C322.91 16 322.71 15.96 322.45 15.91C323.49 15.86 324.46 15.8 325.44 15.76C325.44 15.74 325.44 15.72 325.43 15.7C324.8 15.7 324.17 15.7 323.54 15.7C323.54 15.66 323.54 15.63 323.54 15.59C324.94 15.59 326.35 15.6 327.75 15.59C328.53 15.59 329.32 15.56 330.1 15.57C330.59 15.57 331.09 15.66 331.58 15.65C332.64 15.63 333.69 15.57 334.76 15.53L334.74 15.54C334.32 15.5 333.92 15.48 333.51 15.44C333.37 15.43 333.21 15.42 333.09 15.33C334.39 15.29 335.69 15.25 336.99 15.22C336.99 15.18 337 15.14 337 15.11C333.37 14.88 329.7 14.87 326.01 14.88C326.28 14.9 326.56 14.93 326.84 14.95C326.85 14.97 326.85 14.99 326.86 15C326.65 15.01 326.45 15.02 326.25 15.02C324.86 15.04 323.48 15.06 322.1 15.09C321.56 15.11 321.04 15.18 320.5 15.19C319.93 15.2 319.79 15.06 320.01 14.78C319.3 14.85 318.68 14.92 318.2 14.97C318.61 15.01 319.14 15.05 319.66 15.1C319.65 15.14 319.64 15.18 319.63 15.21C316.97 15.26 314.31 15.31 311.66 15.36C311.65 15.33 311.65 15.31 311.64 15.29C312.97 15.24 314.29 15.18 315.62 15.12C315.62 15.08 315.62 15.05 315.62 15.01C313.53 14.98 311.44 14.96 309.36 14.93C309.37 14.92 309.37 14.9 309.38 14.88C310.77 14.81 312.17 14.71 313.56 14.67C314.27 14.64 315.01 14.71 315.72 14.7C317.02 14.66 318.32 14.56 319.62 14.54C320.96 14.51 322.3 14.54 323.65 14.55C324.11 14.55 324.57 14.55 325.29 14.55C324.95 14.45 324.82 14.42 324.69 14.38C324.69 14.36 324.69 14.33 324.69 14.3C326.45 14.3 328.2 14.3 329.96 14.3C329.96 14.26 329.96 14.21 329.97 14.16C327.72 14.09 325.47 14.01 323.07 13.92C323.71 13.85 324.17 13.78 324.65 13.76C325.21 13.73 325.75 13.75 326.35 13.82C327.14 13.92 328.09 13.8 328.96 13.76C329.53 13.73 330.09 13.64 330.66 13.64C331.65 13.63 332.65 13.64 333.65 13.67C334.21 13.68 334.77 13.73 335.35 13.69C335.19 13.67 335.02 13.64 334.86 13.62C334.86 13.6 334.86 13.58 334.85 13.56C335.44 13.52 336.05 13.49 336.64 13.45C336.65 13.42 336.65 13.39 336.66 13.36C334.97 13.29 333.3 13.19 331.62 13.15C330.79 13.13 329.94 13.23 329.1 13.23C327.48 13.24 325.85 13.21 324.22 13.2C324.02 13.2 323.81 13.25 323.61 13.25C323.36 13.25 323.11 13.22 322.99 13.21C322.32 13.25 321.7 13.35 321.15 13.31C319.98 13.22 318.95 13.45 317.84 13.48C317.47 13.49 317.02 13.57 316.75 13.5C315.4 13.19 313.93 13.3 312.5 13.23C311.4 13.19 310.26 13.22 309.14 13.21C308.55 13.2 307.98 13.16 307.4 13.14C307.04 13.16 306.69 13.21 306.34 13.21C305.63 13.22 304.92 13.2 304.23 13.21C302.13 13.22 300.04 13.26 297.95 13.26C297.14 13.26 296.3 13.24 295.57 12.94C296.22 12.95 296.76 12.96 297.41 12.97C297.23 12.87 297.16 12.82 296.92 12.69C298.41 12.82 299.66 12.92 301.01 13.04C300.99 13.05 301.12 12.97 301.28 12.96C301.91 12.94 302.54 12.91 303.18 12.93C304.61 12.97 306.02 13.05 307.44 13.13ZM179.09 3.14C179.25 3.24 179.41 3.33 179.64 3.46C178.86 3.41 178.17 3.37 177.39 3.33C178.05 3.26 178.57 3.2 179.09 3.14C179.18 3.14 179.26 3.12 179.53 3.1C178.94 3.04 178.51 3 178.09 2.96C178.55 2.91 179.03 2.94 179.42 2.88C180.12 2.76 180.52 2.96 181.01 3.07C181.2 3.11 181.41 3.15 181.6 3.19C181.45 3.1 181.31 3.01 181.15 2.91C181.2 2.89 181.27 2.87 181.32 2.85C181.99 2.61 182.44 2.65 183 2.94C183.2 3.05 183.55 3.11 183.82 3.18C183.11 3.18 182.35 3.18 181.58 3.18C181.45 3.4 180.84 3.52 180.51 3.34C180.06 3.1 179.55 3.2 179.09 3.14ZM291.09 10.61C290.52 10.94 289.88 10.67 289.24 10.63C289.29 10.7 289.32 10.74 289.36 10.79C289.24 10.78 289.1 10.79 289 10.77C288.74 10.72 288.48 10.62 288.22 10.62C287.21 10.61 286.19 10.64 285.17 10.64C285.03 10.64 284.89 10.6 284.75 10.58C285.6 10.51 286.47 10.57 287.21 10.46C288.27 10.31 289.23 10.5 290.24 10.49C290.55 10.48 290.87 10.56 291.18 10.6C291.99 10.62 292.8 10.64 293.61 10.65C293.61 10.68 293.6 10.71 293.6 10.74C292.89 10.74 292.18 10.75 291.47 10.74C291.34 10.73 291.21 10.65 291.09 10.61ZM118.54 1.6C118.24 1.63 117.92 1.65 117.64 1.7C117.51 1.72 117.44 1.8 117.23 1.9C116.45 1.86 115.49 1.81 114.52 1.77C114.53 1.74 114.53 1.72 114.54 1.7C115.2 1.7 115.86 1.7 116.72 1.7C116.4 1.65 116.28 1.63 116.11 1.6C116.97 1.39 117.75 1.53 118.54 1.6C118.99 1.52 119.43 1.45 119.98 1.35C117.46 1.35 115.09 1.35 112.72 1.35C112.72 1.32 112.72 1.28 112.72 1.25C115.77 1.25 118.82 1.25 121.87 1.25C121.87 1.27 121.87 1.29 121.87 1.31C121.3 1.33 120.72 1.35 120.14 1.37C120.14 1.4 120.14 1.42 120.14 1.45C120.45 1.47 120.77 1.5 121.08 1.52C121.08 1.55 121.08 1.57 121.07 1.6C120.22 1.6 119.37 1.6 118.54 1.6ZM84.8 1.62C84.78 1.59 84.77 1.55 84.75 1.51C85 1.49 85.24 1.44 85.5 1.43C87.07 1.36 88.65 1.28 90.22 1.22C91.01 1.19 91.8 1.18 92.59 1.19C94.14 1.22 95.69 1.26 97.23 1.3C97.71 1.31 98.18 1.3 98.66 1.3C97.83 1.35 97 1.39 96.17 1.43C95.63 1.46 94.93 1.44 94.57 1.57C94.14 1.74 93.78 1.69 93.36 1.69C93.02 1.69 92.68 1.69 92.33 1.69C91.35 1.69 90.36 1.7 89.38 1.69C89.17 1.68 88.99 1.56 88.74 1.46C87.58 1.83 86.16 1.54 84.8 1.62ZM254 3.72C253.96 3.73 254.12 3.63 254.22 3.64C254.93 3.7 255.76 3.71 256.29 3.88C257.15 4.15 257.92 4.21 258.7 4.03C259.05 4.13 259.32 4.21 259.67 4.31C259.75 4.18 259.8 4.1 259.82 4.08C261.79 4.08 263.7 4.08 265.68 4.08C266.35 4.32 267.3 4.31 268.23 4.34C268.48 4.35 268.73 4.34 268.99 4.34C268.99 4.37 268.99 4.39 268.99 4.42C268.65 4.44 268.32 4.48 267.98 4.48C266.68 4.45 265.4 4.4 264.11 4.38C262.6 4.36 261.1 4.38 259.6 4.35C258.1 4.31 256.6 4.23 255.1 4.16C254.96 4.15 254.79 4.13 254.69 4.09C254.49 3.99 254.31 3.89 254 3.72ZM73.33 1.85C69.67 1.85 66.08 1.85 62.5 1.85C62.5 1.8 62.49 1.74 62.49 1.69C64.17 1.65 65.83 1.59 67.5 1.57C68.69 1.56 69.87 1.63 71.05 1.6C71.86 1.58 72.62 1.53 73.33 1.85ZM18.17 1.79C18.17 1.76 18.16 1.72 18.16 1.69C19.3 1.62 20.44 1.53 21.6 1.51C22.56 1.49 23.54 1.55 24.5 1.55C25.27 1.55 26.02 1.52 26.56 1.5C26.87 1.64 27.04 1.73 27.18 1.79C25.98 1.99 24.72 1.67 23.4 1.92C22.57 2.07 21.41 1.91 20.39 1.9C20.39 1.86 20.39 1.82 20.39 1.77C20.97 1.74 21.55 1.7 22.19 1.67C20.76 1.47 19.52 1.96 18.17 1.79ZM295.07 12.8C295.03 12.84 294.99 12.88 294.96 12.91C294.6 12.82 294.25 12.69 293.86 12.66C293.43 12.63 292.97 12.71 292.49 12.74C292.37 12.67 292.22 12.58 292.06 12.49C292.05 12.52 292.04 12.56 292.03 12.59C291.52 12.64 291.01 12.7 290.5 12.73C290.13 12.74 289.6 12.63 289.39 12.71C288.7 12.94 288.2 12.73 287.63 12.63C287.99 12.61 288.35 12.59 288.89 12.57C288.6 12.51 288.48 12.49 288.16 12.42C289.89 12.42 291.37 12.42 292.87 12.42C293.1 12.42 293.36 12.42 293.58 12.4C294.17 12.33 294.65 12.37 295.02 12.63C294.89 12.66 294.76 12.68 294.6 12.72C294.77 12.75 294.92 12.77 295.07 12.8ZM87.93 3.1C88.38 3.05 88.75 2.99 89.13 2.98C90.41 2.96 91.67 2.66 92.98 2.94C93.08 2.97 93.34 2.95 93.35 2.93C93.5 2.7 93.95 2.81 94.25 2.8C94.84 2.79 95.43 2.79 96 2.82C96.31 2.84 96.6 2.94 96.9 3C96.87 3.03 96.83 3.07 96.8 3.1C93.88 3.1 90.95 3.1 87.93 3.1ZM27.32 1.57C29.57 1.57 31.87 1.57 34.15 1.57C34.15 1.62 34.16 1.67 34.16 1.72C33.86 1.73 33.57 1.75 33.27 1.76C32.88 1.77 32.5 1.77 32.11 1.78C31.69 1.79 31.27 1.83 30.83 1.84C30.2 1.86 29.56 1.87 28.93 1.87C28.28 1.87 27.66 1.81 27.32 1.57ZM163.64 2.58C163.64 2.6 163.64 2.63 163.64 2.65C163.41 2.69 163.13 2.7 162.96 2.77C162.66 2.89 162.7 2.9 162.48 2.77C162.4 2.73 162.2 2.68 162.14 2.7C160.98 2.97 159.83 2.68 158.71 2.65C158.02 2.63 157.26 2.53 156.5 2.5C156.22 2.49 155.95 2.46 155.67 2.44C155.68 2.42 155.69 2.4 155.7 2.38C157.22 2.38 158.73 2.38 160.27 2.38C160.25 2.42 160.22 2.49 160.19 2.58C161.39 2.58 162.51 2.58 163.64 2.58ZM75.03 3.15C75.05 3.2 75.07 3.23 75.08 3.27C72.97 3.45 70.82 3.47 68.64 3.4C69.22 3.28 69.81 3.2 70.41 3.14C70.57 3.12 70.83 3.14 70.93 3.18C71.32 3.38 71.65 3.32 72.02 3.18C72.12 3.14 72.28 3.1 72.41 3.1C73.29 3.11 74.15 3.14 75.03 3.15ZM23.37 3.51C23.38 3.51 23.38 3.52 23.39 3.53C20.9 3.66 18.43 3.79 15.95 3.93C16.12 3.79 16.36 3.69 16.62 3.67C17.8 3.6 18.98 3.54 20.17 3.51C21.22 3.49 22.29 3.51 23.37 3.51ZM289.34 11.84C289.35 11.81 289.36 11.78 289.37 11.75C289.81 11.74 290.28 11.67 290.7 11.71C291.24 11.75 291.81 11.71 292.3 11.92C292.59 12.04 293.24 12.04 293.72 12.02C294.32 12.01 294.44 12.01 294.77 12.3C293.09 12.19 291.5 12.09 289.92 11.99C289.92 11.98 289.92 11.97 289.93 11.95C290.46 11.95 290.99 11.95 291.51 11.95C291.51 11.94 291.51 11.92 291.52 11.91C290.79 11.88 290.06 11.86 289.34 11.84ZM19.47 3.39C19.46 3.36 19.44 3.33 19.44 3.3C20.91 3.22 22.38 3.15 23.89 3.07C23.81 3.48 24.62 3.27 25.08 3.39C23.14 3.39 21.31 3.39 19.47 3.39ZM123.95 1.68C123.98 1.7 124.01 1.73 124.05 1.76C123.58 1.79 123.11 1.81 122.68 1.83C123.12 1.27 124.29 1.41 125.18 1.38C126.14 1.35 127.25 1.16 128.13 1.56C127.88 1.59 127.6 1.6 127.38 1.56C126.35 1.38 125.32 1.51 124.28 1.53C124.16 1.53 124.06 1.63 123.95 1.68ZM34.11 2.03C32.42 2.18 30.73 2.41 29.15 2.05C30.73 2.06 32.41 1.83 34.11 2.03ZM289.26 11.86C289.28 11.89 289.31 11.91 289.33 11.94C289.23 11.98 289.13 12.01 289.01 12.06C289.16 12.08 289.3 12.09 289.33 12.1C289.25 12.17 289.15 12.24 289.04 12.33C288.1 12.22 287.04 12.1 285.94 11.97C287.03 11.67 288.18 12.06 289.26 11.86ZM104.29 2.02C104.29 1.99 104.28 1.95 104.28 1.93C104.69 1.93 105.12 1.93 105.53 1.93C106.4 1.9 107.31 1.91 108.15 1.83C108.75 1.78 108.85 1.76 109.03 2.04C107.45 2.07 105.86 2.17 104.29 2.02ZM141.49 1.9C140.53 1.87 139.74 1.84 138.98 1.82C138.98 1.76 138.98 1.69 138.98 1.63C139.48 1.66 139.92 1.69 140.6 1.73C140.29 1.64 140.19 1.62 140.03 1.57C141.41 1.54 142.71 1.51 144 1.48C144 1.5 144.01 1.53 144.01 1.55C143.03 1.62 142.04 1.69 140.96 1.76C141.14 1.81 141.24 1.84 141.49 1.9ZM56.83 1.77C56.82 1.73 56.81 1.69 56.8 1.65C58.26 1.61 59.73 1.56 61.18 1.52C61.19 1.55 61.2 1.59 61.21 1.62C59.8 1.88 58.29 1.7 56.83 1.77ZM167.17 2.28C168.19 2.13 169.14 1.92 170.17 2.22C169.98 2.45 169.47 2.46 169.01 2.44C168.41 2.41 167.82 2.34 167.17 2.28ZM291.76 6.79C291.55 7.06 288.9 7.05 287.51 6.79C288.95 6.79 290.32 6.79 291.76 6.79ZM163.56 2.38C164.64 2.31 165.76 2.24 166.83 2.46C165.71 2.53 164.57 2.79 163.56 2.38ZM296.36 7.65C295.41 7.85 294.71 7.62 294 7.39C294.35 7.38 294.7 7.42 295.05 7.44C295.2 7.44 295.35 7.37 295.52 7.35C295.75 7.31 296.01 7.29 296.25 7.27C296.3 7.27 296.37 7.31 296.47 7.34C296.31 7.41 296.17 7.46 296.02 7.52C296.16 7.57 296.26 7.61 296.36 7.65ZM96.22 2.11C96.18 2.08 96.15 2.04 96.11 2C95.21 1.91 94.24 2.02 93.34 1.91C94.56 1.87 95.78 1.82 97 1.77C97.04 1.81 97.07 1.85 97.11 1.88C96.82 1.96 96.52 2.04 96.22 2.11ZM80.65 1.94C80.65 1.92 80.65 1.9 80.64 1.89C81.19 1.87 81.73 1.84 82.28 1.83C82.82 1.82 83.38 1.83 83.93 1.83C83.89 1.83 83.76 1.85 83.55 1.88C83.87 1.96 84.05 2.01 84.37 2.08C83 2.03 81.83 1.98 80.65 1.94ZM99.61 2.85C98.63 3.08 97.68 3.05 97.37 2.85C98.13 2.85 98.87 2.85 99.61 2.85ZM319.37 15.87C320.99 15.68 321.95 15.7 322.21 15.98C321.25 15.94 320.32 15.91 319.37 15.87ZM283.77 12.84C283.76 12.89 283.75 12.95 283.74 12.99C282.65 12.93 281.56 12.87 280.47 12.81C280.88 12.75 281.28 12.74 281.68 12.75C282.07 12.77 282.46 12.81 282.84 12.82C283.15 12.84 283.46 12.84 283.77 12.84ZM41.15 2.29C41.14 2.32 41.14 2.36 41.13 2.39C40.29 2.56 39.59 2.33 38.82 2.27C38.84 2.22 38.85 2.18 38.87 2.14C39.64 2.19 40.39 2.24 41.15 2.29ZM221.52 2.9C222.32 2.9 223.12 2.9 224.14 2.9C223.21 3.11 223.21 3.11 221.52 2.9ZM68.66 2.17C69.66 1.93 70.12 1.95 70.77 2.27C70.05 2.23 69.4 2.2 68.66 2.17ZM291.71 10.15C292.42 10.15 293.06 10.15 293.72 10.15C293.5 10.43 292.71 10.43 291.71 10.15ZM34.33 1.7C35.25 1.67 35.95 1.65 36.75 1.63C36.01 2.01 35.28 1.84 34.33 1.7ZM289.98 21.88C289.98 21.9 289.98 21.93 289.98 21.95C289.3 21.95 288.62 21.95 287.93 21.95C287.96 21.92 288 21.86 288.04 21.82C288.7 21.84 289.34 21.86 289.98 21.88ZM102.31 1.66C102.33 1.69 102.35 1.72 102.37 1.75C101.39 1.8 100.42 1.86 99.44 1.92C99.43 1.9 99.43 1.87 99.42 1.85C100.38 1.79 101.34 1.73 102.31 1.66ZM294.15 7.66C293.21 7.66 292.35 7.66 291.32 7.66C292.35 7.55 293.21 7.47 294.15 7.66ZM99.22 3.27C98.54 3.37 98.04 3.45 97.52 3.52C97.46 3.52 97.32 3.43 97.21 3.38C97.32 3.34 97.42 3.28 97.54 3.27C98.01 3.26 98.48 3.27 99.22 3.27ZM252.84 3.46C252.81 3.48 252.79 3.51 252.76 3.53C252.2 3.48 251.64 3.43 251.17 3.39C251.26 3.3 251.33 3.23 251.45 3.14C251.87 3.23 252.36 3.35 252.84 3.46Z" fill="url(#paint_linear_6249_14333_0)" fill-opacity="1.000000" fill-rule="nonzero"/>
</svg>
