<svg width="128" height="24" viewBox="0 0 128 24" fill="none" xmlns="http://www.w3.org/2000/svg">
<g clip-path="url(#clip0_6301_9394)">
<path opacity="0.8" d="M45.2805 13.4551H47.1374V15.1263C47.1711 15.1375 47.2049 15.1488 47.2387 15.16C47.4975 15.2726 47.7789 15.3682 48.0827 15.447C48.3978 15.5145 48.7298 15.5483 49.0787 15.5483C49.7089 15.5483 50.1984 15.4245 50.5473 15.1769C50.8962 14.9181 51.0706 14.5748 51.0706 14.1472C51.0706 13.7646 50.9243 13.4551 50.6317 13.2187C50.3504 12.9824 49.9959 12.7742 49.5682 12.5942C49.1518 12.4141 48.6904 12.234 48.184 12.054C47.6888 11.8739 47.2274 11.6488 46.7998 11.3787C46.3834 11.0974 46.0289 10.7485 45.7363 10.3321C45.4549 9.91572 45.3142 9.37553 45.3142 8.71155C45.3142 8.20512 45.4099 7.74371 45.6012 7.32732C45.8038 6.89967 46.0795 6.53392 46.4284 6.23006C46.7885 5.9262 47.2162 5.68987 47.7113 5.52106C48.2065 5.35225 48.7579 5.26785 49.3657 5.26785C50.0521 5.26785 50.7274 5.32975 51.3914 5.45354C52.0553 5.57733 52.5843 5.74614 52.9782 5.95997V9.38678H51.1213V7.51301C51.0875 7.51301 51.0537 7.50738 51.02 7.49613C50.7724 7.4286 50.5023 7.37796 50.2097 7.3442C49.9284 7.29918 49.647 7.27667 49.3657 7.27667C48.8255 7.27667 48.3978 7.38359 48.0827 7.59741C47.7789 7.81124 47.6269 8.09821 47.6269 8.45834C47.6269 8.82972 47.7676 9.13357 48.049 9.3699C48.3416 9.60624 48.6961 9.82006 49.1124 10.0114C49.5401 10.2027 50.0015 10.394 50.4967 10.5853C51.0031 10.7766 51.4645 11.013 51.8809 11.2943C52.3086 11.5644 52.6631 11.9077 52.9444 12.3241C53.237 12.7405 53.3833 13.2638 53.3833 13.894C53.3833 14.5017 53.2708 15.0363 53.0457 15.4977C52.8206 15.9478 52.5055 16.3305 52.1004 16.6456C51.6952 16.9494 51.2169 17.1745 50.6655 17.3208C50.114 17.4784 49.5176 17.5571 48.8761 17.5571C48.4485 17.5571 48.049 17.5234 47.6776 17.4558C47.3174 17.3883 46.9798 17.3039 46.6647 17.2026C46.3609 17.1013 46.0908 16.9944 45.8544 16.8819C45.6181 16.7694 45.4268 16.6737 45.2805 16.5949V13.4551ZM60.1828 8.88036H63.3226V14.7549C63.3226 14.9912 63.3226 15.2276 63.3226 15.4639H64.6056V17.3208H61.9384L61.5501 16.0716H61.4826C61.2238 16.4993 60.8355 16.8538 60.3178 17.1351C59.8001 17.4165 59.2262 17.5571 58.596 17.5571C58.1683 17.5571 57.7744 17.5009 57.4143 17.3883C57.0654 17.2758 56.7672 17.0901 56.5196 16.8313C56.272 16.5724 56.0807 16.2235 55.9457 15.7846C55.8106 15.3457 55.7431 14.7943 55.7431 14.1303V10.7373H54.7809V8.88036H57.9376V13.6745C57.9376 14.361 58.0445 14.8562 58.2584 15.16C58.4834 15.4639 58.8323 15.6158 59.305 15.6158C59.7214 15.6158 60.0927 15.492 60.4191 15.2445C60.7567 14.9969 60.9931 14.693 61.1281 14.3329V10.7373H60.1828V8.88036ZM65.041 8.88036H67.9107L68.1639 9.89321H68.2314C68.8166 9.06042 69.762 8.64403 71.0674 8.64403C71.5851 8.64403 72.0578 8.72843 72.4854 8.89724C72.9243 9.05479 73.2957 9.30801 73.5996 9.65688C73.9147 10.0058 74.1566 10.4447 74.3254 10.9736C74.4942 11.5025 74.5787 12.1384 74.5787 12.8811C74.5787 13.6014 74.483 14.2541 74.2917 14.8393C74.1004 15.4133 73.8246 15.9028 73.4645 16.3079C73.1044 16.7131 72.6655 17.0226 72.1478 17.2364C71.6301 17.4502 71.0393 17.5571 70.3753 17.5571C70.0264 17.5571 69.6832 17.529 69.3456 17.4727C69.008 17.4277 68.7266 17.3489 68.5015 17.2364V20.697H66.307V10.7373H65.041V8.88036ZM70.4091 10.5009C69.9814 10.5009 69.5875 10.6078 69.2274 10.8217C68.8785 11.0355 68.6366 11.3562 68.5015 11.7839V15.2951C68.6591 15.4189 68.8842 15.5202 69.1768 15.599C69.4806 15.6665 69.7845 15.7002 70.0883 15.7002C70.4034 15.7002 70.696 15.6496 70.9661 15.5483C71.2362 15.4358 71.4726 15.2613 71.6751 15.025C71.8777 14.7887 72.0353 14.4904 72.1478 14.1303C72.2603 13.7702 72.3166 13.3369 72.3166 12.8305C72.3166 12.0877 72.1365 11.5138 71.7764 11.1086C71.4163 10.7035 70.9605 10.5009 70.4091 10.5009ZM84.4842 16.4261C84.3379 16.5612 84.1466 16.6962 83.9103 16.8313C83.6852 16.955 83.4151 17.0732 83.1 17.1858C82.7961 17.2983 82.4585 17.3883 82.0871 17.4558C81.7157 17.5234 81.3219 17.5571 80.9055 17.5571C80.1852 17.5571 79.5381 17.4558 78.9642 17.2533C78.4015 17.0507 77.9232 16.7581 77.5293 16.3755C77.1354 15.9816 76.8315 15.5145 76.6177 14.9744C76.4151 14.4229 76.3139 13.7983 76.3139 13.1006C76.3139 12.3578 76.432 11.7107 76.6684 11.1593C76.9047 10.5966 77.2254 10.1295 77.6306 9.75816C78.047 9.38678 78.5309 9.11106 79.0823 8.931C79.6338 8.73968 80.2302 8.64403 80.8717 8.64403C81.2993 8.64403 81.7382 8.7003 82.1884 8.81284C82.6498 8.92537 83.0718 9.12232 83.4545 9.40367C83.8371 9.67376 84.1466 10.0395 84.3829 10.5009C84.6305 10.9623 84.7543 11.5475 84.7543 12.2565C84.7543 12.7405 84.698 13.2638 84.5855 13.8265H78.5084C78.5196 14.1866 78.5928 14.4904 78.7278 14.738C78.8741 14.9856 79.0598 15.1882 79.2849 15.3457C79.5212 15.5033 79.7857 15.6215 80.0783 15.7002C80.3822 15.7678 80.7029 15.8015 81.0405 15.8015C81.7157 15.8015 82.2672 15.7227 82.6948 15.5652C83.1337 15.4076 83.4882 15.2163 83.7583 14.9912L84.4842 16.4261ZM80.8379 10.3996C80.5453 10.3996 80.2696 10.439 80.0108 10.5178C79.7519 10.5966 79.5156 10.7147 79.3018 10.8723C79.0992 11.0186 78.9304 11.2043 78.7953 11.4294C78.6603 11.6545 78.5815 11.9077 78.559 12.189H82.7117C82.7117 11.6376 82.5542 11.2043 82.239 10.8892C81.9352 10.5628 81.4682 10.3996 80.8379 10.3996ZM86.557 15.4639H88.6503V10.7373H86.557V8.88036H90.3552L90.6084 9.9945H90.676C90.9911 9.62312 91.3512 9.31363 91.7563 9.06605C92.1615 8.81846 92.6341 8.69467 93.1743 8.69467C93.8496 8.69467 94.3785 8.94225 94.7611 9.43743C95.155 9.9326 95.352 10.7598 95.352 11.9189H93.3769C93.3769 11.5138 93.315 11.2212 93.1912 11.0411C93.0787 10.8498 92.893 10.7541 92.6341 10.7541C92.184 10.7541 91.8182 10.8667 91.5369 11.0918C91.2668 11.3168 91.0361 11.5757 90.8448 11.8683V15.4639H94.5079V17.3208H86.557V15.4639ZM101.493 5.50418H105.021V12.7967C105.021 13.6408 105.066 14.4736 105.156 15.2951C105.156 15.3514 105.162 15.4076 105.173 15.4639H106.253V17.3208H103.536L103.316 16.2404H103.249C103.136 16.443 102.984 16.6231 102.793 16.7806C102.602 16.9382 102.388 17.0788 102.151 17.2026C101.915 17.3152 101.656 17.3996 101.375 17.4558C101.094 17.5234 100.812 17.5571 100.531 17.5571C100.002 17.5571 99.5011 17.4727 99.0285 17.3039C98.5671 17.1351 98.1619 16.8763 97.8131 16.5274C97.4642 16.1673 97.1885 15.7171 96.9859 15.1769C96.7833 14.6255 96.682 13.9784 96.682 13.2356C96.682 12.5154 96.7889 11.8739 97.0028 11.3112C97.2279 10.7485 97.5317 10.2758 97.9143 9.89321C98.3082 9.49932 98.7696 9.2011 99.2986 8.99852C99.8275 8.7847 100.407 8.67779 101.037 8.67779C101.386 8.67779 101.713 8.7003 102.016 8.74531C102.332 8.77907 102.602 8.84097 102.827 8.931V7.36108H101.493V5.50418ZM101.037 15.7002C101.465 15.7002 101.842 15.599 102.168 15.3964C102.506 15.1826 102.725 14.8787 102.827 14.4848V10.9061C102.669 10.7823 102.45 10.6922 102.168 10.636C101.898 10.5684 101.611 10.5347 101.307 10.5347C101.004 10.5347 100.705 10.5853 100.413 10.6866C100.131 10.7879 99.8782 10.9511 99.6531 11.1762C99.4392 11.39 99.2648 11.6713 99.1298 12.0202C99.006 12.3691 98.9441 12.7967 98.9441 13.3032C98.9441 14.0234 99.1241 14.603 99.4843 15.0419C99.8444 15.4808 100.362 15.7002 101.037 15.7002ZM108.276 9.45431C108.726 9.25174 109.244 9.0773 109.829 8.931C110.425 8.7847 111.129 8.71155 111.939 8.71155C112.524 8.71155 113.019 8.7847 113.424 8.931C113.841 9.06605 114.173 9.26299 114.42 9.52183C114.679 9.78067 114.865 10.0902 114.977 10.4503C115.09 10.8104 115.146 11.2155 115.146 11.6657C115.146 12.2397 115.124 12.7292 115.079 13.1343C115.045 13.5395 115.028 13.8996 115.028 14.2147C115.028 14.4511 115.039 14.7155 115.062 15.0081C115.084 15.1657 115.101 15.3176 115.112 15.4639H116.21V17.3208H113.407L113.188 16.1729H113.104C112.879 16.5218 112.558 16.8256 112.141 17.0845C111.725 17.3321 111.162 17.4558 110.453 17.4558C109.609 17.4558 108.94 17.2308 108.444 16.7806C107.949 16.3305 107.702 15.734 107.702 14.9912C107.702 14.5186 107.786 14.1134 107.955 13.7758C108.135 13.4269 108.388 13.1456 108.715 12.9318C109.052 12.7067 109.452 12.5435 109.913 12.4422C110.386 12.3297 110.909 12.2734 111.483 12.2734C111.686 12.2734 111.899 12.2847 112.125 12.3072C112.35 12.3297 112.625 12.3522 112.952 12.3747C112.974 12.2622 112.985 12.1496 112.985 12.0371V11.7163C112.985 11.2887 112.862 10.9848 112.614 10.8048C112.366 10.6135 112.001 10.5178 111.517 10.5178C110.943 10.5178 110.425 10.591 109.964 10.7373C109.502 10.8836 109.114 11.0299 108.799 11.1762L108.276 9.45431ZM111.162 15.6496C111.703 15.6496 112.108 15.5539 112.378 15.3626C112.648 15.16 112.845 14.9462 112.969 14.7211V13.7083C112.856 13.6858 112.687 13.6633 112.462 13.6408C112.237 13.607 111.995 13.5901 111.736 13.5901C111.522 13.5901 111.309 13.6126 111.095 13.6576C110.881 13.6914 110.69 13.7533 110.521 13.8433C110.352 13.9221 110.217 14.029 110.116 14.1641C110.014 14.2991 109.964 14.4623 109.964 14.6536C109.964 14.9687 110.054 15.2163 110.234 15.3964C110.425 15.5652 110.735 15.6496 111.162 15.6496ZM117.776 13.1006C117.776 12.3916 117.883 11.7614 118.097 11.2099C118.311 10.6585 118.615 10.1914 119.008 9.80881C119.402 9.42617 119.869 9.1392 120.41 8.94788C120.961 8.74531 121.574 8.64403 122.25 8.64403C122.959 8.64403 123.589 8.75094 124.14 8.96476C124.703 9.17859 125.176 9.48244 125.558 9.87633C125.941 10.259 126.228 10.726 126.419 11.2774C126.622 11.8289 126.723 12.4366 126.723 13.1006C126.723 13.8096 126.616 14.4398 126.402 14.9912C126.188 15.5427 125.885 16.0097 125.491 16.3924C125.097 16.775 124.624 17.0676 124.073 17.2702C123.532 17.4615 122.925 17.5571 122.25 17.5571C121.541 17.5571 120.905 17.4502 120.342 17.2364C119.791 17.0226 119.324 16.7243 118.941 16.3417C118.558 15.9478 118.266 15.4752 118.063 14.9237C117.872 14.3723 117.776 13.7646 117.776 13.1006ZM120.038 13.1006C120.038 13.472 120.089 13.8152 120.19 14.1303C120.291 14.4454 120.438 14.7211 120.629 14.9575C120.82 15.1938 121.051 15.3795 121.321 15.5145C121.591 15.6383 121.901 15.7002 122.25 15.7002C122.902 15.7002 123.431 15.492 123.836 15.0756C124.253 14.6592 124.461 14.0009 124.461 13.1006C124.461 12.3241 124.27 11.6995 123.887 11.2268C123.504 10.7429 122.959 10.5009 122.25 10.5009C121.934 10.5009 121.642 10.5516 121.372 10.6529C121.102 10.7429 120.865 10.8948 120.663 11.1086C120.471 11.3225 120.319 11.5926 120.207 11.9189C120.094 12.2453 120.038 12.6392 120.038 13.1006Z" fill="black"/>
<path opacity="0.6" d="M26.2634 5.52893L28.2578 13.8553C28.4764 14.7679 27.7846 15.645 26.8462 15.645H8.85853C7.14504 15.645 5.61388 14.575 5.02485 12.9659L4.86147 12.5196C4.77479 12.2828 4.95009 12.032 5.20225 12.032H16.9496C17.0887 12.032 17.2014 11.9192 17.2014 11.7801C17.2014 10.7368 16.3556 9.89096 15.3123 9.89096H6.75214C5.03865 9.89096 3.50749 8.82095 2.91846 7.21188L2.77141 6.81019C2.68473 6.57339 2.86002 6.32255 3.11218 6.32255H14.2733C14.4124 6.32255 14.5251 6.20978 14.5251 6.07067C14.5251 5.02732 13.6793 4.18151 12.636 4.18151H4.66208C2.94858 4.18151 1.41743 3.1115 0.828392 1.50243L0.697674 1.14535C0.610991 0.908555 0.786284 0.657715 1.03845 0.657715H20.0875C23.025 0.657715 25.5791 2.67228 26.2634 5.52893Z" fill="black"/>
<path d="M33.3252 8.00723L36.1223 20.0198C36.3343 20.9301 35.6433 21.8005 34.7086 21.8005H15.9473C14.1704 21.8005 12.5975 20.6511 12.0577 18.9582L11.8676 18.3619C11.7557 18.0108 12.0177 17.6522 12.3862 17.6522H29.5179C30.4578 17.6522 31.1498 16.7726 30.9287 15.8591L28.4263 5.523C28.3434 5.18044 28.6029 4.85059 28.9554 4.85059H29.3491C31.2471 4.85059 32.8948 6.15866 33.3252 8.00723Z" fill="black"/>
</g>
<defs>
<clipPath id="clip0_6301_9394">
<rect width="127.2" height="24" fill="white"/>
</clipPath>
</defs>
</svg>
