<svg width="134" height="134" viewBox="0 0 134 134" fill="none" xmlns="http://www.w3.org/2000/svg">
<path d="M17.0949 93.1673H19.4197V95.2596C19.462 95.2737 19.5043 95.2878 19.5466 95.3019C19.8706 95.4428 20.2229 95.5626 20.6033 95.6612C20.9978 95.7458 21.4135 95.788 21.8503 95.788C22.6393 95.788 23.2522 95.633 23.689 95.3231C24.1258 94.999 24.3442 94.5692 24.3442 94.0338C24.3442 93.5548 24.161 93.1673 23.7947 92.8714C23.4425 92.5755 22.9986 92.3148 22.4632 92.0894C21.9419 91.8639 21.3642 91.6385 20.7301 91.4131C20.1102 91.1876 19.5325 90.9058 18.997 90.5677C18.4757 90.2154 18.0319 89.7786 17.6655 89.2573C17.3133 88.736 17.1372 88.0596 17.1372 87.2283C17.1372 86.5943 17.2569 86.0166 17.4965 85.4953C17.7501 84.9598 18.0953 84.5019 18.5321 84.1215C18.983 83.741 19.5184 83.4452 20.1383 83.2338C20.7583 83.0225 21.4487 82.9168 22.2096 82.9168C23.0691 82.9168 23.9145 82.9943 24.7458 83.1493C25.5771 83.3043 26.2393 83.5156 26.7325 83.7833V88.0737H24.4076V85.7277C24.3654 85.7277 24.3231 85.7207 24.2808 85.7066C23.9708 85.6221 23.6327 85.5587 23.2663 85.5164C22.9141 85.46 22.5618 85.4318 22.2096 85.4318C21.5333 85.4318 20.9978 85.5657 20.6033 85.8334C20.2229 86.1011 20.0327 86.4604 20.0327 86.9113C20.0327 87.3763 20.2088 87.7567 20.561 88.0526C20.9274 88.3485 21.3712 88.6162 21.8925 88.8557C22.428 89.0953 23.0057 89.3348 23.6256 89.5743C24.2597 89.8138 24.8374 90.1097 25.3587 90.462C25.8941 90.8002 26.338 91.2299 26.6902 91.7512C27.0565 92.2726 27.2397 92.9277 27.2397 93.7168C27.2397 94.4776 27.0988 95.1469 26.817 95.7246C26.5352 96.2882 26.1407 96.7673 25.6335 97.1618C25.1262 97.5422 24.5274 97.824 23.837 98.0072C23.1466 98.2045 22.3998 98.3031 21.5967 98.3031C21.0612 98.3031 20.561 98.2608 20.0961 98.1763C19.6452 98.0917 19.2225 97.9861 18.828 97.8593C18.4475 97.7324 18.1094 97.5986 17.8135 97.4577C17.5176 97.3168 17.2781 97.197 17.0949 97.0984V93.1673ZM35.7527 87.4397H39.6838V94.7947C39.6838 95.0906 39.6838 95.3865 39.6838 95.6823H41.2901V98.0072H37.9508L37.4647 96.4432H37.3801C37.0561 96.9786 36.5699 97.4225 35.9218 97.7747C35.2737 98.127 34.5551 98.3031 33.766 98.3031C33.2306 98.3031 32.7375 98.2326 32.2866 98.0917C31.8498 97.9508 31.4764 97.7184 31.1664 97.3943C30.8564 97.0702 30.6169 96.6334 30.4478 96.0839C30.2787 95.5344 30.1942 94.844 30.1942 94.0127V89.7645H28.9895V87.4397H32.9418V93.442C32.9418 94.3015 33.0756 94.9215 33.3433 95.3019C33.6251 95.6823 34.0619 95.8726 34.6537 95.8726C35.175 95.8726 35.64 95.7176 36.0486 95.4076C36.4713 95.0976 36.7672 94.7172 36.9363 94.2663V89.7645H35.7527V87.4397ZM41.8352 87.4397H45.4282L45.7452 88.7078H45.8297C46.5624 87.6651 47.746 87.1438 49.3804 87.1438C50.0286 87.1438 50.6203 87.2495 51.1558 87.4608C51.7053 87.6581 52.1702 87.9751 52.5507 88.4119C52.9452 88.8487 53.2481 89.3982 53.4595 90.0604C53.6708 90.7227 53.7765 91.5187 53.7765 92.4487C53.7765 93.3504 53.6567 94.1677 53.4172 94.9004C53.1777 95.6189 52.8325 96.2319 52.3816 96.7391C51.9307 97.2463 51.3812 97.6338 50.7331 97.9015C50.0849 98.1692 49.3452 98.3031 48.5139 98.3031C48.0771 98.3031 47.6473 98.2679 47.2246 98.1974C46.8019 98.1411 46.4497 98.0424 46.1679 97.9015V102.234H43.4203V89.7645H41.8352V87.4397ZM48.5562 89.4686C48.0207 89.4686 47.5276 89.6025 47.0767 89.8702C46.6399 90.1379 46.337 90.5395 46.1679 91.0749V95.471C46.3652 95.626 46.647 95.7528 47.0133 95.8514C47.3937 95.936 47.7742 95.9782 48.1546 95.9782C48.5491 95.9782 48.9154 95.9148 49.2536 95.788C49.5918 95.6471 49.8877 95.4287 50.1413 95.1328C50.3949 94.8369 50.5922 94.4636 50.7331 94.0127C50.874 93.5618 50.9444 93.0193 50.9444 92.3853C50.9444 91.4553 50.719 90.7367 50.2681 90.2295C49.8172 89.7223 49.2466 89.4686 48.5562 89.4686ZM66.1784 96.887C65.9952 97.0561 65.7557 97.2252 65.4598 97.3943C65.178 97.5493 64.8398 97.6972 64.4453 97.8381C64.0649 97.979 63.6422 98.0917 63.1772 98.1763C62.7122 98.2608 62.2191 98.3031 61.6977 98.3031C60.796 98.3031 59.9858 98.1763 59.2672 97.9227C58.5627 97.669 57.9639 97.3027 57.4707 96.8236C56.9776 96.3305 56.5971 95.7458 56.3294 95.0694C56.0758 94.379 55.949 93.597 55.949 92.7234C55.949 91.7935 56.097 90.9833 56.3928 90.2929C56.6887 89.5884 57.0903 89.0037 57.5975 88.5387C58.1189 88.0737 58.7247 87.7285 59.4152 87.5031C60.1056 87.2636 60.8523 87.1438 61.6555 87.1438C62.1909 87.1438 62.7404 87.2142 63.304 87.3551C63.8817 87.496 64.4101 87.7426 64.8891 88.0949C65.3682 88.433 65.7557 88.891 66.0516 89.4686C66.3615 90.0463 66.5165 90.779 66.5165 91.6667C66.5165 92.2726 66.4461 92.9277 66.3052 93.6322H58.6966C58.7107 94.0831 58.8022 94.4636 58.9713 94.7735C59.1545 95.0835 59.387 95.3371 59.6688 95.5344C59.9647 95.7317 60.2958 95.8796 60.6621 95.9782C61.0426 96.0628 61.4441 96.105 61.8668 96.105C62.7122 96.105 63.4026 96.0064 63.9381 95.8092C64.4876 95.6119 64.9314 95.3724 65.2696 95.0906L66.1784 96.887ZM61.6132 89.3418C61.2469 89.3418 60.9017 89.3911 60.5776 89.4898C60.2535 89.5884 59.9576 89.7364 59.6899 89.9336C59.4363 90.1168 59.2249 90.3493 59.0559 90.6311C58.8868 90.9129 58.7881 91.2299 58.76 91.5821H63.9592C63.9592 90.8917 63.7619 90.3493 63.3674 89.9547C62.987 89.5461 62.4022 89.3418 61.6132 89.3418ZM68.7736 95.6823H71.3943V89.7645H68.7736V87.4397H73.529L73.846 88.8346H73.9305C74.325 88.3696 74.7759 87.9821 75.2832 87.6722C75.7904 87.3622 76.3822 87.2072 77.0585 87.2072C77.9039 87.2072 78.5661 87.5172 79.0452 88.1371C79.5384 88.7571 79.7849 89.7927 79.7849 91.244H77.3121C77.3121 90.7367 77.2346 90.3704 77.0796 90.145C76.9387 89.9054 76.7063 89.7857 76.3822 89.7857C75.8186 89.7857 75.3607 89.9266 75.0084 90.2084C74.6702 90.4902 74.3814 90.8142 74.1419 91.1806V95.6823H78.7282V98.0072H68.7736V95.6823ZM87.4737 83.2127H91.8909V92.343C91.8909 93.3998 91.9473 94.4424 92.06 95.471C92.06 95.5414 92.067 95.6119 92.0811 95.6823H93.4338V98.0072H90.031L89.7563 96.6546H89.6717C89.5308 96.9082 89.3406 97.1336 89.1011 97.3309C88.8615 97.5281 88.5938 97.7043 88.2979 97.8593C88.002 98.0002 87.678 98.1058 87.3257 98.1763C86.9735 98.2608 86.6212 98.3031 86.269 98.3031C85.6067 98.3031 84.9797 98.1974 84.388 97.9861C83.8103 97.7747 83.303 97.4506 82.8662 97.0139C82.4294 96.563 82.0842 95.9994 81.8306 95.3231C81.577 94.6326 81.4502 93.8225 81.4502 92.8925C81.4502 91.9908 81.584 91.1876 81.8517 90.4831C82.1336 89.7786 82.514 89.1868 82.993 88.7078C83.4862 88.2146 84.0639 87.8412 84.7261 87.5876C85.3883 87.3199 86.114 87.1861 86.903 87.1861C87.3398 87.1861 87.7484 87.2142 88.1289 87.2706C88.5234 87.3129 88.8615 87.3904 89.1433 87.5031V85.5375H87.4737V83.2127ZM86.903 95.9782C87.4384 95.9782 87.9105 95.8514 88.3191 95.5978C88.7418 95.3301 89.0165 94.9497 89.1433 94.4565V89.9759C88.9461 89.8209 88.6713 89.7082 88.3191 89.6377C87.9809 89.5532 87.6216 89.5109 87.2412 89.5109C86.8608 89.5109 86.4874 89.5743 86.121 89.7011C85.7688 89.8279 85.4518 90.0322 85.17 90.314C84.9022 90.5818 84.6838 90.934 84.5148 91.3708C84.3598 91.8076 84.2823 92.343 84.2823 92.9771C84.2823 93.8788 84.5077 94.6045 84.9586 95.154C85.4095 95.7035 86.0576 95.9782 86.903 95.9782ZM95.9655 88.1583C96.5291 87.9046 97.1773 87.6863 97.91 87.5031C98.6567 87.3199 99.5374 87.2283 100.552 87.2283C101.285 87.2283 101.904 87.3199 102.412 87.5031C102.933 87.6722 103.349 87.9187 103.659 88.2428C103.983 88.5669 104.215 88.9544 104.356 89.4052C104.497 89.8561 104.568 90.3634 104.568 90.927C104.568 91.6456 104.539 92.2585 104.483 92.7657C104.441 93.273 104.42 93.7238 104.42 94.1184C104.42 94.4142 104.434 94.7454 104.462 95.1117C104.49 95.309 104.511 95.4992 104.525 95.6823H105.899V98.0072H102.391L102.116 96.57H102.01C101.728 97.0068 101.327 97.3872 100.805 97.7113C100.284 98.0213 99.5796 98.1763 98.692 98.1763C97.6352 98.1763 96.7969 97.8945 96.1769 97.3309C95.5569 96.7673 95.247 96.0205 95.247 95.0906C95.247 94.4988 95.3526 93.9915 95.564 93.5688C95.7894 93.1321 96.1064 92.7798 96.5151 92.5121C96.9378 92.2303 97.438 92.026 98.0156 91.8992C98.6074 91.7583 99.2626 91.6878 99.9812 91.6878C100.235 91.6878 100.503 91.7019 100.784 91.7301C101.066 91.7583 101.411 91.7865 101.82 91.8146C101.848 91.6737 101.862 91.5328 101.862 91.3919V90.9904C101.862 90.4549 101.707 90.0745 101.397 89.8491C101.087 89.6095 100.629 89.4898 100.023 89.4898C99.3049 89.4898 98.6567 89.5814 98.0791 89.7645C97.5014 89.9477 97.0153 90.1309 96.6207 90.314L95.9655 88.1583ZM99.5796 95.9148C100.256 95.9148 100.763 95.7951 101.101 95.5555C101.44 95.3019 101.686 95.0342 101.841 94.7524V93.4843C101.7 93.4561 101.489 93.4279 101.207 93.3998C100.925 93.3575 100.622 93.3364 100.298 93.3364C100.031 93.3364 99.7628 93.3645 99.4951 93.4209C99.2274 93.4632 98.9879 93.5407 98.7765 93.6534C98.5652 93.752 98.3961 93.8859 98.2693 94.0549C98.1425 94.224 98.0791 94.4283 98.0791 94.6679C98.0791 95.0624 98.1918 95.3724 98.4172 95.5978C98.6567 95.8092 99.0442 95.9148 99.5796 95.9148ZM107.86 92.7234C107.86 91.8358 107.994 91.0467 108.262 90.3563C108.529 89.6659 108.91 89.0812 109.403 88.6021C109.896 88.123 110.481 87.7637 111.157 87.5242C111.848 87.2706 112.616 87.1438 113.461 87.1438C114.349 87.1438 115.138 87.2776 115.828 87.5454C116.533 87.8131 117.124 88.1935 117.603 88.6866C118.082 89.1657 118.442 89.7504 118.681 90.4409C118.935 91.1313 119.062 91.8921 119.062 92.7234C119.062 93.6111 118.928 94.4002 118.66 95.0906C118.392 95.781 118.012 96.3657 117.519 96.8448C117.026 97.3238 116.434 97.6902 115.744 97.9438C115.067 98.1833 114.306 98.3031 113.461 98.3031C112.573 98.3031 111.777 98.1692 111.073 97.9015C110.382 97.6338 109.798 97.2604 109.318 96.7814C108.839 96.2882 108.473 95.6964 108.219 95.006C107.98 94.3156 107.86 93.5548 107.86 92.7234ZM110.692 92.7234C110.692 93.1884 110.756 93.6182 110.882 94.0127C111.009 94.4072 111.192 94.7524 111.432 95.0483C111.672 95.3442 111.96 95.5767 112.299 95.7458C112.637 95.9007 113.024 95.9782 113.461 95.9782C114.278 95.9782 114.94 95.7176 115.448 95.1962C115.969 94.6749 116.23 93.8506 116.23 92.7234C116.23 91.7512 115.99 90.9692 115.511 90.3774C115.032 89.7716 114.349 89.4686 113.461 89.4686C113.066 89.4686 112.7 89.532 112.362 89.6589C112.024 89.7716 111.728 89.9618 111.474 90.2295C111.235 90.4972 111.045 90.8354 110.904 91.244C110.763 91.6526 110.692 92.1457 110.692 92.7234Z" fill="white"/>
<path d="M77.6814 41.4938L81.2637 56.4489C81.6563 58.0881 80.4138 59.6634 78.7283 59.6634H46.4204C43.3427 59.6634 40.5926 57.7416 39.5346 54.8515L39.2412 54.0499C39.0855 53.6246 39.4003 53.174 39.8533 53.174H60.9528C61.2027 53.174 61.4052 52.9715 61.4052 52.7216C61.4052 50.8476 59.8861 49.3285 58.0121 49.3285H42.637C39.5594 49.3285 36.8093 47.4066 35.7513 44.5165L35.4872 43.7951C35.3315 43.3698 35.6463 42.9192 36.0993 42.9192H56.1458C56.3957 42.9192 56.5983 42.7167 56.5983 42.4668C56.5983 40.5928 55.0791 39.0737 53.2051 39.0737H38.883C35.8054 39.0737 33.0553 37.1518 31.9973 34.2617L31.7625 33.6204C31.6068 33.195 31.9217 32.7445 32.3746 32.7445H66.5889C71.865 32.7445 76.4524 36.3629 77.6814 41.4938Z" fill="url(#paint0_linear_6313_9515)"/>
<path d="M90.3654 45.9451L95.3894 67.521C95.7701 69.156 94.5289 70.7194 92.8502 70.7194H59.1527C55.9611 70.7194 53.1361 68.655 52.1666 65.6142L51.8251 64.5433C51.624 63.9126 52.0947 63.2686 52.7566 63.2686H83.527C85.2152 63.2686 86.4582 61.6887 86.061 60.048L81.5664 41.4831C81.4175 40.8678 81.8836 40.2754 82.5166 40.2754H83.2239C86.6329 40.2754 89.5923 42.6249 90.3654 45.9451Z" fill="url(#paint1_linear_6313_9515)"/>
<defs>
<linearGradient id="paint0_linear_6313_9515" x1="56.5182" y1="32.7445" x2="56.5182" y2="59.6634" gradientUnits="userSpaceOnUse">
<stop stop-color="#FFC803"/>
<stop offset="1" stop-color="#FFA903"/>
</linearGradient>
<linearGradient id="paint1_linear_6313_9515" x1="73.5568" y1="40.2754" x2="73.5568" y2="70.7194" gradientUnits="userSpaceOnUse">
<stop stop-color="#FF7421"/>
<stop offset="1" stop-color="#EC5901"/>
</linearGradient>
</defs>
</svg>
