<svg width="24" height="24" viewBox="0 0 24 24" fill="none" xmlns="http://www.w3.org/2000/svg">
<g opacity="0.6">
<path d="M23.4002 6.54975C22.6346 6.88975 21.8122 7.11855 20.949 7.22175C21.8306 6.69375 22.5066 5.85775 22.825 4.86095C22.001 5.34975 21.0874 5.70495 20.1146 5.89695C19.3362 5.06735 18.2274 4.54895 17.0002 4.54895C14.6434 4.54895 12.733 6.46015 12.733 8.81615C12.733 9.15055 12.7714 9.47695 12.8434 9.78815C9.29697 9.61055 6.15297 7.91135 4.04737 5.32895C3.68097 5.95935 3.47057 6.69215 3.47057 7.47535C3.47057 8.95535 4.22337 10.2618 5.36817 11.0266C4.66897 11.0042 4.01057 10.8122 3.43537 10.493C3.43537 10.5114 3.43537 10.5282 3.43537 10.5466C3.43537 12.6146 4.90577 14.3394 6.85856 14.7306C6.50096 14.8282 6.12336 14.8802 5.73376 14.8802C5.45936 14.8802 5.19137 14.853 4.93137 14.8042C5.47457 16.4994 7.05057 17.7338 8.91777 17.7682C7.45777 18.913 5.61777 19.5954 3.61777 19.5954C3.27377 19.5954 2.93377 19.5754 2.59937 19.5354C4.48817 20.7458 6.73057 21.4522 9.14096 21.4522C16.9906 21.4522 21.2818 14.9498 21.2818 9.31055C21.2818 9.12575 21.2778 8.94175 21.2698 8.75855C22.1042 8.15615 22.8282 7.40495 23.4002 6.54975Z" fill="white"/>
</g>
</svg>
