<svg width="140" height="19" viewBox="0 0 140 19" fill="none" xmlns="http://www.w3.org/2000/svg">
<path d="M43.9402 16.176C43.9632 16.1454 43.9786 16.093 44.0055 16.0909C44.1207 16.0821 44.2398 16.0865 44.3935 16.0865C44.1592 15.9687 43.6405 15.9796 43.4599 16.0843C43.2563 16.2022 43.2371 16.1978 43.0757 16.0472C43.0488 16.021 42.9605 16.0188 42.9105 15.997C42.899 15.9927 42.9374 15.9468 42.949 15.9316C42.4418 15.8945 41.9385 15.8421 41.4352 15.8268C41.1202 15.8181 40.8397 15.8945 40.567 16.0298C40.3749 16.1258 40.0406 16.1149 39.7717 16.1476C39.6603 16.1607 39.5488 16.1651 39.4374 16.1738C39.4413 16.1956 39.4451 16.2174 39.449 16.2393C39.5873 16.2305 39.7256 16.2196 39.86 16.2153C39.9715 16.2131 40.0829 16.2153 40.1904 16.2327C40.2173 16.2371 40.2442 16.3287 40.2289 16.3331C40.1443 16.3615 40.0445 16.3877 39.9484 16.3964C39.5488 16.4269 39.1454 16.4509 38.742 16.4771C38.742 16.5033 38.742 16.5273 38.742 16.5535C40.6015 16.6452 42.461 16.7347 44.3359 16.8263C44.3397 16.8067 44.3397 16.7892 44.3436 16.7739C44.3589 16.7085 45.0005 16.368 45.1004 16.3767C45.4923 16.4117 45.865 16.4422 46.2684 16.3396C46.5335 16.272 46.8831 16.3266 47.1943 16.3593C46.9791 16.3702 46.764 16.3789 46.5181 16.392C46.6833 16.5841 46.9061 16.5317 47.1136 16.5251C47.2558 16.5208 47.4018 16.5295 47.5439 16.5404C47.8321 16.5622 48.1164 16.595 48.4045 16.6103C48.8463 16.6343 49.2881 16.6648 49.73 16.6539C49.949 16.6474 50.118 16.6495 50.264 16.7783C50.1564 16.787 50.0642 16.7892 49.972 16.8023C49.4495 16.8721 48.9616 16.9311 48.4007 16.8132C47.9627 16.7216 47.4286 16.7958 46.9369 16.8132C47.5516 16.8569 48.1663 16.8983 48.781 16.942C48.781 16.9682 48.781 16.9943 48.781 17.0205C48.3815 17.0424 47.9819 17.062 47.5823 17.0838C47.5862 17.1056 47.5862 17.1275 47.59 17.1471C47.6745 17.1689 47.7552 17.1908 47.8397 17.2104C47.8436 17.2257 47.8474 17.2409 47.8513 17.254C47.6438 17.2759 47.4363 17.3151 47.2289 17.3173C47.0099 17.3195 46.7909 17.289 46.5719 17.2715C46.5681 17.2955 46.5642 17.3195 46.5604 17.3435C47.2327 17.3675 47.9089 17.3937 48.5812 17.4177C48.5812 17.4374 48.5812 17.4548 48.5851 17.4745C48.0549 17.6207 47.4863 17.5203 46.9292 17.5312C46.9061 17.577 46.8869 17.6229 46.8562 17.6861C47.6592 17.7407 48.4737 17.7953 49.3266 17.852C49.2881 17.9066 49.2612 17.9415 49.2305 17.9851C49.6493 18.0571 50.0258 18.0135 50.4023 17.9546C50.4023 17.9306 50.4023 17.9087 50.4023 17.8847C50.0719 17.8629 49.7415 17.8389 49.3496 17.8127C49.5225 17.6796 49.6109 17.5945 49.8644 17.6861C49.9759 17.7276 50.1833 17.6665 50.3639 17.649C50.4984 17.6774 50.6674 17.7363 50.8364 17.7429C51.5933 17.7691 52.3502 17.7691 53.107 17.7996C53.7525 17.8258 54.3941 17.8826 55.0357 17.9175C55.2278 17.9284 55.4621 17.8258 55.5851 18.0528C55.0165 18.0222 54.4709 17.9873 53.9292 17.9633C53.4758 17.9415 53.0225 17.9262 52.5692 17.9197C52.3002 17.9153 52.0274 17.9284 51.7585 17.9415C51.6663 17.9458 51.5818 17.9786 51.4896 17.9873C51.4204 17.9939 51.3013 18.0004 51.2859 17.9829C51.1092 17.756 50.8172 17.9306 50.5829 17.8695C50.6559 18.1532 51.0055 18.0964 51.2667 18.1248C51.6125 18.1619 51.966 18.1837 52.3079 18.2426C50.6175 18.1204 48.9001 18.2077 47.2366 17.9109C47.225 17.9306 47.2173 17.9502 47.2058 17.9698C47.2481 18.0026 47.2903 18.0353 47.3326 18.0681C47.3211 18.079 47.3134 18.0877 47.3019 18.0986C47.1751 18.0462 47.056 17.9873 46.9254 17.9415C46.8139 17.9044 46.6334 17.8367 46.5757 17.8607C46.2223 18.0157 45.8227 17.9437 45.4462 17.972C45.062 18.0004 44.674 18.0222 44.2898 18.0331C43.8941 18.0462 43.4945 18.0419 43.095 18.0484C43.0143 18.0506 42.9374 18.068 42.8568 18.079C42.8568 18.0964 42.8529 18.1117 42.8529 18.1292C43.1987 18.1706 43.5445 18.2143 43.8902 18.2557C43.8902 18.2645 43.8864 18.2732 43.8864 18.2819C43.5713 18.2994 43.2563 18.3299 42.9451 18.3299C42.5571 18.3299 42.1652 18.3234 41.7849 18.2819C41.5274 18.2535 41.2816 18.0942 41.051 18.1095C40.809 18.127 40.5862 18.1924 40.3134 18.1641C40.006 18.1313 39.6603 18.0899 39.376 18.1444C38.8996 18.2339 38.4308 18.2012 37.9583 18.2099C37.5165 18.2164 37.0785 18.1815 36.6367 18.1793C36.3831 18.1772 36.1257 18.2034 35.8721 18.2121C35.7645 18.2165 35.6454 18.2339 35.5571 18.2099C35.0038 18.0615 34.4276 18.1335 33.8628 18.1313C33.5939 18.1292 33.3249 18.1619 33.0521 18.1663C32.983 18.1663 32.91 18.0921 32.8447 18.0964C32.6449 18.1095 32.4528 18.1466 32.2569 18.1706C32.1262 18.1881 31.9918 18.2208 31.865 18.2099C31.5269 18.1837 31.1965 18.1401 30.8008 18.0964C30.8469 18.1903 30.8699 18.2274 30.9007 18.2928C30.2667 18.2295 29.6712 18.1706 29.0527 18.1095C29.0757 18.1532 29.0988 18.1968 29.1295 18.2601C29.0335 18.2645 28.949 18.2732 28.8683 18.2732C28.2382 18.2623 27.612 18.2557 26.9857 18.2361C26.6822 18.2274 26.3825 18.1815 26.079 18.1793C25.9484 18.1793 25.8101 18.2383 25.6948 18.2885C25.6641 18.3016 25.6833 18.4129 25.714 18.4194C25.9446 18.474 26.1828 18.5198 26.421 18.5569C26.6246 18.5874 26.8436 18.5394 26.9819 18.7206C27.0318 18.7882 27.4237 18.7839 27.6542 18.7708C28.0768 18.7446 28.4956 18.6856 28.9144 18.6376C28.9643 18.6311 29.0104 18.6202 29.1295 18.5962C28.803 18.5351 28.5494 18.4849 28.292 18.4369C28.2958 18.4216 28.2997 18.4085 28.3035 18.3932C28.6454 18.4041 28.9874 18.415 29.3831 18.4281C29.2717 18.6049 29.3408 18.6616 29.5944 18.6638C29.7596 18.6638 29.921 18.7249 30.0862 18.7468C30.2091 18.7642 30.3589 18.8777 30.4588 18.7206C30.4665 18.7075 30.6125 18.7097 30.6164 18.7162C30.6778 18.8799 30.8891 18.8166 31.0428 18.8209C31.5115 18.8362 31.9802 18.8581 32.449 18.8537C32.8293 18.8493 33.2097 18.8122 33.59 18.7882C33.5939 18.8079 33.5977 18.8275 33.6015 18.8493C33.1059 18.8777 32.6103 18.917 32.1109 18.9322C31.2003 18.9628 30.2898 18.9977 29.3793 18.9999C28.7377 19.0021 28.0922 18.9672 27.4468 18.9301C26.3557 18.8668 25.2684 18.7926 24.1811 18.7184C23.6855 18.6856 23.1937 18.6398 22.6981 18.6049C21.6723 18.5329 20.6465 18.4652 19.6169 18.3714C19.9627 18.3714 20.3123 18.3627 20.6581 18.3736C21.4995 18.3954 22.3408 18.426 23.1822 18.4543C23.1899 18.426 23.1976 18.3998 23.2053 18.3714C23.1054 18.3539 23.0093 18.3277 22.9094 18.3212C21.7031 18.2448 20.4929 18.1794 19.2903 18.0899C18.7678 18.0506 18.2492 17.9698 17.7344 17.8891C17.4846 17.8498 17.2541 17.7625 17.0082 17.708C16.916 17.6883 16.8046 17.7058 16.6625 17.7058C16.7239 17.7647 16.7508 17.7887 16.7931 17.8302C16.2437 17.8084 15.7097 17.7865 15.1026 17.7603C15.2025 17.7058 15.2486 17.6796 15.3216 17.6403C14.9912 17.4875 14.607 17.4963 14.242 17.5094C13.5582 17.5334 12.8782 17.5814 12.1981 17.6163C12.1636 17.6185 12.1251 17.6054 12.006 17.5858C12.1866 17.5487 12.2788 17.529 12.3787 17.5094C12.348 17.3392 12.1866 17.3632 12.0022 17.3937C11.8293 17.4221 11.6526 17.433 11.4759 17.4461C10.9687 17.4788 10.4654 17.5094 9.95829 17.5421L9.96597 17.5443C10.3194 17.4963 10.6729 17.4483 11.0302 17.4024C11.2069 17.3806 11.3836 17.3632 11.5565 17.313C11.0993 17.2933 10.646 17.1427 10.2119 17.3261C9.36279 17.0729 8.45225 17.1908 7.58013 17.1056C7.57245 17.1318 7.56476 17.1558 7.56092 17.182C7.83754 17.2148 8.118 17.2475 8.39078 17.2802C8.36004 17.2868 8.30626 17.313 8.25631 17.3108C7.46487 17.2781 6.67344 17.2409 5.88584 17.2038C5.62459 17.1908 5.56312 17.0838 5.56696 16.9769C5.11361 16.7543 4.68332 16.5426 4.23381 16.3222C4.53732 16.1105 4.90231 16.3244 5.22503 16.2698C5.17508 16.0865 5.02141 15.9992 4.71789 15.9992C4.618 15.9992 4.52195 15.9316 4.39901 15.8857C4.51043 15.7722 4.62569 15.6806 4.68716 15.5737C4.70637 15.5409 4.58727 15.4536 4.4989 15.4253C4.30296 15.3641 4.08397 15.3249 3.87651 15.2769C3.86883 15.2529 3.86114 15.2267 3.85346 15.2027C4.01866 15.1612 4.18771 15.1241 4.34522 15.0739C4.4528 15.039 4.54501 14.9822 4.68716 14.9124C4.33754 14.8273 4.03019 14.7509 3.71899 14.6745C3.72283 14.6483 3.72283 14.6222 3.72667 14.5982C3.96103 14.5632 4.19923 14.5305 4.43359 14.4956C3.41164 14.3166 2.52031 13.9391 1.43688 13.8496C1.45225 13.8191 1.47146 13.7907 1.48683 13.7601C1.95939 13.8256 2.4281 13.902 2.90066 13.9566C3.31943 14.0046 3.74588 14.0395 4.17234 14.0635C4.24918 14.0679 4.33754 13.9936 4.42591 13.9653C4.50274 13.9413 4.58727 13.9151 4.67179 13.9129C4.84468 13.9107 5.01756 13.9238 5.14051 13.9282C5.22503 13.8387 5.28266 13.7776 5.36718 13.6881C4.97146 13.6248 4.5719 13.5616 4.0955 13.4852C4.52964 13.4219 4.87925 13.3717 5.30571 13.3106C5.18277 13.256 5.0944 13.2146 4.95609 13.1535C5.42481 13.1535 5.83205 13.1535 6.23546 13.1535C6.24314 13.1404 6.24698 13.1295 6.25467 13.1164C6.10483 13.0836 5.95499 13.0509 5.81668 13.0225C5.8551 13.0007 5.91273 12.9701 5.96652 12.9396C5.91273 12.909 5.86663 12.8588 5.809 12.8523C5.58617 12.8239 5.35565 12.8108 5.13282 12.7912C5.01372 12.7803 4.89078 12.7694 4.77168 12.7126C5.01372 12.693 5.25576 12.6712 5.49396 12.6515C5.49396 12.6232 5.49396 12.5948 5.49396 12.5664C5.13666 12.5511 4.77552 12.5337 4.39133 12.5184C4.41438 12.4704 4.43359 12.4333 4.46817 12.3656C4.10703 12.3416 3.77278 12.3176 3.43853 12.2958C3.43853 12.2871 3.43469 12.2762 3.43469 12.2674C3.68441 12.2412 3.93798 12.2151 4.18771 12.1889C4.18771 12.1758 4.18771 12.1627 4.18771 12.1518C3.94566 12.1038 3.69978 12.0536 3.45774 12.0056C3.46542 11.9881 3.47311 11.9685 3.48079 11.951C3.81888 11.9837 4.16081 12.0165 4.4989 12.0492C4.50659 12.0274 4.51427 12.0077 4.52195 11.9859C4.2607 11.9335 3.95335 11.9161 3.74973 11.8179C3.56915 11.7306 3.50384 11.5538 3.37322 11.401C3.68441 11.4447 3.98408 11.4862 4.2876 11.5276C4.29528 11.508 4.30681 11.4883 4.31449 11.4687C4.14544 11.4251 3.96872 11.3858 3.80735 11.3312C3.74973 11.3116 3.72667 11.2483 3.68825 11.2068C3.75357 11.1915 3.82272 11.1632 3.88419 11.1654C4.1416 11.1741 4.40285 11.1937 4.69484 11.2112C4.68331 11.1544 4.67563 11.1152 4.65642 11.0279C4.94072 11.0497 5.20582 11.0693 5.47091 11.0912C5.47475 11.0759 5.48244 11.0628 5.48628 11.0475C4.99451 10.9755 4.50659 10.9035 4.01482 10.8336C4.01866 10.8206 4.0225 10.8075 4.02634 10.7922C4.29912 10.7507 4.56806 10.7114 4.88694 10.6634C4.82547 10.7071 4.79473 10.7311 4.7371 10.7704C4.89846 10.7922 5.03677 10.8096 5.22119 10.8336C5.15971 10.5914 5.37102 10.6111 5.6169 10.6416C5.74753 10.6569 5.88968 10.6438 6.02799 10.611C5.882 10.5696 5.72448 10.539 5.59001 10.4823C5.47475 10.4343 5.39023 10.3579 5.24424 10.2641C4.764 10.1833 4.19155 10.0851 3.62294 9.98908C3.63063 9.9629 3.63831 9.93671 3.64599 9.91271C4.37212 9.97599 5.0944 10.0393 5.82053 10.1026C5.82437 10.0851 5.82821 10.0676 5.83589 10.0502C4.99835 9.90616 4.16081 9.76213 3.32327 9.61809C3.32327 9.61155 3.32711 9.605 3.32711 9.59845C3.92261 9.65083 4.51811 9.70102 5.11745 9.7534C5.1213 9.73375 5.12514 9.71412 5.13282 9.69448C4.06092 9.53517 2.98902 9.37367 1.91712 9.21436C1.92097 9.1969 1.92865 9.18162 1.93249 9.16417C2.4742 9.21436 3.0236 9.24928 3.55763 9.31912C4.44896 9.43696 5.34029 9.55699 6.25851 9.57444C6.48518 9.57881 6.71185 9.56353 6.93853 9.56135C7.26125 9.55917 7.58782 9.56135 7.91438 9.52425C5.30187 9.17945 2.68551 8.83464 -4.59891e-07 8.47892C0.591657 8.3087 1.09879 8.48765 1.68661 8.47455C1.55214 8.49637 1.49451 8.50729 1.43688 8.51601C2.54336 8.76916 3.74204 8.64041 4.91767 8.86956C4.71789 8.72116 4.71789 8.72989 4.28375 8.70588C4.07629 8.69497 3.87267 8.63823 3.68057 8.5553C3.9764 8.5684 4.27607 8.58149 4.5719 8.59677C4.57958 8.58149 4.58342 8.56621 4.59111 8.55312C4.2876 8.49201 3.98408 8.43091 3.6652 8.36762C3.76125 8.34798 3.84577 8.32834 3.94182 8.3087C3.70362 8.17558 3.43085 8.15594 3.15038 8.19303C2.88529 8.22795 2.60483 8.2214 2.33205 8.23231C2.32821 8.20613 2.32053 8.17994 2.31668 8.15376C2.55488 8.12975 2.79308 8.07955 3.03128 8.0861C3.49616 8.09919 3.95719 8.15157 4.42206 8.17776C4.82162 8.19958 5.22503 8.21268 5.62459 8.22141C5.6899 8.22359 5.75521 8.18867 5.91657 8.1472C5.59385 8.10137 5.36334 8.06864 5.07135 8.02718C5.32492 7.89624 5.67069 8.10356 5.79363 7.88096C5.95884 7.82859 6.1202 7.77403 6.32382 7.70856C5.95115 7.52961 5.44786 7.654 4.98298 7.48378C5.80132 7.53179 6.54281 7.57762 7.2843 7.62127C7.29199 7.60599 7.29967 7.59071 7.30351 7.57543C7.04994 7.52306 6.80022 7.44886 6.53897 7.42485C6.15478 7.38994 5.75906 7.39649 5.37486 7.36593C5.28266 7.35939 5.20966 7.27209 5.06751 7.18698C5.83589 7.18698 6.51207 7.27428 7.18057 7.13461C6.61581 7.03204 6.11251 6.77234 5.45554 6.9251C5.42097 6.86182 5.38255 6.79417 5.34028 6.71997C6.33535 6.71997 7.32656 6.71997 8.31778 6.71997C8.32163 6.69596 8.32547 6.67196 8.32547 6.64577C8.03732 6.63267 7.74918 6.62612 7.46487 6.60212C7.1921 6.5803 6.91932 6.54102 6.65423 6.50828C6.75027 6.49082 6.85785 6.47118 7 6.44499C6.94237 6.40571 6.89627 6.37516 6.81559 6.3206C7.33425 6.27913 7.82601 6.23985 8.31394 6.20057C7.84907 5.9998 7.30735 6.05654 6.80406 6.01507C6.28924 5.97143 5.76674 5.95833 5.24424 5.91469C6.41603 5.72264 7.66081 5.88631 8.82492 5.67245C8.82492 5.65499 8.82876 5.63753 8.82876 5.62007C8.34083 5.55679 7.85291 5.4935 7.36883 5.4324C7.36498 5.43676 7.39188 5.41494 7.45335 5.36911C7.28814 5.35383 7.14599 5.34074 6.93853 5.3211C7.13062 5.28618 7.26894 5.25999 7.4034 5.2338C7.39956 5.22508 7.39572 5.21852 7.39188 5.2098C6.99232 5.19015 6.59276 5.1727 6.18935 5.15306C6.18935 5.13342 6.18935 5.11377 6.18935 5.09413C6.74259 5.07449 7.29967 5.05485 7.85291 5.03521C7.85675 5.01557 7.85675 4.99811 7.86059 4.97847C7.76454 4.94574 7.6685 4.91519 7.4764 4.8519C7.8337 4.83226 8.09879 4.81698 8.36389 4.8017C8.36773 4.78643 8.36773 4.77115 8.37157 4.75369C7.67618 4.67513 6.98079 4.59657 6.2854 4.518C6.28924 4.49836 6.29308 4.4809 6.29693 4.46126C6.46213 4.45035 6.63117 4.43944 6.79638 4.42634C6.80022 4.40234 6.80022 4.37833 6.80406 4.35433C6.4045 4.31723 6.00494 4.28231 5.60538 4.24521C5.93194 4.10991 6.36224 4.30413 6.62733 4.07281C6.64654 4.05753 6.60044 4.01388 6.58891 3.98333C7.11142 4.00734 7.63392 4.03352 8.16026 4.05534C8.36773 4.06407 8.57519 4.06844 8.78266 4.06626C8.95554 4.06626 9.09001 4.03352 9.02854 3.92004C8.55598 3.86767 8.10648 3.81748 7.65697 3.76728C8.44841 3.65162 9.30516 3.93968 10.0274 3.55341C7.91822 3.4814 5.809 3.40938 3.69978 3.33736C3.69978 3.31118 3.69978 3.28717 3.69978 3.26098C4.51043 3.26753 5.32876 3.36574 6.13941 3.21516C5.10977 3.03184 4.03403 3.00783 2.91218 2.84634C5.6169 2.63684 8.22942 2.6543 10.8419 2.76996C10.8458 2.7896 10.8458 2.80706 10.8496 2.8267C10.3694 2.8267 9.89297 2.8267 9.41273 2.8267C9.41273 2.85289 9.40889 2.87907 9.40889 2.90526C9.78924 2.9249 10.1734 2.94236 10.5538 2.96201C10.5538 2.98383 10.5538 3.00783 10.5538 3.02966C9.99286 3.0493 9.4281 3.06894 8.77497 3.09295C8.91712 3.12786 8.9786 3.15404 9.04391 3.15623C9.60867 3.17587 10.1773 3.1846 10.742 3.20861C11.0417 3.2217 11.3452 3.25225 11.6411 3.28062C12.0252 3.31772 12.202 3.26098 12.2058 3.08421C12.006 3.04711 11.7025 3.08858 11.7563 2.85289C11.7602 2.83979 11.4835 2.80051 11.3222 2.77214C11.5181 2.64557 11.9254 2.83325 12.0406 2.57355C11.9292 2.56919 11.8332 2.567 11.7409 2.56263C11.7371 2.54954 11.7333 2.53863 11.7294 2.52554C11.933 2.47316 12.1328 2.42079 12.3672 2.36187C12.2634 2.31385 12.1712 2.27239 12.0137 2.19819C12.2366 2.15018 12.3902 2.10435 12.5477 2.08689C13.4122 1.99087 14.2766 1.89267 15.1449 1.81628C16.017 1.7399 16.8891 1.67661 17.7651 1.6286C17.9687 1.61769 18.1877 1.69408 18.4029 1.72899C18.5258 1.74863 18.6487 1.777 18.7755 1.78355C19.5939 1.82938 20.4314 1.8272 21.2305 1.93195C21.8683 2.01487 22.4715 1.97559 23.0939 1.96249C23.5203 1.95377 23.9468 2.01487 24.3732 2.03233C24.6537 2.04324 24.938 2.04106 25.2223 2.03233C25.4144 2.02578 25.6065 1.99741 25.7448 1.98432C25.5488 1.87302 25.3299 1.74427 25.0993 1.62424C24.9188 1.5304 24.7228 1.44529 24.5768 1.37763C24.5768 1.37763 24.6767 1.36891 24.7689 1.36018C24.8074 1.13976 24.6268 1.07865 24.3233 1.07647C23.0055 1.06556 21.6877 1.02846 20.3699 1.04592C19.8397 1.05247 19.3134 1.1725 18.7832 1.24015C18.6872 1.25324 18.5911 1.2707 18.4835 1.26633C18.8908 1.07865 19.3633 1.01755 19.8513 1.00227C20.8847 0.971721 21.9182 0.958631 22.9479 0.936807C23.8776 0.917167 24.8074 0.882249 25.7371 0.875703C27.0549 0.866973 28.3765 0.877881 29.6943 0.877881C30.2898 0.877881 30.8891 0.871337 31.4846 0.875702C32.0609 0.880066 32.6334 0.904074 33.2097 0.904074C34.4276 0.901892 35.6493 0.88443 36.8672 0.880064C37.1745 0.880064 37.4857 0.904068 37.7931 0.919344C37.7931 0.936804 37.7892 0.954266 37.7892 0.971724C37.5626 0.962996 37.3359 0.947718 37.1092 0.9499C36.0642 0.962994 35.0192 0.98045 33.9742 1.00227C32.7102 1.02846 31.4462 1.05465 30.1861 1.08739C29.4791 1.10703 28.7761 1.14413 28 1.17686C28.4764 1.24452 28.9029 1.30562 29.4369 1.382C29.264 1.43219 29.1833 1.47365 29.0949 1.47802C28.7223 1.49548 28.3496 1.50421 27.977 1.51076C27.9078 1.51294 27.8348 1.49111 27.7656 1.45183C27.9078 1.44092 28.0461 1.43001 28.1883 1.41691C28.1883 1.40164 28.1883 1.38418 28.1883 1.3689C27.6465 1.3689 27.1048 1.3689 26.5631 1.3689C26.5593 1.34272 26.5593 1.31653 26.5554 1.29034C26.9243 1.27288 27.2931 1.25543 27.6581 1.23797C27.6581 1.22706 27.6542 1.21833 27.6542 1.20741C26.8705 1.16377 26.0906 1.12012 25.303 1.07647C25.2453 1.31216 25.3644 1.39509 25.7102 1.39727C26.2366 1.40164 26.7629 1.43655 27.2892 1.45838C27.2892 1.47802 27.2892 1.49984 27.2892 1.51948C26.6937 1.50421 26.0982 1.48675 25.472 1.46929C25.5143 1.71808 25.7909 1.71371 26.0022 1.73772C26.2596 1.76609 26.5247 1.75954 26.7821 1.78573C26.9742 1.80537 27.1509 1.87957 27.343 1.89048C27.5966 1.90358 27.854 1.87739 28.1114 1.87084C28.4111 1.86648 28.7069 1.87302 29.0066 1.86211C29.2102 1.85556 29.4138 1.83156 29.6136 1.81192C29.8595 1.78791 30.1054 1.753 30.3551 1.74209C30.4473 1.73772 30.5434 1.78355 30.6817 1.81628C30.5241 1.89703 30.4281 1.94504 30.2591 2.03452C30.8776 1.96468 31.3655 2.22656 31.9188 2.04761C32.0955 1.99087 32.376 2.05852 32.6103 2.05852C33.5785 2.05415 34.5466 2.05416 35.511 2.03452C36.2794 2.01924 37.0439 1.97996 37.8123 1.94068C38.0005 1.93195 38.2387 1.93631 38.3117 1.77263C38.3194 1.75299 38.4232 1.75081 38.4846 1.7399C38.5384 2.04324 39.0724 1.86429 39.2223 2.01924C38.8688 2.03451 38.5 2.04979 38.1273 2.06725C38.1273 2.09126 38.1273 2.11744 38.1273 2.14145C39.4566 2.15018 40.7898 2.15673 42.1191 2.16545C42.1229 2.18073 42.1268 2.196 42.1306 2.2091C42.0999 2.196 42.0653 2.18291 41.9769 2.148C42.1229 2.11526 42.2305 2.09125 42.365 2.05852C42.4572 2.37714 42.8568 2.21565 43.1218 2.26148C43.3793 2.30512 43.6482 2.32476 43.9018 2.38587C44.0478 2.37495 44.2168 2.24838 44.3282 2.44042C44.6164 2.37932 44.8776 2.69794 45.1965 2.46225C45.2387 2.42951 45.4232 2.46443 45.5423 2.47534C45.8919 2.51026 46.2338 2.56919 46.5834 2.5801C47.3672 2.6041 48.1509 2.61283 48.9308 2.61283C49.1998 2.61283 49.4726 2.54518 49.7415 2.54299C50.0642 2.54081 50.3908 2.57355 50.7135 2.59537C50.9133 2.60847 51.0285 2.58664 50.8749 2.42733C50.9056 2.42515 50.9363 2.42078 50.9709 2.4186C51.0477 2.48407 51.1246 2.54736 51.2514 2.65429C51.3589 2.63247 51.5318 2.58882 51.7086 2.56263C51.7739 2.5539 51.8776 2.567 51.9237 2.59537C52.2349 2.79178 53.0263 2.80706 53.3644 2.62811C53.4451 2.58446 53.5681 2.56918 53.691 2.56918C53.6334 2.60191 53.5757 2.63465 53.5143 2.66957C53.5373 2.69358 53.5527 2.72413 53.5681 2.72413C54.0214 2.73286 54.4786 2.73722 54.9319 2.74159C55.0741 2.74159 55.2163 2.73722 55.3546 2.73285C55.6273 2.72194 55.9001 2.71976 56.1652 2.69576C56.4956 2.66521 56.8106 2.65648 57.095 2.80706C57.2947 2.58883 57.5906 2.69576 57.8518 2.68266C57.8595 2.70449 57.8672 2.72412 57.8749 2.74595C57.5099 2.79178 57.1295 2.89653 56.7799 2.87034C56.3266 2.83542 55.8886 2.83106 55.4352 2.85506C54.9435 2.88125 54.444 2.84416 53.9446 2.85289C53.4759 2.86162 53.0071 2.88344 52.5384 2.91399C52.1465 2.94018 51.7623 2.99256 51.3705 3.02311C51.2706 3.02966 51.163 2.9751 51.0593 2.9751C50.6213 2.97728 50.1833 2.98819 49.7415 2.99692C49.7377 3.01874 49.7376 3.04056 49.7338 3.06239C49.7761 3.08639 49.8183 3.1104 49.8644 3.13659C49.6877 3.1475 49.5148 3.15841 49.3419 3.16714C49.3381 3.18242 49.3381 3.19988 49.3343 3.21515C49.3957 3.23043 49.4726 3.26971 49.5148 3.2588C49.826 3.17587 50.0873 3.29371 50.3716 3.32209C50.4523 3.33081 50.5445 3.28935 50.6136 3.22606C50.506 3.2086 50.4023 3.19332 50.2947 3.17587C50.3024 3.14968 50.3101 3.12568 50.3178 3.09949C50.4484 3.11695 50.5906 3.12131 50.7097 3.15623C50.8941 3.21078 51.0362 3.23697 51.09 3.04711C51.1246 3.05148 51.1553 3.05584 51.1899 3.06239C51.2591 3.15841 51.3244 3.25225 51.3935 3.34827C51.3666 3.35918 51.3359 3.37228 51.309 3.38319C51.478 3.39628 51.6509 3.40938 51.8238 3.42247C51.82 3.44648 51.8161 3.4683 51.8123 3.49231C51.5971 3.48576 51.382 3.48358 51.1668 3.46176C51.1476 3.45958 51.163 3.33082 51.163 3.22825C51.0862 3.25444 50.994 3.26535 50.9632 3.29808C50.7903 3.49667 50.4791 3.47485 50.1948 3.49449C49.6186 3.53377 49.0576 3.67562 48.4621 3.61888C48.2009 3.59487 47.9396 3.55996 47.6745 3.54032C47.5746 3.53377 47.4632 3.54905 47.3595 3.55996C47.1866 3.57742 47.0176 3.59924 46.8255 3.62106C46.9177 3.84148 46.6564 3.83275 46.4182 3.83711C46.2645 3.83929 46.1109 3.83711 45.9572 3.83711C45.9533 3.85239 45.9495 3.86985 45.9495 3.88512C45.9995 3.89603 46.0532 3.91349 46.1032 3.91349C46.7602 3.9004 47.4171 3.88294 48.0779 3.87203C48.6504 3.8633 49.2267 3.86548 49.7991 3.85239C49.9835 3.84802 50.1718 3.78692 50.3562 3.78911C50.7827 3.79347 51.2053 3.82839 51.6317 3.83493C52.1581 3.84366 52.6844 3.8262 53.2108 3.83929C53.4605 3.84584 53.7102 3.91786 53.9599 3.91568C54.64 3.90695 55.2892 4.00297 55.95 4.07499C56.1153 4.09245 56.2881 4.08589 56.461 4.09026C56.5033 4.09244 56.5571 4.08808 56.5878 4.10118C57.0104 4.29322 57.483 4.26049 57.9632 4.22993C58.1976 4.21684 58.4358 4.24739 58.674 4.25612C58.7316 4.2583 58.7931 4.24957 58.8546 4.1972C58.7547 4.1972 58.6586 4.20374 58.5626 4.19501C58.478 4.18847 58.3974 4.16665 58.3244 4.14264C58.3128 4.13828 58.332 4.06408 58.3513 4.06189C58.4435 4.04662 58.5971 4.01606 58.6279 4.04225C58.9007 4.25175 59.1235 4.09244 59.3886 4.0357C59.6191 3.98551 59.888 4.00515 60.1454 4.03352C59.9726 4.04225 59.7997 4.05098 59.6306 4.05971C59.6306 4.07935 59.6268 4.099 59.6268 4.11645C59.6959 4.13391 59.7689 4.15355 59.8458 4.17319C59.7997 4.19501 59.7612 4.21466 59.6614 4.26485C60.2223 4.26485 60.7256 4.26485 61.1789 4.26485C61.1789 4.34341 61.1789 4.41325 61.1789 4.50272C61.1597 4.50927 61.0982 4.52672 61.0406 4.54636C61.2558 4.73623 61.5593 4.74714 61.882 4.73841C62.174 4.73186 62.4737 4.76242 62.7618 4.73623C63.0576 4.71004 63.3381 4.63366 63.6262 4.58783C63.73 4.57037 63.8452 4.57692 63.9528 4.57256C63.9643 4.59656 63.9759 4.62275 63.9874 4.64676C63.8452 4.67949 63.7069 4.71223 63.5609 4.74714C63.7261 4.74714 63.899 4.75806 64.0604 4.74278C64.1679 4.73187 64.2563 4.67076 64.3639 4.64894C64.5252 4.6162 64.6251 4.46126 64.8557 4.56383C64.8902 4.5791 64.9863 4.54419 65.1015 4.48744C65.0093 4.46562 64.921 4.44162 64.8172 4.41543C65.2706 4.16883 65.7047 4.36087 66.112 4.34996C66.1158 4.3325 66.1235 4.31723 66.1273 4.29977C65.8776 4.26049 65.624 4.2212 65.3743 4.1841C65.4127 4.13391 65.4512 4.07935 65.4742 4.04662C65.9276 4.11863 66.3771 4.19065 66.8343 4.26485C66.7536 4.30413 66.6806 4.3325 66.6191 4.36742C66.477 4.45035 66.3348 4.48526 66.1235 4.46126C65.8315 4.42634 65.528 4.42852 65.2322 4.41543C65.1745 4.7406 65.1745 4.73623 65.6317 4.74278C65.8968 4.74714 66.1658 4.77988 66.4308 4.7777C66.5461 4.7777 66.6537 4.71659 66.7689 4.68604C66.815 4.67294 66.8803 4.65549 66.9188 4.6664C67.2761 4.74932 67.6065 4.70131 67.9522 4.62712C68.0982 4.59438 68.2903 4.64676 68.4594 4.64457C68.9243 4.63803 69.4045 4.57474 69.8502 4.62712C70.2574 4.67513 70.6262 4.61402 71.0104 4.59875C71.0796 4.59656 71.1487 4.5791 71.2179 4.56819C71.2179 4.55073 71.2179 4.53109 71.214 4.51363C70.8913 4.5049 70.5648 4.48745 70.242 4.48963C69.5659 4.49181 68.8897 4.53327 68.2212 4.50272C67.9369 4.48963 67.6641 4.40451 67.3606 4.47217C67.1954 4.50927 67.0187 4.52891 66.8496 4.5551C66.8304 4.52673 66.8074 4.49836 66.7881 4.46999C66.9072 4.42634 67.0187 4.36087 67.1493 4.34341C67.5104 4.28885 67.9215 4.17101 68.2404 4.22993C68.8474 4.33905 69.4352 4.26703 70.0269 4.2714C70.1767 4.27358 70.3266 4.21247 70.4802 4.17974C70.4726 4.16228 70.461 4.14264 70.4533 4.12518C70.096 4.12518 69.7388 4.12518 69.3776 4.12518C69.3776 4.10554 69.3776 4.0859 69.3776 4.06407C69.8386 4.06407 70.2958 4.06407 70.7914 4.06407C70.7453 4.13827 70.7184 4.1841 70.6531 4.28449C70.9105 4.26048 71.1142 4.24302 71.2179 4.23429C71.7519 4.23429 72.1937 4.23866 72.6394 4.23212C73.1427 4.22557 73.646 4.21247 74.1454 4.1972C75.0022 4.17319 75.8628 4.17319 76.7119 4.10772C77.2036 4.07062 77.6646 4.20811 78.1372 4.14046C78.4599 4.09244 78.8441 4.1972 79.1131 3.99861C79.1361 3.98115 79.2283 3.98114 79.2629 3.99424C79.5933 4.11426 79.5933 4.11427 79.966 4.0117C80.0351 3.99206 80.112 3.98769 80.185 3.97678C79.9544 3.80874 79.9544 3.81093 79.6279 3.89822C79.5549 3.91786 79.4588 3.91567 79.3743 3.91349C79.0055 3.9004 78.6367 3.86985 78.2678 3.87421C78.0796 3.87639 77.899 3.94623 77.7108 3.97678C77.5878 3.99642 77.4572 4.00079 77.315 3.97897C77.3842 3.96369 77.4533 3.94841 77.5263 3.93313C77.5263 3.91567 77.5263 3.89822 77.5225 3.88076C76.8847 3.88076 76.247 3.88076 75.5631 3.88076C75.6246 3.82184 75.663 3.78474 75.7437 3.70399C75.4824 3.69526 75.2596 3.68653 75.0406 3.67999C75.0406 3.70181 75.0406 3.72582 75.0368 3.74764C75.1559 3.73891 75.2788 3.728 75.3979 3.71927C75.3979 3.74109 75.4018 3.76291 75.4018 3.78474C74.764 3.90476 74.1224 3.91568 73.4539 3.75419C73.4808 3.728 73.5154 3.69745 73.5807 3.63852C73.2925 3.57742 73.0198 3.52067 72.7508 3.46393C72.7508 3.45084 72.7547 3.43993 72.7547 3.42684C73.135 3.46394 73.5154 3.50104 73.8957 3.53595C74.2069 3.56432 74.5181 3.59051 74.8293 3.61888C74.8408 3.59705 74.8562 3.57305 74.8677 3.55122C74.8216 3.51849 74.7794 3.48794 74.7025 3.43556C74.9984 3.39846 75.2596 3.34827 75.5247 3.34172C75.6937 3.33736 75.809 3.44648 76.0472 3.41156C76.5351 3.33954 77.0538 3.28717 77.5456 3.30899C77.8798 3.32427 78.2025 3.39628 78.5406 3.33299C78.6943 3.30462 78.848 3.2828 79.0016 3.25662C79.0016 3.23916 78.9978 3.22388 78.9978 3.20642C77.6493 3.14532 76.3046 3.08203 74.9215 3.01874C75.2903 2.83979 76.27 2.80706 76.8425 2.94018C76.831 2.88344 76.8156 2.82888 76.8002 2.75468C77.3803 2.94454 77.7069 2.95764 78.0719 2.77869C77.3035 2.61938 76.5236 2.75032 75.8052 2.6412C75.809 2.62374 75.8128 2.60628 75.8128 2.58664C76.1125 2.59974 76.4083 2.6172 76.708 2.62811C77.1959 2.64557 77.6839 2.6543 78.1718 2.67612C78.2217 2.6783 78.2563 2.74813 78.3178 2.76777C78.41 2.80051 78.5176 2.84197 78.6175 2.84197C79.0516 2.83324 79.4819 2.81142 79.9199 2.76341C79.7086 2.76341 79.4934 2.76341 79.2821 2.76341C79.2821 2.74377 79.2821 2.72413 79.2859 2.70449C80.1965 2.70449 81.1109 2.70449 82.0483 2.70449C81.9715 2.87253 81.8293 2.86816 81.6411 2.83542C81.4912 2.80923 81.3299 2.81142 81.1454 2.8005C81.303 2.99037 81.4566 3.0231 81.7294 2.95982C81.8024 2.94236 81.8985 2.95982 81.983 2.95982C82.3403 2.95982 82.6976 2.95327 83.0549 2.95982C83.2355 2.962 83.4122 2.98819 83.5889 3.00128C83.5889 3.0231 83.5928 3.04711 83.5928 3.06893C83.1548 3.09076 82.7168 3.11258 82.2788 3.13222C82.2788 3.1475 82.275 3.16278 82.275 3.18023C82.9127 3.18023 83.5505 3.18023 84.1882 3.18023C84.1882 3.20206 84.1883 3.22388 84.1921 3.2457C83.8117 3.27407 83.4352 3.30244 83.0549 3.33081C83.0587 3.35482 83.0626 3.37883 83.0664 3.40501C83.5697 3.38537 84.073 3.36791 84.6378 3.34609C84.5417 3.27625 84.511 3.25443 84.4341 3.19987C84.9643 3.1475 85.433 3.10167 85.9018 3.05365C85.8979 3.03183 85.8979 3.0122 85.8941 2.99037C85.6443 2.95327 85.41 2.8507 85.1257 2.95327C84.9643 3.01001 84.8222 3.05148 84.6262 2.962C84.511 2.90744 84.315 2.91617 84.1537 2.90744C83.758 2.88125 83.3661 2.86161 82.9704 2.83979C82.9704 2.82233 82.9704 2.80705 82.9704 2.7896C83.3008 2.80051 83.6312 2.82015 83.9616 2.81797C84.5225 2.8136 85.0834 2.78741 85.6405 2.78305C85.7711 2.78087 85.8979 2.84197 86.0324 2.84852C86.5587 2.87034 87.0851 2.88344 87.6153 2.89871C88.668 2.92926 89.7206 2.96855 90.7695 2.986C91.8222 3.00346 92.8787 2.9991 93.9352 3.00783C94.3194 3.01001 94.7113 3.04274 95.0917 3.01874C95.3529 3.00346 95.6065 2.91617 95.9177 2.8507C96.2481 3.05584 96.7398 2.97509 97.2201 2.95982C97.6926 2.94454 98.169 2.95109 98.6416 2.94672C99.2832 2.94018 99.9287 2.93145 100.574 2.88998C100.132 2.81142 99.6328 2.94672 99.2025 2.71321C99.5637 2.70885 99.8556 2.63901 100.221 2.67393C100.855 2.73285 101.515 2.6783 102.165 2.66084C102.668 2.64774 103.164 2.54954 103.675 2.66957C103.824 2.70449 104.032 2.64119 104.216 2.62374C104.216 2.60409 104.216 2.58445 104.216 2.56263C104.109 2.53644 103.997 2.50807 103.89 2.48189C103.89 2.47098 103.894 2.46007 103.894 2.44915C104.109 2.44042 104.328 2.43388 104.543 2.42515C104.543 2.40551 104.547 2.38805 104.547 2.36841C103.786 2.35095 103.033 2.22655 102.261 2.35749L102.268 2.36186C102.387 2.3073 102.503 2.25275 102.622 2.19819C102.618 2.18291 102.618 2.16763 102.614 2.15018C102.314 2.15018 102.015 2.15454 101.715 2.15018C100.889 2.1349 100.067 2.10216 99.241 2.09998C98.0692 2.09561 96.8935 2.11308 95.7217 2.1218C95.3683 2.30294 94.9879 2.23092 94.5538 2.11962C94.6076 2.22655 94.6345 2.27675 94.6614 2.33131C94.6268 2.34003 94.596 2.35532 94.5692 2.35532C94.112 2.34222 93.6509 2.35313 93.2053 2.30512C92.7173 2.25274 92.2602 2.30949 91.7876 2.33567C91.4265 2.35532 91.0499 2.29857 90.685 2.27675C90.685 2.25711 90.6811 2.23528 90.6811 2.21564C91.0038 2.19818 91.3304 2.18073 91.6531 2.16327C91.6531 2.14799 91.657 2.1349 91.657 2.11962C91.0845 2.08252 90.5121 2.0476 89.9396 2.0105C89.9319 1.99523 89.9243 1.98214 89.9166 1.96686C90.0626 1.94722 90.2124 1.9123 90.3584 1.9123C91.2497 1.90794 92.1411 1.9123 93.0362 1.91448C94.1465 1.91666 95.2569 1.91885 96.3633 1.91885C96.494 1.91885 96.6515 1.94722 96.6592 1.80537C96.6592 1.78791 96.8474 1.75735 96.9473 1.75735C97.1625 1.75735 97.3814 1.77918 97.5966 1.78572C98.2958 1.80318 98.9951 1.82937 99.6981 1.82937C99.944 1.82937 100.19 1.75518 100.436 1.7159C100.497 1.70717 100.582 1.68752 100.624 1.70498C100.997 1.84247 101.412 1.7639 101.8 1.80755C102.149 1.84683 102.399 1.72244 102.703 1.70716C103.175 1.68098 103.655 1.64824 104.128 1.65261C105.619 1.6657 107.109 1.69625 108.604 1.7159C108.973 1.72026 109.341 1.71371 109.706 1.69625C111.132 1.63296 112.549 1.67443 113.971 1.77918C115.319 1.87738 116.672 1.97559 118.04 1.87957C118.643 1.8381 119.257 1.89048 119.868 1.88175C120.614 1.87083 121.359 1.84246 122.108 1.82064C122.642 1.80536 123.176 1.79009 123.706 1.76608C123.895 1.75736 124.083 1.72244 124.271 1.69843C124.271 1.67661 124.271 1.6526 124.271 1.63078C123.726 1.59368 123.184 1.55658 122.638 1.51948C122.642 1.49984 122.642 1.47802 122.646 1.45837C124.079 1.44746 125.501 1.60459 126.934 1.63733C126.941 1.61332 126.945 1.58713 126.953 1.56313C126.223 1.47802 125.497 1.39291 124.767 1.30998C124.767 1.29252 124.771 1.27506 124.771 1.2576C125.6 1.29252 126.434 1.32526 127.264 1.36017C127.268 1.33617 127.272 1.31434 127.276 1.29034C127.137 1.28161 126.999 1.27506 126.841 1.26633C126.83 1.17685 126.953 1.06774 126.592 1.08956C126.035 1.12448 125.458 1.05465 124.89 1.03719C124.713 1.03282 124.532 1.05465 124.344 1.02846C124.59 1.00882 124.836 0.989178 125.082 0.969536C125.078 0.956442 125.078 0.941166 125.074 0.928072C124.947 0.923708 124.821 0.917158 124.694 0.912794C124.686 0.893153 124.675 0.873514 124.667 0.853874C124.855 0.805863 125.043 0.757847 125.232 0.707655C125.235 0.685831 125.239 0.666195 125.243 0.644373C124.886 0.602909 124.525 0.561442 124.167 0.519978C124.171 0.491608 124.175 0.461056 124.179 0.432686C124.882 0.550532 125.581 0.605089 126.323 0.46542C126.223 0.395586 126.146 0.341028 126.073 0.288653C126.48 0.354122 126.88 0.105335 127.279 0.260281C127.279 0.284287 127.276 0.306111 127.276 0.330116C127.068 0.330116 126.861 0.330116 126.653 0.330116C126.649 0.35194 126.645 0.37376 126.642 0.395584C126.749 0.41959 126.857 0.463236 126.964 0.463236C127.518 0.4676 128.094 0.506882 128.586 0.334478C128.824 0.251551 129.039 0.140253 129.308 0.103153C130.134 -0.0146923 130.952 0.0856934 131.774 0.122793C132.078 0.135887 132.385 0.153345 132.685 0.135887C133.211 0.103151 133.738 0.0398654 134.264 0.000583502C134.345 -0.00596443 134.437 0.0442294 134.525 0.0682352C134.452 0.146799 134.406 0.271192 134.302 0.295198C133.968 0.37158 133.607 0.399948 133.261 0.463236C132.816 0.546163 132.374 0.640009 131.932 0.733849C131.651 0.794952 131.394 0.79277 131.129 0.692385C130.799 0.570173 130.387 0.629091 130.291 0.797131C130.476 0.827684 130.664 0.858238 130.852 0.88879C130.849 0.904066 130.849 0.921526 130.845 0.936802C129.976 1.02628 129.104 1.11575 128.198 1.20959C128.255 1.23578 128.286 1.26197 128.317 1.26415C129.339 1.2707 130.361 1.28161 131.383 1.27506C131.532 1.27506 131.682 1.20304 131.87 1.15285C132.385 1.32089 132.958 1.21395 133.507 1.10484C134.007 1.00664 134.402 1.01318 134.76 1.28161C135.132 1.56531 135.632 1.62205 136.196 1.51512C136.412 1.47365 136.638 1.45619 136.861 1.43219C136.903 1.42782 136.976 1.42782 136.984 1.44092C137.149 1.64169 137.557 1.58495 137.741 1.71371C137.791 1.95376 137.822 2.1829 137.895 2.4055C137.922 2.48843 138.052 2.56045 138.141 2.63465C138.171 2.66084 138.248 2.68484 138.244 2.70449C138.21 2.85943 138.363 2.96636 138.444 3.09512C138.54 3.2457 138.648 3.24788 138.828 3.25661C138.909 3.26098 138.99 3.27407 139.074 3.2828C139.082 3.30244 139.089 3.32208 139.097 3.34172C138.432 3.5054 137.764 3.67125 137.076 3.83929C137.115 3.95714 137.149 4.05971 137.199 4.21465C136.089 4.1841 134.975 4.05752 133.918 4.33686C133.984 4.50708 134.172 4.56818 134.464 4.48526C134.602 4.44598 134.721 4.38706 134.859 4.35214C135.255 4.25393 135.62 4.38051 135.997 4.42634C136.319 4.46562 136.638 4.50709 136.957 4.55946C137.084 4.58129 137.199 4.63366 137.284 4.70567C138.152 4.67512 139.016 4.64675 139.885 4.6162C139.896 4.64457 139.908 4.67076 139.919 4.69913C139.777 4.73186 139.639 4.76896 139.493 4.79296C139.285 4.82788 138.997 4.73186 138.92 4.96101C138.905 5.00465 138.682 5.04394 138.552 5.05048C138.271 5.06358 137.983 5.05266 137.703 5.05921C137.614 5.06139 137.533 5.09631 137.445 5.11595C137.484 5.17487 137.499 5.25344 137.568 5.29272C137.864 5.44985 138.217 5.52404 138.609 5.52841C138.755 5.53059 138.897 5.54151 139.04 5.54805C139.04 5.57424 139.043 5.60261 139.043 5.6288C138.552 5.6659 138.06 5.70081 137.46 5.74664C138.206 5.84703 138.855 5.97361 139.266 6.35988C139.224 6.48209 139.07 6.53228 138.851 6.53665C138.667 6.54101 138.482 6.5541 138.298 6.56283C138.298 6.58466 138.298 6.6043 138.294 6.62612C138.525 6.64576 138.755 6.66759 138.982 6.68723C138.982 6.7025 138.986 6.71559 138.986 6.73087C138.913 6.75269 138.84 6.77452 138.778 6.79197C138.928 7.10405 139.481 7.0604 139.854 7.23499C139.635 7.27645 139.478 7.30483 139.32 7.33538C139.316 7.35284 139.308 7.37029 139.305 7.38775C139.535 7.46631 139.769 7.54488 140 7.62344C139.992 7.6409 139.985 7.65836 139.973 7.67364C139.301 7.71728 138.605 7.61689 137.941 7.73474C137.929 7.75656 137.918 7.77838 137.906 7.80021C138.602 8.0228 139.293 8.2454 139.988 8.47018C139.985 8.48546 139.985 8.50073 139.981 8.51601C139.516 8.55966 139.051 8.6033 138.532 8.6535C138.978 8.84118 139.37 9.00267 139.777 9.17508C139.57 9.20126 139.358 9.22963 139.159 9.25582C139.12 9.43259 139.608 9.46751 139.401 9.70538C138.955 9.38239 138.425 9.31692 137.814 9.39112C137.411 9.43913 136.999 9.45659 136.592 9.48715C136.588 9.51333 136.585 9.53734 136.581 9.56353C136.95 9.6159 137.314 9.67482 137.687 9.71629C138.044 9.75557 138.11 9.8014 138.056 10.0153C138.375 10.1593 138.359 10.2641 138.01 10.3884C137.86 10.443 137.703 10.491 137.557 10.5456C137.503 10.5652 137.449 10.5914 137.418 10.622C137.314 10.7311 137.222 10.8424 137.111 10.9711C137.245 10.9799 137.437 10.9908 137.718 11.0082C137.418 11.0802 137.199 11.1304 136.915 11.2003C137.034 11.2897 137.107 11.401 137.238 11.4338C137.691 11.5451 137.91 11.7153 137.768 12.0208C137.764 12.0317 137.787 12.0448 137.791 12.0579C137.795 12.0688 137.783 12.0819 137.772 12.1059C137.687 12.1168 137.583 12.1212 137.499 12.1452C137.426 12.1649 137.364 12.2085 137.299 12.2391C137.364 12.2827 137.426 12.3525 137.503 12.3613C137.722 12.3875 137.948 12.3853 138.206 12.3984C137.948 12.6712 137.207 12.4791 137.153 12.8807C136.915 12.8872 136.634 12.8567 136.573 13.0814C137.126 13.184 137.672 13.1687 138.225 13.1033C138.356 13.088 138.502 13.1207 138.644 13.1294C138.644 13.1535 138.64 13.1796 138.64 13.2036C138.148 13.2931 137.656 13.3826 137.153 13.4743C137.357 13.6052 137.545 13.7296 137.752 13.8649C137.687 13.9107 137.637 13.9478 137.587 13.9827C137.787 14.4017 138.398 14.2752 138.974 14.3035C138.521 14.5065 137.998 14.3319 137.714 14.5414C137.833 14.6614 137.933 14.7553 138.029 14.8513C137.872 14.9059 137.714 14.9582 137.495 15.0346C137.741 15.0739 137.929 15.1044 138.137 15.1394C138.048 15.1612 137.983 15.1787 137.879 15.2048C138.117 15.2856 138.317 15.3532 138.517 15.4209C138.505 15.434 138.494 15.4449 138.482 15.458C137.987 15.4122 137.491 15.3663 136.992 15.3205C136.98 15.3423 136.973 15.3663 136.961 15.3882C137.18 15.4624 137.399 15.5344 137.614 15.6086C137.61 15.6151 137.603 15.6238 137.599 15.6304C137.307 15.5758 137.019 15.5038 136.719 15.4689C136.281 15.4187 135.835 15.3751 135.394 15.3685C135.102 15.3641 134.752 15.5038 134.521 15.4405C134.233 15.3641 133.968 15.3292 133.68 15.3401C133.542 15.3445 133.411 15.3947 133.277 15.4231C133.284 15.4536 133.296 15.4842 133.304 15.5147C133.572 15.5147 133.838 15.5147 134.106 15.5147C134.11 15.5235 134.114 15.5344 134.118 15.5431C133.734 15.6282 133.353 15.7111 132.958 15.7984C133.361 15.8814 133.768 15.9643 134.176 16.0494C134.172 16.0712 134.168 16.0909 134.168 16.1127C134.076 16.1258 133.98 16.1411 133.864 16.1585C133.899 16.1956 133.934 16.2305 133.976 16.2742C133.93 16.2785 133.895 16.2851 133.868 16.2829C133.642 16.2567 133.492 16.3309 133.315 16.4073C133.015 16.5382 132.681 16.6364 132.362 16.7521C132.243 16.7958 132.113 16.8372 132.013 16.894C131.974 16.9158 131.982 17.014 132.013 17.0249C132.378 17.134 132.662 17.3697 133.165 17.313C133.146 17.2671 133.127 17.2235 133.092 17.1471C133.196 17.1711 133.265 17.1798 133.323 17.2017C133.542 17.2824 133.745 17.3872 133.98 17.4483C134.203 17.5072 134.191 17.6163 134.183 17.7145C134.176 17.8258 134.106 17.9349 134.06 18.0484C134.241 18.0855 134.379 18.1117 134.514 18.1401C134.502 18.1619 134.495 18.1837 134.483 18.2055C134.133 18.1488 133.78 18.0942 133.43 18.0375C133.423 18.0549 133.411 18.0724 133.4 18.0899C133.469 18.1117 133.534 18.1357 133.603 18.1575C133.611 18.175 133.615 18.1924 133.622 18.2121C133.457 18.2317 133.284 18.2754 133.123 18.2666C132.6 18.2361 132.166 18.391 131.694 18.4783C131.333 18.546 130.937 18.57 130.557 18.5678C129.546 18.5634 128.536 18.5329 127.529 18.5154C127.179 18.5089 126.849 18.4958 126.499 18.439C126.115 18.3758 125.677 18.4238 125.266 18.4259C123.86 18.4325 122.454 18.4259 121.048 18.45C119.45 18.4761 117.847 18.5198 116.249 18.57C115.369 18.5983 114.497 18.6551 113.621 18.7031C113.398 18.7162 113.176 18.7751 112.957 18.7708C112.503 18.7598 112.042 18.6747 111.597 18.7031C110.578 18.7686 109.583 18.5656 108.565 18.6725C108.565 18.6529 108.561 18.6333 108.561 18.6136C108.976 18.5962 109.395 18.5765 109.81 18.5591C107.332 18.3583 104.85 18.5372 102.376 18.4652C102.733 18.3277 102.768 18.3277 103.179 18.4369C103.225 18.45 103.283 18.4565 103.336 18.4543C104.42 18.4129 105.499 18.367 106.579 18.3277C106.998 18.3125 107.417 18.3125 107.835 18.2994C107.931 18.2972 108.024 18.2623 108.12 18.2426C108.12 18.223 108.12 18.2034 108.116 18.1837C107.893 18.1553 107.662 18.1379 107.447 18.0942C107.19 18.0419 106.994 18.0702 106.852 18.2186C106.656 18.0375 106.441 18.0069 106.057 18.0964C105.619 18.1968 105.192 18.1793 104.654 18.0288C104.927 18.0157 105.134 18.0048 105.346 17.9939C105.346 17.9764 105.346 17.9611 105.342 17.9437C105.158 17.9306 104.973 17.9175 104.789 17.9066C104.789 17.8935 104.789 17.8825 104.789 17.8695C105.515 17.8695 106.237 17.8695 106.936 17.8695C106.986 17.9044 107.04 17.9764 107.094 17.9764C107.501 17.9764 107.908 17.9633 108.331 17.9066C108.285 17.8869 108.243 17.8673 108.131 17.8193C109.749 17.8018 111.316 17.9131 112.861 17.6818C111.939 17.6621 111.013 17.6425 110.091 17.6229C110.087 17.5945 110.087 17.5639 110.083 17.5356C110.206 17.5159 110.329 17.4963 110.452 17.4766C110.452 17.4592 110.456 17.4417 110.456 17.4243C110.152 17.4243 109.849 17.4243 109.549 17.4264C109.522 17.4264 109.476 17.4417 109.472 17.457C109.318 17.7865 108.896 17.5661 108.604 17.6185C108.761 17.5858 108.919 17.5552 109.08 17.5225C109.076 17.5006 109.069 17.4766 109.065 17.4548C108.869 17.4548 108.669 17.4526 108.473 17.4548C107.036 17.4723 105.603 17.4919 104.166 17.505C103.529 17.5116 102.891 17.4897 102.253 17.5028C101.953 17.5094 101.654 17.5617 101.354 17.5945C101.362 17.6119 101.366 17.6272 101.373 17.6447C101.312 17.6119 101.25 17.5487 101.193 17.5487C100.424 17.5574 99.6597 17.5748 98.8913 17.5923C98.8875 17.6163 98.8875 17.6381 98.8836 17.6621C99.0757 17.673 99.2755 17.7014 99.4638 17.6905C100.04 17.6534 100.117 17.6621 100.628 17.9458C100.313 17.9698 100.032 17.9873 99.7519 18.0157C99.6712 18.0244 99.5983 18.0659 99.4561 18.1139C98.803 18.1422 98.0653 18.175 97.3277 18.2077C97.32 18.2252 97.3123 18.2448 97.3008 18.2623C97.3776 18.3059 97.4583 18.3496 97.5351 18.391C97.5236 18.4063 97.5159 18.4194 97.5044 18.4347C97.3968 18.3998 97.2969 18.3605 97.1855 18.3343C97.0818 18.3103 96.9627 18.2863 96.8551 18.2906C96.5362 18.3059 96.2365 18.3365 95.8985 18.2754C95.5988 18.2208 95.2415 18.2906 94.8611 18.3059C95.2453 18.2077 95.6026 18.0986 95.9791 18.0288C96.3825 17.9546 96.8013 17.9109 97.2201 17.8651C97.6388 17.8193 98.0653 17.7843 98.5379 17.7407C98.0576 17.5443 95.5489 17.6556 95.0686 17.7472C95.3106 17.8084 95.4758 17.8498 95.6449 17.8913C95.6065 18.0004 95.4912 18.02 94.8573 18.0179C94.9418 17.9677 95.034 17.9153 95.1839 17.828C95.0264 17.8171 94.9457 17.7974 94.888 17.8127C94.4539 17.9371 93.9929 17.8891 93.5434 17.9066C93.3397 17.9131 93.1015 17.948 93.0209 17.7603C93.0093 17.7298 92.8326 17.7167 92.7365 17.7189C92.7058 17.7189 92.6789 17.7953 92.6251 17.8716C92.3524 17.8127 92.0604 17.7494 91.7415 17.6796C91.7761 17.6338 91.8106 17.5858 91.876 17.4985C91.5686 17.5246 91.4956 17.625 91.4764 17.7712C91.3381 17.7582 91.1883 17.7451 91.0384 17.732C91.0346 17.7189 91.0346 17.708 91.0307 17.6949C91.1229 17.6752 91.219 17.6556 91.3112 17.6338C91.0845 17.6054 90.8348 17.4439 90.6427 17.6752C90.6235 17.7014 90.5274 17.7167 90.4698 17.7167C89.7629 17.7189 89.056 17.7189 88.3375 17.6796C88.7794 17.6425 89.2212 17.6076 89.663 17.5727C89.6861 17.5705 89.713 17.5683 89.7283 17.5748C90.028 17.7211 90.247 17.6381 90.4621 17.4897C90.5005 17.4635 90.6273 17.4745 90.7119 17.4832C91.1191 17.529 91.511 17.5552 91.7991 17.313C91.8183 17.2955 91.9029 17.3064 91.9605 17.3042C91.8568 17.457 91.9528 17.4766 92.5906 17.4308C92.5329 17.4046 92.5022 17.3872 92.4061 17.3435C92.7711 17.3435 93.0823 17.3326 93.3897 17.3457C93.8507 17.3675 94.3079 17.4199 94.7651 17.4308C95.1954 17.4395 95.6257 17.4133 96.056 17.3959C96.1098 17.3937 96.1559 17.3522 96.202 17.2737C95.8447 17.2584 95.4874 17.2409 95.0993 17.2235C95.0993 17.1995 95.1147 17.1602 95.0955 17.1296C95.0763 17.0969 95.0264 17.0576 94.9802 17.0511C94.9303 17.0445 94.8573 17.0642 94.8112 17.086C94.7228 17.1253 94.6498 17.2148 94.5653 17.2169C93.9583 17.2279 93.3513 17.2235 92.8019 17.2235C92.9594 17.1667 93.1592 17.0969 93.3589 17.0271C93.3397 17.0031 93.3205 16.9813 93.3013 16.9572C93.0938 16.9813 92.8134 16.8307 92.7212 17.0314C92.5176 17.0031 92.3216 16.9725 92.1257 16.9485C92.0757 16.942 91.9874 16.9529 91.9759 16.9703C91.826 17.1995 91.5033 17.0816 91.2344 17.0969C91.2997 17.0642 91.3688 17.0314 91.4533 16.9878C91.3765 16.9725 91.3189 16.9485 91.2613 16.9485C90.8617 16.9442 90.4583 16.9463 90.0587 16.9463C89.8474 16.9463 89.6284 16.9071 89.4786 17.0576C89.4517 17.0838 89.2865 17.062 89.1866 17.0576C88.9676 17.0467 88.7448 17.0249 88.5258 17.0249C88.0609 17.0249 87.5922 17.0358 87.1273 17.0402C86.7892 17.0445 86.4512 17.0445 86.1131 17.0533C86.0324 17.0555 85.9555 17.086 85.8787 17.1035C85.8096 17.1187 85.7327 17.1537 85.6789 17.1427C84.8222 17.0031 83.9654 17.1406 83.1087 17.1231C82.9089 17.1187 82.7053 17.134 82.5324 17.1013C82.4671 17.0838 82.4018 17.0489 82.3364 17.0489C81.8639 17.0445 81.3875 17.0445 80.9149 17.0489C80.6076 17.0511 80.2964 17.0685 79.989 17.0729C79.7431 17.0751 79.4973 17.0751 79.2514 17.0576C79.1515 17.0511 79.0631 16.9987 78.9824 17.0009C78.3677 17.0096 77.7569 17.014 77.1422 17.0271C76.5274 17.0424 75.9127 17.0685 75.298 17.0882C75.2903 17.0664 75.2827 17.0424 75.275 17.0205C75.4325 16.9943 75.5862 16.9703 75.7437 16.9442C75.7437 16.9223 75.7437 16.9005 75.7437 16.8787C75.4901 16.8721 75.2327 16.8569 74.9791 16.859C74.7179 16.8612 74.4528 16.8656 74.1992 16.9005C73.9457 16.9376 73.7075 17.0162 73.4616 17.0773C73.4731 17.0554 73.4885 17.0336 73.5 17.0118C73.427 16.9791 73.3502 16.918 73.281 16.9201C73.0274 16.9289 72.7739 16.9616 72.5203 16.9791C72.0401 17.0096 71.5598 17.0358 71.0796 17.0598C71.0181 17.062 70.9528 17.0489 70.8875 17.0424C70.8836 17.0249 70.8798 17.0053 70.876 16.9878C71.0949 16.9725 71.3101 16.942 71.5291 16.9442C71.7481 16.9463 71.9363 16.9376 72.0631 16.8067C72.09 16.7761 72.2322 16.7477 72.2437 16.7565C72.4627 16.9158 72.7316 16.8154 72.9775 16.8154C73.3386 16.8154 73.719 16.7979 74.0571 16.7652C74.3683 16.7346 74.6449 16.8001 74.9292 16.7717C75.1405 16.7499 75.3518 16.715 75.5631 16.7019C76.0126 16.6757 76.466 16.6605 76.9193 16.643C77.0346 16.6386 77.1498 16.643 77.2651 16.643C77.2651 16.6234 77.2651 16.6015 77.2651 16.5819C76.9232 16.5819 76.5774 16.5797 76.2355 16.5819C75.7898 16.5863 75.3172 16.6539 74.8985 16.5884C74.011 16.4466 73.1734 16.6692 72.309 16.6539C71.7365 16.643 71.1641 16.6648 70.5917 16.6604C70.4956 16.6604 70.3957 16.6059 70.2997 16.5775C70.3074 16.5535 70.315 16.5295 70.3227 16.5055C70.6723 16.488 71.0181 16.4706 71.3908 16.4509C71.36 16.416 71.3216 16.3767 71.2717 16.32C71.4791 16.296 71.6482 16.2545 71.7212 16.4248C71.7366 16.4575 71.921 16.4771 72.0285 16.4749C73.0159 16.4619 73.9995 16.4466 74.9868 16.4269C75.567 16.416 76.1471 16.3942 76.7387 16.4095C76.6389 16.4248 76.539 16.44 76.4391 16.4553C76.4429 16.4706 76.4429 16.4859 76.4468 16.499C76.8233 16.4837 77.1959 16.4662 77.5724 16.4509C77.5686 16.4269 77.5686 16.4051 77.5648 16.3811C77.4226 16.3877 77.2805 16.392 77.1345 16.3986C77.1345 16.3833 77.1345 16.3658 77.1306 16.3506C77.8952 16.32 78.6636 16.2873 79.4281 16.2567C79.4319 16.2436 79.4358 16.2327 79.4396 16.2196C79.3513 16.1891 79.2667 16.1563 79.1592 16.1171C79.2322 16.1018 79.2975 16.0887 79.3628 16.0756C79.3628 16.0581 79.3589 16.0407 79.3589 16.021C78.9133 16.021 78.4676 16.021 77.9835 16.021C78.0719 16.0516 78.1411 16.0734 78.2409 16.1083C77.7838 16.1607 77.3688 16.2153 76.9462 16.2589C76.5198 16.3025 76.0933 16.3375 75.6976 16.1694C75.7475 16.1498 75.7859 16.1345 75.8244 16.1192C75.8205 16.1083 75.8128 16.0974 75.809 16.0865C75.4094 16.0974 75.0099 16.1105 74.6103 16.1214C73.9918 16.1389 73.3694 16.1498 72.7508 16.1716C72.5126 16.1803 72.2744 16.2153 72.0093 16.1956C72.2322 16.1476 72.455 16.0996 72.6548 16.0581C72.3589 15.9468 71.9824 15.9927 71.6905 16.1432C71.5829 16.1978 71.3754 16.1803 71.2102 16.1934C71.2064 16.1716 71.2025 16.1476 71.1987 16.1258C71.3024 16.1127 71.4061 16.0974 71.5637 16.0778C71.4676 16.0036 71.4062 15.9556 71.3562 15.9185C71.7942 15.9185 72.2475 15.9185 72.7393 15.9185C72.5895 15.8574 72.4627 15.8072 72.3359 15.7591C72.309 15.7482 72.2475 15.7417 72.2475 15.7461C72.0823 15.9752 71.8172 15.7832 71.6059 15.7962C71.1026 15.8268 70.5878 15.7897 70.0922 15.8312C69.3661 15.8923 68.6438 15.8181 67.9177 15.8595C67.2722 15.8966 66.6191 15.8639 65.966 15.8639C65.9276 15.8639 65.8891 15.8814 65.7585 15.9119C67.1378 16.0625 68.4555 15.7962 69.8194 16.0319C69.6696 16.0756 69.5889 16.0974 69.4813 16.128C69.6926 16.128 69.8847 16.128 70.0768 16.128C70.0884 16.152 70.1037 16.176 70.1153 16.2C70.0077 16.2262 69.8655 16.2916 69.7964 16.2698C69.2355 16.093 68.736 16.224 68.2289 16.3571C68.056 16.4029 67.8831 16.4422 67.6718 16.4924C67.7294 16.2458 68.4056 16.4444 68.2173 16.1149C68.444 16.1018 68.6246 16.093 68.8052 16.0821C68.8052 16.0625 68.8013 16.045 68.8013 16.0254C66.5307 16.0603 64.2602 16.0952 61.8897 16.1323C62.0472 16.1869 62.1202 16.2109 62.197 16.2393C62.1701 16.2545 62.1509 16.2742 62.124 16.2764C61.8666 16.2982 61.6208 16.3047 61.4901 16.4968C61.4555 16.547 61.1674 16.5317 60.9945 16.5448C60.9868 16.523 60.9791 16.5033 60.9676 16.4815C61.0829 16.4575 61.1981 16.4313 61.3134 16.4073C61.3134 16.3942 61.3096 16.3811 61.3096 16.368C60.2722 16.368 59.2349 16.368 58.1976 16.368C58.1937 16.3637 58.1899 16.3615 58.1822 16.3571C58.3167 16.344 58.4473 16.3287 58.5818 16.3156C58.5472 16.0734 58.5049 16.0559 57.725 15.9446C57.8787 15.9381 58.0362 15.9316 58.1899 15.925C58.1899 15.9032 58.1899 15.8835 58.1861 15.8617C57.6405 15.8617 57.0988 15.8617 56.5532 15.8617C56.0115 15.8617 55.4737 15.8617 54.9319 15.8617C54.9319 15.8857 54.9319 15.9119 54.9319 15.9359C55.7503 15.9359 56.5686 15.9359 57.3908 15.9359C57.3408 16.0341 57.3447 16.0407 56.657 16.0952C56.3727 16.1171 56.0768 16.0996 55.7849 16.1171C56.4418 16.3113 57.1948 16.1061 57.9056 16.3396C57.7711 16.3658 57.6597 16.4073 57.5445 16.4073C56.9029 16.416 56.2651 16.4248 55.6235 16.4204C54.3518 16.4095 53.0801 16.3811 51.8084 16.3767C51.017 16.3746 50.2256 16.4073 49.4341 16.4051C49.2151 16.4051 48.9962 16.3396 48.7042 16.2916C48.8578 16.272 48.9577 16.2458 49.0499 16.248C49.4034 16.2545 49.753 16.2742 50.1065 16.2785C50.2794 16.2807 50.4753 16.3156 50.5713 16.1629C50.5944 16.1236 50.7788 16.1192 50.8902 16.0625C50.3716 16.0429 49.8529 16.0232 49.3304 16.0036C49.3266 16.0254 49.3227 16.0472 49.3189 16.069C49.4802 16.0821 49.6416 16.0952 49.8068 16.1083C49.5609 16.2022 49.3419 16.1891 49.1229 16.1018C49 16.0538 48.8348 16.0298 48.685 16.0254C48.2009 16.0079 47.713 15.9992 47.225 15.9948C46.7602 15.9905 46.2953 15.9948 45.7536 15.9948C45.8727 16.0145 45.9303 16.0232 45.9879 16.0341C46.2607 16.0843 46.5335 16.1585 46.8139 16.1825C47.0637 16.2043 47.3288 16.1694 47.5823 16.1585C47.5593 16.2502 47.4325 16.2785 47.225 16.2633C46.9061 16.2393 46.5834 16.2131 46.2645 16.2196C45.8074 16.2305 45.3502 16.2764 44.893 16.296C44.2437 16.3222 43.579 16.2873 42.9528 16.3746C42.4802 16.44 42.096 16.2436 41.6581 16.3375C41.6581 16.3156 41.6581 16.2938 41.6581 16.272C42.1614 16.2654 42.6685 16.2676 43.1718 16.2502C43.4138 16.2414 43.6559 16.2 43.8979 16.1738C43.921 16.1956 43.9479 16.2349 43.9709 16.2349C44.3128 16.2393 44.6586 16.2458 45.0005 16.2284C45.062 16.2262 45.1081 16.1149 45.1619 16.0559C45.1389 16.0472 45.112 16.0385 45.0889 16.0298C45.1965 16.0167 45.3079 16.0014 45.4155 15.9883C45.4116 15.9774 45.4078 15.9665 45.4039 15.9556C45.112 15.9665 44.8238 15.9774 44.4934 15.9905C44.5818 16.069 44.6279 16.1105 44.6471 16.128C44.4396 16.1411 44.1899 16.1585 43.9402 16.176ZM19.8589 17.8978C20.0088 17.9524 20.1509 18.0222 20.3161 18.0571C20.3815 18.0702 20.4929 18.0048 20.5812 17.9764C20.6158 18.02 20.635 18.0855 20.6926 18.1008C20.9308 18.1684 21.1844 18.2383 21.4687 18.127C21.2536 18.0331 21.0077 18.02 20.7964 17.9393C20.5582 17.8498 20.174 17.9087 19.8513 17.9044C19.3825 17.7036 18.8677 17.8215 18.3683 17.8236C18.595 17.8891 18.837 17.9131 19.0675 17.9611C19.2788 18.0048 19.4863 18.1335 19.6438 17.9153C19.6592 17.8935 19.7859 17.9022 19.8589 17.8978ZM42.2228 17.1842C42.2267 17.1908 42.2305 17.1973 42.2382 17.206C41.8233 17.1755 41.4083 17.1384 40.9934 17.1144C40.5401 17.0882 40.0867 17.0685 39.6334 17.0576C39.1685 17.0489 38.7036 17.0555 38.2426 17.0533C37.7854 17.0511 37.3282 17.0467 36.8749 17.0445C36.4369 17.0424 35.9989 17.0445 35.5648 17.0445C35.5609 17.0685 35.5609 17.0947 35.5571 17.1187C35.8337 17.1624 36.1103 17.2322 36.3946 17.2388C36.6904 17.2475 36.9901 17.1973 37.3128 17.1689C37.3052 17.2344 37.2975 17.289 37.2898 17.3413C38.0966 17.5617 40.8013 17.6425 41.5428 17.4614C41.0472 17.4395 40.5516 17.4199 40.0637 17.3981C40.2212 17.2497 39.8216 17.3195 39.7525 17.1973C39.9215 17.2148 40.0598 17.2279 40.1943 17.2431C40.3941 17.265 40.5939 17.2977 40.7975 17.3086C41.0856 17.3239 41.3776 17.3195 41.6658 17.3348C41.9577 17.3522 42.2459 17.3915 42.5379 17.409C42.7184 17.4199 42.8299 17.385 42.6685 17.265C42.7645 17.241 42.8567 17.2148 42.949 17.1908C42.9413 17.1689 42.9374 17.1493 42.9298 17.1275C42.6877 17.1493 42.4572 17.1667 42.2228 17.1842ZM13.4621 17.0838C14.0231 16.8154 14.7069 17.0511 15.2832 16.8743C15.1411 16.846 14.9989 16.8416 14.8529 16.8372C13.708 16.7892 12.5631 16.7412 11.4182 16.6932C11.3683 16.691 11.2876 16.6888 11.2722 16.6692C11.1685 16.5492 11.0686 16.5557 10.9226 16.6474C10.8804 16.6735 10.7613 16.6539 10.6806 16.6517C10.1888 16.6299 9.69704 16.6212 9.20911 16.5797C8.92097 16.5557 8.63282 16.4968 8.36773 16.4226C8.01043 16.3222 7.66465 16.2109 7.25357 16.2895C7.37651 16.32 7.50714 16.3178 7.63392 16.3353C7.74149 16.3484 7.84907 16.3767 7.94127 16.4138C8.02964 16.4488 8.08727 16.5208 8.17947 16.5448C8.39078 16.595 8.61361 16.6299 8.8326 16.6648C9.27058 16.7368 9.70856 16.811 10.1542 16.87C10.6076 16.9311 11.1032 16.9223 11.5104 17.038C12.1597 17.2257 12.8052 17.254 13.489 17.2104C13.5198 17.2082 13.5428 17.1929 13.5889 17.1777C13.5505 17.1406 13.5121 17.1144 13.4621 17.0838ZM88.0456 3.51413C88.0456 3.49885 88.0417 3.48358 88.0417 3.4683C87.6767 3.45957 87.3117 3.43993 86.9468 3.43993C85.4484 3.43993 83.9539 3.44647 82.4555 3.44866C81.7602 3.44866 81.0494 3.4072 80.4501 3.6778C80.4501 3.6778 80.4693 3.68871 80.4885 3.68871C80.7382 3.69962 80.9418 3.60579 81.1531 3.57087C81.5258 3.50758 81.9753 3.53813 82.3557 3.60797C82.4824 3.63197 82.64 3.68653 82.7936 3.6909C83.1394 3.69963 83.4852 3.69526 83.8348 3.6909C83.8924 3.6909 83.9462 3.66689 84.0461 3.64725C83.9462 3.60142 83.8809 3.57086 83.7503 3.50976C84.2651 3.52722 84.7031 3.54249 85.1372 3.55777C85.1372 3.57523 85.1372 3.59269 85.1372 3.61015C84.9105 3.61888 84.6839 3.62761 84.4572 3.63852C85.5445 3.68217 86.6279 3.85894 87.7267 3.63634C87.5807 3.61888 87.4308 3.60142 87.2849 3.58397C87.2849 3.57305 87.2849 3.55996 87.2887 3.54905C87.5384 3.53595 87.792 3.52504 88.0456 3.51413ZM46.5412 17.5094C46.3913 17.4832 46.2799 17.4635 46.1647 17.4461C45.865 17.4003 45.573 17.361 45.354 17.1929C45.2426 17.1056 45.0428 16.9769 44.8315 17.0773C44.6894 17.1449 44.6356 17.2781 44.5434 17.3872C44.4627 17.3457 44.3474 17.2846 44.1707 17.1908C43.8672 17.1798 43.4599 17.1668 43.0527 17.1537C43.045 17.1733 43.0373 17.1929 43.0296 17.2126C43.1295 17.2519 43.2256 17.289 43.3985 17.3544C43.191 17.3632 43.0604 17.3675 42.8106 17.3784C43.0296 17.5116 43.1795 17.6076 43.3562 17.7167C43.5176 17.5988 43.7097 17.6076 43.9363 17.7167C44.0247 17.7603 44.1861 17.7691 44.309 17.7625C44.6586 17.7451 45.0082 17.7101 45.354 17.6818C45.3694 17.6796 45.3847 17.6643 45.4116 17.6512C45.3771 17.6229 45.3425 17.5923 45.3041 17.5639C45.6767 17.3741 46.0878 17.5639 46.5412 17.5094ZM89.9857 3.74982C89.9896 3.77164 89.9934 3.79347 89.9973 3.81529C90.2316 3.82184 90.466 3.83274 90.7003 3.83711C91.2536 3.84366 91.8183 3.89385 92.3524 3.83711C92.6866 3.80219 92.9786 3.83493 93.2936 3.84584C93.624 3.85675 94.0044 3.8764 94.2733 3.7891C94.4885 3.71927 94.6537 3.6778 94.8842 3.6909C95.0417 3.69963 95.2069 3.69308 95.376 3.69308C95.3606 3.66689 95.3567 3.65816 95.3491 3.65598C95.3106 3.64507 95.2722 3.63416 95.23 3.62979C94.7305 3.57305 94.2503 3.6167 93.7739 3.72581C93.6394 3.75637 93.4435 3.68872 93.2821 3.65162C93.2629 3.64725 93.2898 3.55996 93.3052 3.45957C93.1054 3.49449 92.8941 3.49448 92.7673 3.55777C92.5521 3.66471 92.2102 3.71708 91.8837 3.62106C92.1487 3.6036 92.3677 3.58833 92.5867 3.57523C92.5829 3.55778 92.579 3.53813 92.579 3.52068C92.1526 3.52068 91.7261 3.51849 91.2997 3.52068C91.1806 3.52068 91.0615 3.54905 90.9462 3.54032C90.7426 3.52504 90.5082 3.4312 90.4468 3.65816C90.4391 3.68435 90.2969 3.69744 90.2162 3.7149C90.1394 3.72799 90.0626 3.73672 89.9857 3.74982ZM77.7761 4.74278C77.7761 4.75806 77.7722 4.77552 77.7722 4.79079C77.949 4.79952 78.1257 4.80825 78.3024 4.81698C78.3024 4.8388 78.3024 4.85844 78.3024 4.88027C78.045 4.88027 77.7838 4.89336 77.5263 4.87808C76.9462 4.84098 76.9501 4.83443 76.8348 4.94573C78.0988 4.94573 79.3935 4.94573 80.6844 4.94573C80.6844 4.92173 80.6844 4.89772 80.6844 4.87153C80.6229 4.87372 80.5615 4.88245 80.5038 4.87808C80.1734 4.86062 79.7969 4.89554 79.528 4.80825C79.2552 4.71877 79.0746 4.73405 78.8441 4.80825C78.7519 4.83662 78.652 4.85626 78.556 4.88027C78.5253 4.85408 78.4945 4.82789 78.4638 4.80388C78.5483 4.79297 78.6367 4.78206 78.7212 4.77115C78.6981 4.75151 78.6751 4.73186 78.652 4.71222C78.36 4.72313 78.0681 4.73187 77.7761 4.74278ZM131.897 0.349758C131.901 0.32357 131.901 0.297378 131.905 0.271191C131.655 0.242819 131.406 0.181719 131.16 0.192629C130.495 0.223183 129.83 0.282101 129.166 0.332295C129.066 0.341024 128.974 0.37376 128.878 0.395584C128.881 0.408678 128.885 0.42177 128.893 0.434864C129.892 0.408676 130.895 0.38031 131.897 0.349758ZM128.451 0.906248C128.105 0.818955 127.825 0.653097 127.391 0.688015C127.018 0.716385 126.626 0.611635 126.196 0.709839C126.488 0.744757 126.772 0.731661 126.949 0.810225C127.429 1.02409 127.929 0.967352 128.451 0.906248ZM91.6608 15.6391C91.657 15.6609 91.6531 15.6806 91.6454 15.7024C91.7761 15.7308 91.9067 15.7548 92.0335 15.7897C92.1257 15.8137 92.2102 15.877 92.2986 15.877C92.652 15.877 93.0093 15.8574 93.3628 15.8443C93.455 15.8399 93.551 15.8333 93.6432 15.829C93.6432 15.8006 93.6432 15.7722 93.6432 15.7439C93.0016 15.6238 92.3332 15.6326 91.6608 15.6391ZM81.9023 16.3375C81.9062 16.3746 81.91 16.4095 81.9138 16.4466C83.0818 16.4248 84.2536 16.4007 85.4215 16.3789C85.4215 16.3658 85.4215 16.3527 85.4177 16.3396C84.2459 16.3375 83.0741 16.3375 81.9023 16.3375ZM18.1531 1.95813C18.1493 1.93195 18.1454 1.90576 18.1378 1.88175C17.3079 1.88393 16.4742 1.76827 15.6482 1.89921C15.6482 1.91667 15.6482 1.93631 15.6482 1.95377C16.1784 1.95377 16.7086 1.95377 17.2387 1.95377C17.2387 1.96468 17.2387 1.97341 17.2387 1.98432C17.1389 1.99087 17.039 1.99524 16.9391 2.00178C16.9429 2.02142 16.9468 2.04325 16.9544 2.06289C17.354 2.03015 17.7536 1.99305 18.1531 1.95813ZM18.2607 1.96468C18.2722 2.00396 18.2876 2.04106 18.2991 2.08034C18.7102 2.05634 19.1175 2.03015 19.5285 2.01051C19.6015 2.00614 19.6784 2.02579 19.7552 2.02797C20.0664 2.03015 20.3776 2.02797 20.6888 2.02797C20.0011 1.95377 19.3095 1.91667 18.618 1.89267C18.4989 1.8883 18.3798 1.93849 18.2607 1.96468ZM7.55324 15.4624C8.13337 15.5344 8.69429 15.5606 9.34358 15.4493C8.92481 15.3882 8.60208 15.3401 8.27936 15.2943C8.21789 15.2856 8.1449 15.2856 8.08727 15.2987C7.92206 15.3445 7.7607 15.3991 7.55324 15.4624ZM128.678 0.718571C128.674 0.744759 128.67 0.770943 128.666 0.797131C128.966 0.816773 129.266 0.83423 129.646 0.858236C129.596 0.716385 129.611 0.565809 129.508 0.522163C129.366 0.461058 129.116 0.423954 128.962 0.572352C129.02 0.613817 129.074 0.655285 129.177 0.733849C128.958 0.727301 128.82 0.722935 128.678 0.718571ZM46.8024 17.1275C46.8101 17.0991 46.8139 17.0707 46.8216 17.0402C46.545 16.9987 46.2684 16.9572 45.9918 16.9158C45.9841 16.9311 45.9802 16.9463 45.9726 16.9616C46.084 16.9791 46.1992 16.9965 46.3145 17.0118C46.3106 17.0293 46.3106 17.0489 46.3068 17.0664C46.1723 17.0707 46.0379 17.062 45.9111 17.0816C45.7728 17.1013 45.6422 17.1449 45.5077 17.1777C45.6383 17.1995 45.7766 17.2497 45.9034 17.2409C46.2031 17.2191 46.5027 17.1668 46.8024 17.1275ZM58.8968 4.58128C58.8699 4.48526 58.8584 4.43289 58.843 4.38051C58.7316 4.39361 58.5933 4.38706 58.5203 4.42634C58.4089 4.48526 58.5549 4.68822 58.7086 4.68168C59.1619 4.6664 59.6153 4.63366 60.0686 4.60529C60.0648 4.57474 60.0609 4.54637 60.0532 4.51582C59.6537 4.53982 59.258 4.56164 58.8968 4.58128ZM40.7591 2.59319C39.9599 2.52336 39.1608 2.42952 38.3655 2.59319C39.1647 2.59319 39.9599 2.59319 40.7591 2.59319ZM75.8244 4.90863C76.1087 5.01993 76.5889 5.00684 76.6696 4.8759C76.6273 4.8388 76.5851 4.79952 76.5082 4.73405C76.7426 4.73405 76.927 4.73405 77.1114 4.73405C76.6273 4.62275 76.0664 4.69913 75.8244 4.90863ZM65.0324 5.08758C65.0324 5.05921 65.0285 5.03085 65.0285 5.00248C64.4177 5.04394 63.7953 4.88681 63.1959 5.08758C63.8106 5.08758 64.4215 5.08758 65.0324 5.08758ZM38.1004 16.2022C38.1043 16.1825 38.1081 16.1629 38.112 16.1432C37.8507 16.1105 37.5472 16.1192 37.3321 16.0363C37.0132 15.9141 36.8057 15.9512 36.5329 16.1432C37.0823 16.2284 37.5971 16.1498 38.1004 16.2022ZM33.0867 16.4029C33.7437 16.4619 34.4199 16.6386 35.0461 16.32C34.758 16.2196 34.708 16.2284 34.5889 16.3091C34.5198 16.3549 34.4007 16.3964 34.3008 16.3986C33.8974 16.4073 33.4901 16.4029 33.0867 16.4029ZM135.935 4.94137C135.939 4.96319 135.939 4.98283 135.943 5.00465C136.016 5.00902 136.093 5.01557 136.166 5.01338C136.504 5.00902 136.842 5.00466 137.176 4.99593C137.268 4.99374 137.361 4.96973 137.453 4.95664C137.368 4.91954 137.284 4.84534 137.207 4.84971C136.78 4.86935 136.358 4.90863 135.935 4.94137ZM77.0461 3.57523C77.0346 3.55341 77.023 3.53158 77.0154 3.50976C76.466 3.50976 75.9166 3.50976 75.3672 3.50976C75.6937 3.58396 76.0203 3.62543 76.3469 3.65162C76.5159 3.66471 76.6888 3.65816 76.8578 3.64725C76.9232 3.64288 76.9808 3.59924 77.0461 3.57523ZM99.6251 16.9616C100.163 17.0336 100.597 16.8001 101.074 16.9114C101.127 16.9245 101.22 16.8721 101.293 16.8503C100.735 16.8219 100.175 16.6932 99.6251 16.9616ZM84.9451 16.1498C84.9451 16.1651 84.9451 16.1803 84.9451 16.1956C85.7097 16.1956 86.4704 16.1956 87.2349 16.1956C87.2349 16.1803 87.2311 16.1651 87.2311 16.1498C86.4665 16.1498 85.7058 16.1498 84.9451 16.1498ZM83.5505 3.94405C83.0011 3.95278 82.5093 3.70181 81.9407 3.82838C82.4517 3.97678 83.0088 3.93532 83.5505 3.94405ZM46.5834 17.66C46.5796 17.6294 46.5796 17.5988 46.5757 17.5683C46.3452 17.5683 46.1109 17.5596 45.8804 17.5727C45.8074 17.577 45.6844 17.6425 45.6883 17.6752C45.6959 17.7385 45.7536 17.8171 45.8343 17.852C45.9149 17.8869 46.0456 17.876 46.157 17.8847C46.1647 17.8716 46.1685 17.8585 46.1762 17.8454C46.107 17.8171 46.0417 17.7909 45.9495 17.7516C46.1839 17.7167 46.3836 17.6883 46.5834 17.66ZM61.7014 5.00466C62.1317 5.14869 62.5005 5.1596 62.9885 5.06358C62.8156 5.00029 62.7157 4.93264 62.6196 4.93483C62.3392 4.94137 62.0626 4.97629 61.7014 5.00466ZM47.6861 16.6757C47.3595 16.5535 45.9226 16.5208 45.3847 16.6103C46.1608 16.6321 46.8908 16.6539 47.6861 16.6757ZM101.454 15.733C101.231 15.6959 100.989 15.6435 100.739 15.6195C100.474 15.5933 100.201 15.5955 99.9287 15.5867C99.9248 15.6086 99.9248 15.6326 99.921 15.6544C100.205 15.6631 100.49 15.6719 100.774 15.6806C100.774 15.7002 100.774 15.7177 100.774 15.7373C100.739 15.757 100.705 15.7744 100.666 15.7962C101.273 15.853 101.273 15.853 101.454 15.733ZM100.593 17.2911C100.597 17.2737 100.601 17.254 100.609 17.2366C100.313 17.1449 99.4945 17.1777 99.2794 17.3348C99.7634 17.3173 100.178 17.3042 100.593 17.2911ZM99.7173 16.811C99.483 16.811 99.3101 16.811 99.1142 16.811C99.1603 16.8525 99.2217 16.8852 99.2102 16.8983C99.0258 17.1449 98.5955 16.9703 98.3074 17.0751C98.6416 17.2868 98.9336 17.0118 99.1449 17.0642C99.3524 16.9747 99.5022 16.907 99.7173 16.811ZM54.0675 15.901C54.0713 15.877 54.0752 15.8508 54.079 15.8268C53.9177 15.8268 53.7602 15.8268 53.5988 15.8268C53.2415 15.8246 52.8842 15.8159 52.5231 15.8203C52.4654 15.8203 52.4078 15.877 52.354 15.9076C52.427 15.9206 52.5 15.949 52.5692 15.9446C52.7228 15.9381 52.8765 15.9054 53.0302 15.901C53.376 15.8966 53.7217 15.901 54.0675 15.901ZM50.7442 15.8814C50.7366 15.8966 50.7327 15.9119 50.725 15.9272C51.163 15.9446 51.601 15.9621 52.0428 15.9796C52.0582 15.9643 52.0697 15.9468 52.0851 15.9316C52.0313 15.8966 51.9775 15.8312 51.9237 15.8312C51.528 15.8421 51.1361 15.8639 50.7442 15.8814ZM48.1471 3.03839C48.1509 3.05584 48.1509 3.07112 48.1548 3.08858C48.6004 3.02747 49.0922 3.23479 49.5033 2.95763C49.0499 2.98382 48.6004 3.01002 48.1471 3.03839ZM89.9243 3.66689C89.5746 3.66689 89.2442 3.66689 88.9177 3.66689C89.2788 3.83493 89.6899 3.81965 89.9243 3.66689ZM80.7036 3.52941C80.6998 3.51195 80.6998 3.49667 80.6959 3.47921C80.3117 3.47921 79.9237 3.47921 79.5395 3.47921C79.5395 3.49667 79.5434 3.51195 79.5434 3.52941C79.9314 3.52941 80.3194 3.52941 80.7036 3.52941ZM21.7108 18.0681C22.7596 18.3365 22.7596 18.3365 22.8364 18.1619C22.4561 18.1292 22.0834 18.0986 21.7108 18.0681ZM41.0971 2.54954C41.0971 2.55391 41.101 2.55609 41.101 2.56046C41.6081 2.56046 42.1153 2.56046 42.6262 2.56046C42.6224 2.53427 42.6224 2.50808 42.6185 2.48189C42.1114 2.5059 41.6043 2.52772 41.0971 2.54954ZM31.9341 16.3091C32.3106 16.4728 32.9599 16.416 33.0099 16.2589C32.6487 16.2764 32.2914 16.2916 31.9341 16.3091ZM106.268 15.6304C106.268 15.65 106.268 15.6697 106.268 15.6893C106.69 15.6588 107.136 15.733 107.543 15.6173C107.54 15.5998 107.536 15.5802 107.536 15.5627C107.113 15.5846 106.69 15.6064 106.268 15.6304ZM6.8809 14.5349C6.86169 14.5676 6.84248 14.6003 6.82327 14.6331C7.25741 14.5851 7.48792 14.9233 7.96048 14.7967C7.59934 14.7095 7.24204 14.6222 6.8809 14.5349ZM74.6526 4.86717C74.303 4.89335 74.0148 4.91518 73.719 4.937C73.9649 5.09631 74.4451 5.07885 74.6526 4.86717ZM82.4978 4.59874C82.1866 4.55728 81.8793 4.51799 81.5335 4.47217C81.6641 4.64239 82.1021 4.7035 82.4978 4.59874ZM82.0867 4.94573C81.7832 4.78424 81.4682 4.79952 81.2569 4.94573C81.5412 4.94573 81.8139 4.94573 82.0867 4.94573ZM57.944 4.49618C57.4522 4.31286 57.3639 4.33469 57.2832 4.62057C57.4868 4.58347 57.6828 4.54637 57.944 4.49618ZM5.65532 8.64478C5.65916 8.63168 5.66301 8.61859 5.66685 8.60549C5.42481 8.58149 5.18277 8.55966 4.87925 8.52911C4.94457 8.62295 4.97914 8.67315 5.0022 8.71024C5.23655 8.68624 5.44402 8.66442 5.65532 8.64478ZM73.4577 4.97192C73.112 4.88463 72.7662 4.80825 72.3513 4.97192C72.77 4.97192 73.112 4.97192 73.4577 4.97192ZM36.1948 16.4138C35.7991 16.4029 35.4879 16.3942 35.1767 16.3855C35.4841 16.5513 35.7991 16.5077 36.1948 16.4138ZM97.4199 15.6522C97.4199 15.6282 97.4199 15.6042 97.4199 15.5824C97.1279 15.6042 96.8397 15.626 96.5478 15.6479C96.5516 15.674 96.5593 15.698 96.5631 15.7242C96.8474 15.7002 97.1356 15.6762 97.4199 15.6522ZM95.3644 15.7133C95.3606 15.7395 95.3529 15.7657 95.3491 15.7897C95.6449 15.781 95.9407 15.7722 96.2365 15.7613C96.2327 15.733 96.2327 15.7024 96.2289 15.674C95.9446 15.6871 95.6564 15.7002 95.3644 15.7133ZM84.826 4.0728C84.6378 3.92222 84.2036 3.90695 83.9308 4.03352C84.2536 4.0488 84.4995 4.05971 84.826 4.0728ZM11.4989 4.15791C11.2492 4.16883 11.0417 4.17974 10.7574 4.19283C11.1416 4.36305 11.2108 4.35869 11.4989 4.15791ZM42.7722 17.625C42.7761 17.6032 42.7761 17.5814 42.7799 17.5574C42.4687 17.5465 42.1537 17.5356 41.8425 17.5246C41.8386 17.5443 41.8386 17.5661 41.8348 17.5858C42.146 17.5988 42.4572 17.6119 42.7722 17.625ZM98.9451 15.5758C98.9413 15.5998 98.9413 15.6217 98.9374 15.6457C99.1718 15.6457 99.4061 15.6457 99.6405 15.6457C99.6405 15.6217 99.6405 15.5998 99.6405 15.5758C99.41 15.5758 99.1795 15.5758 98.9451 15.5758ZM24.5077 18.5067C24.5115 18.4805 24.5154 18.4543 24.5154 18.4281C24.2887 18.4325 24.0735 18.3059 23.843 18.4085C23.8392 18.4347 23.8392 18.4609 23.8353 18.4871C24.0582 18.4936 24.2849 18.5001 24.5077 18.5067ZM18.1608 17.8367C17.9918 17.6621 17.7997 17.6883 17.6037 17.732C17.5999 17.7582 17.596 17.7865 17.5922 17.8127C17.7805 17.8214 17.9726 17.828 18.1608 17.8367ZM132.892 18.0462C132.673 18.0397 132.451 18.0309 132.232 18.0244C132.232 18.0484 132.228 18.0702 132.228 18.0942C132.435 18.2055 132.658 18.1597 132.892 18.0462ZM94.4385 17.7298C94.4385 17.7145 94.4424 17.7014 94.4424 17.6861C94.062 17.6971 93.6817 17.708 93.3052 17.7211C93.309 17.7407 93.309 17.7603 93.3128 17.78C93.6855 17.7625 94.062 17.7451 94.4385 17.7298ZM77.5532 16.7521C77.7223 16.7019 77.8913 16.6495 78.0604 16.5993C77.8414 16.5884 77.5763 16.4968 77.5532 16.7521ZM24.2925 18.3299C24.3002 18.2972 24.3041 18.2645 24.3117 18.2339C24.0928 18.2143 23.8738 18.1946 23.6548 18.1772C23.6509 18.1968 23.6471 18.2143 23.6432 18.2339C23.8584 18.2645 24.0735 18.2972 24.2925 18.3299ZM88.8831 16.1629C88.8869 16.1891 88.8946 16.2153 88.8985 16.2414C89.2135 16.2153 89.5285 16.1869 89.8474 16.1607C89.8436 16.1454 89.8436 16.128 89.8397 16.1127C89.5209 16.128 89.202 16.1454 88.8831 16.1629ZM85.556 3.23915C85.556 3.27625 85.556 3.31554 85.5598 3.35264C85.7404 3.34391 85.921 3.333 86.1015 3.32427C86.0977 3.30244 86.0977 3.2828 86.0938 3.26098C85.9133 3.25225 85.7366 3.2457 85.556 3.23915ZM96.8782 17.3282C96.882 17.3544 96.882 17.3806 96.8858 17.4068C97.1432 17.3981 97.4007 17.3872 97.6619 17.3784C97.6581 17.3544 97.6581 17.3304 97.6542 17.3064C97.3968 17.3151 97.1356 17.3217 96.8782 17.3282ZM91.6916 15.8857C91.68 15.8574 91.6685 15.8312 91.6531 15.8028C91.4226 15.8443 91.1883 15.8857 90.9577 15.9272C90.9693 15.9534 90.9808 15.9774 90.9923 16.0036C91.2267 15.9643 91.461 15.925 91.6916 15.8857ZM113.183 17.6665C113.183 17.6752 113.183 17.684 113.183 17.6927C113.502 17.6927 113.817 17.6927 114.136 17.6927C114.136 17.673 114.132 17.6534 114.132 17.6338C113.817 17.6447 113.502 17.6556 113.183 17.6665ZM78.579 3.07766C78.5752 3.05148 78.5713 3.02311 78.5713 2.99692C78.3447 3.00347 78.118 3.01001 77.8952 3.01656C77.8952 3.0362 77.899 3.05802 77.899 3.07766C78.1257 3.07766 78.3524 3.07766 78.579 3.07766ZM98.6186 16.9485C98.6224 16.9245 98.6224 16.9005 98.6262 16.8765C98.3803 16.8612 98.1345 16.8481 97.8924 16.8329C97.8886 16.8634 97.8847 16.8961 97.8809 16.9267C98.1229 16.9354 98.3727 16.942 98.6186 16.9485ZM9.15917 4.11427C9.36663 4.05098 9.50878 4.00952 9.70088 3.95278C9.33205 3.86331 9.30132 3.87203 9.15917 4.11427Z" fill="url(#paint0_linear_6301_9624)"/>
<defs>
<linearGradient id="paint0_linear_6301_9624" x1="2.73539" y1="19.0025" x2="125.913" y2="-31.0583" gradientUnits="userSpaceOnUse">
<stop stop-color="#533CA3"/>
<stop offset="0.294518" stop-color="#BF5AB8"/>
<stop offset="0.682384" stop-color="#ED641F"/>
<stop offset="1" stop-color="#FFE322"/>
</linearGradient>
</defs>
</svg>
