<svg width="772.999939" height="30.000000" viewBox="0 0 773 30" fill="none" xmlns="http://www.w3.org/2000/svg" xmlns:xlink="http://www.w3.org/1999/xlink">
	<desc>
			Created with Pixso.
	</desc>
	<defs>
		<linearGradient x1="15.072596" y1="30.002563" x2="766.623291" y2="1.223572" id="paint_linear_6249_14202_0" gradientUnits="userSpaceOnUse">
			<stop stop-color="#533CA3"/>
			<stop offset="0.294518" stop-color="#BF5AB8"/>
			<stop offset="0.682384" stop-color="#ED641F"/>
			<stop offset="1.000000" stop-color="#FFE322"/>
		</linearGradient>
	</defs>
	<path id="Underline_2" d="M242.61 25.54C242.74 25.49 242.82 25.41 242.97 25.4C243.6 25.39 244.26 25.39 245.11 25.39C243.82 25.21 240.95 25.23 239.96 25.39C238.83 25.58 238.73 25.57 237.84 25.33C237.69 25.29 237.2 25.29 236.92 25.25C236.86 25.25 237.07 25.17 237.14 25.15C234.33 25.09 231.56 25.01 228.78 24.98C227.04 24.97 225.49 25.09 223.98 25.31C222.92 25.46 221.08 25.44 219.59 25.49C218.98 25.51 218.36 25.52 217.75 25.53C217.77 25.57 217.79 25.6 217.81 25.64C218.57 25.62 219.34 25.6 220.08 25.6C220.7 25.59 221.31 25.6 221.9 25.63C222.05 25.63 222.2 25.78 222.12 25.78C221.65 25.83 221.1 25.87 220.57 25.88C218.36 25.93 216.13 25.97 213.91 26.01C213.91 26.05 213.91 26.09 213.91 26.13C224.17 26.28 234.44 26.42 244.79 26.56C244.81 26.53 244.81 26.5 244.84 26.48C244.92 26.38 248.46 25.84 249.01 25.85C251.18 25.91 253.24 25.96 255.46 25.79C256.93 25.69 258.86 25.77 260.57 25.83C259.39 25.84 258.2 25.86 256.84 25.88C257.75 26.18 258.98 26.1 260.13 26.09C260.91 26.08 261.72 26.09 262.51 26.11C264.1 26.15 265.67 26.2 267.26 26.22C269.7 26.26 272.14 26.31 274.57 26.29C275.79 26.28 276.72 26.28 277.52 26.49C276.93 26.5 276.42 26.5 275.91 26.53C273.03 26.64 270.33 26.73 267.24 26.54C264.82 26.4 261.87 26.51 259.15 26.54C262.55 26.61 265.94 26.68 269.34 26.75C269.34 26.79 269.34 26.83 269.34 26.87C267.13 26.9 264.92 26.94 262.72 26.97C262.74 27 262.74 27.04 262.76 27.07C263.23 27.1 263.67 27.14 264.14 27.17C264.16 27.19 264.18 27.22 264.2 27.24C263.06 27.27 261.91 27.33 260.77 27.34C259.56 27.34 258.35 27.29 257.14 27.27C257.12 27.3 257.1 27.34 257.07 27.38C260.79 27.42 264.52 27.46 268.23 27.5C268.23 27.53 268.23 27.56 268.25 27.59C265.33 27.82 262.19 27.66 259.11 27.68C258.98 27.75 258.88 27.82 258.71 27.92C263.14 28.01 267.64 28.09 272.35 28.18C272.14 28.27 271.99 28.32 271.82 28.39C274.13 28.51 276.21 28.44 278.29 28.34C278.29 28.31 278.29 28.27 278.29 28.23C276.46 28.2 274.64 28.16 272.48 28.12C273.43 27.91 273.92 27.78 275.32 27.92C275.93 27.99 277.08 27.89 278.08 27.86C278.82 27.91 279.75 28 280.69 28.01C284.86 28.05 289.04 28.05 293.22 28.1C296.79 28.14 300.33 28.23 303.87 28.29C304.93 28.3 306.23 28.14 306.9 28.5C303.76 28.45 300.75 28.4 297.76 28.36C295.26 28.32 292.76 28.3 290.25 28.29C288.77 28.28 287.26 28.3 285.78 28.32C285.27 28.33 284.8 28.38 284.29 28.4C283.91 28.41 283.25 28.42 283.17 28.39C282.19 28.03 280.58 28.31 279.29 28.21C279.69 28.66 281.62 28.57 283.06 28.61C284.97 28.67 286.92 28.71 288.81 28.8C279.48 28.61 269.99 28.74 260.81 28.28C260.75 28.31 260.7 28.34 260.64 28.37C260.87 28.42 261.1 28.47 261.34 28.52C261.28 28.54 261.23 28.55 261.17 28.57C260.47 28.49 259.81 28.4 259.09 28.32C258.48 28.27 257.48 28.16 257.16 28.2C255.21 28.44 253 28.33 250.92 28.37C248.8 28.42 246.66 28.45 244.54 28.47C242.35 28.49 240.15 28.48 237.94 28.49C237.5 28.5 237.07 28.52 236.63 28.54C236.63 28.57 236.6 28.59 236.6 28.62C238.51 28.69 240.42 28.75 242.33 28.82C242.33 28.83 242.31 28.85 242.31 28.86C240.57 28.89 238.83 28.94 237.11 28.94C234.97 28.94 232.81 28.93 230.71 28.86C229.29 28.82 227.93 28.56 226.66 28.59C225.32 28.62 224.09 28.72 222.58 28.68C220.89 28.62 218.98 28.56 217.41 28.64C214.78 28.79 212.19 28.73 209.58 28.75C207.14 28.76 204.72 28.7 202.28 28.7C200.88 28.7 199.46 28.74 198.06 28.75C197.47 28.76 196.81 28.79 196.32 28.75C193.27 28.51 190.08 28.63 186.97 28.62C185.48 28.62 184 28.67 182.49 28.68C182.11 28.68 181.71 28.56 181.35 28.57C180.24 28.59 179.18 28.65 178.1 28.69C177.38 28.71 176.64 28.76 175.94 28.75C174.07 28.71 172.24 28.64 170.06 28.57C170.31 28.72 170.44 28.78 170.61 28.88C167.11 28.78 163.82 28.69 160.41 28.59C160.53 28.66 160.66 28.73 160.83 28.83C160.3 28.83 159.84 28.85 159.39 28.85C155.91 28.83 152.45 28.82 149 28.79C147.32 28.78 145.66 28.7 143.99 28.7C143.27 28.7 142.5 28.79 141.87 28.87C141.7 28.89 141.8 29.07 141.97 29.08C143.25 29.16 144.56 29.24 145.88 29.3C147 29.34 148.21 29.27 148.97 29.55C149.25 29.66 151.41 29.65 152.69 29.63C155.02 29.59 157.33 29.5 159.64 29.42C159.92 29.41 160.17 29.4 160.83 29.36C159.03 29.26 157.63 29.18 156.21 29.11C156.23 29.08 156.25 29.06 156.27 29.04C158.16 29.05 160.05 29.07 162.23 29.09C161.62 29.37 162 29.46 163.4 29.46C164.31 29.46 165.2 29.56 166.11 29.6C166.79 29.62 167.62 29.8 168.17 29.55C168.21 29.53 169.02 29.54 169.04 29.55C169.38 29.81 170.55 29.71 171.4 29.71C173.98 29.74 176.57 29.77 179.16 29.76C181.26 29.76 183.36 29.7 185.46 29.66C185.48 29.69 185.5 29.72 185.52 29.76C182.79 29.8 180.05 29.86 177.29 29.89C172.27 29.94 167.24 29.99 162.21 29.99C158.67 30 155.1 29.94 151.54 29.88C145.52 29.78 139.51 29.67 133.51 29.55C130.77 29.5 128.06 29.43 125.32 29.37C119.66 29.26 113.99 29.15 108.31 29C110.22 29 112.15 28.99 114.06 29.01C118.7 29.04 123.35 29.09 127.99 29.13C128.04 29.09 128.08 29.05 128.12 29C127.57 28.97 127.04 28.93 126.49 28.92C119.83 28.8 113.15 28.7 106.51 28.56C103.62 28.5 100.76 28.37 97.91 28.24C96.54 28.18 95.26 28.04 93.9 27.96C93.4 27.92 92.78 27.95 92 27.95C92.34 28.04 92.48 28.08 92.72 28.15C89.68 28.11 86.73 28.08 83.38 28.04C83.93 27.95 84.19 27.91 84.59 27.85C82.77 27.61 80.65 27.62 78.63 27.64C74.86 27.68 71.1 27.76 67.35 27.81C67.16 27.81 66.94 27.79 66.29 27.76C67.28 27.7 67.79 27.67 68.34 27.64C68.17 27.37 67.28 27.41 66.26 27.46C65.31 27.5 64.33 27.52 63.36 27.54C60.56 27.59 57.78 27.64 54.98 27.69L55.02 27.7C56.97 27.62 58.92 27.54 60.9 27.47C61.87 27.44 62.85 27.41 63.8 27.33C61.28 27.3 58.78 27.06 56.38 27.35C51.69 26.95 46.66 27.14 41.85 27C41.81 27.05 41.76 27.08 41.74 27.12C43.27 27.18 44.82 27.23 46.32 27.28C46.15 27.29 45.86 27.33 45.58 27.33C41.21 27.28 36.84 27.22 32.49 27.16C31.05 27.14 30.71 26.97 30.73 26.8C28.23 26.45 25.85 26.11 23.37 25.77C25.05 25.43 27.06 25.77 28.84 25.68C28.57 25.39 27.72 25.26 26.04 25.26C25.49 25.26 24.96 25.15 24.28 25.08C24.9 24.9 25.54 24.75 25.87 24.59C25.98 24.53 25.32 24.4 24.84 24.35C23.75 24.25 22.54 24.19 21.4 24.12C21.36 24.08 21.31 24.04 21.27 24C22.18 23.93 23.12 23.88 23.99 23.8C24.58 23.74 25.09 23.65 25.87 23.54C23.94 23.41 22.25 23.29 20.53 23.17C20.55 23.12 20.55 23.08 20.57 23.04C21.87 22.99 23.18 22.94 24.47 22.88C18.83 22.6 13.91 22 7.93 21.86C8.01 21.81 8.12 21.77 8.2 21.72C10.81 21.82 13.4 21.95 16.01 22.03C18.32 22.11 20.68 22.16 23.03 22.2C23.46 22.21 23.94 22.09 24.43 22.05C24.86 22.01 25.32 21.97 25.79 21.96C26.74 21.96 27.7 21.98 28.38 21.99C28.84 21.85 29.16 21.75 29.63 21.61C27.44 21.51 25.24 21.41 22.61 21.29C25.01 21.19 26.94 21.11 29.29 21.01C28.61 20.93 28.12 20.86 27.36 20.76C29.95 20.76 32.2 20.76 34.42 20.76C34.47 20.74 34.49 20.73 34.53 20.71C33.7 20.65 32.88 20.6 32.11 20.56C32.32 20.52 32.64 20.47 32.94 20.43C32.64 20.38 32.39 20.3 32.07 20.29C30.84 20.24 29.57 20.22 28.34 20.19C27.68 20.17 27 20.16 26.34 20.07C27.68 20.04 29.01 20 30.33 19.97C30.33 19.93 30.33 19.88 30.33 19.84C28.36 19.81 26.36 19.79 24.24 19.76C24.37 19.69 24.47 19.63 24.67 19.52C22.67 19.48 20.83 19.44 18.98 19.41C18.98 19.4 18.96 19.38 18.96 19.36C20.34 19.32 21.74 19.28 23.12 19.24C23.12 19.22 23.12 19.2 23.12 19.18C21.78 19.11 20.42 19.03 19.09 18.95C19.13 18.92 19.17 18.89 19.21 18.87C21.08 18.92 22.97 18.97 24.84 19.02C24.88 18.99 24.92 18.95 24.96 18.92C23.52 18.84 21.82 18.81 20.7 18.65C19.7 18.52 19.34 18.24 18.62 18C20.34 18.07 21.99 18.13 23.67 18.2C23.71 18.17 23.77 18.13 23.82 18.1C22.88 18.03 21.91 17.97 21.02 17.89C20.7 17.86 20.57 17.76 20.36 17.69C20.72 17.67 21.1 17.62 21.44 17.62C22.86 17.64 24.31 17.67 25.92 17.7C25.85 17.61 25.81 17.55 25.71 17.41C27.27 17.44 28.74 17.47 30.2 17.51C30.22 17.48 30.27 17.46 30.29 17.44C27.57 17.32 24.88 17.21 22.16 17.1C22.18 17.08 22.21 17.06 22.23 17.04C23.73 16.97 25.22 16.91 26.98 16.83C26.64 16.9 26.47 16.94 26.15 17C27.04 17.04 27.81 17.06 28.82 17.1C28.48 16.72 29.65 16.75 31.01 16.8C31.73 16.82 32.51 16.8 33.28 16.75C32.47 16.68 31.6 16.64 30.86 16.55C30.22 16.47 29.76 16.35 28.95 16.2C26.3 16.07 23.14 15.92 20 15.77C20.04 15.73 20.08 15.68 20.13 15.65C24.14 15.75 28.12 15.85 32.13 15.95C32.15 15.92 32.18 15.89 32.22 15.86C27.59 15.64 22.97 15.41 18.34 15.18C18.34 15.17 18.37 15.16 18.37 15.15C21.65 15.23 24.94 15.31 28.25 15.4C28.27 15.36 28.29 15.33 28.34 15.3C22.42 15.05 16.5 14.8 10.58 14.54C10.6 14.52 10.64 14.49 10.67 14.46C13.66 14.54 16.69 14.6 19.64 14.71C24.56 14.9 29.48 15.09 34.55 15.11C35.8 15.12 37.05 15.1 38.31 15.09C40.09 15.09 41.89 15.09 43.69 15.03C29.27 14.49 14.82 13.94 0 13.38C3.26 13.11 6.06 13.4 9.31 13.38C8.57 13.41 8.25 13.43 7.93 13.44C14.04 13.84 20.66 13.64 27.15 14C26.04 13.77 26.04 13.78 23.65 13.74C22.5 13.72 21.38 13.63 20.32 13.5C21.95 13.52 23.61 13.54 25.24 13.57C25.28 13.54 25.3 13.52 25.34 13.5C23.67 13.4 21.99 13.31 20.23 13.21C20.76 13.18 21.23 13.15 21.76 13.11C20.44 12.9 18.94 12.87 17.39 12.93C15.93 12.99 14.38 12.98 12.87 12.99C12.85 12.95 12.81 12.91 12.79 12.87C14.1 12.83 15.42 12.75 16.73 12.76C19.3 12.78 21.84 12.87 24.41 12.91C26.62 12.94 28.84 12.96 31.05 12.98C31.41 12.98 31.77 12.92 32.66 12.86C30.88 12.79 29.61 12.74 28 12.67C29.4 12.46 31.31 12.79 31.98 12.44C32.9 12.36 33.79 12.27 34.91 12.17C32.85 11.88 30.08 12.08 27.51 11.81C32.03 11.89 36.12 11.96 40.21 12.03C40.26 12 40.3 11.98 40.32 11.96C38.92 11.87 37.54 11.76 36.1 11.72C33.98 11.66 31.79 11.67 29.67 11.63C29.16 11.62 28.76 11.48 27.97 11.34C32.22 11.34 35.95 11.48 39.64 11.26C36.52 11.1 33.74 10.69 30.12 10.93C29.93 10.83 29.71 10.72 29.48 10.61C34.98 10.61 40.45 10.61 45.92 10.61C45.94 10.57 45.96 10.53 45.96 10.49C44.37 10.47 42.78 10.46 41.21 10.42C39.71 10.39 38.2 10.32 36.74 10.27C37.27 10.24 37.86 10.21 38.65 10.17C38.33 10.11 38.07 10.06 37.63 9.97C40.49 9.91 43.21 9.85 45.9 9.79C43.33 9.47 40.34 9.56 37.56 9.49C34.72 9.42 31.84 9.4 28.95 9.33C35.42 9.03 42.29 9.29 48.72 8.95C48.72 8.92 48.74 8.9 48.74 8.87C46.05 8.77 43.35 8.67 40.68 8.57C40.66 8.58 40.81 8.54 41.15 8.47C40.24 8.45 39.45 8.43 38.31 8.4C39.37 8.34 40.13 8.3 40.87 8.26C40.85 8.25 40.83 8.23 40.81 8.22C38.6 8.19 36.4 8.16 34.17 8.13C34.17 8.1 34.17 8.07 34.17 8.04C37.22 8.01 40.3 7.98 43.35 7.95C43.38 7.91 43.38 7.89 43.4 7.86C42.87 7.8 42.34 7.76 41.28 7.66C43.25 7.62 44.71 7.6 46.18 7.58C46.2 7.55 46.2 7.53 46.22 7.5C42.38 7.38 38.54 7.25 34.7 7.13C34.72 7.1 34.74 7.07 34.76 7.04C35.68 7.02 36.61 7 37.52 6.98C37.54 6.95 37.54 6.91 37.56 6.87C35.36 6.81 33.15 6.76 30.94 6.7C32.75 6.48 35.12 6.79 36.59 6.43C36.69 6.4 36.44 6.33 36.38 6.28C39.26 6.32 42.15 6.36 45.05 6.4C46.2 6.41 47.34 6.42 48.49 6.42C49.44 6.42 50.18 6.36 49.85 6.18C47.24 6.1 44.75 6.02 42.27 5.94C46.64 5.76 51.37 6.22 55.36 5.61C43.71 5.49 32.07 5.38 20.42 5.26C20.42 5.22 20.42 5.19 20.42 5.14C24.9 5.15 29.42 5.31 33.89 5.07C28.21 4.78 22.27 4.74 16.07 4.49C31.01 4.16 45.43 4.19 59.86 4.37C59.88 4.4 59.88 4.43 59.9 4.46C57.25 4.46 54.62 4.46 51.97 4.46C51.97 4.5 51.95 4.54 51.95 4.58C54.05 4.61 56.17 4.64 58.27 4.67C58.27 4.71 58.27 4.74 58.27 4.78C55.17 4.81 52.05 4.84 48.45 4.88C49.23 4.93 49.57 4.98 49.93 4.98C53.05 5.01 56.19 5.02 59.31 5.06C60.96 5.08 62.64 5.13 64.27 5.17C66.39 5.23 67.37 5.14 67.39 4.86C66.29 4.81 64.61 4.87 64.91 4.5C64.93 4.48 63.4 4.42 62.51 4.37C63.59 4.17 65.84 4.47 66.48 4.06C65.86 4.05 65.33 4.05 64.82 4.04C64.8 4.02 64.78 4 64.76 3.98C65.88 3.9 66.99 3.82 68.28 3.72C67.71 3.65 67.2 3.58 66.33 3.47C67.56 3.39 68.41 3.32 69.28 3.29C74.05 3.14 78.82 2.98 83.62 2.86C88.43 2.74 93.25 2.64 98.08 2.57C99.21 2.55 100.42 2.67 101.61 2.72C102.28 2.76 102.96 2.8 103.66 2.81C108.18 2.88 112.81 2.88 117.22 3.05C120.74 3.18 124.07 3.11 127.51 3.09C129.86 3.08 132.22 3.18 134.57 3.2C136.12 3.22 137.69 3.22 139.26 3.2C140.32 3.19 141.38 3.15 142.14 3.13C141.06 2.95 139.85 2.75 138.58 2.56C137.58 2.41 136.5 2.28 135.69 2.17C135.69 2.17 136.25 2.16 136.75 2.14C136.97 1.79 135.97 1.7 134.29 1.69C127.02 1.68 119.74 1.62 112.47 1.65C109.54 1.66 106.63 1.85 103.71 1.95C103.18 1.97 102.64 2 102.05 1.99C104.3 1.7 106.91 1.6 109.6 1.58C115.31 1.53 121.02 1.51 126.7 1.47C131.83 1.44 136.97 1.39 142.1 1.38C149.38 1.36 156.67 1.38 163.95 1.38C167.24 1.38 170.55 1.37 173.84 1.38C177.02 1.38 180.18 1.42 183.36 1.42C190.08 1.42 196.83 1.39 203.56 1.38C205.25 1.38 206.97 1.42 208.67 1.45C208.67 1.47 208.65 1.5 208.65 1.53C207.39 1.52 206.14 1.49 204.89 1.49C199.12 1.52 193.35 1.54 187.58 1.58C180.6 1.62 173.62 1.66 166.67 1.71C162.76 1.74 158.88 1.8 154.6 1.85C157.23 1.96 159.58 2.06 162.53 2.18C161.57 2.26 161.13 2.32 160.64 2.33C158.58 2.36 156.53 2.37 154.47 2.38C154.09 2.38 153.68 2.35 153.3 2.29C154.09 2.27 154.85 2.25 155.63 2.23C155.63 2.21 155.63 2.18 155.63 2.16C152.64 2.16 149.65 2.16 146.66 2.16C146.64 2.12 146.64 2.07 146.62 2.03C148.66 2 150.69 1.98 152.71 1.95C152.71 1.93 152.69 1.92 152.69 1.9C148.36 1.83 144.05 1.76 139.7 1.69C139.39 2.07 140.04 2.2 141.95 2.2C144.86 2.21 147.76 2.26 150.67 2.3C150.67 2.33 150.67 2.36 150.67 2.39C147.38 2.37 144.1 2.34 140.64 2.31C140.87 2.71 142.4 2.7 143.56 2.74C144.99 2.78 146.45 2.77 147.87 2.81C148.93 2.85 149.91 2.96 150.97 2.98C152.37 3 153.79 2.96 155.21 2.95C156.87 2.94 158.5 2.95 160.15 2.94C161.28 2.92 162.4 2.89 163.5 2.86C164.86 2.82 166.22 2.76 167.6 2.75C168.11 2.74 168.64 2.81 169.4 2.86C168.53 2.99 168 3.07 167.07 3.21C170.48 3.1 173.18 3.51 176.23 3.23C177.21 3.14 178.76 3.25 180.05 3.25C185.4 3.24 190.74 3.24 196.07 3.21C200.31 3.18 204.53 3.12 208.77 3.06C209.81 3.05 211.13 3.05 211.53 2.79C211.57 2.76 212.15 2.76 212.49 2.74C212.78 3.22 215.73 2.94 216.56 3.18C214.61 3.21 212.57 3.23 210.51 3.26C210.51 3.3 210.51 3.34 210.51 3.38C217.85 3.39 225.21 3.4 232.55 3.41C232.57 3.44 232.6 3.46 232.62 3.48C232.45 3.46 232.26 3.44 231.77 3.39C232.57 3.33 233.17 3.3 233.91 3.25C234.42 3.75 236.63 3.49 238.09 3.57C239.51 3.63 241 3.67 242.4 3.76C243.2 3.74 244.14 3.55 244.75 3.85C246.34 3.75 247.78 4.25 249.54 3.88C249.78 3.83 250.8 3.89 251.45 3.9C253.38 3.96 255.27 4.05 257.2 4.07C261.53 4.11 265.86 4.12 270.16 4.12C271.65 4.12 273.15 4.01 274.64 4.01C276.42 4.01 278.22 4.06 280.01 4.09C281.11 4.11 281.75 4.08 280.9 3.83C281.07 3.82 281.24 3.82 281.43 3.81C281.85 3.92 282.28 4.02 282.98 4.19C283.57 4.15 284.52 4.08 285.5 4.04C285.86 4.03 286.43 4.05 286.69 4.09C288.41 4.4 292.78 4.43 294.64 4.14C295.09 4.08 295.77 4.05 296.45 4.05C296.13 4.1 295.81 4.15 295.47 4.21C295.6 4.25 295.68 4.3 295.77 4.3C298.27 4.31 300.79 4.32 303.3 4.32C304.08 4.32 304.87 4.32 305.63 4.31C307.14 4.29 308.64 4.29 310.11 4.25C311.93 4.2 313.67 4.19 315.24 4.43C316.34 4.08 317.98 4.25 319.42 4.23C319.46 4.27 319.51 4.3 319.55 4.33C317.53 4.4 315.43 4.57 313.5 4.53C311 4.47 308.58 4.47 306.08 4.5C303.36 4.54 300.6 4.49 297.85 4.5C295.26 4.51 292.67 4.55 290.08 4.6C287.92 4.64 285.8 4.72 283.63 4.77C283.08 4.78 282.49 4.69 281.92 4.69C279.5 4.7 277.08 4.71 274.64 4.73C274.62 4.76 274.62 4.8 274.6 4.83C274.83 4.87 275.06 4.91 275.32 4.95C274.34 4.96 273.39 4.98 272.43 5C272.41 5.02 272.41 5.05 272.39 5.07C272.73 5.1 273.15 5.16 273.39 5.14C275.11 5.01 276.55 5.2 278.12 5.24C278.56 5.25 279.07 5.19 279.45 5.09C278.86 5.06 278.29 5.04 277.69 5.01C277.74 4.97 277.78 4.93 277.82 4.89C278.54 4.92 279.33 4.92 279.99 4.98C281 5.06 281.79 5.11 282.09 4.81C282.28 4.81 282.45 4.82 282.64 4.83C283.02 4.98 283.38 5.13 283.76 5.28C283.61 5.3 283.44 5.32 283.29 5.34C284.23 5.36 285.18 5.38 286.14 5.4C286.12 5.44 286.09 5.47 286.07 5.51C284.89 5.5 283.7 5.5 282.51 5.46C282.4 5.46 282.49 5.25 282.49 5.09C282.06 5.13 281.56 5.15 281.39 5.2C280.43 5.52 278.71 5.48 277.14 5.51C273.96 5.57 270.86 5.8 267.57 5.71C266.13 5.67 264.69 5.62 263.23 5.58C262.68 5.57 262.06 5.6 261.49 5.62C260.53 5.64 259.6 5.68 258.54 5.71C259.05 6.06 257.6 6.05 256.29 6.05C255.44 6.06 254.59 6.05 253.74 6.05C253.72 6.08 253.7 6.11 253.7 6.13C253.98 6.15 254.28 6.17 254.55 6.17C258.18 6.15 261.81 6.13 265.45 6.11C268.62 6.09 271.8 6.1 274.96 6.08C275.98 6.07 277.01 5.97 278.03 5.98C280.39 5.98 282.72 6.04 285.08 6.05C287.98 6.06 290.89 6.04 293.79 6.06C295.17 6.07 296.55 6.18 297.93 6.18C301.69 6.16 305.27 6.32 308.92 6.43C309.83 6.46 310.79 6.45 311.74 6.45C311.97 6.46 312.27 6.45 312.44 6.47C314.77 6.77 317.38 6.72 320.04 6.67C321.33 6.65 322.64 6.7 323.96 6.72C324.28 6.72 324.62 6.7 324.96 6.62C324.41 6.62 323.87 6.63 323.34 6.62C322.88 6.61 322.43 6.57 322.03 6.54C321.97 6.53 322.07 6.41 322.18 6.41C322.69 6.38 323.54 6.34 323.71 6.38C325.21 6.71 326.44 6.46 327.91 6.37C329.18 6.29 330.66 6.32 332.08 6.36C331.13 6.38 330.18 6.39 329.24 6.41C329.24 6.44 329.22 6.47 329.22 6.49C329.6 6.52 330.01 6.55 330.43 6.58C330.18 6.62 329.96 6.65 329.41 6.73C332.51 6.73 335.29 6.73 337.79 6.73C337.79 6.85 337.79 6.96 337.79 7.1C337.68 7.11 337.35 7.14 337.03 7.17C338.21 7.47 339.89 7.49 341.67 7.48C343.28 7.47 344.94 7.51 346.53 7.47C348.16 7.43 349.71 7.31 351.3 7.24C351.88 7.21 352.51 7.22 353.11 7.21C353.17 7.25 353.23 7.29 353.3 7.33C352.51 7.38 351.75 7.44 350.94 7.49C351.85 7.49 352.81 7.51 353.7 7.48C354.29 7.47 354.78 7.37 355.38 7.34C356.27 7.28 356.82 7.04 358.09 7.2C358.28 7.23 358.81 7.17 359.45 7.08C358.94 7.05 358.45 7.01 357.88 6.97C360.38 6.58 362.78 6.88 365.03 6.86C365.05 6.84 365.09 6.81 365.11 6.78C363.73 6.72 362.33 6.66 360.96 6.6C361.17 6.52 361.38 6.44 361.51 6.38C364.01 6.5 366.49 6.61 369.02 6.73C368.57 6.79 368.17 6.84 367.83 6.89C367.04 7.02 366.26 7.08 365.09 7.04C363.48 6.98 361.8 6.99 360.17 6.97C359.85 7.48 359.85 7.47 362.38 7.48C363.84 7.49 365.32 7.54 366.79 7.54C367.43 7.54 368.02 7.44 368.66 7.39C368.91 7.37 369.27 7.35 369.48 7.36C371.46 7.49 373.28 7.42 375.19 7.3C376 7.25 377.06 7.33 377.99 7.33C380.56 7.32 383.21 7.22 385.67 7.3C387.92 7.38 389.95 7.28 392.07 7.26C392.46 7.25 392.84 7.23 393.22 7.21C393.22 7.18 393.22 7.15 393.2 7.12C391.42 7.11 389.61 7.08 387.83 7.08C384.1 7.09 380.36 7.15 376.67 7.1C375.1 7.08 373.6 6.95 371.92 7.06C371.01 7.11 370.03 7.15 369.1 7.19C368.99 7.14 368.87 7.1 368.76 7.05C369.42 6.98 370.03 6.88 370.76 6.85C372.75 6.77 375.02 6.58 376.78 6.67C380.13 6.85 383.38 6.73 386.64 6.74C387.47 6.74 388.3 6.65 389.15 6.59C389.1 6.57 389.04 6.54 389 6.51C387.03 6.51 385.05 6.51 383.06 6.51C383.06 6.48 383.06 6.45 383.06 6.41C385.6 6.41 388.13 6.41 390.87 6.41C390.61 6.53 390.46 6.6 390.1 6.76C391.52 6.72 392.65 6.69 393.22 6.68C396.17 6.68 398.61 6.69 401.07 6.68C403.85 6.67 406.63 6.65 409.38 6.62C414.11 6.58 418.87 6.58 423.55 6.48C426.27 6.42 428.82 6.64 431.42 6.53C433.21 6.46 435.33 6.62 436.81 6.31C436.94 6.28 437.45 6.28 437.64 6.3C439.46 6.49 439.46 6.49 441.52 6.33C441.9 6.3 442.33 6.29 442.73 6.27C441.46 6.01 441.46 6.01 439.66 6.15C439.25 6.18 438.72 6.18 438.26 6.17C436.22 6.15 434.18 6.11 432.15 6.11C431.11 6.12 430.11 6.23 429.07 6.27C428.39 6.31 427.67 6.31 426.88 6.28C427.27 6.25 427.65 6.23 428.05 6.21C428.05 6.18 428.05 6.15 428.03 6.12C424.51 6.12 420.99 6.12 417.21 6.12C417.55 6.03 417.76 5.97 418.21 5.84C416.77 5.83 415.54 5.82 414.33 5.81C414.33 5.84 414.33 5.88 414.31 5.91C414.96 5.9 415.64 5.88 416.3 5.87C416.3 5.9 416.32 5.94 416.32 5.97C412.8 6.16 409.26 6.18 405.57 5.92C405.71 5.88 405.91 5.83 406.27 5.74C404.67 5.64 403.17 5.55 401.68 5.46C401.68 5.44 401.71 5.43 401.71 5.41C403.81 5.46 405.91 5.52 408.01 5.58C409.72 5.62 411.44 5.66 413.16 5.71C413.22 5.67 413.31 5.64 413.37 5.6C413.12 5.55 412.88 5.5 412.46 5.42C414.09 5.36 415.54 5.28 417 5.27C417.93 5.26 418.57 5.44 419.88 5.38C422.58 5.27 425.44 5.19 428.16 5.22C430 5.24 431.79 5.36 433.65 5.26C434.5 5.21 435.35 5.18 436.2 5.14C436.2 5.11 436.18 5.09 436.18 5.06C428.73 4.96 421.31 4.86 413.67 4.76C415.71 4.48 421.12 4.43 424.28 4.64C424.21 4.55 424.13 4.46 424.04 4.34C427.25 4.64 429.05 4.66 431.06 4.38C426.82 4.13 422.52 4.34 418.55 4.17C418.57 4.14 418.59 4.11 418.59 4.08C420.25 4.1 421.88 4.13 423.53 4.14C426.23 4.17 428.92 4.19 431.62 4.22C431.89 4.22 432.08 4.33 432.42 4.37C432.93 4.42 433.52 4.48 434.08 4.48C436.47 4.47 438.85 4.43 441.27 4.36C440.1 4.36 438.91 4.36 437.75 4.36C437.75 4.33 437.75 4.3 437.77 4.27C442.79 4.27 447.84 4.27 453.02 4.27C452.6 4.53 451.81 4.52 450.77 4.47C449.94 4.43 449.05 4.43 448.03 4.42C448.9 4.72 449.75 4.77 451.26 4.67C451.66 4.64 452.19 4.67 452.66 4.67C454.63 4.67 456.6 4.66 458.58 4.67C459.57 4.67 460.55 4.71 461.53 4.73C461.53 4.77 461.55 4.81 461.55 4.84C459.13 4.88 456.71 4.91 454.29 4.94C454.29 4.96 454.27 4.99 454.27 5.02C457.79 5.02 461.31 5.02 464.83 5.02C464.83 5.05 464.83 5.09 464.86 5.12C462.76 5.16 460.68 5.21 458.58 5.25C458.6 5.29 458.62 5.33 458.64 5.37C461.42 5.34 464.2 5.31 467.32 5.28C466.79 5.17 466.62 5.13 466.19 5.05C469.12 4.96 471.71 4.89 474.3 4.82C474.27 4.78 474.27 4.75 474.25 4.72C472.87 4.66 471.58 4.5 470.01 4.66C469.12 4.75 468.33 4.81 467.25 4.67C466.62 4.59 465.53 4.6 464.64 4.59C462.46 4.54 460.3 4.51 458.11 4.48C458.11 4.45 458.11 4.43 458.11 4.4C459.93 4.42 461.76 4.45 463.58 4.44C466.68 4.44 469.78 4.4 472.85 4.39C473.57 4.39 474.27 4.48 475.02 4.49C477.92 4.53 480.83 4.55 483.76 4.57C489.57 4.62 495.38 4.68 501.17 4.71C506.99 4.74 512.82 4.73 518.65 4.74C520.77 4.75 522.94 4.8 525.04 4.76C526.48 4.74 527.88 4.6 529.6 4.5C531.42 4.82 534.14 4.69 536.79 4.67C539.4 4.64 542.03 4.65 544.64 4.65C548.18 4.64 551.74 4.62 555.31 4.56C552.87 4.43 550.11 4.65 547.74 4.28C549.73 4.27 551.34 4.16 553.36 4.22C556.86 4.31 560.51 4.22 564.09 4.2C566.87 4.18 569.61 4.02 572.43 4.21C573.25 4.27 574.4 4.17 575.42 4.14C575.42 4.11 575.42 4.08 575.42 4.04C574.82 4 574.21 3.96 573.61 3.91C573.61 3.9 573.64 3.88 573.64 3.86C574.82 3.85 576.03 3.84 577.22 3.82C577.22 3.79 577.24 3.77 577.24 3.73C573.04 3.71 568.88 3.51 564.62 3.72L564.66 3.72C565.32 3.64 565.96 3.55 566.61 3.47C566.59 3.44 566.59 3.42 566.57 3.39C564.92 3.39 563.26 3.4 561.61 3.39C557.05 3.37 552.51 3.31 547.95 3.31C541.48 3.3 534.99 3.33 528.52 3.35C526.56 3.63 524.46 3.52 522.07 3.34C522.36 3.51 522.51 3.59 522.66 3.68C522.47 3.69 522.3 3.71 522.15 3.71C519.63 3.69 517.08 3.71 514.62 3.63C511.93 3.55 509.4 3.64 506.79 3.68C504.8 3.71 502.72 3.62 500.71 3.59C500.71 3.56 500.68 3.52 500.68 3.49C502.47 3.47 504.27 3.44 506.05 3.41C506.05 3.39 506.07 3.37 506.07 3.34C502.91 3.28 499.75 3.23 496.59 3.17C496.55 3.15 496.51 3.12 496.46 3.1C497.27 3.07 498.1 3.01 498.9 3.01C503.82 3.01 508.75 3.01 513.69 3.02C519.82 3.02 525.95 3.02 532.06 3.02C532.78 3.02 533.65 3.07 533.69 2.85C533.69 2.82 534.73 2.77 535.28 2.77C536.47 2.77 537.68 2.8 538.87 2.81C542.73 2.84 546.59 2.88 550.47 2.88C551.83 2.88 553.19 2.77 554.54 2.7C554.88 2.69 555.35 2.66 555.58 2.69C557.64 2.9 559.93 2.78 562.08 2.85C564.01 2.91 565.38 2.71 567.06 2.69C569.67 2.65 572.32 2.6 574.93 2.6C583.16 2.63 591.39 2.67 599.64 2.7C601.68 2.71 603.72 2.7 605.73 2.67C613.6 2.57 621.43 2.64 629.28 2.8C636.72 2.96 644.19 3.11 651.74 2.96C655.07 2.9 658.47 2.98 661.84 2.97C665.95 2.95 670.07 2.9 674.21 2.87C677.16 2.85 680.1 2.82 683.03 2.78C684.07 2.77 685.11 2.71 686.15 2.68C686.15 2.64 686.15 2.6 686.15 2.57C683.14 2.51 680.15 2.45 677.13 2.39C677.16 2.36 677.16 2.33 677.18 2.3C685.09 2.28 692.94 2.53 700.85 2.58C700.89 2.54 700.91 2.5 700.96 2.46C696.93 2.33 692.92 2.19 688.89 2.06C688.89 2.04 688.91 2.01 688.91 1.98C693.49 2.04 698.09 2.09 702.67 2.14C702.7 2.1 702.72 2.07 702.74 2.03C701.97 2.02 701.21 2.01 700.34 1.99C700.28 1.85 700.96 1.68 698.96 1.72C695.89 1.77 692.7 1.66 689.56 1.63C688.59 1.63 687.59 1.66 686.55 1.62C687.91 1.59 689.27 1.56 690.63 1.53C690.6 1.51 690.6 1.48 690.58 1.46C689.88 1.45 689.18 1.44 688.48 1.44C688.44 1.41 688.38 1.37 688.33 1.34C689.37 1.27 690.41 1.19 691.45 1.11C691.47 1.08 691.5 1.05 691.52 1.01C689.54 0.95 687.55 0.88 685.58 0.82C685.6 0.77 685.62 0.72 685.64 0.68C689.52 0.86 693.38 0.95 697.48 0.73C696.93 0.62 696.5 0.53 696.1 0.45C698.35 0.55 700.55 0.16 702.76 0.41C702.76 0.44 702.74 0.48 702.74 0.52C701.59 0.52 700.45 0.52 699.3 0.52C699.28 0.55 699.26 0.59 699.24 0.62C699.83 0.66 700.43 0.73 701.02 0.73C704.07 0.73 707.26 0.8 709.97 0.52C711.29 0.39 712.47 0.22 713.96 0.16C718.52 -0.03 723.04 0.13 727.58 0.19C729.25 0.21 730.95 0.24 732.61 0.21C735.51 0.16 738.42 0.06 741.32 0C741.77 -0.01 742.28 0.06 742.77 0.1C742.36 0.23 742.11 0.42 741.54 0.46C739.69 0.58 737.7 0.63 735.79 0.73C733.33 0.86 730.89 1.01 728.45 1.15C726.9 1.25 725.48 1.25 724.01 1.09C722.19 0.9 719.92 0.99 719.39 1.25C720.41 1.3 721.45 1.35 722.49 1.4C722.47 1.42 722.47 1.45 722.45 1.47C717.65 1.62 712.84 1.76 707.83 1.9C708.15 1.95 708.32 1.99 708.49 1.99C714.13 2 719.77 2.02 725.41 2.01C726.24 2.01 727.07 1.89 728.11 1.82C730.95 2.08 734.11 1.91 737.15 1.74C739.9 1.58 742.09 1.59 744.06 2.02C746.12 2.47 748.88 2.56 751.99 2.39C753.18 2.32 754.43 2.29 755.66 2.26C755.9 2.25 756.3 2.25 756.34 2.27C757.26 2.59 759.5 2.5 760.52 2.7C760.8 3.08 760.97 3.44 761.37 3.79C761.52 3.92 762.24 4.04 762.73 4.15C762.9 4.2 763.32 4.23 763.3 4.27C763.11 4.51 763.96 4.68 764.4 4.88C764.93 5.12 765.53 5.12 766.53 5.14C766.97 5.14 767.42 5.16 767.88 5.18C767.93 5.21 767.97 5.24 768.01 5.27C764.34 5.53 760.65 5.79 756.85 6.06C757.06 6.24 757.26 6.41 757.53 6.65C751.4 6.6 745.25 6.4 739.42 6.84C739.78 7.11 740.82 7.21 742.43 7.08C743.19 7.01 743.85 6.92 744.61 6.87C746.8 6.71 748.81 6.91 750.89 6.98C752.67 7.05 754.43 7.11 756.19 7.19C756.89 7.23 757.53 7.31 758 7.42C762.79 7.38 767.56 7.33 772.36 7.28C772.42 7.33 772.49 7.37 772.55 7.41C771.77 7.47 771 7.52 770.2 7.56C769.05 7.62 767.46 7.47 767.03 7.83C766.95 7.9 765.72 7.96 765 7.97C763.45 7.99 761.86 7.97 760.31 7.98C759.82 7.99 759.38 8.04 758.89 8.07C759.1 8.17 759.19 8.29 759.57 8.35C761.2 8.6 763.15 8.72 765.32 8.72C766.12 8.73 766.91 8.74 767.69 8.76C767.69 8.8 767.71 8.84 767.71 8.88C765 8.94 762.28 9 758.97 9.07C763.09 9.23 766.67 9.43 768.94 10.04C768.71 10.23 767.86 10.31 766.65 10.32C765.63 10.32 764.62 10.34 763.6 10.36C763.6 10.39 763.6 10.42 763.58 10.46C764.85 10.49 766.12 10.52 767.37 10.55C767.37 10.58 767.4 10.6 767.4 10.62C766.99 10.66 766.59 10.69 766.25 10.72C767.08 11.21 770.13 11.14 772.19 11.42C770.98 11.48 770.11 11.53 769.24 11.58C769.22 11.6 769.18 11.63 769.16 11.66C770.43 11.78 771.72 11.91 773 12.03C772.95 12.06 772.91 12.09 772.85 12.11C769.13 12.18 765.3 12.02 761.63 12.21C761.56 12.24 761.5 12.28 761.43 12.31C765.27 12.66 769.09 13.01 772.93 13.37C772.91 13.39 772.91 13.42 772.89 13.44C770.32 13.51 767.76 13.58 764.89 13.66C767.35 13.95 769.52 14.21 771.77 14.48C770.62 14.52 769.45 14.57 768.35 14.61C768.14 14.89 770.83 14.94 769.69 15.32C767.23 14.81 764.3 14.71 760.93 14.82C758.7 14.9 756.43 14.93 754.18 14.97C754.16 15.02 754.14 15.05 754.12 15.1C756.15 15.18 758.17 15.27 760.23 15.34C762.2 15.4 762.56 15.47 762.26 15.81C764.02 16.04 763.94 16.2 762.01 16.4C761.18 16.48 760.31 16.56 759.5 16.65C759.21 16.68 758.91 16.72 758.74 16.77C758.17 16.94 757.66 17.11 757.04 17.32C757.79 17.33 758.85 17.35 760.39 17.38C758.74 17.49 757.53 17.57 755.96 17.68C756.62 17.82 757.02 18 757.74 18.05C760.25 18.22 761.46 18.49 760.67 18.98C760.65 18.99 760.78 19.01 760.8 19.03C760.82 19.05 760.76 19.07 760.69 19.11C760.23 19.13 759.65 19.13 759.19 19.17C758.78 19.2 758.44 19.27 758.08 19.32C758.44 19.39 758.78 19.5 759.21 19.51C760.42 19.55 761.67 19.55 763.09 19.57C761.67 20 757.57 19.7 757.28 20.33C755.96 20.34 754.41 20.29 754.07 20.65C757.13 20.81 760.14 20.79 763.2 20.68C763.92 20.66 764.72 20.71 765.51 20.73C765.51 20.76 765.49 20.8 765.49 20.84C762.77 20.98 760.06 21.13 757.28 21.27C758.4 21.48 759.44 21.67 760.59 21.89C760.23 21.96 759.95 22.02 759.67 22.07C760.78 22.73 764.15 22.53 767.33 22.58C764.83 22.9 761.94 22.62 760.37 22.96C761.03 23.14 761.58 23.29 762.11 23.44C761.24 23.53 760.37 23.61 759.16 23.73C760.52 23.8 761.56 23.84 762.71 23.9C762.22 23.93 761.86 23.96 761.29 24C762.6 24.13 763.7 24.24 764.81 24.34C764.74 24.36 764.68 24.38 764.62 24.4C761.88 24.33 759.14 24.26 756.39 24.19C756.32 24.22 756.28 24.26 756.22 24.29C757.43 24.41 758.63 24.52 759.82 24.64C759.8 24.65 759.76 24.66 759.74 24.67C758.13 24.59 756.53 24.47 754.88 24.42C752.46 24.34 750 24.27 747.56 24.26C745.95 24.25 744.02 24.47 742.75 24.37C741.15 24.25 739.69 24.2 738.1 24.22C737.34 24.22 736.62 24.3 735.87 24.35C735.92 24.4 735.98 24.44 736.02 24.49C737.51 24.49 738.97 24.49 740.45 24.49C740.48 24.51 740.5 24.52 740.52 24.54C738.4 24.67 736.3 24.8 734.11 24.94C736.34 25.07 738.59 25.2 740.84 25.34C740.82 25.37 740.79 25.4 740.79 25.44C740.29 25.46 739.75 25.48 739.12 25.51C739.31 25.57 739.5 25.62 739.73 25.69C739.48 25.7 739.29 25.71 739.14 25.7C737.89 25.66 737.06 25.78 736.08 25.9C734.43 26.11 732.58 26.26 730.82 26.45C730.17 26.51 729.45 26.58 728.89 26.67C728.68 26.7 728.72 26.86 728.89 26.88C730.91 27.05 732.48 27.42 735.26 27.33C735.15 27.26 735.05 27.19 734.85 27.07C735.43 27.11 735.81 27.12 736.13 27.16C737.34 27.28 738.46 27.45 739.75 27.54C740.99 27.64 740.92 27.81 740.88 27.97C740.84 28.14 740.45 28.31 740.2 28.49C741.2 28.55 741.96 28.59 742.7 28.64C742.64 28.67 742.6 28.71 742.53 28.74C740.6 28.65 738.65 28.56 736.72 28.48C736.68 28.5 736.62 28.53 736.55 28.56C736.93 28.59 737.29 28.63 737.68 28.66C737.72 28.69 737.74 28.72 737.78 28.75C736.87 28.78 735.92 28.85 735.02 28.84C732.14 28.79 729.74 29.03 727.13 29.17C725.14 29.28 722.95 29.32 720.85 29.31C715.28 29.31 709.7 29.26 704.14 29.23C702.21 29.22 700.38 29.2 698.45 29.11C696.33 29.01 693.91 29.09 691.64 29.09C683.88 29.1 676.12 29.09 668.35 29.13C659.53 29.17 650.68 29.24 641.86 29.32C637 29.36 632.18 29.45 627.35 29.53C626.12 29.55 624.89 29.64 623.68 29.63C621.17 29.62 618.63 29.48 616.17 29.53C610.55 29.63 605.05 29.31 599.43 29.48C599.43 29.45 599.41 29.42 599.41 29.38C601.7 29.36 604.01 29.33 606.3 29.3C592.62 28.98 578.92 29.26 565.26 29.15C567.23 28.93 567.42 28.93 569.69 29.11C569.95 29.13 570.26 29.14 570.56 29.13C576.54 29.07 582.5 29 588.46 28.93C590.78 28.91 593.09 28.91 595.4 28.89C595.93 28.89 596.44 28.83 596.97 28.8C596.97 28.77 596.97 28.74 596.95 28.71C595.72 28.66 594.45 28.63 593.26 28.56C591.84 28.48 590.75 28.53 589.97 28.76C588.89 28.48 587.7 28.43 585.58 28.57C583.16 28.73 580.81 28.7 577.84 28.46C579.34 28.44 580.49 28.42 581.65 28.41C581.65 28.38 581.65 28.35 581.63 28.33C580.62 28.31 579.6 28.29 578.58 28.27C578.58 28.25 578.58 28.23 578.58 28.21C582.59 28.21 586.58 28.21 590.44 28.21C590.71 28.27 591.01 28.38 591.31 28.38C593.56 28.38 595.8 28.36 598.14 28.27C597.88 28.24 597.65 28.21 597.03 28.13C605.96 28.1 614.62 28.28 623.15 27.91C618.06 27.88 612.94 27.85 607.85 27.82C607.83 27.78 607.83 27.73 607.81 27.68C608.49 27.65 609.17 27.62 609.85 27.59C609.85 27.56 609.87 27.53 609.87 27.51C608.19 27.51 606.52 27.51 604.86 27.51C604.71 27.51 604.46 27.53 604.44 27.56C603.59 28.08 601.26 27.73 599.64 27.81C600.51 27.76 601.38 27.71 602.27 27.66C602.25 27.63 602.21 27.59 602.19 27.56C601.11 27.56 600 27.55 598.92 27.56C590.99 27.58 583.08 27.61 575.14 27.63C571.62 27.64 568.1 27.61 564.58 27.63C562.92 27.64 561.27 27.72 559.61 27.78C559.66 27.8 559.68 27.83 559.72 27.86C559.38 27.8 559.04 27.7 558.72 27.7C554.48 27.72 550.26 27.74 546.02 27.77C546 27.81 546 27.84 545.97 27.88C547.03 27.9 548.14 27.94 549.18 27.93C552.36 27.87 552.78 27.88 555.61 28.33C553.87 28.37 552.32 28.4 550.77 28.44C550.32 28.45 549.92 28.52 549.14 28.6C545.53 28.64 541.46 28.69 537.38 28.74C537.34 28.77 537.3 28.8 537.23 28.83C537.66 28.9 538.1 28.97 538.53 29.03C538.46 29.06 538.42 29.08 538.36 29.1C537.77 29.05 537.21 28.99 536.6 28.94C536.03 28.91 535.37 28.87 534.77 28.87C533.01 28.9 531.36 28.95 529.49 28.85C527.84 28.76 525.86 28.87 523.76 28.9C525.89 28.74 527.86 28.57 529.94 28.46C532.16 28.34 534.48 28.28 536.79 28.2C539.1 28.13 541.46 28.08 544.07 28.01C541.41 27.7 527.56 27.87 524.91 28.02C526.25 28.11 527.16 28.18 528.09 28.24C527.88 28.42 527.24 28.45 523.74 28.44C524.21 28.37 524.72 28.28 525.55 28.14C524.68 28.13 524.23 28.1 523.91 28.12C521.52 28.32 518.97 28.24 516.49 28.27C515.36 28.28 514.05 28.33 513.6 28.04C513.54 27.99 512.56 27.97 512.03 27.97C511.86 27.97 511.72 28.09 511.42 28.21C509.91 28.12 508.3 28.02 506.54 27.91C506.73 27.84 506.92 27.76 507.28 27.62C505.58 27.67 505.18 27.82 505.08 28.05C504.31 28.03 503.48 28.01 502.66 27.99C502.64 27.97 502.64 27.95 502.62 27.93C503.12 27.9 503.65 27.87 504.16 27.84C502.91 27.79 501.53 27.54 500.47 27.9C500.37 27.94 499.84 27.97 499.52 27.97C495.61 27.97 491.71 27.97 487.74 27.91C490.18 27.85 492.62 27.8 495.06 27.74C495.19 27.74 495.34 27.73 495.42 27.74C497.08 27.98 498.29 27.84 499.48 27.61C499.69 27.57 500.39 27.59 500.85 27.6C503.1 27.67 505.27 27.71 506.86 27.33C506.96 27.3 507.43 27.32 507.75 27.32C507.18 27.56 507.71 27.59 511.23 27.52C510.91 27.48 510.74 27.45 510.21 27.38C512.22 27.38 513.94 27.36 515.64 27.38C518.19 27.42 520.71 27.5 523.23 27.52C525.61 27.53 527.99 27.49 530.36 27.46C530.66 27.46 530.91 27.39 531.17 27.27C529.2 27.25 527.22 27.22 525.08 27.19C525.08 27.15 525.16 27.09 525.06 27.04C524.95 26.99 524.68 26.93 524.42 26.92C524.15 26.91 523.74 26.94 523.49 26.97C523 27.03 522.6 27.18 522.13 27.18C518.78 27.2 515.43 27.19 512.39 27.19C513.26 27.1 514.37 26.99 515.47 26.88C515.36 26.84 515.26 26.81 515.15 26.77C514.01 26.81 512.46 26.57 511.95 26.89C510.82 26.84 509.74 26.79 508.66 26.76C508.39 26.75 507.9 26.76 507.83 26.79C507.01 27.15 505.22 26.97 503.74 26.99C504.1 26.94 504.48 26.89 504.95 26.82C504.52 26.79 504.21 26.76 503.89 26.76C501.68 26.75 499.45 26.75 497.25 26.75C496.08 26.75 494.87 26.69 494.05 26.93C493.9 26.97 492.98 26.94 492.43 26.93C491.22 26.91 489.99 26.88 488.78 26.88C486.22 26.88 483.63 26.89 481.06 26.9C479.2 26.91 477.33 26.91 475.46 26.92C475.02 26.92 474.59 26.97 474.17 27C473.79 27.02 473.36 27.08 473.07 27.06C468.34 26.84 463.6 27.06 458.87 27.03C457.77 27.02 456.65 27.05 455.69 27C455.33 26.97 454.97 26.91 454.61 26.91C452 26.91 449.37 26.91 446.76 26.91C445.06 26.92 443.35 26.95 441.65 26.95C440.29 26.96 438.93 26.96 437.58 26.93C437.02 26.92 436.54 26.84 436.09 26.84C432.7 26.85 429.32 26.86 425.93 26.88C422.54 26.9 419.14 26.95 415.75 26.98C415.71 26.94 415.66 26.9 415.62 26.87C416.49 26.83 417.34 26.79 418.21 26.75C418.21 26.71 418.21 26.68 418.21 26.65C416.81 26.64 415.39 26.61 413.99 26.61C412.54 26.62 411.08 26.62 409.68 26.68C408.28 26.74 406.97 26.86 405.61 26.96C405.67 26.92 405.76 26.89 405.82 26.86C405.42 26.8 404.99 26.71 404.61 26.71C403.21 26.72 401.81 26.78 400.41 26.8C397.76 26.85 395.11 26.89 392.46 26.93C392.12 26.94 391.76 26.91 391.4 26.9C391.37 26.88 391.35 26.85 391.33 26.82C392.54 26.79 393.73 26.75 394.94 26.75C396.15 26.75 397.19 26.74 397.89 26.53C398.04 26.48 398.82 26.44 398.88 26.45C400.09 26.7 401.58 26.55 402.94 26.55C404.93 26.55 407.03 26.52 408.9 26.47C410.61 26.42 412.14 26.52 413.71 26.48C414.88 26.44 416.05 26.39 417.21 26.37C419.69 26.33 422.2 26.3 424.7 26.27C425.34 26.27 425.97 26.27 426.61 26.27C426.61 26.24 426.61 26.21 426.61 26.18C424.72 26.18 422.81 26.17 420.92 26.18C418.46 26.18 415.85 26.29 413.54 26.19C408.64 25.96 404.02 26.31 399.24 26.29C396.08 26.27 392.92 26.31 389.76 26.3C389.23 26.3 388.68 26.21 388.15 26.17C388.19 26.13 388.23 26.09 388.28 26.06C390.21 26.03 392.12 26 394.17 25.97C394 25.92 393.79 25.85 393.52 25.76C394.66 25.73 395.6 25.66 396 25.93C396.08 25.98 397.1 26.01 397.7 26.01C403.15 25.99 408.58 25.96 414.03 25.93C417.23 25.92 420.44 25.88 423.7 25.9C423.15 25.93 422.6 25.95 422.05 25.98C422.07 26 422.07 26.03 422.09 26.05C424.17 26.02 426.23 25.99 428.31 25.97C428.29 25.93 428.28 25.9 428.26 25.86C427.48 25.87 426.69 25.88 425.89 25.89C425.89 25.86 425.89 25.84 425.87 25.81C430.09 25.76 434.33 25.71 438.55 25.66C438.57 25.64 438.59 25.63 438.62 25.6C438.13 25.56 437.66 25.51 437.07 25.44C437.47 25.42 437.83 25.4 438.19 25.38C438.19 25.35 438.17 25.32 438.17 25.29C435.71 25.29 433.25 25.29 430.58 25.29C431.06 25.34 431.45 25.37 432 25.43C429.47 25.51 427.18 25.6 424.85 25.67C422.49 25.74 420.14 25.79 417.95 25.53C418.23 25.49 418.44 25.47 418.65 25.45C418.63 25.43 418.59 25.41 418.57 25.39C416.36 25.41 414.16 25.43 411.95 25.45C408.54 25.48 405.1 25.49 401.68 25.53C400.37 25.54 399.05 25.6 397.59 25.57C398.82 25.49 400.05 25.42 401.15 25.35C399.52 25.17 397.44 25.25 395.83 25.48C395.24 25.57 394.09 25.54 393.18 25.56C393.16 25.53 393.14 25.49 393.11 25.46C393.69 25.44 394.26 25.41 395.13 25.38C394.6 25.26 394.26 25.19 393.98 25.13C396.4 25.13 398.91 25.13 401.62 25.13C400.79 25.03 400.09 24.95 399.39 24.88C399.24 24.86 398.91 24.85 398.91 24.86C397.99 25.22 396.53 24.92 395.36 24.94C392.58 24.98 389.74 24.93 387 24.99C383 25.09 379.01 24.97 375 25.04C371.43 25.1 367.83 25.04 364.22 25.04C364.01 25.04 363.8 25.07 363.08 25.12C370.69 25.36 377.97 24.94 385.5 25.31C384.67 25.38 384.23 25.41 383.63 25.46C384.8 25.46 385.86 25.46 386.92 25.46C386.98 25.5 387.07 25.54 387.13 25.57C386.54 25.62 385.75 25.72 385.37 25.68C382.27 25.41 379.52 25.61 376.72 25.82C375.76 25.89 374.81 25.96 373.64 26.04C373.96 25.65 377.69 25.96 376.65 25.44C377.9 25.42 378.9 25.41 379.9 25.39C379.9 25.36 379.88 25.33 379.88 25.3C367.34 25.35 354.8 25.41 341.71 25.47C342.58 25.55 342.99 25.59 343.41 25.64C343.26 25.66 343.16 25.69 343.01 25.69C341.59 25.73 340.23 25.74 339.51 26.04C339.32 26.12 337.73 26.1 336.77 26.12C336.73 26.08 336.69 26.05 336.62 26.02C337.26 25.98 337.9 25.94 338.53 25.9C338.53 25.88 338.51 25.86 338.51 25.84C332.78 25.84 327.06 25.84 321.33 25.84C321.31 25.83 321.29 25.83 321.24 25.82C321.99 25.8 322.71 25.78 323.45 25.76C323.26 25.37 323.03 25.35 318.72 25.17C319.57 25.16 320.44 25.15 321.29 25.14C321.29 25.11 321.29 25.07 321.26 25.04C318.25 25.04 315.26 25.04 312.25 25.04C309.26 25.04 306.29 25.04 303.3 25.04C303.3 25.08 303.3 25.12 303.3 25.16C307.82 25.16 312.33 25.16 316.87 25.16C316.6 25.31 316.62 25.32 312.82 25.41C311.25 25.44 309.62 25.42 308.01 25.44C311.63 25.75 315.79 25.43 319.72 25.79C318.97 25.84 318.36 25.9 317.72 25.9C314.18 25.92 310.66 25.93 307.12 25.92C300.1 25.9 293.07 25.86 286.05 25.85C281.68 25.85 277.31 25.9 272.94 25.9C271.73 25.9 270.52 25.79 268.91 25.72C269.76 25.69 270.31 25.65 270.82 25.65C272.77 25.66 274.7 25.69 276.65 25.7C277.61 25.7 278.69 25.76 279.22 25.52C279.35 25.45 280.37 25.45 280.98 25.36C278.12 25.33 275.25 25.29 272.37 25.26C272.35 25.3 272.33 25.33 272.31 25.37C273.2 25.39 274.09 25.41 275 25.43C273.64 25.58 272.43 25.56 271.22 25.42C270.54 25.34 269.63 25.31 268.81 25.3C266.13 25.27 263.44 25.26 260.75 25.25C258.18 25.24 255.61 25.25 252.62 25.25C253.28 25.28 253.6 25.29 253.91 25.31C255.42 25.39 256.93 25.51 258.48 25.55C259.85 25.58 261.32 25.53 262.72 25.51C262.59 25.65 261.89 25.7 260.75 25.67C258.98 25.64 257.2 25.59 255.44 25.6C252.92 25.62 250.39 25.69 247.87 25.73C244.28 25.77 240.61 25.71 237.16 25.85C234.55 25.95 232.43 25.64 230.01 25.79C230.01 25.76 230.01 25.72 230.01 25.69C232.79 25.68 235.59 25.68 238.37 25.65C239.7 25.64 241.04 25.57 242.37 25.53C242.5 25.57 242.65 25.63 242.78 25.63C244.67 25.64 246.57 25.65 248.46 25.62C248.8 25.62 249.06 25.44 249.35 25.35C249.23 25.33 249.08 25.32 248.95 25.31C249.54 25.28 250.16 25.26 250.75 25.24C250.73 25.22 250.71 25.21 250.69 25.19C249.08 25.21 247.49 25.22 245.66 25.24C246.15 25.37 246.41 25.43 246.51 25.46C245.37 25.48 243.99 25.51 242.61 25.54ZM109.65 28.25C110.47 28.34 111.26 28.45 112.17 28.51C112.53 28.53 113.15 28.42 113.63 28.38C113.82 28.45 113.93 28.55 114.25 28.58C115.56 28.68 116.96 28.79 118.53 28.62C117.35 28.47 115.99 28.45 114.82 28.32C113.51 28.18 111.38 28.27 109.6 28.27C107.01 27.95 104.17 28.13 101.41 28.14C102.67 28.24 104 28.28 105.28 28.35C106.44 28.42 107.59 28.63 108.46 28.28C108.54 28.25 109.24 28.26 109.65 28.25ZM233.13 27.13C233.15 27.14 233.17 27.15 233.21 27.16C230.92 27.11 228.63 27.06 226.34 27.02C223.83 26.98 221.33 26.95 218.83 26.93C216.26 26.91 213.69 26.92 211.15 26.92C208.62 26.92 206.1 26.91 203.6 26.91C201.18 26.9 198.76 26.91 196.36 26.91C196.34 26.95 196.34 26.99 196.32 27.02C197.85 27.09 199.38 27.2 200.95 27.21C202.58 27.23 204.23 27.15 206.02 27.1C205.97 27.21 205.93 27.29 205.89 27.38C210.34 27.72 225.28 27.85 229.37 27.57C226.63 27.53 223.9 27.5 221.2 27.47C222.07 27.23 219.87 27.34 219.49 27.15C220.42 27.18 221.18 27.2 221.93 27.22C223.03 27.26 224.13 27.31 225.26 27.32C226.85 27.35 228.46 27.34 230.05 27.37C231.66 27.39 233.25 27.46 234.87 27.48C235.86 27.5 236.48 27.45 235.59 27.26C236.12 27.22 236.63 27.18 237.14 27.14C237.09 27.1 237.07 27.07 237.03 27.04C235.69 27.07 234.42 27.1 233.13 27.13ZM74.33 26.97C77.42 26.55 81.2 26.92 84.38 26.64C83.6 26.59 82.81 26.59 82 26.58C75.68 26.5 69.36 26.43 63.04 26.35C62.76 26.35 62.32 26.35 62.23 26.31C61.66 26.13 61.11 26.14 60.3 26.28C60.07 26.32 59.41 26.29 58.97 26.29C56.25 26.25 53.54 26.24 50.84 26.17C49.25 26.14 47.66 26.04 46.2 25.93C44.22 25.77 42.31 25.59 40.05 25.72C40.72 25.76 41.45 25.76 42.15 25.79C42.74 25.81 43.33 25.85 43.84 25.91C44.33 25.97 44.65 26.08 45.16 26.12C46.32 26.2 47.55 26.25 48.76 26.31C51.18 26.42 53.6 26.54 56.06 26.63C58.56 26.73 61.3 26.71 63.55 26.9C67.13 27.19 70.7 27.24 74.47 27.17C74.64 27.17 74.77 27.14 75.03 27.12C74.81 27.06 74.6 27.02 74.33 26.97ZM486.13 5.54C486.13 5.52 486.11 5.5 486.11 5.47C484.1 5.46 482.08 5.43 480.07 5.43C471.79 5.43 463.54 5.44 455.27 5.44C451.43 5.44 447.5 5.37 444.19 5.8C444.19 5.8 444.3 5.82 444.41 5.82C445.79 5.84 446.91 5.69 448.08 5.63C450.13 5.53 452.62 5.58 454.72 5.69C455.42 5.73 456.29 5.82 457.13 5.82C459.04 5.84 460.95 5.83 462.88 5.82C463.2 5.82 463.5 5.78 464.05 5.75C463.5 5.68 463.14 5.63 462.42 5.54C465.26 5.56 467.68 5.59 470.07 5.61C470.07 5.64 470.07 5.67 470.07 5.7C468.82 5.71 467.57 5.72 466.32 5.74C472.32 5.81 478.31 6.09 484.37 5.74C483.57 5.71 482.74 5.68 481.93 5.65C481.93 5.64 481.93 5.62 481.95 5.6C483.33 5.58 484.73 5.56 486.13 5.54ZM256.97 27.64C256.14 27.6 255.53 27.57 254.89 27.54C253.24 27.47 251.62 27.41 250.41 27.14C249.8 27 248.7 26.8 247.53 26.96C246.74 27.07 246.45 27.28 245.94 27.45C245.49 27.38 244.86 27.29 243.88 27.14C242.2 27.12 239.96 27.1 237.71 27.08C237.67 27.11 237.62 27.14 237.58 27.17C238.13 27.23 238.66 27.29 239.62 27.4C238.47 27.41 237.75 27.42 236.37 27.43C237.58 27.64 238.41 27.8 239.38 27.97C240.27 27.78 241.34 27.8 242.59 27.97C243.07 28.04 243.97 28.05 244.64 28.04C246.57 28.01 248.51 27.96 250.41 27.91C250.5 27.91 250.58 27.89 250.73 27.87C250.54 27.82 250.35 27.77 250.14 27.73C252.2 27.43 254.47 27.73 256.97 27.64ZM496.85 5.92C496.87 5.95 496.89 5.98 496.91 6.02C498.2 6.03 499.5 6.05 500.79 6.05C503.85 6.06 506.96 6.14 509.91 6.05C511.76 6 513.37 6.05 515.11 6.07C516.93 6.08 519.03 6.12 520.52 5.98C521.71 5.87 522.62 5.8 523.89 5.82C524.76 5.84 525.67 5.83 526.61 5.83C526.52 5.78 526.5 5.77 526.46 5.77C526.25 5.75 526.03 5.73 525.8 5.73C523.04 5.64 520.39 5.71 517.76 5.88C517.02 5.93 515.94 5.82 515.05 5.76C514.94 5.75 515.09 5.62 515.17 5.46C514.07 5.51 512.9 5.51 512.2 5.61C511.02 5.78 509.13 5.86 507.32 5.71C508.79 5.68 510 5.66 511.21 5.64C511.19 5.61 511.16 5.58 511.16 5.55C508.81 5.55 506.45 5.55 504.1 5.55C503.44 5.55 502.78 5.6 502.15 5.58C501.02 5.56 499.73 5.41 499.39 5.77C499.35 5.81 498.56 5.83 498.12 5.86C497.69 5.88 497.27 5.9 496.85 5.92ZM429.43 7.48C429.43 7.51 429.41 7.54 429.41 7.56C430.39 7.57 431.36 7.59 432.34 7.6C432.34 7.64 432.34 7.67 432.34 7.7C430.92 7.7 429.47 7.72 428.05 7.7C424.85 7.64 424.87 7.63 424.23 7.8C431.21 7.8 438.36 7.8 445.49 7.8C445.49 7.77 445.49 7.73 445.49 7.69C445.15 7.69 444.81 7.7 444.49 7.7C442.67 7.67 440.59 7.72 439.1 7.59C437.6 7.45 436.6 7.47 435.33 7.59C434.82 7.63 434.27 7.66 433.74 7.7C433.57 7.66 433.4 7.62 433.23 7.58C433.69 7.56 434.18 7.55 434.65 7.53C434.52 7.5 434.39 7.47 434.27 7.44C432.65 7.45 431.04 7.47 429.43 7.48ZM728.26 0.55C728.28 0.51 728.28 0.46 728.3 0.42C726.92 0.38 725.54 0.28 724.18 0.3C720.51 0.35 716.84 0.44 713.17 0.52C712.62 0.53 712.11 0.59 711.58 0.62C711.61 0.64 711.63 0.66 711.67 0.68C717.18 0.64 722.72 0.6 728.26 0.55ZM709.23 1.43C707.32 1.29 705.77 1.03 703.37 1.08C701.32 1.13 699.15 0.96 696.78 1.12C698.39 1.17 699.96 1.15 700.94 1.27C703.59 1.61 706.34 1.52 709.23 1.43ZM506.09 24.69C506.07 24.72 506.05 24.75 506.01 24.79C506.73 24.83 507.45 24.87 508.15 24.93C508.66 24.96 509.13 25.06 509.62 25.06C511.57 25.06 513.54 25.03 515.49 25.01C516 25.01 516.53 25 517.04 24.99C517.04 24.94 517.04 24.9 517.04 24.85C513.5 24.66 509.81 24.68 506.09 24.69ZM452.21 25.79C452.23 25.85 452.26 25.9 452.28 25.96C458.73 25.93 465.2 25.89 471.64 25.86C471.64 25.84 471.64 25.82 471.62 25.79C465.15 25.79 458.68 25.79 452.21 25.79ZM100.23 3.09C100.21 3.05 100.18 3 100.14 2.97C95.56 2.97 90.96 2.79 86.4 2.99C86.4 3.02 86.4 3.05 86.4 3.08C89.32 3.08 92.25 3.08 95.18 3.08C95.18 3.1 95.18 3.11 95.18 3.13C94.63 3.14 94.07 3.15 93.52 3.16C93.54 3.19 93.57 3.22 93.61 3.25C95.81 3.2 98.02 3.14 100.23 3.09ZM100.82 3.1C100.88 3.16 100.97 3.22 101.03 3.28C103.3 3.24 105.55 3.2 107.82 3.17C108.22 3.16 108.65 3.19 109.07 3.2C110.79 3.2 112.51 3.2 114.23 3.2C110.43 3.08 106.61 3.02 102.79 2.98C102.14 2.98 101.48 3.06 100.82 3.1ZM41.7 24.41C44.9 24.52 48 24.56 51.58 24.39C49.27 24.29 47.49 24.22 45.71 24.14C45.37 24.13 44.97 24.13 44.65 24.15C43.74 24.22 42.85 24.31 41.7 24.41ZM710.48 1.13C710.46 1.17 710.44 1.21 710.42 1.25C712.07 1.28 713.73 1.31 715.83 1.35C715.55 1.13 715.64 0.89 715.06 0.82C714.28 0.72 712.9 0.66 712.05 0.9C712.37 0.96 712.67 1.03 713.24 1.15C712.03 1.14 711.27 1.14 710.48 1.13ZM258.41 27.04C258.45 26.99 258.48 26.95 258.52 26.9C256.99 26.84 255.46 26.77 253.94 26.7C253.89 26.73 253.87 26.75 253.83 26.78C254.44 26.8 255.08 26.83 255.72 26.86C255.7 26.88 255.7 26.91 255.68 26.94C254.93 26.95 254.19 26.94 253.49 26.97C252.73 27 252.01 27.07 251.26 27.12C251.98 27.15 252.75 27.23 253.45 27.22C255.1 27.18 256.76 27.1 258.41 27.04ZM325.19 7.23C325.04 7.08 324.98 6.99 324.89 6.91C324.28 6.93 323.51 6.92 323.11 6.98C322.5 7.08 323.3 7.4 324.15 7.39C326.65 7.36 329.16 7.31 331.66 7.27C331.64 7.22 331.62 7.17 331.58 7.13C329.37 7.16 327.18 7.2 325.19 7.23ZM225.04 4.09C220.63 3.98 216.22 3.83 211.83 4.09C216.24 4.09 220.63 4.09 225.04 4.09ZM418.65 7.75C420.22 7.92 422.88 7.9 423.32 7.69C423.09 7.64 422.85 7.57 422.43 7.47C423.72 7.47 424.74 7.47 425.76 7.47C423.09 7.29 419.99 7.41 418.65 7.75ZM359.07 8.03C359.07 7.98 359.05 7.94 359.05 7.89C355.67 7.96 352.24 7.71 348.93 8.03C352.32 8.03 355.69 8.03 359.07 8.03ZM210.36 25.58C210.39 25.55 210.41 25.52 210.43 25.48C208.99 25.43 207.31 25.45 206.12 25.32C204.36 25.12 203.22 25.18 201.71 25.48C204.74 25.62 207.59 25.49 210.36 25.58ZM182.68 25.89C186.31 25.99 190.04 26.27 193.5 25.76C191.91 25.6 191.63 25.62 190.98 25.75C190.59 25.82 189.94 25.88 189.38 25.89C187.16 25.9 184.91 25.89 182.68 25.89ZM750.55 7.8C750.57 7.83 750.57 7.86 750.59 7.9C751 7.9 751.42 7.91 751.82 7.91C753.69 7.9 755.56 7.9 757.4 7.88C757.91 7.88 758.42 7.84 758.93 7.82C758.46 7.76 758 7.65 757.57 7.65C755.22 7.68 752.89 7.75 750.55 7.8ZM425.4 5.64C425.34 5.61 425.27 5.57 425.23 5.54C422.2 5.54 419.16 5.54 416.13 5.54C417.93 5.65 419.74 5.72 421.54 5.76C422.47 5.78 423.43 5.77 424.36 5.75C424.72 5.75 425.04 5.68 425.4 5.64ZM550.07 26.78C553.04 26.89 555.44 26.52 558.07 26.7C558.36 26.72 558.87 26.64 559.27 26.6C556.2 26.56 553.1 26.35 550.07 26.78ZM469.01 25.49C469.01 25.52 469.01 25.54 469.01 25.57C473.24 25.57 477.44 25.57 481.66 25.57C481.66 25.54 481.64 25.52 481.64 25.49C477.41 25.49 473.21 25.49 469.01 25.49ZM461.31 6.22C458.28 6.24 455.56 5.84 452.43 6.04C455.25 6.27 458.32 6.21 461.31 6.22ZM257.2 27.88C257.18 27.83 257.18 27.78 257.16 27.73C255.89 27.73 254.59 27.72 253.32 27.74C252.92 27.75 252.24 27.85 252.26 27.9C252.3 28 252.62 28.13 253.07 28.18C253.51 28.24 254.23 28.22 254.85 28.23C254.89 28.21 254.91 28.19 254.95 28.17C254.57 28.13 254.21 28.09 253.7 28.02C255 27.97 256.1 27.92 257.2 27.88ZM340.68 7.9C343.05 8.12 345.09 8.14 347.78 7.99C346.83 7.89 346.28 7.78 345.75 7.79C344.2 7.8 342.67 7.85 340.68 7.9ZM263.29 26.33C261.49 26.13 253.55 26.08 250.58 26.22C254.87 26.26 258.9 26.29 263.29 26.33ZM560.17 24.84C558.94 24.78 557.6 24.7 556.22 24.66C554.76 24.62 553.25 24.62 551.74 24.61C551.72 24.64 551.72 24.68 551.7 24.71C553.27 24.73 554.84 24.74 556.41 24.75C556.41 24.78 556.41 24.81 556.41 24.84C556.22 24.87 556.03 24.9 555.82 24.94C559.17 25.03 559.17 25.03 560.17 24.84ZM555.41 27.3C555.44 27.27 555.46 27.24 555.5 27.21C553.87 27.07 549.35 27.12 548.16 27.37C550.83 27.34 553.12 27.32 555.41 27.3ZM550.58 26.54C549.28 26.54 548.33 26.54 547.25 26.54C547.5 26.6 547.84 26.66 547.78 26.68C546.76 27.07 544.38 26.79 542.79 26.96C544.64 27.29 546.25 26.86 547.42 26.94C548.56 26.8 549.39 26.69 550.58 26.54ZM298.53 25.1C298.55 25.06 298.57 25.02 298.59 24.98C297.7 24.98 296.83 24.98 295.94 24.98C293.96 24.98 291.99 24.97 290 24.97C289.68 24.97 289.36 25.06 289.06 25.11C289.47 25.13 289.87 25.18 290.25 25.17C291.1 25.16 291.95 25.11 292.8 25.1C294.71 25.1 296.62 25.1 298.53 25.1ZM280.18 25.07C280.13 25.09 280.11 25.12 280.07 25.14C282.49 25.17 284.91 25.2 287.35 25.23C287.43 25.2 287.49 25.17 287.58 25.15C287.28 25.1 286.99 24.99 286.69 24.99C284.5 25.01 282.34 25.04 280.18 25.07ZM265.84 4.79C265.86 4.82 265.86 4.84 265.88 4.87C268.34 4.78 271.05 5.1 273.32 4.66C270.82 4.71 268.34 4.75 265.84 4.79ZM496.51 5.78C494.58 5.78 492.75 5.78 490.95 5.78C492.94 6.05 495.21 6.03 496.51 5.78ZM445.59 5.57C445.57 5.54 445.57 5.52 445.55 5.49C443.43 5.49 441.29 5.49 439.17 5.49C439.17 5.52 439.19 5.54 439.19 5.57C441.33 5.57 443.47 5.57 445.59 5.57ZM119.87 28.52C125.66 28.95 125.66 28.95 126.09 28.67C123.99 28.62 121.93 28.57 119.87 28.52ZM226.91 4.02C226.91 4.03 226.93 4.03 226.93 4.04C229.73 4.04 232.53 4.04 235.35 4.04C235.33 4 235.33 3.96 235.31 3.91C232.51 3.95 229.71 3.99 226.91 4.02ZM176.32 25.75C178.4 26 181.98 25.92 182.26 25.67C180.26 25.69 178.29 25.72 176.32 25.75ZM586.75 24.67C586.75 24.71 586.75 24.74 586.75 24.77C589.08 24.72 591.54 24.84 593.79 24.65C593.77 24.63 593.75 24.6 593.75 24.57C591.41 24.6 589.08 24.64 586.75 24.67ZM37.99 22.94C37.88 23 37.78 23.05 37.67 23.1C40.07 23.02 41.34 23.56 43.95 23.36C41.95 23.22 39.98 23.08 37.99 22.94ZM412.18 7.68C410.25 7.72 408.66 7.76 407.03 7.79C408.39 8.04 411.04 8.01 412.18 7.68ZM455.5 7.26C453.78 7.19 452.09 7.13 450.18 7.06C450.9 7.33 453.32 7.42 455.5 7.26ZM453.23 7.8C451.56 7.55 449.82 7.57 448.65 7.8C450.22 7.8 451.73 7.8 453.23 7.8ZM319.93 7.09C317.21 6.8 316.73 6.84 316.28 7.29C317.4 7.23 318.49 7.17 319.93 7.09ZM31.22 13.64C31.24 13.62 31.26 13.6 31.28 13.58C29.95 13.54 28.61 13.51 26.94 13.46C27.3 13.61 27.49 13.69 27.61 13.75C28.91 13.71 30.05 13.68 31.22 13.64ZM405.59 7.85C403.68 7.71 401.77 7.59 399.48 7.85C401.79 7.85 403.68 7.85 405.59 7.85ZM199.84 25.91C197.66 25.89 195.94 25.88 194.22 25.87C195.92 26.13 197.66 26.06 199.84 25.91ZM537.89 24.71C537.89 24.67 537.89 24.63 537.89 24.6C536.28 24.63 534.69 24.67 533.08 24.7C533.1 24.74 533.14 24.78 533.16 24.82C534.73 24.78 536.32 24.75 537.89 24.71ZM526.54 24.81C526.52 24.85 526.48 24.89 526.46 24.93C528.09 24.91 529.73 24.9 531.36 24.88C531.34 24.84 531.34 24.79 531.32 24.74C529.75 24.76 528.15 24.78 526.54 24.81ZM468.36 6.43C467.32 6.19 464.92 6.16 463.41 6.36C465.2 6.39 466.55 6.41 468.36 6.43ZM63.49 6.56C62.11 6.58 60.96 6.59 59.39 6.62C61.51 6.88 61.89 6.88 63.49 6.56ZM236.16 27.82C236.18 27.79 236.18 27.76 236.2 27.72C234.48 27.7 232.74 27.68 231.03 27.67C231 27.7 231 27.73 230.98 27.76C232.7 27.78 234.42 27.8 236.16 27.82ZM546.31 24.59C546.29 24.63 546.29 24.66 546.27 24.7C547.57 24.7 548.86 24.7 550.15 24.7C550.15 24.66 550.15 24.63 550.15 24.59C548.88 24.59 547.61 24.59 546.31 24.59ZM135.31 29.22C135.33 29.17 135.36 29.13 135.36 29.09C134.1 29.1 132.92 28.9 131.64 29.06C131.62 29.1 131.62 29.14 131.6 29.19C132.83 29.2 134.08 29.21 135.31 29.22ZM100.27 28.16C99.34 27.88 98.27 27.92 97.19 27.99C97.17 28.03 97.15 28.08 97.13 28.12C98.17 28.13 99.23 28.14 100.27 28.16ZM733.75 28.49C732.54 28.48 731.31 28.46 730.1 28.45C730.1 28.49 730.08 28.53 730.08 28.56C731.23 28.74 732.46 28.67 733.75 28.49ZM521.43 27.99C521.43 27.97 521.45 27.94 521.45 27.92C519.35 27.94 517.25 27.96 515.17 27.98C515.19 28.01 515.19 28.04 515.21 28.07C517.27 28.04 519.35 28.01 521.43 27.99ZM428.2 26.45C429.13 26.37 430.07 26.28 431 26.2C429.79 26.19 428.33 26.04 428.2 26.45ZM134.13 28.94C134.17 28.89 134.19 28.83 134.23 28.79C133.02 28.75 131.81 28.72 130.6 28.7C130.58 28.73 130.56 28.75 130.54 28.79C131.73 28.83 132.92 28.89 134.13 28.94ZM490.76 25.52C490.78 25.56 490.82 25.6 490.84 25.64C492.58 25.6 494.32 25.55 496.08 25.51C496.06 25.49 496.06 25.46 496.04 25.44C494.28 25.46 492.52 25.49 490.76 25.52ZM472.39 5.11C472.39 5.17 472.39 5.23 472.41 5.29C473.4 5.27 474.4 5.26 475.4 5.24C475.38 5.21 475.38 5.18 475.36 5.14C474.36 5.13 473.38 5.12 472.39 5.11ZM534.9 27.36C534.92 27.4 534.92 27.44 534.94 27.48C536.36 27.47 537.79 27.45 539.23 27.43C539.21 27.4 539.21 27.36 539.19 27.32C537.77 27.33 536.32 27.35 534.9 27.36ZM506.26 25.08C506.2 25.03 506.14 24.99 506.05 24.95C504.78 25.01 503.48 25.08 502.21 25.14C502.28 25.18 502.34 25.22 502.4 25.26C503.7 25.2 504.99 25.14 506.26 25.08ZM624.93 27.89C624.93 27.9 624.93 27.92 624.93 27.93C626.69 27.93 628.43 27.93 630.19 27.93C630.19 27.9 630.17 27.87 630.17 27.84C628.43 27.86 626.69 27.87 624.93 27.89ZM433.86 4.85C433.84 4.81 433.82 4.77 433.82 4.73C432.57 4.74 431.32 4.75 430.09 4.76C430.09 4.79 430.11 4.82 430.11 4.85C431.36 4.85 432.61 4.85 433.86 4.85ZM544.51 26.76C544.53 26.72 544.53 26.68 544.55 26.64C543.2 26.62 541.84 26.6 540.5 26.57C540.48 26.62 540.46 26.67 540.44 26.72C541.77 26.74 543.15 26.75 544.51 26.76ZM50.57 6.49C51.71 6.39 52.5 6.33 53.56 6.24C51.52 6.09 51.35 6.11 50.57 6.49Z" fill="url(#paint_linear_6249_14202_0)" fill-opacity="1.000000" fill-rule="nonzero"/>
</svg>
