<svg width="223.000000" height="33.605713" viewBox="0 0 223 33.6057" fill="none" xmlns="http://www.w3.org/2000/svg" xmlns:xlink="http://www.w3.org/1999/xlink">
	<desc>
			Created with Pixso.
	</desc>
	<defs>
		<linearGradient x1="218.643143" y1="33.610123" x2="1.830765" y2="1.370728" id="paint_linear_6249_14178_0" gradientUnits="userSpaceOnUse">
			<stop stop-color="#533CA3"/>
			<stop offset="0.294518" stop-color="#BF5AB8"/>
			<stop offset="0.682384" stop-color="#ED641F"/>
			<stop offset="1.000000" stop-color="#FFE322"/>
		</linearGradient>
	</defs>
	<path id="Underline_1" d="M203.44 15.21C203.03 15.11 202.61 15.01 202.2 14.9C201.62 14.73 200.86 14.85 200.54 14.24C200.5 14.28 200.47 14.32 200.43 14.36C200.49 14.44 200.54 14.53 200.61 14.62C199.89 14.54 199.19 14.46 198.49 14.38C198.47 14.41 198.46 14.44 198.44 14.47C198.74 14.58 199.04 14.69 199.28 14.77C199.12 14.77 198.76 14.85 198.65 14.76C197.91 14.16 196.78 14.29 195.9 13.97C195.92 13.92 195.94 13.87 195.95 13.82C196.52 13.87 197.09 13.92 197.66 13.97C197.67 13.96 197.67 13.95 197.68 13.93C197.48 13.87 197.29 13.81 197.09 13.75C197.09 13.72 197.1 13.69 197.1 13.66C197.6 13.71 198.1 13.76 198.59 13.81C198.61 13.79 198.62 13.77 198.63 13.76C198.52 13.71 198.41 13.66 198.3 13.61C198.29 13.58 198.29 13.55 198.29 13.52C198.72 13.48 199.15 13.44 199.59 13.4C199.58 13.37 199.58 13.33 199.58 13.3C199.08 13.41 198.64 13.15 198.09 13.34C197.78 13.45 197.3 13.28 196.91 13.16C197.19 13.13 197.47 13.1 197.75 13.07C197.75 13.04 197.75 13.02 197.74 13C197.32 13 196.89 13 196.38 13C196.53 13.13 196.64 13.22 196.84 13.4C196.12 13.33 195.54 13.25 194.95 13.22C194.17 13.17 193.38 13.18 192.61 13.13C192.43 13.13 192.25 13.02 192.08 12.88C194.08 12.85 196.09 12.82 198.08 12.79C198.08 12.75 198.09 12.71 198.09 12.67C197.59 12.6 197.09 12.51 196.59 12.44C196.59 12.42 196.59 12.4 196.6 12.38C197.29 12.38 197.98 12.38 198.67 12.38C198.68 12.33 198.69 12.27 198.7 12.22C198.55 12.22 198.39 12.22 198.24 12.22C198 12.23 197.76 12.25 197.52 12.24C197.3 12.24 197.07 12.19 196.81 12.16C196.88 12.06 196.93 11.99 196.96 11.93C196.51 11.86 196.08 11.8 195.64 11.73C195.64 11.7 195.64 11.67 195.65 11.65C196.12 11.68 196.59 11.72 197.06 11.76C197.06 11.72 197.06 11.69 197.06 11.65C197.22 11.66 197.39 11.66 197.55 11.67C197.55 11.65 197.56 11.62 197.56 11.6C196.43 11.48 195.31 11.36 194.01 11.21C194.56 11.15 194.98 11.1 195.4 11.05C195.4 11.01 195.41 10.97 195.41 10.94C195.16 10.94 194.93 10.96 194.68 10.96C194.37 10.96 194.05 10.97 193.75 10.93C193.47 10.88 193.22 10.76 192.98 10.58C193.6 10.58 194.22 10.58 194.84 10.58C194.08 10.13 193.22 10.49 192.43 10.35C192.43 10.31 192.43 10.27 192.43 10.23C192.82 10.23 193.23 10.25 193.63 10.23C194.36 10.18 195.1 10.26 195.84 10.05C196.36 9.9 197.02 9.99 197.62 10.01C198.08 10.02 198.54 10.08 199.02 10.12C198.82 10.14 198.63 10.16 198.44 10.18C198.46 10.23 198.46 10.28 198.47 10.32C198.9 10.26 199.33 10.22 199.73 10.11C200.06 10.01 200.32 9.78 200.64 9.7C200.96 9.62 201.33 9.67 201.67 9.65C201.93 9.63 202.18 9.54 202.44 9.54C202.81 9.53 203.17 9.57 203.55 9.59C203.81 9.6 204.07 9.61 204.34 9.61C204.34 9.58 204.35 9.54 204.35 9.5C204.07 9.49 203.79 9.47 203.51 9.46C203.51 9.44 203.51 9.42 203.52 9.4C204.03 9.37 204.54 9.34 205.05 9.31C205.05 9.29 205.05 9.28 205.05 9.26C202.63 9.26 200.21 9.26 197.8 9.26C197.8 9.23 197.8 9.2 197.8 9.17C198.67 9.1 199.56 8.99 200.44 8.97C201.33 8.96 202.22 9.05 203.12 9.05C204.33 9.06 205.55 9.09 206.75 8.99C207.86 8.89 208.94 8.64 210.04 8.41C208.94 8.39 207.83 8.38 206.73 8.35C205.78 8.33 204.8 8.38 203.9 8.23C202.58 8.01 201.26 8.07 199.94 8.02C198.73 7.98 197.53 7.87 196.33 7.86C195.79 7.86 195.26 8.02 194.72 8.09C194.59 8.11 194.44 8.05 194.15 8C194.5 7.93 194.72 7.89 195.03 7.84C194.42 7.49 193.78 7.57 193.17 7.46C193.58 7.46 193.98 7.46 194.42 7.46C194.19 7.4 194 7.34 193.8 7.29C193.81 7.25 193.82 7.21 193.83 7.18C194.27 7.22 194.72 7.26 195.16 7.29C195.16 7.27 195.17 7.24 195.18 7.22C195.1 7.18 195.03 7.15 194.95 7.11C195.1 6.97 195.36 7.04 196.27 7.46C196.11 7.5 195.97 7.54 195.84 7.57C195.87 7.58 195.9 7.6 195.93 7.61C196.91 7.61 197.9 7.61 198.88 7.61C198.89 7.57 198.89 7.53 198.89 7.5C197.91 7.36 196.92 7.23 195.94 7.1C195.93 7.08 195.92 7.05 195.92 7.03C197.49 6.98 199.07 6.93 200.65 6.87C200.65 6.83 200.65 6.79 200.66 6.75C200.5 6.7 200.35 6.64 200.07 6.55C200.44 6.57 200.67 6.59 200.9 6.6C200.9 6.58 200.91 6.57 200.91 6.55C200.74 6.5 200.56 6.44 200.32 6.36C200.45 6.28 200.53 6.24 200.5 6.26C199.28 6.18 198 6.11 196.71 6.03C196.25 6.01 195.78 6 195.31 5.97C194.64 5.93 193.98 5.87 193.31 5.82C193.31 5.79 193.32 5.75 193.32 5.71C195.87 5.71 198.43 5.71 200.98 5.71C200.99 5.68 200.99 5.65 201 5.62C200.37 5.59 199.73 5.52 199.1 5.52C197.39 5.51 195.68 5.55 193.96 5.53C193.09 5.52 192.21 5.41 191.34 5.37C191.13 5.36 190.9 5.47 190.68 5.52C190.57 5.55 190.45 5.59 190.34 5.59C189.82 5.54 189.31 5.47 188.79 5.44C187.98 5.4 187.17 5.38 186.36 5.36C185.79 5.35 185.2 5.35 184.62 5.35C184.63 5.33 184.69 5.26 184.77 5.16C184.18 5.13 183.61 5.11 183.05 5.06C182.14 4.98 181.25 4.89 180.35 4.79C179.29 4.66 178.23 4.49 177.16 4.4C176.72 4.37 176.27 4.53 175.82 4.57C175.52 4.6 175.22 4.58 174.93 4.54C174.13 4.42 173.35 4.26 172.56 4.12C172.11 4.46 171.33 4.1 170.9 4.54C170.84 4.61 170.55 4.55 170.36 4.55C170.39 4.41 170.42 4.27 170.45 4.15C169.88 4.35 169.64 3.87 169.2 3.77C168.88 3.69 168.55 3.63 168.22 3.57C167.98 3.54 167.74 3.53 167.5 3.5C167.45 3.5 167.4 3.48 167.35 3.48C166.85 3.46 166.34 3.45 165.8 3.43C165.71 3.47 165.55 3.62 165.38 3.62C164.73 3.61 164.08 3.57 163.44 3.52C162.84 3.49 162.24 3.43 161.64 3.39C160.88 3.34 160.11 3.3 159.3 3.33C159.67 3.41 160.03 3.49 160.39 3.57C160.37 3.62 160.36 3.66 160.34 3.7C159.63 3.53 158.93 3.36 158.23 3.19C158.24 3.13 158.25 3.08 158.26 3.03C159.25 3.03 160.25 3.03 161.28 3.03C161.23 2.87 160.67 2.88 161.19 2.6C159.85 2.48 158.64 2.38 157.33 2.27C157.5 2.37 157.6 2.44 157.71 2.51C156.73 2.6 155.78 2.69 154.77 2.78C156.02 3.03 157.23 3.27 158.45 3.52C158.44 3.58 158.43 3.64 158.41 3.7C156.84 3.64 155.27 3.58 153.7 3.52C153.7 3.46 153.7 3.4 153.7 3.34C154.11 3.34 154.52 3.34 155.05 3.34C154.41 3.03 153.88 3.19 153.35 3.24C152.86 3.28 152.37 3.3 151.88 3.3C151.77 3.3 151.66 3.18 151.54 3.16C151.32 3.13 151.1 3.14 150.88 3.13C150.66 3.13 150.44 3.13 150.16 3.13C150.31 3.21 150.42 3.27 150.55 3.34C150.17 3.37 149.82 3.42 149.46 3.42C149.32 3.42 149.18 3.3 149.07 3.16C148.81 3.19 148.56 3.21 148.29 3.24C148.29 3.19 148.28 3.15 148.27 3.11C149.33 2.86 150.49 3.07 151.57 2.81C151.48 2.77 151.36 2.71 151.24 2.65C151.26 2.63 151.27 2.6 151.28 2.57C151.66 2.66 152.05 2.75 152.46 2.85C152.38 2.92 152.32 2.98 152.13 3.15C152.68 3.13 153.09 3.11 153.53 3.1C153.5 2.96 153.47 2.89 153.44 2.77C153.84 2.83 154.2 2.89 154.57 2.94C154.57 2.9 154.59 2.86 154.59 2.82C153.29 2.35 151.77 2.67 150.42 2.34C150.62 2.42 150.81 2.5 151.01 2.57C151 2.6 151 2.62 150.98 2.65C150.16 2.49 149.34 2.33 148.52 2.17C148.5 2.2 148.49 2.23 148.47 2.27C148.86 2.39 149.26 2.52 149.72 2.67C149.6 2.72 149.51 2.8 149.42 2.79C148.23 2.76 147.03 2.72 145.83 2.67C145.71 2.67 145.59 2.58 145.48 2.54C145.45 2.57 145.43 2.6 145.41 2.63C145.54 2.69 145.66 2.76 145.79 2.81C145.95 2.86 146.12 2.88 146.44 2.95C146.17 3.06 146.06 3.1 145.92 3.15C146.07 3.23 146.19 3.29 146.34 3.37C145.82 3.72 145.19 3.55 144.64 3.63C143.76 3.77 142.89 3.69 142.02 3.7C141.62 3.71 141.17 3.9 140.83 3.82C139.86 3.58 138.85 3.77 137.91 3.63C137.28 3.55 136.63 3.64 136.02 3.43C136.15 3.43 136.28 3.43 136.4 3.43C136.41 3.41 136.41 3.39 136.41 3.37C136.22 3.35 136.03 3.33 135.84 3.31C135.74 3.39 135.63 3.53 135.53 3.53C135.28 3.53 135.03 3.45 134.77 3.42C134.07 3.35 133.38 3.29 132.69 3.22C132.56 3.21 132.43 3.16 132.3 3.13C132.81 3.04 133.32 3.03 133.81 3.05C134.13 3.06 134.44 3.12 134.75 3.18C134.9 3.21 135.04 3.28 135.18 3.33C135.17 3.37 135.17 3.42 135.16 3.46C135.39 3.41 135.61 3.36 135.84 3.3C136.04 3.22 136.26 3.06 136.45 3.09C136.94 3.16 137.39 3.16 137.86 2.99C138.15 2.89 138.52 2.93 138.86 2.91C138.87 2.87 138.88 2.84 138.89 2.81C138.52 2.72 138.14 2.63 137.77 2.55C137.91 2.5 138.06 2.45 138.21 2.4C138.21 2.36 138.2 2.33 138.19 2.3C137.09 2.59 135.98 2.54 134.87 2.33C134.86 2.36 134.85 2.4 134.85 2.44C135.01 2.48 135.17 2.51 135.34 2.55C135.34 2.57 135.34 2.59 135.34 2.61C135.05 2.6 134.75 2.59 134.45 2.56C134.4 2.56 134.31 2.47 134.31 2.42C134.31 2.38 134.39 2.3 134.45 2.29C134.6 2.26 134.76 2.27 134.91 2.24C134.2 2.24 133.5 2.24 132.7 2.24C133.15 2.39 133.54 2.52 134.07 2.7C132.58 2.88 131.22 2.66 129.72 2.67C130.13 2.78 130.39 2.84 130.65 2.9C130.64 2.95 130.64 2.99 130.63 3.04C130.35 3.02 130.07 3.02 129.81 2.96C129.67 2.93 129.59 2.79 129.49 2.7C129.52 2.66 129.54 2.62 129.57 2.57C128.67 2.5 127.75 2.43 126.84 2.36C126.84 2.3 126.85 2.24 126.85 2.18C127.79 2.1 128.73 2.02 129.67 1.95C129.67 1.93 129.67 1.92 129.67 1.91C128.66 1.91 127.66 1.91 126.64 1.91C126.94 1.85 127.25 1.79 127.56 1.73C127.56 1.7 127.55 1.68 127.54 1.65C126.49 1.75 125.45 1.85 124.42 1.94C125.06 2.11 125.7 2.28 126.44 2.48C125.39 2.58 124.47 2.67 123.55 2.77C123.55 2.8 123.55 2.83 123.55 2.86C123.83 2.87 124.11 2.88 124.45 2.89C124.19 3.17 124.31 3.26 124.7 3.3C125.44 3.39 126.16 3.52 126.89 3.64C126.9 3.6 126.92 3.55 126.93 3.51C126.29 3.41 125.66 3.31 124.91 3.2C125.13 3.14 125.24 3.11 125.5 3.04C125.11 2.99 124.86 2.97 124.6 2.94C124.61 2.92 124.61 2.89 124.61 2.87C125.24 2.87 125.87 2.87 126.51 2.87C126.51 2.9 126.51 2.92 126.51 2.95C126.38 2.98 126.25 3.01 126.11 3.04C126.5 3.13 126.88 3.38 127.26 3.01C127.33 2.94 127.7 3.02 127.93 3.06C128.25 3.12 128.55 3.27 128.88 3.28C129.93 3.32 130.99 3.3 132.04 3.32C132.23 3.32 132.42 3.42 132.62 3.47C132.61 3.51 132.59 3.55 132.58 3.59C131.97 3.59 131.35 3.59 130.74 3.59C130.48 3.59 130.22 3.59 129.95 3.59C129.7 3.59 129.46 3.6 129.21 3.6C128.94 3.6 128.73 3.55 128.44 3.72C128.2 3.87 127.65 3.73 127.23 3.73C126.81 3.73 126.37 3.74 125.94 3.77C125.49 3.8 125.03 3.99 124.63 3.65C124.59 3.62 124.49 3.61 124.43 3.62C123.72 3.75 123.05 3.72 122.4 3.43C122.44 3.48 122.47 3.54 122.5 3.59C122.31 3.62 122.11 3.65 121.93 3.68C121.99 3.47 122.04 3.33 122.09 3.13C122.49 3.21 122.92 3.28 123.34 3.36C122.8 2.95 122.11 2.95 121.45 2.89C121.02 2.85 120.61 2.8 120.18 2.78C119.81 2.77 119.44 2.81 119.06 2.79C118.65 2.78 118.24 2.74 117.84 2.68C117.17 2.59 116.51 2.48 115.83 2.42C116.54 2.81 117.56 2.62 118.35 3.12C116.73 3.13 115.25 3.11 113.7 2.92C113.87 2.73 113.97 2.63 114.07 2.5C114.26 2.55 114.46 2.61 114.71 2.68C114.5 2.43 114.51 2.42 113.51 2.25C113.07 2.18 112.61 2.19 112.16 2.07C112.73 2.03 113.29 1.99 113.85 1.95C112.12 1.71 110.36 2.17 108.64 1.8C109.67 1.6 110.75 2.06 111.77 1.65C111.35 1.68 110.93 1.71 110.5 1.74C110.59 1.63 110.67 1.54 110.75 1.44L110.77 1.45C109.65 1.48 108.53 1.54 107.41 1.55C106.6 1.56 105.79 1.52 104.99 1.47C104.55 1.45 104.11 1.39 103.69 1.32C103.58 1.3 103.49 1.2 103.34 1.1C103.39 1.24 103.42 1.34 103.45 1.45C103.11 1.54 102.61 1.57 102.5 1.96C101.97 1.93 101.42 1.91 100.88 1.86C100.54 1.83 100.13 1.98 99.89 1.66C99.86 1.62 99.69 1.64 99.58 1.65C98.8 1.69 98.02 1.74 97.24 1.8C97.13 1.8 97.02 1.89 96.91 2.02C98.38 1.52 99.69 2.21 101.09 2.24C100.26 2.38 99.43 2.5 98.57 2.38C98.17 2.32 97.77 2.29 97.36 2.24C97.12 2.22 96.85 2.24 96.64 2.17C96.43 2.1 96.28 1.93 96.09 1.79C96.34 1.72 96.53 1.68 96.71 1.63C96.23 1.61 95.74 1.58 95.26 1.56C95.77 1.39 96.28 1.25 96.71 1.64C97.09 1.61 97.47 1.56 97.85 1.56C98.69 1.55 99.53 1.56 100.45 1.56C100.33 1.62 100.27 1.64 100.22 1.67C100.22 1.7 100.24 1.73 100.24 1.76C100.67 1.68 101.1 1.59 101.53 1.54C101.91 1.5 102.3 1.5 102.7 1.49C102.69 1.44 102.68 1.39 102.67 1.33C101.1 1.33 99.54 1.33 97.97 1.33C97.97 1.3 97.96 1.27 97.95 1.23C98.21 1.18 98.46 1.13 98.71 1.08C98.59 0.98 98.49 0.89 98.29 0.72C98.31 0.9 98.32 0.98 98.33 1.09C97.65 1.09 96.96 1.09 96.17 1.09C96.28 1.06 96.37 1.03 96.5 1C96.05 0.87 95.66 0.76 95.26 0.65C95.63 0.6 95.97 0.56 96.33 0.51C96.33 0.5 96.32 0.48 96.32 0.47C95.86 0.47 95.38 0.47 94.87 0.47C94.83 0.71 94.8 0.95 94.75 1.25C94.08 1.2 93.4 1.1 92.73 1.1C92.14 1.1 91.55 1.22 90.96 1.27C90.73 1.29 90.5 1.26 90.26 1.25L90.27 1.27C89.7 0.9 89.07 1.06 88.57 1.29C88.29 1.42 88.16 1.41 87.91 1.36C87.7 1.32 87.46 1.36 87.24 1.34C87.07 1.32 86.91 1.27 86.75 1.23C86.41 1.23 86.08 1.23 85.74 1.23C85.95 1.08 86.15 0.98 86.36 0.99C86.49 1 86.61 1.15 86.74 1.24C87.21 1.1 87.68 0.95 88.16 0.84C88.36 0.79 88.59 0.83 88.9 0.83C88.38 0.5 87.86 0.59 87.38 0.64C86.71 0.72 86.05 0.88 85.38 1C85.42 1.04 85.51 1.12 85.59 1.21C85.58 1.24 85.56 1.28 85.55 1.31C85.24 1.29 84.94 1.26 84.58 1.23C84.17 1.43 83.59 1.3 83.05 1.3C82.5 1.3 81.95 1.23 81.37 1.2C81.35 1.14 81.33 1.05 81.32 1.02C81.58 0.93 81.85 0.84 82.15 0.73C81.86 0.45 81.26 0.77 81.22 0.35C81.84 0.26 82.39 0.18 82.94 0.1C82.94 0.07 82.94 0.03 82.94 0C82.35 0 81.76 0 81.09 0C80.93 0.26 78.51 0.88 77.47 0.83C77.55 0.91 77.6 0.97 77.68 1.03C77.09 1.03 76.51 1.03 75.93 1.03C75.84 1.03 75.73 0.99 75.67 1.01C75.02 1.34 74.41 0.89 73.81 1.04C73.84 0.85 73.87 0.72 73.89 0.59L73.91 0.61C73.36 0.84 72.56 0.95 72.55 0.78C72.66 0.76 72.77 0.75 72.88 0.73C72.82 0.67 72.75 0.6 72.69 0.54C71.47 0.85 69.55 0.96 68.7 0.82C68.79 0.92 68.84 1.03 68.91 1.04C69.28 1.07 69.66 1.09 70.04 1.09C71.09 1.06 72.13 1.01 73.18 0.99C73.31 0.99 73.43 1.12 73.56 1.18C73.43 1.25 73.33 1.36 73.19 1.39C72.24 1.55 71.33 1.3 70.4 1.25C70.08 1.24 69.75 1.36 69.42 1.38C69.19 1.39 68.94 1.34 68.7 1.33C68.5 1.31 68.31 1.3 68.12 1.29C68.1 1.32 68.1 1.36 68.09 1.39C68.26 1.43 68.44 1.47 68.77 1.55C68.02 1.83 67.35 1.6 66.73 1.72C66.75 1.62 66.77 1.56 66.78 1.5C67.07 1.48 67.41 1.46 67.74 1.44C67.74 1.4 67.73 1.37 67.73 1.34C67.33 1.34 66.93 1.34 66.52 1.34C66.52 1.31 66.52 1.29 66.51 1.27C66.67 1.24 66.84 1.21 67.1 1.17C66.26 0.95 65.46 1.56 64.7 1.13C64.17 1.17 63.59 1.22 63.01 1.24C62.93 1.25 62.83 1.12 62.68 1C62.15 1 61.5 1 60.74 1C60.94 0.93 61.05 0.9 61.16 0.86C61.15 0.82 61.13 0.78 61.12 0.74C59.96 1.06 58.71 0.86 57.54 1.21C58.13 1.21 58.71 1.21 59.3 1.21C56.73 1.44 54.18 1.8 51.57 1.63C51.67 1.62 51.76 1.61 51.86 1.6C52.24 1.54 52.63 1.56 53.01 1.5C54.03 1.36 55.09 1.41 56.12 1.35C56.49 1.33 56.85 1.25 57.22 1.2C57.21 1.17 57.2 1.14 57.2 1.1C56.42 1.14 55.65 1.18 54.88 1.2C53.47 1.23 52.05 1.25 50.64 1.25C49.94 1.25 49.23 1.15 48.53 1.18C47.96 1.21 47.41 1.39 46.84 1.48C46.53 1.53 46.2 1.59 45.88 1.57C44.87 1.53 43.87 1.45 42.86 1.39C42.86 1.43 42.84 1.47 42.84 1.51C43.02 1.53 43.2 1.56 43.39 1.58C43.4 1.61 43.4 1.64 43.4 1.67C42.63 1.74 41.85 1.81 41.07 1.88C41.06 1.86 41.06 1.84 41.05 1.83C41.28 1.77 41.5 1.72 41.72 1.67C40.81 1.79 39.99 1.38 39.07 1.49C38.13 1.61 37.16 1.62 36.2 1.68C36.19 1.72 36.17 1.76 36.16 1.8C36.35 1.89 36.55 1.98 36.85 2.13C36.46 2.14 36.16 2.15 35.85 2.17C35.84 2.14 35.84 2.12 35.83 2.09C35.9 2.06 35.97 2.03 36.04 2C36.02 1.98 36 1.95 35.97 1.95C35.62 1.89 35.27 1.84 34.92 1.79C34.83 1.78 34.71 1.74 34.67 1.77C34.13 2.11 33.61 1.71 33.07 1.74C32.53 1.78 31.97 1.69 31.41 1.66C31.4 1.62 31.39 1.57 31.39 1.53C31.85 1.45 32.31 1.33 32.77 1.31C34.47 1.27 36.17 1.27 37.86 1.23C38.64 1.21 39.42 1.13 40.21 1.1C40.44 1.09 40.68 1.16 40.92 1.16C41.67 1.16 42.43 1.15 43.18 1.14C43.22 1.14 43.25 1.09 43.29 1.03C42.72 1.14 42.22 0.85 41.61 0.99C41.12 1.1 40.53 0.94 39.99 0.94C39.2 0.92 38.41 0.95 37.63 0.94C37.35 0.94 37.06 0.83 36.79 0.84C36.35 0.85 35.91 0.94 35.48 0.97C34.01 1.09 32.54 1.26 31.06 1.3C29.69 1.34 28.29 1.35 26.96 1.15C25.95 1 25.13 1.18 24.26 1.4C24.13 1.43 24.04 1.56 23.9 1.68C23.21 1.63 22.42 1.58 21.68 1.53C22.24 0.98 23.15 1.38 23.86 1.09C22.98 1.09 22.11 1.09 21.11 1.09C21.37 1.16 21.52 1.2 21.81 1.28C21.52 1.35 21.35 1.42 21.19 1.42C19.99 1.45 18.8 1.46 17.61 1.51C15.62 1.59 13.62 1.69 11.63 1.8C10.05 1.89 8.46 2.01 6.87 2.1C6.6 2.11 6.34 2.04 6.07 2C6.07 1.96 6.08 1.92 6.08 1.89C7.28 1.7 8.47 1.47 9.68 1.34C10.96 1.2 12.26 1.15 13.56 1.06C13.55 1.02 13.55 0.97 13.54 0.94C12.63 0.99 11.73 1.03 10.82 1.1C9.93 1.17 9.03 1.25 8.13 1.34C7.21 1.43 6.29 1.54 5.37 1.65C4.46 1.75 3.54 1.86 2.56 1.97C2.55 1.82 2.56 1.69 2.52 1.58C2.47 1.46 2.39 1.3 2.27 1.27C2.14 1.24 1.84 1.3 1.81 1.37C1.46 2 0.65 2.33 0 2.88C0.31 2.92 0.51 2.92 0.69 2.97C0.9 3.01 1.1 3.1 1.29 3.17C1.38 3.2 1.46 3.25 1.55 3.3C1.58 3.22 1.59 3.14 1.64 3.08C1.79 2.92 1.92 2.75 2.12 2.64C2.21 2.59 2.45 2.68 2.65 2.71C2.26 2.98 1.96 3.19 1.54 3.48C1.91 3.54 2.12 3.55 2.3 3.6C2.52 3.66 2.73 3.75 2.94 3.82C3.03 3.85 3.13 3.9 3.22 3.9C3.27 3.9 3.35 3.78 3.34 3.72C3.26 3.31 3.68 3.32 4.09 3.13C3.98 3.33 3.92 3.42 3.88 3.51C3.72 4.03 3.74 4.05 4.48 4.08C4.65 4.08 4.82 4.11 4.99 4.13C5.15 4.15 5.3 4.17 5.45 4.19C5.32 4.67 5.33 4.68 6.01 4.71C6.37 4.73 6.73 4.79 7.08 4.89C6.9 4.89 6.7 4.91 6.52 4.89C5.91 4.81 5.43 4.74 4.92 5.2C4.59 5.5 3.76 5.48 3.14 5.58C2.96 5.61 2.76 5.59 2.43 5.59C2.86 5.89 3.21 6.14 3.5 6.34C3.36 6.83 3.27 7.23 3.11 7.62C3.04 7.8 2.81 7.94 2.65 8.1C2.55 8.19 2.39 8.28 2.37 8.37C2.26 9.11 2.34 9.83 2.67 10.53C2.69 10.57 2.77 10.6 2.88 10.67C2.65 10.82 2.43 10.95 2.22 11.09C2.54 11.45 2.14 11.69 1.82 11.95C2.64 12.29 3.16 12.72 2.98 13.46C2.94 13.58 3.27 13.74 3.42 13.86C3.06 14 2.72 14.14 2.27 14.32C2.55 14.41 2.69 14.45 2.86 14.5C2.71 14.6 2.57 14.68 2.37 14.8C2.61 14.91 2.8 15.01 3.06 15.13C2.9 15.26 2.76 15.38 2.63 15.49C2.75 15.68 3.05 15.97 2.96 16.07C2.75 16.3 2.35 16.45 1.97 16.65C2.08 17.1 2.84 17.03 3.29 17.32C3.02 17.45 2.76 17.56 2.52 17.68C2.57 17.69 2.63 17.69 2.68 17.7C2.73 17.86 2.86 18.04 2.8 18.17C2.6 18.52 2.33 18.86 2.06 19.19C1.92 19.36 1.88 19.45 2.09 19.62C2.4 19.89 2.75 20.2 2.32 20.6C2.23 20.68 2.17 20.85 2.22 20.94C2.53 21.5 1.91 21.91 1.82 22.42C1.91 22.49 2.02 22.59 2.17 22.72C1.93 22.74 1.76 22.76 1.73 22.76C1.86 22.92 2.03 23.11 2.13 23.32C2.27 23.61 2.23 23.94 2.71 24.11C2.82 24.15 2.88 24.37 2.86 24.5C2.83 24.8 2.93 25 3.34 25.09C3.45 25.12 3.55 25.17 3.67 25.21C3.64 25.26 3.61 25.3 3.59 25.35C3.27 25.43 2.95 25.52 2.63 25.61C2.63 25.63 2.63 25.65 2.63 25.68C2.93 25.69 3.24 25.68 3.52 25.73C3.72 25.76 3.93 25.85 4.05 25.96C4.23 26.12 4.33 26.33 4.46 26.51C4.76 26.9 4.68 27.05 4.11 27.22C3.97 27.26 3.84 27.31 3.71 27.36C3.72 27.4 3.73 27.43 3.74 27.46C4.16 27.46 4.57 27.46 5 27.46C5.2 27.76 5.43 28.07 5.6 28.4C5.72 28.65 5.65 28.87 5.45 29.14C5.07 29.64 5.37 29.93 6.24 30C6.07 30.1 5.92 30.19 5.78 30.27C5.8 30.3 5.81 30.33 5.83 30.36C6.12 30.3 6.41 30.24 6.75 30.17C6.89 30.34 6.94 30.66 7.43 30.67C7.49 30.67 7.54 30.85 7.62 30.93C7.71 31.03 7.79 31.17 7.91 31.21C8.35 31.33 8.44 31.6 8.5 31.89L8.48 31.89C8.92 31.69 8.92 31.69 9.78 31.93C9.45 32.25 9.4 32.26 9.04 32.03C9.07 32.12 9.08 32.23 9.14 32.31C9.19 32.37 9.39 32.46 9.4 32.45C9.85 32.1 10.34 32.38 10.82 32.39C11.08 32.39 11.33 32.35 11.6 32.33C11.65 32.37 11.7 32.42 11.74 32.46C11.45 32.59 11.15 32.71 10.86 32.83C10.92 32.9 10.98 32.96 11.04 33.03C11.68 32.9 12.32 32.75 12.97 32.66C13.53 32.59 14.12 32.6 14.69 32.59C15.47 32.57 16.25 32.6 17.03 32.58C17.74 32.57 18.45 32.54 19.16 32.49C19.66 32.46 20.17 32.38 20.67 32.38C21.09 32.37 21.52 32.45 21.94 32.5L21.92 32.48C22.47 32.44 23.03 32.39 23.59 32.34C23.68 32.33 23.81 32.32 23.84 32.36C24.31 32.84 25.01 32.58 25.7 32.67C25.47 32.87 25.27 33.04 25.08 33.2C25.09 33.22 25.11 33.25 25.12 33.28C25.75 33.15 26.38 32.99 27.03 32.91C27.56 32.84 28.11 32.87 28.65 32.87C29.76 32.86 30.87 32.88 31.97 32.85C33.32 32.81 34.67 32.74 36.02 32.68C36.17 32.67 36.33 32.69 36.55 32.7C36.43 32.8 36.37 32.86 36.2 33.01C37.01 32.96 37.7 33.18 38.39 32.84C38.64 32.71 39.01 32.74 39.33 32.64C39.95 32.45 40.67 32.45 41.34 32.38C41.36 32.42 41.39 32.45 41.41 32.48C41.21 32.64 41.01 32.81 40.81 32.97C40.83 33 40.86 33.03 40.88 33.06C41.54 32.92 42.19 32.74 42.87 32.65C43.35 32.59 43.85 32.64 44.34 32.63C45.48 32.63 46.63 32.66 47.77 32.62C48.68 32.59 49.58 32.45 50.49 32.42C51.01 32.41 51.54 32.55 52.07 32.59C52.71 32.63 53.34 32.74 54 32.47C54.38 32.32 54.92 32.39 55.38 32.38C55.61 32.37 55.83 32.39 56.11 32.4C56.04 32.31 56.01 32.25 55.97 32.19C56.25 32.19 56.51 32.19 56.85 32.19C56.7 32.35 56.59 32.48 56.37 32.71C57.14 32.55 57.76 32.37 58.41 32.3C58.94 32.23 59.5 32.24 60.04 32.27C61.65 32.36 63.26 32.48 64.87 32.27C65.19 32.22 65.53 32.27 65.87 32.28C66.29 32.3 66.71 32.31 67.13 32.33C67.36 32.34 67.72 32.19 67.73 32.56C67.73 32.58 67.84 32.63 67.91 32.63C68.47 32.63 69.06 32.71 69.57 32.59C70.42 32.38 71.25 32.52 72.08 32.53C72.37 32.54 72.67 32.55 72.97 32.56C74.14 32.6 75.32 32.64 76.49 32.68C76.9 32.69 77.32 32.68 77.61 32.68C77.23 32.9 76.79 33.16 76.24 33.47C77.43 33.66 78.4 33.46 79.47 33.25C78.85 33.1 78.34 32.98 77.8 32.86C78.34 32.54 78.93 32.54 79.52 32.55C79.59 32.55 79.7 32.56 79.72 32.59C80.08 33.13 80.73 32.94 81.3 32.95C81.35 32.95 81.4 32.95 81.55 32.97C81.31 33.17 81.1 33.35 80.89 33.52C80.91 33.55 80.92 33.58 80.93 33.6C81.58 33.48 82.23 33.32 82.89 33.24C83.42 33.17 83.97 33.18 84.51 33.17C85.58 33.16 86.64 33.2 87.72 33.16C88.75 33.13 89.78 33 90.81 32.96C91.92 32.92 93.03 32.93 94.14 32.92C94.8 32.92 95.46 32.92 96.21 32.92C96.21 32.73 96.21 32.54 96.21 32.31C97.94 32.26 99.73 32.23 101.51 32.16C102.67 32.12 103.82 31.99 104.97 31.96C105.81 31.93 106.66 32 107.51 32.03C107.91 32.04 108.32 32.07 108.72 32.1C110.5 32.19 112.28 32.29 114.07 32.37C115.01 32.42 115.95 32.44 116.89 32.47C118.37 32.51 119.85 32.53 121.33 32.58C123.08 32.64 124.84 32.73 126.59 32.79C128.22 32.85 129.86 32.85 131.49 32.95C133.05 33.05 134.58 32.88 136.12 32.81C136.84 32.78 137.55 32.81 138.27 32.8C139.64 32.78 141.02 32.77 142.39 32.71C143.52 32.66 144.63 32.54 145.75 32.48C146.83 32.41 147.92 32.39 148.99 32.32C150.14 32.24 151.28 32.12 152.43 32.04C152.91 32 153.4 32.05 153.88 32.04C154.94 32.03 156.01 32.03 157.07 31.98C158.15 31.92 159.22 31.79 160.29 31.7C161.35 31.61 162.42 31.49 163.47 31.45C164.79 31.4 166.12 31.43 167.44 31.41C167.91 31.4 168.37 31.36 168.84 31.33C169.87 31.29 170.91 31.25 171.94 31.2C172.54 31.17 173.13 31.12 173.72 31.09C174.04 31.08 174.35 31.1 174.66 31.1C175.62 31.09 176.57 31.06 177.53 31.05C177.96 31.05 178.39 31.04 178.82 31.06C179.42 31.09 179.97 31.13 180.59 30.93C181.11 30.77 181.78 30.91 182.39 30.9C182.66 30.89 182.92 30.85 183.19 30.82C183.19 30.79 183.19 30.75 183.19 30.72C182.51 30.66 181.82 30.6 181.14 30.55C181.14 30.52 181.15 30.49 181.15 30.46C181.97 30.46 182.79 30.46 183.71 30.46C183.59 30.36 183.54 30.32 183.47 30.25C184.71 29.95 185.97 30.25 187.25 30.17C187.18 30.08 187.13 30.01 187.05 29.91C188.08 29.91 189.07 29.91 190.07 29.91C190.07 29.89 190.07 29.87 190.07 29.85C189.74 29.8 189.41 29.74 189.08 29.68C189.08 29.63 189.09 29.58 189.1 29.53C190.61 29.49 192.12 29.45 193.64 29.41C193.65 29.39 193.65 29.38 193.66 29.36C192.9 29.26 192.13 29.15 191.37 29.04C191.38 28.99 191.39 28.93 191.4 28.88C191.57 28.87 191.78 28.81 191.92 28.87C192.38 29.04 192.82 28.99 193.32 28.94C194.19 28.86 195.06 28.87 195.98 28.84C195.89 28.43 196.12 28.39 196.62 28.43C197.91 28.52 199.21 28.54 200.5 28.58C200.51 28.54 200.52 28.49 200.53 28.45C200.4 28.43 200.27 28.4 200.14 28.39C199.99 28.37 199.84 28.37 199.58 28.37C199.79 28.25 199.92 28.18 200.05 28.11C199.92 28.07 199.76 28.02 199.48 27.92C199.71 27.9 199.84 27.88 199.97 27.86L199.96 27.87C199.58 27.84 199.21 27.79 198.84 27.78C198.07 27.76 197.3 27.76 196.54 27.75C195.79 27.75 195.05 27.78 194.3 27.77C194 27.76 193.7 27.7 193.4 27.66C193.41 27.63 193.42 27.59 193.42 27.55C194.49 27.53 195.56 27.51 196.63 27.46C197.67 27.42 198.76 27.82 199.88 27.22C199.56 27.16 199.36 27.09 199.15 27.08C197.62 27.04 196.09 27 194.56 27.01C193.56 27.01 192.58 27.1 191.58 27.15C191.51 27.16 191.44 27.14 191.37 27.07C191.77 27.05 192.18 27.03 192.59 27C192.59 26.98 192.6 26.95 192.61 26.93C192.36 26.9 192.11 26.84 191.87 26.85C191.01 26.87 190.12 27.06 189.31 26.92C188.36 26.77 187.5 27.13 186.59 27C186.44 26.98 186.31 26.9 186.1 26.82C186.66 26.78 187.08 26.76 187.51 26.73C187.5 26.69 187.5 26.65 187.5 26.61C186.95 26.61 186.4 26.61 185.85 26.61C185.85 26.59 185.85 26.57 185.85 26.55C186.89 26.51 187.92 26.47 188.95 26.43C188.95 26.4 188.95 26.36 188.95 26.33C186.8 26.33 184.65 26.33 182.5 26.33C182.49 26.32 182.49 26.31 182.49 26.3C183.05 26.21 183.61 26.11 184.17 26.06C185.57 25.94 186.96 25.82 188.36 25.76C189.72 25.7 191.08 25.73 192.44 25.7C193.18 25.68 193.91 25.62 194.65 25.57C195.05 25.55 195.44 25.51 195.84 25.41C194.99 25.41 194.14 25.41 193.3 25.41C193.29 25.4 193.29 25.39 193.29 25.38C193.45 25.35 193.61 25.32 193.78 25.29C193.25 25.14 192.62 25.48 192.06 25C194 24.8 195.85 24.61 197.72 24.43C197.73 24.46 197.73 24.48 197.75 24.5C197.66 24.47 197.57 24.45 197.47 24.41C197.53 24.37 197.55 24.34 197.58 24.34C197.73 24.34 197.89 24.34 198.05 24.34C198.15 24.63 199.14 24.64 200.65 24.34C200.25 24.36 199.85 24.38 199.45 24.41C199.45 24.38 199.45 24.36 199.45 24.33C201.99 24.11 204.52 23.89 207.06 23.67C207.06 23.63 207.05 23.59 207.05 23.55C206.95 23.54 206.85 23.53 206.75 23.53C206.24 23.53 205.61 23.4 205.24 23.57C204.82 23.76 204.41 23.7 204.02 23.77C203.34 23.89 202.61 23.89 201.9 23.93C201.2 23.97 200.5 24.02 199.79 24.03C198.65 24.04 197.5 24.02 196.36 24.02C195.39 24.03 194.44 24.05 193.47 24.07C193.33 24.08 193.19 24.08 193.02 24.09C193.51 23.86 193.51 23.88 194.12 23.92C194.38 23.94 194.64 23.81 194.91 23.79C195.42 23.75 195.93 23.75 196.44 23.72C196.65 23.7 196.86 23.74 197.02 23.52C197.11 23.39 197.51 23.38 197.77 23.32C197.78 23.35 197.8 23.39 197.82 23.43C197.62 23.49 197.43 23.55 197.24 23.61C197.24 23.64 197.24 23.66 197.25 23.69C197.74 23.69 198.23 23.69 198.72 23.69C199.44 23.67 200.16 23.66 200.88 23.63C201.32 23.62 201.82 23.67 202.18 23.54C203.05 23.24 203.91 23.5 204.76 23.45C205.74 23.39 206.72 23.34 207.7 23.31C208.26 23.28 208.82 23.28 209.38 23.27C209.72 23.26 210.06 23.27 210.4 23.24C210.67 23.22 210.94 23.25 211.2 23.04C211.39 22.89 211.87 22.95 212.22 22.91C212.7 22.87 213.17 22.83 213.64 22.71C209.02 23.17 204.39 23.13 199.76 23.15C199.75 23.11 199.75 23.07 199.74 23.03C200.49 22.97 201.23 22.92 201.97 22.86C201.99 22.84 202 22.82 202.01 22.79C201.62 22.67 201.23 22.55 200.84 22.42C200.85 22.39 200.85 22.37 200.85 22.34C201.61 22.34 202.36 22.34 203.23 22.34C202.89 22.2 202.64 22.1 202.4 22.01C201.41 22.21 200.44 22.27 199.57 21.8C199.58 21.75 199.59 21.71 199.6 21.66C200.53 21.77 201.46 21.89 202.39 22.01C202.47 22.01 202.56 22.01 202.77 22.01C202.59 21.91 202.5 21.86 202.41 21.81C202.43 21.78 202.44 21.74 202.45 21.71C202.87 21.79 203.3 21.87 203.72 21.95C203.73 21.9 203.74 21.85 203.75 21.8C202.97 21.74 202.2 21.67 201.39 21.6C201.54 21.56 201.67 21.52 201.81 21.48C201.75 21.43 201.71 21.39 201.72 21.39C202.48 21.3 203.23 21.21 203.98 21.12C203.99 21.14 204 21.16 204 21.18C203.85 21.22 203.69 21.26 203.54 21.29C205.02 21.4 206.48 21.49 208.03 21.21C207.44 21.11 206.99 21.03 206.53 20.95C206.55 20.89 206.57 20.84 206.58 20.78C207.14 20.75 207.69 20.76 208.15 21.06C208.42 21.23 208.54 21.22 208.93 21.05C209.01 21.01 209.16 21.06 209.28 21.06C209.45 21.07 209.62 21.08 209.78 21.09C209.79 21.04 209.8 21 209.81 20.94C208.93 20.83 208.05 20.72 207.17 20.6C207.17 20.58 207.18 20.55 207.18 20.53C207.65 20.56 208.13 20.64 208.59 20.6C209.07 20.56 209.53 20.39 209.98 20.2C208.59 20.15 207.22 20.5 205.85 20.14C207.11 20.04 208.37 19.93 209.57 19.83C209.97 19.76 210.32 19.7 210.68 19.64C210.68 19.62 210.68 19.6 210.68 19.58C209.35 19.64 208.02 19.69 206.69 19.73C206.68 19.67 206.68 19.61 206.67 19.54C210.03 19.34 213.4 19.14 216.77 18.94C216.23 18.75 215.69 18.71 215.07 18.79C214.58 18.85 214.04 18.76 213.44 18.74C213.6 18.68 213.7 18.64 213.83 18.6C213.67 18.54 213.54 18.5 213.37 18.44C214.06 18.37 214.7 18.31 215.35 18.26C215.35 18.24 215.35 18.22 215.34 18.19C214.92 18.19 214.51 18.19 214.09 18.19C214.09 18.15 214.09 18.11 214.09 18.07C215.02 18.07 215.95 18.07 216.88 18.07C217.39 18.07 217.92 18.03 218.43 18.04C218.76 18.04 219.09 18.14 219.41 18.13C220.11 18.11 220.81 18.04 221.51 18L221.5 18.01C221.23 17.97 220.96 17.93 220.69 17.89C220.59 17.88 220.49 17.87 220.41 17.77C221.27 17.72 222.13 17.68 222.99 17.63C222.99 17.59 223 17.55 223 17.51C220.59 17.25 218.17 17.23 215.73 17.24C215.91 17.27 216.09 17.3 216.27 17.33C216.28 17.35 216.28 17.37 216.29 17.39C216.15 17.39 216.02 17.4 215.88 17.41C214.97 17.43 214.05 17.45 213.14 17.49C212.78 17.51 212.43 17.59 212.08 17.6C211.71 17.62 211.61 17.45 211.76 17.12C211.29 17.21 210.88 17.29 210.56 17.35C210.83 17.39 211.18 17.45 211.53 17.5C211.52 17.54 211.51 17.59 211.51 17.63C209.75 17.69 207.98 17.74 206.23 17.8C206.22 17.77 206.22 17.75 206.22 17.72C207.09 17.66 207.97 17.59 208.85 17.52C208.85 17.48 208.85 17.44 208.85 17.39C207.47 17.36 206.09 17.33 204.71 17.3C204.72 17.29 204.72 17.27 204.72 17.25C205.64 17.16 206.57 17.05 207.49 17C207.96 16.97 208.44 17.05 208.92 17.03C209.78 16.99 210.64 16.88 211.5 16.85C212.38 16.82 213.27 16.85 214.16 16.86C214.47 16.86 214.77 16.86 215.25 16.86C215.02 16.75 214.94 16.71 214.86 16.67C214.86 16.64 214.86 16.61 214.86 16.58C216.02 16.58 217.18 16.58 218.34 16.58C218.34 16.52 218.34 16.47 218.35 16.42C216.86 16.33 215.37 16.24 213.78 16.14C214.2 16.06 214.51 15.97 214.82 15.94C215.2 15.91 215.55 15.93 215.95 16.02C216.47 16.13 217.1 16 217.68 15.94C218.05 15.91 218.43 15.81 218.8 15.8C219.46 15.79 220.12 15.81 220.78 15.84C221.15 15.86 221.52 15.91 221.91 15.87C221.8 15.84 221.69 15.81 221.58 15.79C221.58 15.76 221.58 15.74 221.58 15.71C221.97 15.67 222.37 15.63 222.76 15.59C222.77 15.55 222.77 15.52 222.77 15.48C221.66 15.4 220.55 15.29 219.44 15.24C218.89 15.21 218.33 15.33 217.77 15.34C216.7 15.34 215.62 15.31 214.54 15.29C214.41 15.29 214.27 15.36 214.14 15.35C213.97 15.35 213.81 15.32 213.73 15.3C213.29 15.35 212.88 15.47 212.51 15.42C211.74 15.32 211.05 15.59 210.32 15.62C210.08 15.64 209.78 15.72 209.6 15.65C208.71 15.29 207.73 15.41 206.79 15.34C206.06 15.28 205.3 15.32 204.56 15.3C204.18 15.29 203.8 15.25 203.41 15.23C203.17 15.26 202.94 15.31 202.71 15.31C202.24 15.32 201.77 15.29 201.31 15.3C199.93 15.32 198.54 15.36 197.16 15.37C196.62 15.37 196.07 15.35 195.58 14.99C196.01 15.01 196.37 15.02 196.8 15.03C196.68 14.92 196.63 14.86 196.48 14.7C197.46 14.85 198.29 14.98 199.18 15.11C199.17 15.12 199.26 15.02 199.36 15.02C199.78 14.99 200.2 14.96 200.62 14.99C201.57 15.02 202.5 15.13 203.44 15.21ZM118.5 3.64C118.62 3.75 118.72 3.86 118.87 4.01C118.35 3.96 117.9 3.91 117.38 3.86C117.82 3.78 118.16 3.71 118.5 3.64C118.57 3.63 118.62 3.62 118.8 3.59C118.4 3.52 118.12 3.48 117.84 3.43C118.15 3.37 118.47 3.41 118.73 3.34C119.19 3.19 119.45 3.43 119.78 3.56C119.9 3.61 120.04 3.65 120.16 3.7C120.07 3.59 119.97 3.49 119.87 3.37C119.9 3.35 119.95 3.33 119.98 3.3C120.43 3.02 120.72 3.07 121.09 3.41C121.22 3.54 121.46 3.6 121.63 3.69C121.17 3.69 120.66 3.69 120.15 3.69C120.07 3.94 119.67 4.08 119.44 3.87C119.15 3.59 118.81 3.71 118.5 3.64ZM192.62 12.3C192.24 12.68 191.82 12.36 191.39 12.32C191.43 12.4 191.45 12.45 191.47 12.5C191.39 12.5 191.31 12.5 191.24 12.48C191.06 12.42 190.89 12.31 190.72 12.31C190.05 12.3 189.38 12.33 188.7 12.33C188.61 12.33 188.52 12.29 188.42 12.26C188.98 12.18 189.56 12.25 190.05 12.13C190.75 11.95 191.39 12.17 192.06 12.16C192.26 12.15 192.48 12.24 192.68 12.29C193.22 12.31 193.75 12.33 194.29 12.35C194.29 12.38 194.28 12.42 194.28 12.45C193.81 12.45 193.34 12.46 192.87 12.44C192.79 12.44 192.7 12.35 192.62 12.3ZM78.44 1.85C78.24 1.89 78.03 1.91 77.84 1.97C77.76 1.99 77.71 2.08 77.57 2.2C77.05 2.15 76.42 2.1 75.78 2.05C75.78 2.02 75.78 1.99 75.79 1.97C76.23 1.97 76.66 1.97 77.23 1.97C77.02 1.91 76.94 1.89 76.83 1.86C77.4 1.61 77.91 1.78 78.44 1.85C78.73 1.77 79.03 1.68 79.39 1.56C77.73 1.56 76.16 1.56 74.59 1.56C74.59 1.53 74.59 1.49 74.59 1.44C76.61 1.44 78.62 1.44 80.64 1.44C80.64 1.47 80.65 1.5 80.65 1.52C80.27 1.54 79.88 1.57 79.5 1.59C79.5 1.62 79.5 1.65 79.5 1.68C79.71 1.71 79.91 1.74 80.12 1.76C80.12 1.79 80.12 1.82 80.11 1.85C79.55 1.85 78.99 1.85 78.44 1.85ZM56.11 1.88C56.1 1.84 56.09 1.8 56.08 1.75C56.24 1.72 56.4 1.67 56.57 1.66C57.61 1.57 58.66 1.49 59.7 1.42C60.22 1.39 60.74 1.37 61.27 1.39C62.29 1.41 63.32 1.47 64.34 1.5C64.66 1.52 64.97 1.5 65.29 1.5C64.73 1.57 64.18 1.61 63.64 1.66C63.28 1.7 62.81 1.67 62.58 1.83C62.29 2.01 62.06 1.96 61.78 1.96C61.55 1.96 61.33 1.95 61.1 1.95C60.44 1.95 59.79 1.98 59.14 1.95C59.01 1.95 58.88 1.8 58.72 1.7C57.95 2.12 57.01 1.79 56.11 1.88ZM168.07 4.31C168.05 4.33 168.15 4.2 168.22 4.22C168.69 4.29 169.24 4.3 169.59 4.49C170.16 4.81 170.67 4.88 171.18 4.67C171.42 4.79 171.6 4.88 171.83 5C171.88 4.85 171.91 4.75 171.93 4.73C173.23 4.73 174.5 4.73 175.8 4.73C176.25 5 176.88 5 177.49 5.03C177.66 5.04 177.83 5.03 177.99 5.03C177.99 5.06 177.99 5.09 177.99 5.13C177.77 5.15 177.55 5.2 177.33 5.19C176.47 5.16 175.62 5.1 174.76 5.08C173.77 5.05 172.77 5.08 171.78 5.04C170.79 5 169.8 4.91 168.8 4.82C168.71 4.82 168.6 4.79 168.53 4.74C168.4 4.63 168.28 4.5 168.07 4.31ZM48.52 2.14C46.1 2.14 43.73 2.14 41.36 2.14C41.36 2.08 41.35 2.02 41.35 1.96C42.46 1.92 43.56 1.85 44.67 1.83C45.45 1.81 46.24 1.89 47.01 1.86C47.55 1.83 48.05 1.77 48.52 2.14ZM12.03 2.07C12.02 2.04 12.01 1.99 12.01 1.95C12.77 1.88 13.52 1.78 14.29 1.75C14.93 1.72 15.57 1.8 16.21 1.8C16.72 1.8 17.22 1.76 17.58 1.74C17.78 1.91 17.89 2 17.99 2.07C17.19 2.31 16.36 1.94 15.49 2.22C14.93 2.4 14.17 2.22 13.49 2.2C13.49 2.15 13.49 2.11 13.49 2.06C13.87 2.02 14.26 1.98 14.68 1.93C13.74 1.71 12.92 2.27 12.03 2.07ZM195.25 14.84C195.23 14.88 195.2 14.92 195.18 14.97C194.94 14.86 194.71 14.7 194.45 14.67C194.17 14.64 193.86 14.73 193.55 14.76C193.47 14.68 193.37 14.58 193.26 14.47C193.25 14.51 193.25 14.55 193.24 14.59C192.9 14.64 192.57 14.72 192.23 14.75C191.98 14.77 191.64 14.64 191.49 14.73C191.04 14.99 190.71 14.75 190.33 14.64C190.56 14.61 190.81 14.59 191.16 14.56C190.97 14.49 190.89 14.47 190.68 14.39C191.82 14.39 192.81 14.39 193.79 14.39C193.95 14.39 194.12 14.4 194.27 14.37C194.66 14.29 194.98 14.34 195.22 14.64C195.13 14.67 195.05 14.7 194.94 14.74C195.05 14.77 195.15 14.8 195.25 14.84ZM58.18 3.6C58.48 3.54 58.73 3.46 58.98 3.46C59.82 3.43 60.66 3.08 61.53 3.41C61.59 3.44 61.76 3.42 61.77 3.4C61.87 3.13 62.17 3.25 62.37 3.25C62.75 3.23 63.14 3.23 63.52 3.27C63.73 3.29 63.92 3.4 64.12 3.47C64.1 3.52 64.07 3.55 64.05 3.6C62.12 3.6 60.18 3.6 58.18 3.6ZM18.07 1.82C19.57 1.82 21.09 1.82 22.6 1.82C22.6 1.88 22.6 1.94 22.6 1.99C22.41 2.01 22.21 2.03 22.01 2.04C21.76 2.05 21.5 2.05 21.25 2.06C20.97 2.08 20.69 2.12 20.4 2.13C19.98 2.15 19.56 2.16 19.14 2.17C18.71 2.17 18.3 2.1 18.07 1.82ZM108.28 2.99C108.28 3.01 108.28 3.04 108.28 3.07C108.13 3.11 107.94 3.13 107.83 3.21C107.64 3.34 107.66 3.36 107.51 3.21C107.46 3.16 107.33 3.11 107.29 3.13C106.52 3.44 105.76 3.11 105.02 3.07C104.56 3.04 104.06 2.93 103.56 2.9C103.37 2.89 103.19 2.86 103.01 2.83C103.01 2.81 103.02 2.78 103.03 2.76C104.03 2.76 105.04 2.76 106.05 2.76C106.04 2.8 106.02 2.89 106 2.98C106.79 2.99 107.54 2.99 108.28 2.99ZM49.65 3.66C49.66 3.7 49.67 3.75 49.68 3.79C48.28 4 46.86 4.02 45.42 3.94C45.8 3.81 46.19 3.71 46.59 3.64C46.7 3.62 46.87 3.64 46.93 3.69C47.19 3.92 47.41 3.85 47.65 3.69C47.72 3.64 47.83 3.59 47.92 3.6C48.49 3.61 49.07 3.63 49.65 3.66ZM15.46 4.06C15.47 4.07 15.47 4.08 15.47 4.09C13.83 4.25 12.19 4.4 10.55 4.55C10.66 4.39 10.82 4.28 11 4.26C11.78 4.18 12.56 4.11 13.34 4.07C14.04 4.04 14.75 4.06 15.46 4.06ZM191.46 13.72C191.47 13.69 191.47 13.66 191.48 13.62C191.77 13.6 192.08 13.53 192.36 13.57C192.72 13.61 193.1 13.57 193.42 13.81C193.61 13.95 194.04 13.95 194.36 13.93C194.75 13.92 194.83 13.91 195.05 14.26C193.94 14.13 192.89 14.02 191.85 13.9C191.85 13.88 191.85 13.87 191.85 13.85C192.2 13.85 192.55 13.85 192.9 13.85C192.9 13.84 192.9 13.81 192.9 13.8C192.42 13.77 191.94 13.75 191.46 13.72ZM12.88 3.93C12.88 3.9 12.87 3.86 12.86 3.83C13.84 3.74 14.81 3.65 15.81 3.55C15.75 4.03 16.29 3.78 16.59 3.93C15.31 3.93 14.1 3.93 12.88 3.93ZM82.02 1.95C82.04 1.98 82.06 2.01 82.08 2.04C81.77 2.07 81.46 2.1 81.18 2.13C81.47 1.47 82.24 1.63 82.83 1.6C83.47 1.56 84.21 1.35 84.78 1.81C84.62 1.84 84.44 1.86 84.29 1.81C83.61 1.6 82.92 1.75 82.24 1.77C82.16 1.77 82.09 1.89 82.02 1.95ZM22.57 2.36C21.45 2.52 20.33 2.79 19.29 2.38C20.33 2.39 21.45 2.13 22.57 2.36ZM191.41 13.75C191.42 13.78 191.44 13.81 191.45 13.84C191.39 13.88 191.32 13.92 191.24 13.97C191.34 13.99 191.44 14.02 191.45 14.02C191.4 14.1 191.34 14.19 191.26 14.29C190.64 14.17 189.94 14.02 189.21 13.87C189.93 13.52 190.7 13.98 191.41 13.75ZM69.01 2.34C69.01 2.3 69 2.27 69 2.23C69.27 2.23 69.55 2.24 69.83 2.23C70.41 2.21 71.01 2.21 71.57 2.13C71.96 2.07 72.03 2.04 72.14 2.37C71.1 2.4 70.05 2.51 69.01 2.34ZM93.63 2.21C92.99 2.17 92.47 2.14 91.97 2.11C91.97 2.04 91.97 1.96 91.97 1.89C92.3 1.93 92.59 1.95 93.04 2C92.83 1.91 92.76 1.87 92.66 1.83C93.57 1.79 94.43 1.75 95.29 1.71C95.29 1.74 95.3 1.77 95.3 1.8C94.64 1.88 93.99 1.95 93.27 2.04C93.4 2.1 93.46 2.13 93.63 2.21ZM37.6 2.05C37.6 2.01 37.59 1.96 37.58 1.92C38.55 1.86 39.52 1.81 40.49 1.76C40.49 1.8 40.5 1.84 40.5 1.88C39.57 2.18 38.57 1.97 37.6 2.05ZM110.62 2.64C111.29 2.47 111.92 2.22 112.6 2.57C112.48 2.83 112.14 2.85 111.84 2.83C111.44 2.8 111.05 2.71 110.62 2.64ZM193.06 7.87C192.92 8.19 191.17 8.17 190.25 7.87C191.2 7.87 192.11 7.87 193.06 7.87ZM108.23 2.76C108.94 2.68 109.68 2.59 110.39 2.85C109.65 2.93 108.9 3.23 108.23 2.76ZM196.1 8.86C195.48 9.09 195.01 8.83 194.54 8.57C194.78 8.55 195.01 8.6 195.24 8.62C195.34 8.63 195.44 8.54 195.55 8.52C195.71 8.48 195.87 8.45 196.04 8.43C196.07 8.43 196.11 8.47 196.18 8.51C196.07 8.58 195.98 8.65 195.88 8.71C195.97 8.77 196.04 8.82 196.1 8.86ZM63.67 2.45C63.64 2.41 63.62 2.36 63.6 2.32C63 2.21 62.36 2.34 61.76 2.22C62.57 2.16 63.38 2.11 64.18 2.05C64.21 2.1 64.23 2.14 64.26 2.18C64.07 2.27 63.87 2.36 63.67 2.45ZM53.37 2.24C53.37 2.23 53.37 2.21 53.36 2.19C53.72 2.17 54.08 2.13 54.44 2.12C54.81 2.11 55.17 2.12 55.53 2.12C55.51 2.13 55.42 2.15 55.28 2.18C55.5 2.27 55.61 2.33 55.83 2.42C54.92 2.36 54.15 2.3 53.37 2.24ZM65.91 3.31C65.26 3.57 64.63 3.54 64.43 3.31C64.93 3.31 65.42 3.31 65.91 3.31ZM211.33 18.39C212.4 18.17 213.04 18.2 213.21 18.52C212.58 18.48 211.96 18.43 211.33 18.39ZM187.78 14.88C187.77 14.94 187.76 15 187.76 15.06C187.04 14.99 186.31 14.91 185.59 14.84C185.86 14.77 186.13 14.76 186.39 14.78C186.65 14.79 186.91 14.84 187.16 14.86C187.37 14.88 187.57 14.88 187.78 14.88ZM27.23 2.65C27.22 2.69 27.22 2.73 27.22 2.78C26.66 2.96 26.2 2.7 25.69 2.63C25.7 2.58 25.7 2.53 25.72 2.48C26.23 2.54 26.72 2.59 27.23 2.65ZM146.58 3.36C147.11 3.36 147.64 3.36 148.32 3.36C147.7 3.6 147.7 3.6 146.58 3.36ZM45.43 2.51C46.09 2.24 46.4 2.26 46.83 2.63C46.35 2.59 45.92 2.55 45.43 2.51ZM193.03 11.77C193.5 11.77 193.92 11.77 194.36 11.77C194.21 12.09 193.69 12.09 193.03 11.77ZM22.72 1.98C23.33 1.94 23.79 1.92 24.32 1.89C23.82 2.33 23.35 2.14 22.72 1.98ZM191.88 25.36C191.88 25.38 191.88 25.41 191.88 25.43C191.44 25.43 190.98 25.43 190.53 25.43C190.55 25.4 190.58 25.33 190.6 25.28C191.04 25.31 191.46 25.33 191.88 25.36ZM67.7 1.92C67.71 1.96 67.73 1.99 67.74 2.03C67.09 2.09 66.45 2.15 65.8 2.22C65.8 2.2 65.8 2.17 65.79 2.15C66.42 2.07 67.06 2 67.7 1.92ZM194.64 8.88C194.02 8.88 193.45 8.88 192.77 8.88C193.45 8.75 194.02 8.66 194.64 8.88ZM65.65 3.79C65.2 3.91 64.87 4 64.53 4.08C64.49 4.08 64.4 3.97 64.32 3.92C64.4 3.87 64.46 3.8 64.55 3.79C64.86 3.78 65.17 3.79 65.65 3.79ZM167.31 4.01C167.29 4.04 167.28 4.07 167.26 4.09C166.88 4.03 166.51 3.97 166.2 3.93C166.26 3.83 166.31 3.75 166.39 3.63C166.67 3.75 166.99 3.88 167.31 4.01Z" fill="url(#paint_linear_6249_14178_0)" fill-opacity="1.000000" fill-rule="nonzero"/>
</svg>
