<svg width="344.000000" height="25.000000" viewBox="0 0 344 25" fill="none" xmlns="http://www.w3.org/2000/svg" xmlns:xlink="http://www.w3.org/1999/xlink">
	<desc>
			Created with Pixso.
	</desc>
	<defs>
		<linearGradient x1="337.279938" y1="25.002960" x2="2.825315" y2="1.019562" id="paint_linear_6249_14191_0" gradientUnits="userSpaceOnUse">
			<stop stop-color="#FDD925"/>
			<stop offset="0.294518" stop-color="#FF9559"/>
			<stop offset="0.682384" stop-color="#7C91FF"/>
			<stop offset="1.000000" stop-color="#7E33FF"/>
		</linearGradient>
	</defs>
	<path id="Underline_3" d="M331.91 15.46C332.45 15.52 332.97 15.6 333.52 15.64C334.16 15.68 334.82 15.7 335.54 15.68C335.08 15.61 334.61 15.55 334.04 15.46C335.01 15.46 335.91 15.46 336.62 15.46C336.8 15.34 336.92 15.26 337.06 15.16C336.16 15.09 335.27 15.02 334.38 14.96C334.41 14.91 334.43 14.86 334.46 14.82C335.11 14.86 335.75 14.89 336.59 14.94C336.28 14.87 336.13 14.84 335.93 14.8C337.43 14.54 336.65 14.32 335.68 14.07C336.91 14.24 337.95 14.38 338.98 14.52C338.98 14.39 338.98 14.29 338.98 14.14C338.61 14.08 338.06 14 337.5 13.91C337.53 13.88 337.56 13.86 337.59 13.83C338.59 13.93 339.6 14.03 340.6 14.13C340.63 14.11 340.65 14.09 340.68 14.06C339.72 13.94 338.75 13.83 337.78 13.71C337.81 13.68 337.83 13.65 337.86 13.61C338.78 13.7 339.71 13.79 340.62 13.88C340.65 13.85 340.67 13.82 340.7 13.79C339.86 13.7 339.03 13.6 338.06 13.49C338.27 13.41 338.5 13.33 338.79 13.22C338.79 13.18 338.79 13.11 338.79 13.03C339.29 13.05 339.79 13.07 340.36 13.1C340.43 13.07 340.56 13.01 340.7 12.94L340.69 12.95C340.44 12.58 339.65 12.6 338.62 12.65C339.14 12.74 339.49 12.79 340.02 12.88C339.16 12.87 338.37 12.98 338.33 12.58C338.33 12.51 337.86 12.46 337.54 12.38C337.52 12.36 337.47 12.27 337.44 12.21C338.56 12.24 339.87 12.26 341.18 12.29C341.19 12.26 341.2 12.25 341.21 12.22C340.67 12.19 340.14 12.15 339.6 12.11C339.6 12.09 339.59 12.06 339.59 12.03C340.01 12.02 340.44 12 340.97 11.98C340.51 11.92 340.14 11.87 339.68 11.81C339.9 11.76 340.06 11.71 340.21 11.68C339.98 11.61 339.73 11.54 339.37 11.43C340.1 11.46 340.67 11.48 341.4 11.5C341.19 11.41 341.12 11.37 340.92 11.28C341.64 11.28 342.23 11.28 342.82 11.28C342.82 11.25 342.82 11.22 342.82 11.19C342.27 11.18 341.72 11.16 341.15 11.15C341.15 11.12 341.14 11.1 341.14 11.08C341.99 11.05 342.84 11.03 343.79 11C343.55 10.93 343.35 10.87 343.07 10.78C343.42 10.79 343.65 10.8 343.89 10.8C343.25 10.66 342.82 10.32 341.6 10.56C341.91 10.59 342.16 10.61 342.4 10.63C342.33 10.65 342.26 10.67 342.19 10.7C340.95 10.7 340.06 10.47 339.26 10.18C339.3 10.15 339.35 10.13 339.39 10.11C339.57 10.16 339.73 10.21 339.91 10.24C340.13 10.29 340.36 10.32 340.57 10.37C340.82 10.41 341.06 10.46 341.35 10.52C341.41 10.4 341.48 10.27 341.6 10.03C341.88 10.13 342.03 10.23 342.24 10.24C342.69 10.27 343.3 10.33 343.61 10.25C343.91 10.19 343.95 9.97 343.99 9.81C344.01 9.75 343.75 9.68 343.46 9.63C343.49 9.69 343.52 9.76 343.56 9.83C343.21 9.82 342.89 9.81 342.5 9.8C342.5 9.63 342.5 9.46 342.5 9.29C342.37 9.21 342.22 9.1 342.02 9C341.84 8.91 341.59 8.83 341.37 8.74C341.4 8.82 341.42 8.9 341.45 8.98C341.28 9.06 341.11 9.14 340.95 9.21C340.53 9.14 340.2 9.09 339.74 9.02C339.62 9.09 339.48 9.17 339.33 9.25C337.19 8.82 334.86 8.77 332.6 8.61C332.88 8.61 333.18 8.61 333.46 8.61C333.48 8.59 333.51 8.56 333.53 8.54C332.96 8.37 331.96 8.62 331.4 8.44C331.43 8.41 331.45 8.38 331.48 8.36C331.88 8.35 332.27 8.34 332.66 8.34C332.69 8.24 332.7 8.18 332.71 8.11C332.37 8.36 331.77 8.15 331.29 8.19C330.6 8.25 329.83 8.16 329.09 8.14C328.91 8.13 328.56 8.15 328.56 8.16C328.54 8.37 328.14 8.27 327.86 8.27C327.17 8.26 326.47 8.25 325.78 8.24C325.74 8.24 325.69 8.22 325.66 8.21C325.74 8.16 325.83 8.11 325.94 8.06C325.75 8.03 325.63 8.02 325.5 8C325.78 7.92 326.09 7.89 326.35 7.91C327.15 7.97 327.77 7.83 328.3 7.67C328.68 7.55 328.61 7.53 329.04 7.6C329.31 7.65 329.58 7.7 329.55 7.52C329.14 7.46 328.72 7.4 328.3 7.34C328.32 7.32 328.33 7.29 328.35 7.26C328.89 7.26 329.42 7.26 330.05 7.26C329.82 7.39 329.67 7.46 329.52 7.53C329.88 7.6 330.23 7.67 330.63 7.75C330.81 7.66 330.99 7.56 331.19 7.46C330.9 7.43 330.68 7.4 330.47 7.38C330.48 7.37 330.49 7.35 330.5 7.34C330.85 7.34 331.2 7.34 331.56 7.34C331.53 7.37 331.49 7.41 331.46 7.44C332.35 7.5 333.22 7.56 334.1 7.61C334.09 7.64 334.08 7.67 334.08 7.7C333.81 7.7 333.53 7.69 333.3 7.71C333.14 7.73 333.03 7.8 332.9 7.84C333.53 7.95 332.91 8.03 332.84 8.12C332.97 8.2 333.1 8.28 333.33 8.44C333.41 8.31 333.49 8.22 333.52 8.13C333.56 8.03 333.57 7.93 333.59 7.81C334.06 7.83 334.38 7.84 334.7 7.85C334.69 7.88 334.69 7.9 334.68 7.92C334.39 7.94 334.11 7.96 333.78 7.99C334.45 8.06 335.04 8.13 335.54 8.19C335.65 8.12 335.73 8.08 335.82 8.03C335.94 8.06 336.14 8.09 336.17 8.14C336.25 8.27 336.28 8.41 336.34 8.56C335.77 8.55 335.27 8.54 334.77 8.53C334.89 8.67 335.61 8.76 336.29 8.67C336.54 8.64 336.67 8.5 336.97 8.34C337.27 8.39 337.71 8.48 338.16 8.57C338.16 8.52 338.16 8.48 338.16 8.5C338.78 8.54 339.4 8.59 340.04 8.63C340.03 8.63 339.98 8.68 339.93 8.72C340.13 8.67 340.33 8.62 340.59 8.55C340.69 8.57 340.89 8.6 341.09 8.63C340.89 8.54 340.7 8.45 340.41 8.31C340.79 8.33 341.07 8.33 341.33 8.34C341.47 8.01 341.23 7.74 340.18 7.62C340.36 7.61 340.52 7.6 340.78 7.59C340.55 7.52 340.39 7.46 340.21 7.41C341.33 7.35 342.45 7.29 343.68 7.22C343.43 7.1 343.34 7.06 343.18 6.98C343.44 6.99 343.61 6.99 343.77 7C343.81 6.97 343.84 6.95 343.88 6.93C343.45 6.86 343.05 6.74 342.61 6.73C341.66 6.7 341.38 6.53 341.43 6.24C341.44 6.18 341.43 6.11 341.43 6.07C340.54 5.84 339.71 5.62 338.87 5.41C338.88 5.39 338.88 5.38 338.89 5.37C339.18 5.4 339.47 5.44 339.76 5.48C339.8 5.34 339.83 5.21 339.87 5.06C339.59 5.08 339.31 5.11 338.93 5.13C339.17 5.04 339.33 4.97 339.61 4.86C339.24 4.88 339.01 4.9 338.76 4.91C338.6 4.91 338.31 4.92 338.3 4.91C338.04 4.58 337.07 4.7 336.39 4.55C336.67 4.52 336.85 4.5 336.88 4.5C336.53 4.39 336.18 4.28 335.82 4.17C335.25 3.98 334.51 3.98 333.92 4.08C333.04 4.24 332.43 4.03 331.57 4C331.93 3.94 332.15 3.9 332.6 3.82C331.78 3.87 331.23 3.9 330.74 3.93C330.49 3.8 330.27 3.7 330.03 3.57C330.25 3.51 330.51 3.43 330.77 3.35C330.18 3.35 329.73 3.42 329.65 3.6C329.29 3.64 329.01 3.67 328.72 3.7C328.74 3.73 328.76 3.75 328.77 3.78C328.06 3.68 327.35 3.59 326.65 3.48C326.66 3.46 326.66 3.43 326.67 3.41C327.51 3.41 328.36 3.41 329.19 3.41C329.19 3.4 329.19 3.38 329.19 3.37C328.16 3.34 327.13 3.31 326.11 3.28C326.19 3.23 326.28 3.2 326.37 3.21C327.33 3.22 328.31 3.24 329.27 3.27C329.77 3.29 330.25 3.33 330.74 3.36C330.88 3.41 331.01 3.46 331.15 3.51C331.2 3.5 331.25 3.48 331.3 3.47C331.19 3.42 331.08 3.37 330.97 3.32C332.44 3.19 333.8 3.36 333.85 3.7C334.13 3.66 334.42 3.63 334.88 3.57C334.57 3.52 334.37 3.49 334.12 3.46C334.32 3.4 334.52 3.34 334.75 3.28C334.37 3.26 334.06 3.24 333.74 3.22C333.68 3.25 333.6 3.32 333.55 3.32C333.1 3.29 332.66 3.24 332.2 3.21C331.67 3.17 331.14 3.15 330.6 3.11C330.62 3.07 330.64 3.04 330.66 3C331.62 3.05 332.59 3.1 333.54 3.15C333.2 3.07 332.87 2.94 332.49 2.92C331.31 2.85 330.13 2.82 328.95 2.79C328.45 2.78 327.96 2.97 327.41 2.8C327.19 2.73 326.82 2.72 326.39 2.67C326.18 2.68 325.75 2.72 325.33 2.75C325.22 2.6 325.12 2.48 325.03 2.35C324.99 2.35 324.96 2.36 324.92 2.36C324.89 2.45 324.86 2.55 324.83 2.69C324.04 2.62 323.35 2.58 322.54 2.7C321.91 2.79 321.01 2.65 320.25 2.55C320.9 2.56 321.55 2.57 322.2 2.59C322.21 2.56 322.23 2.53 322.24 2.51C321.68 2.46 321.12 2.38 320.55 2.36C318.15 2.29 315.76 2.24 313.36 2.17C312.32 2.14 311.31 2.05 310.28 2.01C309.72 1.99 309.15 2.05 308.58 2.05C307.46 2.06 306.35 2.06 305.24 2.04C304.03 2.02 302.83 1.97 301.62 1.93C299.79 1.88 297.97 1.84 296.1 1.79C296.16 1.74 296.23 1.68 296.29 1.64C296.21 1.62 296.16 1.6 296.13 1.6C295.31 1.66 294.59 1.77 293.63 1.66C292.68 1.55 291.57 1.62 290.53 1.59C289.36 1.57 288.19 1.5 287.01 1.48C285.03 1.45 283.05 1.45 281.07 1.43C280.37 1.43 279.68 1.43 278.98 1.43C278.69 1.43 278.41 1.44 278.13 1.5C279.7 1.53 281.28 1.57 282.84 1.61C282.84 1.63 282.84 1.66 282.84 1.68C281.92 1.68 280.99 1.68 280.05 1.68C280.04 1.7 280.02 1.73 280.01 1.75C280.76 1.79 281.51 1.85 282.27 1.88C283.53 1.93 284.8 1.97 286.06 1.99C286.99 2.01 287.91 1.97 288.84 1.96C288.98 1.96 289.13 1.94 289.24 1.96C290.47 2.15 291.79 2.13 293.08 2.17C293.15 2.18 293.21 2.2 293.25 2.21C293.01 2.26 292.75 2.31 292.51 2.37C292.56 2.4 292.6 2.43 292.64 2.46C288.15 2.41 283.66 2.36 279.17 2.31C279.17 2.28 279.17 2.26 279.17 2.23C281.08 2.23 282.99 2.23 284.89 2.23C279.12 2.01 273.33 2.01 267.55 2.18C267.55 2.21 267.54 2.23 267.54 2.25C269.77 2.25 272 2.25 274.23 2.25C274.23 2.29 274.22 2.32 274.22 2.36C272.65 2.36 271.07 2.37 269.5 2.35C268.24 2.34 266.98 2.3 265.72 2.28C265.04 2.26 264.36 2.25 263.68 2.24C261.84 2.23 260.02 2.23 258.18 2.21C257.96 2.21 257.74 2.13 257.39 2.06C258.58 2.11 259.54 2.16 260.5 2.2C260.5 2.19 260.51 2.17 260.51 2.16C260.09 2.12 259.67 2.08 259.25 2.04C259.28 2.01 259.31 1.98 259.34 1.95C259.65 1.96 259.96 2 260.27 2C261 1.99 261.73 1.96 262.53 1.94C262.53 1.81 262.53 1.67 262.53 1.49C263.37 1.57 264.19 1.65 265.02 1.73C265.02 1.75 265.01 1.78 265.01 1.8C264.42 1.8 263.81 1.8 263.22 1.8C263.21 1.83 263.19 1.85 263.18 1.88C263.47 1.91 263.76 1.98 264.04 1.98C265.71 1.98 267.37 1.97 269.03 1.94C270.39 1.91 271.74 1.85 273.1 1.82C273.95 1.81 274.79 1.79 275.64 1.97C276.01 2.05 276.84 1.87 277.46 1.81C277.45 1.78 277.44 1.76 277.43 1.73C277.28 1.7 277.14 1.68 276.93 1.64C277.14 1.58 277.3 1.54 277.57 1.47C277.31 1.44 277.14 1.43 276.83 1.4C277.2 1.3 277.5 1.23 277.76 1.16C277.58 1.14 277.28 1.09 276.98 1.05C277 1.03 277.01 1 277.03 0.97C277.91 0.97 278.79 0.97 279.68 0.97C279.68 1 279.69 1.03 279.69 1.05C279.3 1.08 278.91 1.12 278.53 1.15C280.35 1.31 282.18 1.37 284.03 1.16C283.77 1.14 283.52 1.14 283.27 1.12C283.5 0.98 283.5 0.98 285.82 1.05C285.58 1.06 285.34 1.07 285.1 1.08C284.88 1.08 284.65 1.1 284.42 1.11C284.43 1.14 284.43 1.16 284.44 1.19C285.62 1.19 286.8 1.19 288.09 1.19C287.88 1.14 287.74 1.12 287.54 1.07C287.73 1.02 287.89 0.97 288.04 0.93C288.04 0.91 288.05 0.88 288.05 0.86C287.11 0.83 286.18 0.81 285.29 0.79C285.33 0.76 285.44 0.71 285.61 0.62C285.13 0.66 284.76 0.69 284.49 0.71C284.38 0.78 284.3 0.88 284.2 0.88C283.53 0.89 282.74 0.96 282.19 0.87C280.71 0.6 279.34 0.91 277.92 0.89C276.36 0.86 274.79 0.86 273.22 0.85C272.18 0.84 271.06 0.75 270.1 0.84C269.35 0.91 268.82 0.89 268.07 0.8C268.36 0.74 268.56 0.7 268.75 0.65C268.74 0.63 268.73 0.61 268.73 0.59C267.03 0.64 265.32 0.69 263.54 0.74C263.81 0.78 264.1 0.83 264.38 0.88C264.33 0.91 264.29 0.94 264.27 0.94C263.14 0.86 261.97 0.83 260.92 0.7C259.98 0.57 259.05 0.54 258.09 0.52C258 0.52 257.91 0.56 257.74 0.6C258.07 0.62 258.3 0.64 258.53 0.65C258.53 0.67 258.54 0.69 258.54 0.71C257.52 0.73 256.47 0.81 255.49 0.75C253.33 0.6 251.24 0.73 249.12 0.8C248.32 0.83 247.35 0.98 246.66 0.65C246.57 0.61 246.16 0.6 246.03 0.64C245.24 0.85 244.52 0.57 243.75 0.61C243.39 0.63 243 0.57 242.63 0.55C242.61 0.58 242.6 0.61 242.58 0.65C243.3 0.71 244.02 0.78 244.74 0.84C244.74 0.86 244.74 0.87 244.74 0.88C244.41 0.88 244.08 0.89 243.76 0.88C243.41 0.87 243.08 0.84 242.72 0.85C244.77 1.25 246.98 0.94 249.12 1.06C248.69 1.07 248.26 1.08 247.82 1.09C247.41 1.11 246.99 1.14 246.58 1.16C246.59 1.18 246.59 1.21 246.6 1.23C248.45 1.26 250.31 1.29 252.16 1.32C252.16 1.35 252.16 1.38 252.16 1.41C251.99 1.42 251.82 1.44 251.66 1.45C251.65 1.47 251.64 1.5 251.62 1.52C251.93 1.53 252.26 1.55 252.57 1.56C252.96 1.56 253.34 1.56 253.76 1.61C252.98 1.64 252.21 1.69 251.43 1.7C250.33 1.72 249.21 1.74 248.11 1.72C247.77 1.71 246.76 1.85 247.17 1.46C247.19 1.44 246.9 1.36 246.79 1.36C246.46 1.37 245.85 1.42 245.85 1.44C245.88 1.61 245.58 1.54 245.37 1.53C244.77 1.52 244.17 1.5 243.57 1.49C243.38 1.49 243.19 1.54 242.94 1.57C244.27 1.62 245.5 1.66 246.74 1.7C246.73 1.74 246.72 1.76 246.72 1.79C244.93 1.74 243.1 1.85 241.37 1.52C241.78 1.52 242.18 1.52 242.58 1.52C241.81 1.4 241.11 1.27 240.21 1.37C239.32 1.47 238.36 1.51 237.43 1.37C237.25 1.34 237.03 1.35 236.63 1.33C237.02 1.41 237.24 1.47 237.46 1.52C237.43 1.53 237.39 1.54 237.36 1.56C236.66 1.49 235.91 1.34 235.29 1.39C234.77 1.43 234.29 1.42 233.82 1.41C232.69 1.39 231.56 1.33 230.44 1.31C229.22 1.28 227.98 1.3 226.76 1.27C226.19 1.26 225.64 1.22 225.11 1.34C225.05 1.35 224.89 1.32 224.59 1.29C224.99 1.25 225.18 1.23 225.39 1.2C225.38 1.18 225.38 1.16 225.37 1.13C221.59 1.38 217.82 1.27 214.03 1.29C214.03 1.25 214.02 1.22 214.02 1.18C214.56 1.18 215.1 1.18 215.74 1.18C214.8 0.82 213.88 1.21 213 1.12C213.14 1.15 213.28 1.18 213.42 1.21C213.41 1.24 213.41 1.26 213.4 1.29C210.96 1.24 208.5 1.18 206.06 1.12C206.07 1.11 206.09 1.1 206.1 1.08C205.86 1.12 205.62 1.18 205.38 1.18C204.47 1.19 203.56 1.19 202.65 1.19C201.75 1.18 200.84 1.13 199.94 1.14C198.72 1.16 197.52 1.24 196.29 1.27C195.8 1.28 195.24 1.25 194.81 1.18C193.83 1.01 192.92 1.04 191.75 1.19C192.16 1.23 192.34 1.25 192.53 1.27C192.52 1.28 192.51 1.3 192.5 1.31C192.07 1.29 191.65 1.27 191.14 1.25C191.33 1.19 191.43 1.16 191.54 1.13C191.39 1.09 191.25 1.02 191.11 1.02C190.51 1.04 189.91 1.11 189.3 1.11C188.99 1.12 188.67 1.02 188.34 0.99C187.13 0.9 185.93 0.82 184.72 0.75C184.29 0.72 183.84 0.71 183.41 0.68C183.3 0.67 183.23 0.6 183.28 0.63C182.73 0.63 182.31 0.64 181.92 0.62C181.32 0.6 180.73 0.53 180.12 0.52C179.89 0.51 179.64 0.6 179.48 0.7C179.92 0.7 180.35 0.7 180.79 0.7C180.79 0.72 180.79 0.73 180.79 0.75C180.57 0.76 180.34 0.78 180.06 0.8C180.64 0.9 181.16 0.98 181.67 1.07C181.65 1.1 181.63 1.14 181.61 1.17C180.64 1.17 179.67 1.17 178.76 1.17C178.82 1.18 178.97 1.2 179.22 1.24C177.95 1.2 176.77 1.15 175.61 1.14C175.01 1.13 174.4 1.2 173.8 1.19C172.75 1.17 171.77 1.35 170.74 1.31C169.65 1.27 168.58 1.18 167.48 1.13C166.56 1.08 165.62 1.05 164.69 1.01C163.2 0.94 161.71 0.87 160.19 0.74C160.54 0.73 160.91 0.71 161.26 0.69C161.27 0.67 161.28 0.65 161.28 0.64C160.09 0.6 158.89 0.57 157.65 0.53C157.71 0.5 157.82 0.46 157.91 0.42C157.52 0.32 157.12 0.23 156.73 0.13C156.8 0.1 156.87 0.08 157.1 0C155.93 0.05 154.94 0.11 153.81 0.16C154.27 0.21 154.6 0.25 154.92 0.28C154.93 0.3 154.94 0.32 154.96 0.34C154.13 0.4 153.31 0.47 152.48 0.53C152.43 0.49 152.39 0.46 152.34 0.43C152.64 0.36 152.93 0.29 153.29 0.2C152.99 0.17 152.65 0.12 152.3 0.11C151.85 0.1 151.38 0.13 150.93 0.15C151.29 0.21 151.69 0.29 152.05 0.36C151.44 0.76 150.59 0.48 149.85 0.48C149.5 0.48 149.15 0.44 148.79 0.42C148.61 0.15 146.18 0.11 145.28 0.43C146.83 0.18 148.17 0.49 149.6 0.59C147.54 0.63 145.46 0.58 143.41 0.67C143.41 0.7 143.42 0.73 143.42 0.75C144.75 0.75 146.08 0.75 147.4 0.75C147.4 0.77 147.41 0.78 147.41 0.8C147.22 0.81 147.03 0.83 146.85 0.85C146.84 0.87 146.83 0.9 146.82 0.92C147.67 1.1 148.73 0.84 149.72 1.08C149.4 0.88 149.02 0.74 149.86 0.73C150.26 0.73 150.65 0.72 151.04 0.7C151.95 0.65 152.34 0.8 152.27 1.13C151.68 1.16 151.02 1.19 150.36 1.21C153.68 1.25 156.88 1.55 160.15 1.75C158.82 2 157.37 1.81 155.99 1.86C154.64 1.91 153.25 1.82 151.74 1.79C152.31 1.69 152.79 1.6 153.29 1.51C153.26 1.48 153.23 1.45 153.2 1.41C151.47 1.92 149.44 1.77 147.48 1.79C147.47 1.62 148.47 1.83 148.13 1.56L148.15 1.56C147.6 1.61 147.04 1.66 146.42 1.72C146.52 1.75 146.6 1.78 146.68 1.8C146 1.64 145.13 2.11 144.51 1.72C144.48 1.71 144.33 1.69 144.28 1.7C143.46 1.87 142.56 1.79 141.69 1.79C140.72 1.79 139.76 1.76 138.78 1.76C137.04 1.75 135.29 1.75 133.55 1.74C133.2 1.74 132.81 1.81 132.53 1.63C132.45 1.57 131.71 1.59 131.34 1.63C130.51 1.74 129.79 1.63 129.06 1.54C128.51 1.79 127.84 1.63 127.22 1.63C127.21 1.6 127.2 1.57 127.2 1.55C127.83 1.55 128.45 1.55 129.08 1.55C129.6 1.53 130.13 1.52 130.65 1.51C130.85 1.51 131.08 1.52 131.28 1.51C131.41 1.49 131.5 1.44 131.6 1.4C131.49 1.37 131.39 1.32 131.26 1.31C130.91 1.28 130.4 1.36 130.38 1.14C130.38 1.13 130.28 1.12 130.23 1.12C129.53 1.13 128.78 1.19 128.15 1.12C126.96 0.98 125.82 1.24 124.61 1.1C124.14 1.05 123.46 1.21 122.83 1.29C124.6 1.32 126.33 1.35 128.04 1.38C128.04 1.41 128.04 1.44 128.04 1.46C126.59 1.46 125.14 1.46 123.68 1.46C122.68 1.46 121.7 1.48 120.7 1.48C118.03 1.5 115.36 1.51 112.69 1.53C111.51 1.54 110.34 1.55 109.15 1.56C108.94 1.56 108.72 1.55 108.26 1.54C108.76 1.42 109.07 1.35 109.34 1.29C108.86 1.24 108.36 1.18 107.86 1.16C107.65 1.15 107.42 1.25 107.2 1.25C106.48 1.25 105.76 1.22 105.04 1.19C104.65 1.17 104.26 1.09 103.89 1.09C102.54 1.12 101.19 1.18 99.83 1.19C99 1.2 98.16 1.17 97.34 1.12C96.97 1.1 96.59 0.96 96.26 0.97C95.71 1 95.21 1.11 94.89 1.16C94.38 1.09 94.02 1.01 93.64 1.01C91.64 0.99 89.64 0.98 87.64 0.97C86.22 0.97 84.8 0.97 83.55 0.97C83.59 0.97 83.8 0.96 84.11 0.93C83.55 0.9 83.09 0.86 82.63 0.84C82.54 0.84 82.43 0.88 82.33 0.91C82.41 0.93 82.49 0.96 82.72 1.03C81.1 0.98 79.64 0.94 78.18 0.9C78.17 0.88 78.16 0.86 78.15 0.84C78.73 0.83 79.3 0.81 79.84 0.8C79.69 0.74 79.48 0.65 79.26 0.56C78 0.82 76.71 1 75.21 0.89C75.25 0.78 75.29 0.66 75.34 0.54C75.29 0.53 75.25 0.53 75.2 0.52C75 0.65 74.79 0.77 74.59 0.9C73.9 0.9 73.09 0.89 72.27 0.91C71.24 0.93 70.22 0.98 69.19 1.01C67.88 1.05 66.59 1.05 65.34 0.87C65.1 0.83 64.74 0.89 64.44 0.91C64.44 0.93 64.44 0.96 64.45 0.98C64.78 1 65.11 1.02 65.44 1.04C65.44 1.05 65.43 1.07 65.43 1.08C64.81 1.06 64.16 1.07 63.58 1.01C62.16 0.84 60.75 0.87 59.3 1.04C59.84 1.06 60.39 1.08 60.92 1.1C60.92 1.13 60.93 1.15 60.93 1.18C59.17 1.18 57.43 1.18 55.67 1.18C55.66 1.23 55.65 1.27 55.65 1.31C56.16 1.34 56.68 1.41 57.15 1.38C58.17 1.32 59.11 1.27 60.14 1.4C60.61 1.46 61.27 1.35 61.86 1.32C61.99 1.31 62.13 1.32 62.27 1.32C63.29 1.32 64.3 1.28 65.31 1.32C67.03 1.39 68.7 1.23 70.41 1.24C71.15 1.25 71.9 1.14 72.65 1.13C73.54 1.11 74.44 1.12 75.37 1.12C74.7 1.47 74.37 1.51 73.14 1.37C73.65 1.31 74.04 1.27 74.44 1.23C74.43 1.21 74.42 1.2 74.42 1.19C73.68 1.23 72.94 1.27 72.2 1.3C72.2 1.33 72.2 1.36 72.2 1.39C72.7 1.43 73.21 1.48 73.88 1.54C71.82 1.54 69.94 1.54 68.05 1.54C68.05 1.73 67.58 1.6 67.24 1.58C66.88 1.57 66.54 1.55 66.18 1.54C65.93 1.53 65.68 1.54 65.46 1.54C64.92 1.58 64.18 1.73 63.9 1.65C63.41 1.53 63.08 1.63 62.7 1.63C61.45 1.64 60.21 1.66 58.97 1.69C57.21 1.74 55.47 1.81 53.72 1.87C52.8 1.9 51.91 1.92 51.3 1.61C51.22 1.56 50.94 1.56 50.64 1.53C50.89 1.63 51.07 1.7 51.4 1.83C50.95 1.86 50.63 1.9 50.3 1.9C48.66 1.86 47.03 1.81 45.39 1.76C44.78 1.74 44.18 1.7 43.58 1.68C42.45 1.65 41.33 1.63 40.16 1.66C40.39 1.7 40.63 1.73 40.97 1.79C40.69 1.98 40.4 2.18 40.1 2.37C40.73 2.34 41.19 2.12 41.91 2.2C42.04 2.21 42.22 2.16 42.48 2.12C42.1 2.06 41.84 2.02 41.58 1.98C44.47 1.78 47.25 2.22 50.1 1.95C50.1 1.98 50.1 2.01 50.1 2.03C49.06 2.07 48.01 2.11 46.97 2.14C46.98 2.17 46.99 2.2 47 2.23C47.19 2.22 47.39 2.2 47.58 2.2C47.83 2.21 48.09 2.23 48.36 2.25C51.98 2.25 55.59 2.25 59.2 2.25C57.51 2.32 55.8 2.33 54.1 2.34C53.16 2.35 52.23 2.38 51.3 2.36C50.32 2.35 49.34 2.29 48.37 2.25C48.23 2.25 48.06 2.23 47.95 2.25C46.96 2.42 45.98 2.42 44.94 2.27C44.65 2.23 44.19 2.35 43.8 2.4C43.13 2.45 42.36 2.43 41.62 2.45C41.09 2.47 40.58 2.55 40.05 2.6C39.82 2.61 39.38 2.65 39.67 2.47C38.92 2.4 38.92 2.4 37.46 2.62C37.13 2.54 36.89 2.45 36.6 2.42C35.95 2.37 35.28 2.33 34.62 2.32C34.12 2.31 33.54 2.44 33.1 2.39C32.29 2.3 31.52 2.4 30.74 2.38C30.1 2.35 29.47 2.3 28.82 2.3C29.89 2.66 31.28 2.32 32.42 2.51C31.87 2.72 31.78 2.73 31.19 2.59C30.44 2.67 29.89 2.75 29.32 2.78C26.62 2.93 23.91 3.08 21.21 3.2C20.14 3.25 19.04 3.24 17.96 3.26C17.31 3.28 16.66 3.31 15.77 3.35C16.3 3.41 16.62 3.45 16.97 3.5C16 3.68 15.11 3.88 14.14 4C13.21 4.11 12.17 4.14 11.19 4.2C10.39 4.24 9.58 4.28 8.8 4.38C10.02 4.36 11.25 4.33 12.66 4.3C12.41 4.36 12.32 4.38 12.2 4.41C12.81 4.44 13.61 4.4 13.95 4.51C14.74 4.77 15.42 4.54 16.17 4.55C15.61 4.89 14.48 4.82 13.81 4.79C12.73 4.74 11.65 4.76 10.58 4.71C10.19 4.69 9.8 4.68 9.4 4.66C9.38 4.7 9.37 4.74 9.35 4.79C10.03 4.82 10.71 4.84 11.38 4.89C11.78 4.92 12.14 4.99 12.54 5.03C12.66 5.04 12.81 5.01 12.95 5.01C13.8 5.01 14.71 4.91 15.4 5.24C14.26 5.24 13.17 5.27 12.1 5.23C11.03 5.2 9.97 5.1 9.02 5.04C8.89 4.89 8.75 4.73 8.54 4.48C7.69 4.95 6.56 4.8 5.39 4.84C5.46 4.72 5.4 4.58 5.58 4.52C6.07 4.34 5.78 4.3 5.3 4.27C5.13 4.25 4.98 4.22 4.88 4.2C4.52 4.33 4.14 4.46 3.73 4.61C3.78 4.62 3.98 4.66 4.04 4.68C4.47 4.6 4.82 4.55 5.34 4.46C5.21 4.66 5.14 4.76 5.06 4.88C4.37 4.9 3.66 4.94 2.95 4.96C2.19 4.99 1.96 5.14 2.4 5.39C2.14 5.36 1.95 5.34 1.75 5.33C1.72 5.34 1.7 5.35 1.67 5.36C1.92 5.43 2.13 5.51 2.41 5.55C2.79 5.61 3.2 5.66 3.6 5.67C4.52 5.7 5.45 5.71 6.36 5.72C6.94 5.73 7.52 5.73 8.1 5.75C9.77 5.79 11.43 5.83 13.09 5.88C14.41 5.92 15.74 5.97 17.06 6.01C17.7 6.04 18.34 6.04 18.99 6.12C17.87 6.14 16.75 6.16 15.67 6.18C15.56 6.21 15.45 6.28 15.3 6.29C14.31 6.35 13.31 6.37 12.33 6.43C11.55 6.49 10.81 6.59 10.04 6.67C9.1 6.76 8.14 6.84 7.18 6.92C7.13 6.92 7.06 6.92 7.02 6.91C6.47 6.79 5.93 6.67 5.29 6.52C4.58 6.6 3.87 6.74 3.68 7.06C4.03 7.16 4.37 7.26 4.71 7.35L4.7 7.35C5.29 7.39 5.88 7.43 6.43 7.46C6.2 7.52 5.86 7.6 5.46 7.7C5.64 7.79 5.82 7.88 6.05 7.98C5.81 8.02 5.56 8.06 5.31 8.1C6.11 8.12 6.88 8.14 7.64 8.16C7.64 8.19 7.64 8.22 7.65 8.25C7.43 8.26 7.2 8.27 6.99 8.27C6.03 8.3 5.08 8.32 4.13 8.34C3.51 8.36 2.89 8.36 2.31 8.41C1.6 8.47 0.92 8.58 0 8.7C0.93 8.93 1.63 9.1 2.24 9.25C1.59 9.42 0.93 9.59 0.31 9.75C1.94 9.89 3.55 10.01 5.14 10.16C6.75 10.31 8.36 10.39 10.01 10.45C11.6 10.5 13.17 10.4 14.73 10.46C14.74 10.5 14.74 10.53 14.75 10.56C11.42 10.72 8.1 10.88 4.91 11.03C4.78 11.08 4.65 11.13 4.5 11.19C6.51 11.12 8.53 11.09 10.61 11.27C9.81 11.35 9.13 11.43 8.43 11.49C8.14 11.52 7.75 11.57 7.54 11.53C6.33 11.3 5.12 11.53 3.91 11.52C4.93 11.56 5.97 11.6 7 11.64C7 11.65 7.01 11.67 7.01 11.69C5.82 11.71 4.63 11.73 3.45 11.75C3.45 11.78 3.44 11.82 3.44 11.85C4.53 11.91 5.62 11.96 6.79 12.02C6.62 12.1 6.51 12.16 6.4 12.21C7.46 12.24 8.46 12.26 9.55 12.29C9.39 12.33 9.29 12.35 8.99 12.43C11.34 12.4 13.39 12.54 15.24 13C13.31 12.96 11.37 12.93 9.43 12.9L9.44 12.9C9.24 12.94 9.05 12.99 8.85 13.04C11.11 13.12 13.36 13.2 15.63 13.28C15.63 13.31 15.62 13.34 15.62 13.37C13.91 13.49 12.18 13.61 10.47 13.73C10.48 13.77 10.49 13.8 10.49 13.83C12.48 13.83 14.48 13.83 16.47 13.83C16.5 13.87 16.54 13.91 16.57 13.95C16.24 14.02 15.93 14.09 15.6 14.16C16.13 14.29 16.64 14.41 17.15 14.54C17.12 14.57 17.09 14.6 17.06 14.63C14.77 14.4 12.49 14.43 10.19 14.63C12.18 14.63 14.18 14.63 16.17 14.63C16.17 14.65 16.18 14.68 16.18 14.7C14.74 14.75 13.3 14.8 11.73 14.86C13.34 14.92 14.81 14.98 16.43 15.05C14.79 15.5 13.04 15.19 11.27 15.34C11.95 15.35 12.45 15.37 13.03 15.38C12.89 15.44 12.81 15.47 12.69 15.52C13.11 15.52 13.48 15.52 13.85 15.52C13.85 15.55 13.84 15.59 13.84 15.63C11.85 15.59 9.85 15.56 7.86 15.52C7.86 15.54 7.85 15.56 7.85 15.58C9.33 15.63 10.82 15.68 12.3 15.73C12.29 15.73 12.29 15.74 12.28 15.74C12.26 15.75 12.22 15.75 12.2 15.75C12.15 15.77 12.1 15.78 11.96 15.82C12.56 15.82 13.02 15.82 13.48 15.82C13.5 15.85 13.52 15.87 13.54 15.9C13.05 15.94 12.57 16 12.06 16.03C11.36 16.06 10.65 16.07 9.95 16.09C9.36 16.11 8.78 16.12 8.17 16.18C11.88 16.34 15.58 16.51 19.28 16.67C19.27 16.7 19.27 16.71 19.26 16.74C16.03 16.78 12.78 16.82 9.55 16.87C9.54 16.88 9.54 16.9 9.53 16.92C9.88 16.94 10.24 16.97 10.74 17C10.32 17.02 10.04 17.03 9.55 17.05C10.68 17.1 11.6 17.13 12.52 17.17C12.52 17.21 12.51 17.26 12.51 17.31C11.81 17.31 11.1 17.31 10.4 17.31C10.38 17.33 10.37 17.35 10.35 17.37C10.5 17.41 10.64 17.44 10.87 17.49C10.63 17.56 10.4 17.64 10.17 17.71C10.36 17.88 10.55 18.06 10.77 18.26C10.51 18.24 10.25 18.22 9.99 18.21C9.98 18.23 9.97 18.25 9.97 18.27C11.15 18.33 12.32 18.39 13.44 18.44C13.53 18.4 13.5 18.41 13.47 18.42C13.44 18.44 13.41 18.45 13.36 18.47C13.76 18.47 14.14 18.47 14.62 18.47C14.36 18.44 14.18 18.42 14.01 18.4C14.02 18.38 14.02 18.37 14.03 18.35C15.23 18.38 16.43 18.4 17.62 18.43C17.62 18.45 17.62 18.47 17.62 18.49C16.82 18.49 16 18.49 15.19 18.49C15.18 18.5 15.16 18.51 15.15 18.53C15.47 18.56 15.78 18.59 16.19 18.63C15.67 18.68 15.24 18.73 14.79 18.77C14.78 18.79 14.77 18.81 14.77 18.83C16.19 18.96 17.6 19.09 19.02 19.22C19.01 19.26 19 19.29 18.99 19.33C18.52 19.32 18.04 19.32 17.57 19.31C17.04 19.29 16.51 19.27 16.01 19.22C15.55 19.18 15.14 19.09 14.71 19.02C14.67 19.06 14.62 19.1 14.58 19.14C15.68 19.28 16.78 19.44 17.9 19.58C18.57 19.65 18.8 19.78 18.45 20.09C20.84 20.13 23.18 20.15 25.5 20.22C26.05 20.24 26.57 20.4 27.09 20.49C26.54 20.52 25.98 20.55 25.32 20.58C25.49 20.63 25.62 20.66 25.81 20.71C22.19 20.71 18.62 20.71 15.08 20.71C15.12 20.73 15.24 20.78 15.47 20.88C14.5 20.83 13.69 20.79 12.66 20.74C13.13 21.02 13.67 21.05 14.24 21.07C14.72 21.09 15.26 21.02 15.51 21.27C15.59 21.35 16.31 21.34 16.75 21.37C17.21 21.4 17.88 21.3 17.86 21.63C17.86 21.69 18.64 21.76 19.07 21.81C19.27 21.84 19.61 21.8 19.7 21.84C20.37 22.11 21.22 21.95 21.98 21.98C23.35 22.03 24.72 22.05 26.09 22.08C26.09 22.12 26.1 22.17 26.1 22.21C25.32 22.26 24.54 22.29 23.62 22.34C24.38 22.6 25.1 22.41 25.77 22.39C26.28 22.37 26.79 22.31 27.31 22.3C29 22.27 30.71 22.26 32.4 22.24C32.57 22.23 32.88 22.23 32.89 22.24C33.02 22.45 33.38 22.3 33.65 22.3C35.27 22.3 36.9 22.3 38.53 22.3C40.05 22.3 41.55 22.29 43.07 22.31C45.04 22.33 47.03 22.36 49 22.39C49.93 22.4 50.86 22.41 51.8 22.42C51.79 22.45 51.79 22.47 51.78 22.5C50.71 22.52 49.66 22.54 48.67 22.56C48.79 22.5 48.9 22.44 49.02 22.38C48.38 22.47 47.59 22.4 47.1 22.65C46.97 22.72 46.31 22.67 45.89 22.68C45.2 22.68 44.5 22.68 43.81 22.68C43.81 22.7 43.81 22.73 43.81 22.75C45.72 22.75 47.62 22.75 49.42 22.75C49.47 22.76 49.39 22.74 49.12 22.67C51.68 22.77 54.09 22.74 56.53 22.99C55.27 23.27 54.05 23.13 52.85 23.14C50.74 23.14 48.63 23.18 46.52 23.2C46.15 23.2 45.77 23.18 45.41 23.17C44.77 23.16 44.12 23.14 43.48 23.13C42.13 23.12 40.77 23.11 39.41 23.11C38.56 23.11 37.71 23.13 36.85 23.13C35.35 23.12 33.86 23.1 32.36 23.11C31.02 23.12 29.67 23.17 28.33 23.21C28.34 23.24 28.34 23.26 28.35 23.29C29.24 23.27 30.12 23.24 31 23.24C32.37 23.25 33.75 23.29 35.12 23.31C35.59 23.32 36.05 23.3 36.53 23.32C37.4 23.35 38.27 23.39 39.15 23.42C39.57 23.43 40 23.43 40.42 23.43C41.38 23.44 42.33 23.47 43.29 23.46C44.08 23.45 44.86 23.36 45.64 23.36C47.42 23.36 49.21 23.4 50.99 23.4C51.68 23.4 52.38 23.33 53.06 23.34C54.14 23.36 55.21 23.44 56.28 23.45C57.72 23.45 59.17 23.42 60.61 23.39C61.91 23.36 63.32 23.2 64.49 23.33C65.91 23.47 67.25 23.34 68.6 23.42C68.72 23.43 68.82 23.46 68.93 23.47C68.92 23.5 68.92 23.52 68.91 23.55C67.69 23.55 66.49 23.55 65.28 23.55C65.28 23.59 65.28 23.63 65.28 23.66C65.77 23.66 66.26 23.67 66.76 23.66C69.97 23.64 73.18 23.6 76.4 23.58C77.85 23.58 79.3 23.6 80.74 23.59C81.63 23.58 82.53 23.52 83.43 23.5C83.57 23.49 83.71 23.51 83.85 23.52C84.39 23.59 84.82 23.77 85.52 23.59C85.8 23.52 86.4 23.61 86.85 23.62C87.46 23.62 88.07 23.59 88.68 23.59C89.3 23.58 89.91 23.61 90.51 23.59C91.24 23.57 91.97 23.51 92.7 23.47C92.84 23.47 93.08 23.45 93.15 23.48C93.6 23.68 94.32 23.65 94.88 23.66C95.47 23.67 95.36 23.74 95.34 23.85C95.4 23.81 95.5 23.74 95.51 23.74C95.98 23.8 96.34 23.75 96.62 23.61C96.65 23.6 96.78 23.59 96.86 23.6C97.96 23.66 99.08 23.73 100.28 23.8C100.12 23.85 100.07 23.88 100.01 23.88C99.18 23.89 98.36 23.9 97.52 23.91C96.78 23.92 96.02 24.01 95.33 23.85C95.28 23.87 95.23 23.91 95.19 23.91C94.34 23.88 93.51 23.85 92.46 23.8C91.83 23.96 84.88 23.95 84.41 23.79C83.77 23.81 83.27 23.84 82.77 23.86C82.76 23.84 82.75 23.83 82.74 23.81C82.89 23.78 83.02 23.75 83.17 23.72C82.77 23.75 82.31 23.64 81.97 23.85C81.83 23.94 81 23.9 80.49 23.9C79.62 23.9 78.76 23.9 77.89 23.9C77.89 23.93 77.89 23.97 77.89 24C79.01 24 80.14 24 81.26 24C81.7 24 82.15 24.01 82.59 24.01C83.15 24.01 83.72 24 84.29 24.02C84.86 24.04 85.42 24.09 85.98 24.12C86.2 24.13 86.45 24.14 86.64 24.12C87.7 24 88.67 24.06 89.72 24.17C90.32 24.24 91.06 24.16 91.74 24.14C91.95 24.14 92.18 24.11 92.35 24.14C93.22 24.28 94.18 24.29 94.99 24.18C96.36 24.01 97.54 24.21 98.79 24.32C97.57 24.32 96.34 24.31 95.11 24.32C93.45 24.34 91.77 24.37 90.1 24.39C87.13 24.43 84.14 24.49 81.16 24.51C79.79 24.52 78.43 24.45 77.05 24.44C80.11 24.7 83.21 24.78 86.53 24.67C86.29 24.72 86.18 24.74 86.07 24.76C85.97 24.78 85.87 24.79 85.78 24.83C87.68 25.03 89.6 24.88 91.5 24.88C91.51 24.85 91.51 24.82 91.52 24.79C90.93 24.78 90.34 24.77 89.75 24.76C89.75 24.74 89.75 24.72 89.76 24.7C94.79 24.66 99.82 24.61 104.84 24.57L104.83 24.57C105.03 24.56 105.23 24.54 105.21 24.55C105.76 24.53 106.08 24.52 106.38 24.51C106.99 24.49 107.6 24.45 108.21 24.45C110.27 24.44 112.33 24.45 114.39 24.44C114.79 24.44 115.19 24.36 115.61 24.32C115.68 24.33 115.83 24.39 115.98 24.39C117.55 24.39 119.13 24.39 120.71 24.38C121.97 24.38 123.24 24.39 124.51 24.39L124.49 24.39C125.75 24.29 126.99 24.22 128.19 24.47C128.42 24.52 128.72 24.55 128.99 24.55C129.7 24.56 130.41 24.54 131.11 24.54L131.13 24.55C130.27 24.5 129.41 24.47 128.55 24.43C128.56 24.38 128.56 24.34 128.57 24.3C129.31 24.3 130.13 24.23 130.77 24.31C131.88 24.46 132.77 24.17 133.79 24.28C133.79 24.25 133.79 24.23 133.79 24.2C133.36 24.17 132.92 24.14 132.3 24.1C133.54 24.1 134.58 24.1 135.63 24.1C135.63 24.11 135.63 24.12 135.63 24.14C135.15 24.15 134.68 24.16 134.21 24.17C134.19 24.19 134.18 24.21 134.16 24.23C134.44 24.28 134.74 24.32 134.94 24.35C134.78 24.45 134.63 24.56 134.48 24.66L134.47 24.65C134.79 24.65 135.1 24.65 135.41 24.65C135.41 24.64 135.41 24.63 135.41 24.62C135.22 24.61 135.03 24.6 134.75 24.59C135.54 24.28 136.36 24.25 137.37 24.36C137.88 24.41 138.49 24.34 139.05 24.34C139.88 24.33 140.71 24.33 141.54 24.32C142.05 24.31 142.54 24.28 143.04 24.26C143.03 24.22 143.02 24.18 143.01 24.15C142.29 24.17 141.57 24.19 140.86 24.21C140.86 24.18 140.85 24.14 140.85 24.11C144.56 24.07 148.27 23.95 152.09 24.1C151.89 24.14 151.78 24.2 151.66 24.19C150.28 24.17 148.9 24.14 147.51 24.12C147.35 24.12 147.18 24.17 147.02 24.17C146.65 24.19 146.28 24.22 145.93 24.21C145.22 24.2 144.51 24.16 143.79 24.19C144.52 24.47 145.5 24.3 146.32 24.4C146.32 24.43 146.31 24.47 146.3 24.51C146.38 24.51 146.42 24.51 146.43 24.51C147.19 24.17 148.2 24.45 149.08 24.4C149.99 24.34 150.97 24.42 151.99 24.45C151.92 24.5 151.88 24.55 151.79 24.63C153.01 24.63 154.2 24.63 155.41 24.63C155.42 24.61 155.44 24.58 155.45 24.56C154.54 24.52 153.64 24.49 152.73 24.45C152.74 24.44 152.74 24.42 152.75 24.41C154.65 24.41 156.55 24.4 158.44 24.41C159.25 24.41 160.07 24.41 160.86 24.45C161.94 24.51 163 24.62 164.08 24.67C164.76 24.7 165.46 24.67 166.15 24.66C166.71 24.66 167.26 24.66 167.83 24.66C167.89 24.61 167.97 24.53 168.01 24.49C168.31 24.55 168.64 24.64 168.71 24.62C169.43 24.41 170.18 24.5 170.93 24.57C170.96 24.57 170.97 24.6 171 24.61C171.04 24.59 171.07 24.55 171.12 24.54C171.71 24.51 172.34 24.5 172.92 24.46C173.72 24.39 174.02 24.61 174.45 24.74C174.83 24.87 175.14 25.07 175.68 24.81C175.71 24.79 175.86 24.78 175.91 24.8C176.91 25.08 177.75 24.77 178.66 24.71C179.79 24.64 180.94 24.6 182.07 24.55C182.17 24.68 182.21 24.76 182.25 24.82C182.66 24.77 183 24.72 183.4 24.67C183.22 24.66 183.03 24.64 182.71 24.61C183.07 24.56 183.26 24.53 183.46 24.5C183.73 24.47 184.07 24.38 184.28 24.4C184.72 24.46 184.31 24.54 184.26 24.63C184.18 24.73 184.37 24.88 184.55 24.98C184.59 25 185.05 24.93 185.32 24.93C186.31 24.92 187.29 24.93 188.28 24.94C188.5 24.94 188.82 25.02 188.89 24.99C189.76 24.66 190.79 24.99 191.75 24.89C192.72 24.8 193.77 24.83 194.79 24.81C196.01 24.8 197.23 24.8 198.45 24.78C198.55 24.78 198.64 24.73 198.73 24.7C198.69 24.67 198.66 24.64 198.62 24.6C199.81 24.64 201.01 24.68 202.1 24.72C201.99 24.7 201.78 24.67 201.57 24.63C201.59 24.61 201.6 24.58 201.62 24.56C202 24.57 202.4 24.61 202.77 24.61C204.15 24.58 205.53 24.55 206.91 24.52C207.08 24.51 207.25 24.52 207.42 24.53C208.38 24.57 208.38 24.57 209.03 24.35C208.8 24.3 208.52 24.21 208.27 24.22C207.76 24.23 207.03 24.25 206.81 24.36C206.41 24.56 206.17 24.42 205.85 24.38C206.03 24.36 206.19 24.35 206.33 24.34C206.12 24.25 205.94 24.17 205.75 24.09C205.8 24.06 205.85 24.04 205.89 24.02C207.65 24.16 209.39 24.11 211.11 23.99C211.11 23.96 211.11 23.94 211.11 23.91C210.59 23.91 210.06 23.91 209.54 23.91C209.54 23.89 209.54 23.87 209.55 23.85C210.4 23.85 211.26 23.85 212.13 23.85C212.13 23.86 212.14 23.88 212.14 23.89C211.9 23.9 211.66 23.91 211.42 23.93C211.41 23.95 211.4 23.96 211.38 23.98C211.69 24.02 211.98 24.06 212.36 24.11C211.77 24.23 211.35 24.46 210.58 24.26C210.52 24.25 210.37 24.26 210.28 24.28C209.82 24.35 209.37 24.44 208.83 24.53C214.14 24.55 219.4 24.44 224.83 24.62C223.43 24.32 221.86 24.51 220.57 24.29C220.88 24.16 221.68 24.39 221.75 24.08C222.4 24.48 223.67 24.27 224.65 24.38C225.19 24.44 225.79 24.46 226.35 24.5C226.34 24.53 226.33 24.55 226.31 24.57C225.9 24.57 225.51 24.56 225.09 24.55C225.51 24.72 226.23 24.76 226.67 24.66C227.06 24.57 227.08 24.5 226.71 24.43C226.32 24.36 225.89 24.3 225.48 24.2C226.28 24.2 227.08 24.2 227.78 24.2C228.45 24.25 229.07 24.3 229.79 24.35C229.4 24.47 229.14 24.55 228.95 24.61C230.13 24.69 231.3 24.76 232.45 24.84C232.48 24.8 232.52 24.75 232.55 24.71C231.73 24.63 230.9 24.55 230.08 24.47C230.08 24.45 230.09 24.42 230.09 24.39C230.7 24.39 231.31 24.42 231.89 24.39C232.45 24.35 232.97 24.27 233.59 24.27C233.42 24.3 233.24 24.34 233.06 24.37C233.07 24.4 233.07 24.43 233.08 24.46C234.79 24.51 236.5 24.56 238.21 24.62C238.22 24.58 238.24 24.54 238.25 24.5C237.38 24.47 236.51 24.44 235.65 24.41C235.64 24.39 235.64 24.37 235.63 24.35C235.94 24.34 236.26 24.33 236.57 24.32C237.37 24.28 238.18 24.24 238.98 24.21C239.08 24.21 239.18 24.21 239.31 24.22C239.28 24.28 239.26 24.33 239.22 24.42C239.87 24.23 240.45 24.21 241.05 24.36C241.14 24.39 241.34 24.39 241.45 24.37C242.52 24.2 243.61 24.18 244.75 24.26C244.84 24.26 244.96 24.25 245.07 24.24C245.1 24.24 245.12 24.21 245.17 24.18C244.56 24.14 243.96 24.1 243.37 24.06C243.38 24.05 243.38 24.03 243.39 24.02C244.37 23.97 245.35 23.92 246.32 23.87C246.33 23.89 246.34 23.9 246.35 23.91C246.13 23.93 245.89 23.96 245.63 23.98C246.08 24.02 246.49 24.06 246.91 24.09C246.9 24.12 246.9 24.14 246.89 24.16C246.53 24.17 246.19 24.19 245.77 24.21C246.07 24.24 246.3 24.27 246.53 24.3L246.5 24.29C247.22 24.53 248.18 24.44 248.86 24.38C250.03 24.27 251.14 24.29 252.31 24.3C252.69 24.31 253.08 24.3 253.46 24.25C252.01 24.26 250.59 23.95 249.07 24.28C249.04 24.12 249.02 24.01 248.99 23.81C249.37 23.88 249.63 23.93 249.93 23.99C250.94 23.77 252.08 23.73 253.14 23.9C253.75 23.85 254.27 23.8 254.78 23.75C254.78 23.74 254.79 23.73 254.79 23.72C254.18 23.72 253.56 23.72 252.95 23.72C252.94 23.7 252.93 23.68 252.93 23.65C253.29 23.62 253.66 23.59 254.03 23.57C254.4 23.54 254.78 23.54 255.25 23.52C255.34 23.55 255.54 23.63 255.75 23.63C256.69 23.64 257.61 23.62 258.55 23.61C259.25 23.6 259.95 23.6 260.64 23.58C261.94 23.54 263.24 23.42 264.53 23.43C265.67 23.44 266.74 23.33 267.86 23.33C269.69 23.34 271.53 23.35 273.37 23.34C274.59 23.33 275.82 23.3 277.05 23.28C277.23 23.28 277.42 23.3 277.61 23.31C277.61 23.34 277.62 23.36 277.62 23.39C276.27 23.44 274.92 23.49 273.57 23.53C273.56 23.55 273.56 23.56 273.55 23.57C275.31 23.57 277.07 23.57 278.97 23.57C278.59 23.49 278.31 23.42 277.93 23.34C281.91 23.29 285.73 23.26 289.56 23.34C289.56 23.38 289.56 23.43 289.57 23.47C287.89 23.47 286.22 23.47 284.55 23.47C284.55 23.5 284.56 23.52 284.56 23.54C286.76 23.54 288.96 23.54 291.19 23.54C291.21 23.43 291.22 23.36 291.25 23.2C293.87 23.2 296.46 23.2 299.04 23.2C299.04 23.19 299.04 23.17 299.04 23.15C297.54 23.15 296.05 23.15 294.55 23.14C294.16 23.14 293.61 23.24 293.42 23.01C293.41 22.99 292.88 23.02 292.62 23.05C292.18 23.09 291.78 23.16 291.35 23.22C291.32 23.19 291.29 23.16 291.25 23.13C291.45 23.11 291.65 23.09 291.96 23.05C291.02 23.02 290.2 22.99 289.39 22.97C289.39 22.95 289.38 22.93 289.38 22.91C290.27 22.91 291.16 22.91 292.04 22.91C292.05 22.87 292.05 22.84 292.06 22.8C291.27 22.78 290.49 22.76 289.7 22.74C289.7 22.73 289.7 22.71 289.7 22.69C290.62 22.69 291.55 22.69 292.47 22.7C292.54 22.7 292.6 22.82 292.72 22.93C292.95 22.88 293.23 22.81 293.51 22.74C293.6 22.72 293.73 22.7 293.83 22.71C294.84 22.76 295.83 22.73 296.83 22.67C297.57 22.63 298.35 22.68 299.11 22.68C299.4 22.68 299.67 22.66 299.96 22.65C299.95 22.62 299.95 22.6 299.94 22.57C296.45 22.57 292.96 22.57 289.48 22.57C289.48 22.53 289.48 22.48 289.47 22.44C292.49 22.44 295.5 22.44 298.52 22.44C298.53 22.39 298.53 22.35 298.54 22.3C297.48 22.27 296.42 22.24 295.36 22.21C295.35 22.22 295.34 22.24 295.32 22.25C295.42 22.27 295.52 22.29 295.71 22.32C295.32 22.35 294.99 22.37 294.54 22.39C294.69 22.29 294.77 22.24 294.85 22.18C294.22 22.18 293.63 22.18 293.05 22.18C293.05 22.16 293.05 22.14 293.05 22.11C293.43 22.11 293.86 22.14 294.2 22.1C294.62 22.05 294.96 21.94 295.4 21.84C295.45 21.86 295.55 21.91 295.66 21.95C295.49 21.97 295.33 21.99 295.17 22C295.18 22.02 295.19 22.04 295.2 22.05C295.8 22.05 296.41 22.05 297.01 22.05C297.01 22.04 297.02 22.02 297.02 22C296.72 22 296.41 21.99 296.1 21.98C296.99 21.75 298.08 21.66 299.06 21.68C300.51 21.7 301.92 21.51 303.4 21.66C303.94 21.71 304.66 21.57 305.29 21.52C305.28 21.5 305.28 21.47 305.27 21.44C304.97 21.44 304.67 21.44 304.37 21.44C304.37 21.41 304.36 21.38 304.36 21.35C305.32 21.33 306.3 21.31 307.27 21.29C307.28 21.32 307.3 21.35 307.31 21.38C306.76 21.41 306.22 21.45 305.68 21.48C306.45 21.51 307.25 21.62 307.82 21.33C307.93 21.28 308.38 21.29 308.69 21.29C309.39 21.28 310.1 21.29 310.81 21.29C310.81 21.32 310.81 21.36 310.81 21.4C309.84 21.4 308.87 21.4 307.91 21.4C307.91 21.44 307.91 21.47 307.9 21.51C308.63 21.51 309.35 21.51 310.08 21.51C312.2 21.52 314.32 21.54 316.44 21.55C317.22 21.55 316.8 21.7 316.68 21.87C317.23 21.89 317.73 21.91 318.23 21.93C318.24 21.9 318.26 21.87 318.27 21.83C317.88 21.82 317.48 21.8 316.99 21.78C318.32 21.52 318.64 21.51 319.75 21.63C320.34 21.61 320.94 21.59 321.53 21.55C321.86 21.53 322.17 21.48 322.5 21.45L322.52 21.45C321.74 21.45 320.96 21.45 320.18 21.45C320.18 21.4 320.18 21.36 320.18 21.32C320.96 21.32 321.73 21.32 322.51 21.32C322.51 21.29 322.51 21.27 322.51 21.25C321.31 21.19 320.1 21.13 318.9 21.07C318.56 21.08 318.19 21.13 317.87 21.11C317.4 21.08 316.96 21.01 316.51 20.95C316.36 21.02 316.22 21.08 316 21.17C315.36 21.17 314.58 21.17 313.8 21.17C313.8 21.15 313.79 21.13 313.79 21.12C314.38 21.12 314.96 21.12 315.54 21.12C315.56 21.08 315.58 21.05 315.6 21.02C315.35 20.99 315.1 20.96 314.92 20.93C315.17 20.87 315.47 20.81 315.76 20.76C315.72 20.73 315.67 20.69 315.63 20.67C314.72 20.73 313.8 20.79 312.9 20.85C312.88 20.83 312.87 20.8 312.85 20.78C313.21 20.76 313.57 20.74 313.93 20.72C313.94 20.71 313.94 20.7 313.95 20.69C312.97 20.59 311.98 20.49 310.94 20.39C310.99 20.44 311.03 20.48 311.15 20.62C310.61 20.54 310.21 20.48 309.85 20.43C309.7 20.62 309.43 20.63 308.78 20.5C308.5 20.44 308 20.49 307.63 20.53C307 20.59 306.45 20.53 305.85 20.48C305.38 20.44 304.81 20.45 304.36 20.5C303.99 20.54 303.72 20.69 303.74 20.42C303.36 20.43 302.76 20.39 302.64 20.45C302.14 20.72 302.01 20.53 301.81 20.41C301.53 20.47 301.24 20.53 300.76 20.63C300.83 20.5 300.86 20.44 300.9 20.38C300.7 20.36 300.5 20.34 300.23 20.31C300.46 20.27 300.62 20.24 300.91 20.19C300.71 20.12 300.58 20.08 300.47 20.04C300.6 20.03 300.8 20.02 301.01 20.01C301.01 19.99 301.01 19.98 301.01 19.96C300.4 19.96 299.8 19.96 299.19 19.96C302.57 19.63 305.99 19.69 309.43 19.9C309.44 19.86 309.45 19.81 309.46 19.76C308.84 19.74 308.24 19.72 307.63 19.7C307.62 19.68 307.62 19.67 307.61 19.65C308.02 19.64 308.43 19.61 308.82 19.63C310.24 19.7 311.66 19.8 313.08 19.88C313.6 19.91 314.12 19.93 314.63 19.96L314.6 19.96C315.09 19.99 315.57 20.02 316.05 20.05C316.07 20.03 316.1 20.01 316.12 19.99C315.52 19.89 314.91 19.69 314.32 19.7C313.73 19.7 313.19 19.73 312.64 19.66C312.44 19.64 312.26 19.6 311.92 19.54C313.88 19.54 315.62 19.54 317.35 19.54C317.87 19.53 318.39 19.47 318.89 19.49C320.7 19.55 322.49 19.63 324.29 19.71C324.45 19.71 324.74 19.72 324.75 19.71C325.07 19.31 326.14 19.54 326.91 19.36C326.5 19.72 326.97 19.81 327.76 19.85C328.49 19.88 329.22 19.95 329.96 20C329.94 20.04 329.93 20.07 329.91 20.1C328.82 20.05 327.72 19.99 326.62 19.93C326.61 19.96 326.59 19.98 326.58 20C327.86 20.1 329.16 20.2 330.35 20.28C330.7 20.16 329.56 20.07 330.8 19.98C329.7 19.88 328.9 19.81 328.09 19.74C328.09 19.72 328.08 19.71 328.08 19.69C328.27 19.68 328.47 19.66 328.65 19.65C328.76 19.65 328.97 19.68 328.98 19.68C329.23 19.39 329.89 19.58 330.3 19.57C331.1 19.55 331.91 19.6 332.63 19.33C332.38 19.35 332.13 19.37 332.11 19.36C331.66 19.05 331.06 19.23 330.49 19.29C330.33 19.31 330.16 19.33 330 19.32C329.14 19.29 328.28 19.24 327.41 19.22C327.04 19.21 326.66 19.26 326.29 19.26C325.89 19.25 325.5 19.22 325.1 19.19C325.11 19.16 325.12 19.13 325.13 19.1C325.66 19.1 326.18 19.1 326.69 19.1C326.69 19.09 326.7 19.07 326.7 19.06C325.38 18.92 324.07 18.78 322.75 18.66C322.27 18.62 321.76 18.61 321.27 18.54C322 18.51 322.74 18.49 323.47 18.47C323.47 18.46 323.48 18.45 323.48 18.44C322.74 18.4 322 18.37 321.25 18.34C321.35 18.19 321.48 18.09 322.04 18.16C322.29 18.19 322.81 18.2 322.9 18.15C323.46 17.87 324.24 17.99 324.94 18C325.27 18 325.6 18.08 326.16 18.17C325.36 18.17 324.82 18.17 324.28 18.17C324.28 18.18 324.27 18.19 324.27 18.2C324.81 18.24 325.35 18.29 325.88 18.33C325.87 18.36 325.86 18.39 325.84 18.42C325.41 18.4 324.97 18.38 324.54 18.36C324.53 18.4 324.52 18.43 324.52 18.47C325.76 18.49 327.01 18.51 328.26 18.53C328.26 18.51 328.27 18.5 328.27 18.48C327.63 18.46 327 18.43 326.35 18.4C326.35 18.37 326.35 18.35 326.35 18.32C327.07 18.34 327.79 18.36 328.51 18.38C328.72 18.39 328.93 18.39 329.14 18.38C329.33 18.38 329.52 18.35 329.71 18.36C330.21 18.37 330.71 18.39 331.21 18.42C331.51 18.44 331.8 18.51 332.12 18.55C332.26 18.48 332.4 18.4 332.66 18.27C332.22 18.17 331.7 18.05 331.11 17.91C331.38 17.94 331.6 17.96 331.94 17.99C331.82 17.89 331.75 17.84 331.65 17.75C331.95 17.8 332.17 17.85 332.4 17.88C332.44 17.87 332.49 17.85 332.53 17.84C332.28 17.75 332.02 17.65 331.78 17.56C331.89 17.53 332.04 17.48 332.1 17.46C331.62 17.42 331.14 17.37 330.64 17.34C330.16 17.32 329.67 17.31 329.12 17.3C329.2 17.23 329.27 17.17 329.35 17.11C328.75 17.05 328.17 17 327.59 16.94C327.61 16.92 327.63 16.89 327.65 16.86C327.97 16.89 328.29 16.94 328.61 16.94C329.05 16.94 329.47 16.9 329.9 16.89C330.28 16.89 330.65 16.92 331.17 16.94C330.93 16.89 330.78 16.86 330.63 16.83C330.65 16.8 330.66 16.77 330.68 16.75C331.21 16.77 331.73 16.8 332.25 16.82C331.97 16.67 331.72 16.55 331.48 16.42C331.54 16.4 331.6 16.39 331.66 16.38C331.21 16.36 330.75 16.33 330.27 16.31C330.65 16.22 331 16.1 331.41 16.06C331.91 16.01 332.47 16.03 333.15 16.02C332.87 15.97 332.7 15.94 332.43 15.89C332.72 15.84 332.92 15.82 333.14 15.79C332.59 15.68 332.05 15.57 331.52 15.46C331.11 15.43 330.69 15.4 330.29 15.37C330.66 15.29 330.97 15.23 331.31 15.16C331.32 15.17 331.42 15.22 331.46 15.24C332.13 15.07 332.26 15.4 332.71 15.41C332.48 15.43 332.19 15.45 331.91 15.46ZM305.63 18.36C305.96 18.34 306.34 18.35 306.59 18.29C307.2 18.14 308.42 18.18 308.96 18.41C308.13 18.44 307.32 18.4 306.48 18.44C304.94 18.52 303.37 18.51 301.81 18.55C301.8 18.52 301.8 18.49 301.79 18.46C302.41 18.44 303.03 18.43 303.64 18.41C304.31 18.39 304.98 18.37 305.65 18.35C304.87 18.35 304.1 18.35 303.32 18.35C303.32 18.31 303.33 18.27 303.33 18.23C304.29 18.23 305.26 18.23 306.4 18.23C306.04 18.29 305.84 18.32 305.63 18.36ZM162.53 1.21C162.75 0.94 163.31 1.09 163.73 1.1C164.05 1.11 164.42 1.21 164.66 1.18C165.71 1.04 166.45 1.31 167.36 1.37C166.44 1.41 165.54 1.42 164.64 1.41C164.02 1.4 163.41 1.38 162.8 1.35C162.69 1.35 162.62 1.26 162.53 1.21C162.24 1.21 161.93 1.22 161.64 1.22C160.95 1.21 160.25 1.19 159.56 1.19C159.34 1.18 159.12 1.19 158.92 1.2C158.92 1.17 158.91 1.14 158.91 1.11C160.03 1.07 161.15 1.02 162.28 0.97C162.29 1 162.3 1.02 162.31 1.04C162.19 1.08 162.08 1.12 161.91 1.17C162.14 1.19 162.34 1.2 162.53 1.21ZM319.79 17.38C319.56 17.41 319.24 17.41 319.14 17.46C318.82 17.63 318.17 17.65 317.7 17.5C317.81 17.49 317.93 17.48 318.08 17.45C317.12 17.43 316.22 17.41 315.32 17.39C315.33 17.37 315.33 17.35 315.34 17.33C315.69 17.27 316.04 17.22 316.54 17.14C316.08 17.06 315.85 17.03 315.53 16.98C316.55 16.9 316.53 16.91 316.87 17.21C316.94 17.27 317.24 17.3 317.45 17.34C317.46 17.34 317.52 17.32 317.56 17.31C317.46 17.26 317.36 17.21 317.14 17.11C318.11 17.11 318.91 17.11 319.72 17.11C319.72 17.13 319.73 17.15 319.73 17.17C319.1 17.19 318.47 17.21 317.85 17.23C317.85 17.26 317.86 17.28 317.86 17.31C318.51 17.31 319.15 17.31 319.8 17.31C320.03 17.28 320.26 17.25 320.48 17.22C320.4 17.17 320.33 17.12 320.18 17.03C321.01 17.02 321.49 17.23 322.33 17.18C323.41 17.12 324.61 17.3 325.75 17.38C325.91 17.39 326.04 17.46 326.18 17.51C326.15 17.53 326.12 17.54 326.08 17.56C324.91 17.49 323.73 17.42 322.41 17.34C322.75 17.44 322.95 17.5 323.15 17.56C322.62 17.72 322.09 17.74 321.39 17.56C321.86 17.55 322.17 17.55 322.49 17.54C322.5 17.51 322.5 17.48 322.51 17.46C322.24 17.44 321.97 17.41 321.71 17.42C321.17 17.46 320.65 17.52 320.11 17.57C320.09 17.55 320.07 17.53 320.05 17.51C320.13 17.49 320.22 17.48 320.33 17.46C320.14 17.43 319.97 17.41 319.79 17.38ZM331.11 4.89C330.5 4.87 329.89 4.84 329.27 4.81C329.26 4.83 329.26 4.84 329.25 4.85C329.65 4.89 330.04 4.93 330.44 4.96C330.44 4.98 330.44 5 330.44 5.01C330.1 5.04 329.76 5.06 329.42 5.09C329.42 5.1 329.42 5.12 329.43 5.13C330.31 5.17 331.19 5.21 332.06 5.24C332.05 5.26 332.04 5.28 332.04 5.3C331.75 5.33 331.46 5.35 330.96 5.39C331.37 5.43 331.57 5.45 331.77 5.48C331.76 5.49 331.75 5.5 331.74 5.51C330.6 5.48 329.46 5.44 328.33 5.41C328.33 5.39 328.33 5.38 328.34 5.37C328.84 5.36 329.33 5.34 330.09 5.33C328.95 5.1 328.06 4.89 326.88 5.02C327.61 4.9 328.32 4.79 329.03 4.68C329.44 4.63 330.85 4.78 331.11 4.89C331.74 4.64 332.29 4.96 332.88 4.92C332.85 4.96 332.83 5.01 332.82 5.03C332.51 5 332.27 4.98 332.02 4.96C332 4.98 331.98 5.01 331.95 5.04C332.26 5.07 332.58 5.11 332.89 5.15C332.88 5.17 332.86 5.19 332.85 5.21C332.11 5.17 331.37 5.12 330.63 5.08C330.63 5.06 330.63 5.04 330.63 5.01C330.95 5.01 331.27 5 331.58 4.99C331.59 4.97 331.59 4.95 331.6 4.94C331.43 4.92 331.27 4.91 331.11 4.89ZM322.98 7.5C323.31 7.53 323.64 7.56 323.94 7.59C323.83 7.53 323.72 7.46 323.62 7.41C324.26 7.45 324.78 7.48 325.31 7.52C325.33 7.49 325.35 7.46 325.37 7.43C324.79 7.36 324.21 7.29 323.6 7.22C324.34 7.22 325 7.19 325.62 7.23C326.16 7.27 326.65 7.39 327.17 7.47C327.14 7.49 327.11 7.51 327.08 7.54C326.64 7.51 326.19 7.47 325.6 7.42C326.06 7.83 326.89 7.57 327.47 7.67C325.97 7.76 324.52 8.02 322.94 7.77C322.96 7.67 322.98 7.57 323 7.48C322.56 7.48 322.12 7.48 321.67 7.48C321.67 7.5 321.67 7.52 321.67 7.54C321.87 7.55 322.07 7.57 322.26 7.59C320.81 7.78 320.17 7.21 318.85 7.27C318.87 7.24 318.89 7.21 318.92 7.18C319.39 7.2 319.87 7.22 320.42 7.24C320.04 7.02 320.41 7 320.8 7.02C321.45 7.03 322.09 7.06 322.73 7.08C322.91 7.09 323.1 7.12 323.28 7.13C323.27 7.15 323.26 7.17 323.25 7.18C322.74 7.2 322.21 7.21 321.6 7.23C322.15 7.34 322.57 7.42 322.98 7.5ZM319.65 3.4C319.64 3.46 319.63 3.52 319.62 3.58C319.51 3.57 319.34 3.58 319.32 3.56C319.02 3.26 318.32 3.28 317.61 3.28C317.33 3.28 317.07 3.27 316.79 3.26C316.55 3.26 316.33 3.26 316.09 3.26C317.35 3.13 318.57 3.12 319.66 3.41C320.08 3.39 320.51 3.34 320.93 3.35C322.01 3.37 323.08 3.42 324.16 3.46C324.17 3.44 324.17 3.43 324.18 3.41C322.91 3.34 321.65 3.27 320.2 3.19C320.54 3.15 320.77 3.1 321 3.1C322.42 3.14 323.84 3.18 325.26 3.23C325.44 3.23 325.6 3.27 325.78 3.3C325.71 3.32 325.65 3.35 325.58 3.37C325.24 3.4 324.91 3.43 324.56 3.46C324.56 3.47 324.57 3.48 324.57 3.5C324.86 3.51 325.14 3.53 325.44 3.55C325.45 3.57 325.45 3.59 325.46 3.62C325.24 3.63 325.01 3.67 324.81 3.66C323.09 3.58 321.38 3.49 319.65 3.4ZM305.79 4.13C303.92 4.13 302.07 4.13 300.21 4.13C300.21 4.1 300.2 4.08 300.2 4.05C300.86 4.02 301.53 3.97 302.19 3.97C303.02 3.97 303.85 3.99 304.66 4.03C305.05 4.04 305.41 4.1 305.79 4.14C306.14 4.06 306.5 3.99 306.92 3.9C304.26 3.9 301.64 3.9 299.03 3.9C299 3.8 298.97 3.7 298.93 3.54C300.47 3.64 302.11 3.4 303.5 3.62C304.14 3.6 304.63 3.59 305.14 3.58C305.15 3.6 305.16 3.62 305.16 3.64C304.96 3.67 304.76 3.69 304.57 3.72C306.38 3.64 307.93 4.17 309.75 3.96C309.07 3.94 308.39 3.92 307.7 3.9C307.71 3.85 307.73 3.79 307.74 3.74C309.63 3.79 311.53 3.83 313.42 3.88C313.42 3.9 313.41 3.92 313.41 3.95C313.14 3.96 312.88 3.97 312.62 3.98C312.61 4.02 312.6 4.05 312.59 4.08C313.14 4.1 313.7 4.12 314.25 4.14C314.25 4.16 314.24 4.18 314.24 4.2C313.76 4.2 313.29 4.2 312.83 4.2C312.82 4.23 312.82 4.26 312.81 4.29C314.22 4.33 315.62 4.36 317.03 4.4C317.03 4.43 317.02 4.45 317.02 4.47C316.78 4.48 316.54 4.5 316.31 4.49C316.09 4.49 315.87 4.46 315.66 4.44C315.65 4.45 315.63 4.46 315.62 4.48C315.84 4.53 316.08 4.58 316.35 4.64C316.03 4.72 315.79 4.78 315.72 4.8C315.37 4.73 315.15 4.68 314.92 4.65C314.17 4.55 313.38 4.64 312.62 4.61C312.23 4.59 311.82 4.56 311.4 4.53C311.22 4.56 310.92 4.62 310.53 4.69C310.57 4.58 310.58 4.55 310.58 4.54C310.21 4.57 309.87 4.64 309.58 4.62C309.26 4.6 308.97 4.49 308.68 4.43C308.64 4.45 308.61 4.46 308.57 4.48C308.68 4.53 308.79 4.58 308.89 4.62C307.8 4.58 306.75 4.53 305.71 4.48C305.74 4.35 305.77 4.24 305.79 4.13ZM312.01 17.86C312.45 17.92 312.44 17.92 312.53 18.12C312.55 18.16 312.68 18.2 312.79 18.22C312.84 18.23 312.98 18.2 313.03 18.18C313.39 18.07 314.71 18.02 315.17 18.06C315.59 18.1 316.05 18.08 316.49 18.09C316.49 18.07 316.49 18.04 316.5 18.02C316.38 18.01 316.25 17.99 315.92 17.96C317.79 18.01 319.44 18.05 321.09 18.1C321.13 18.12 321.16 18.14 321.2 18.17C320.82 18.23 320.45 18.29 320.01 18.36C320.27 18.41 320.5 18.46 320.77 18.51C320.26 18.54 319.86 18.56 319.27 18.59C319.62 18.69 319.8 18.73 320 18.78C318.86 19.07 311.75 19.12 309.04 18.86C309.41 18.81 309.72 18.76 310.05 18.71C309.95 18.55 309.42 18.29 308.92 18.2C309.31 18.21 309.54 18.21 309.79 18.22C309.83 18.19 309.87 18.16 309.92 18.13C309.55 18.06 309.19 17.98 308.94 17.93C309.33 17.86 309.72 17.79 310.12 17.72C310.11 17.7 310.1 17.67 310.08 17.65C308.18 17.62 306.3 17.59 304.41 17.56C304.4 17.59 304.38 17.62 304.37 17.65C305.72 17.7 307.06 17.74 308.41 17.79C308.41 17.81 308.4 17.84 308.4 17.86C306.56 17.83 304.71 17.8 302.88 17.77C302.88 17.74 302.89 17.71 302.89 17.69C303.66 17.69 303.65 17.69 304.2 17.48C304.28 17.45 304.44 17.43 304.56 17.43C305.71 17.45 306.85 17.47 308.01 17.49C309.71 17.51 311.42 17.53 313.12 17.56C313.25 17.56 313.37 17.61 313.5 17.63C313.48 17.66 313.47 17.69 313.45 17.72C312.91 17.71 312.36 17.69 311.83 17.7C311.29 17.7 310.67 17.66 310.19 17.85C311.5 17.99 311.89 18.16 311.64 18.47C311.92 18.47 312.2 18.47 312.33 18.47C312.25 18.38 312.14 18.29 312.09 18.19C312.02 18.08 312.03 17.97 312.01 17.86ZM86.94 1.33C86.31 1.34 85.76 1.35 85.21 1.36C84.16 1.39 83.11 1.41 82.06 1.44C81.6 1.45 81.08 1.55 80.72 1.5C79.94 1.39 79.18 1.43 78.4 1.43C77.41 1.44 76.43 1.44 75.43 1.44C75.85 1.3 76.36 1.17 76.92 1.14C77.73 1.1 78.59 1.17 79.4 1.13C81.17 1.04 82.93 1.24 84.69 1.14C84.9 1.13 85.12 1.22 85.36 1.24C85.57 1.25 85.8 1.25 86.01 1.24C86.46 1.22 86.91 1.18 87.35 1.19C87.85 1.19 88.36 1.27 88.82 1.25C89.5 1.2 89.9 1.29 90.31 1.48C89.15 1.48 88.07 1.48 86.95 1.48C86.94 1.47 86.94 1.41 86.94 1.33ZM318.95 4.29C320.35 4.66 320.67 4.65 322.26 4.31C322.51 4.26 323.01 4.24 323.2 4.29C323.63 4.41 324.08 4.45 324.62 4.41C324.6 4.5 324.58 4.56 324.58 4.55C325.21 4.57 325.76 4.58 326.32 4.59C326.32 4.61 326.32 4.63 326.32 4.66C326.1 4.7 325.86 4.75 325.54 4.81C325.9 4.82 326.15 4.83 326.4 4.84C325.5 4.9 324.59 4.92 323.68 4.95C322.09 5.01 320.65 4.62 319.02 4.76C319 4.76 318.97 4.73 318.9 4.7C319.08 4.67 319.25 4.63 319.53 4.58C319.2 4.56 318.97 4.55 318.75 4.53C318.83 4.44 318.89 4.36 318.95 4.29ZM115.73 24.08C115.74 24.12 115.74 24.16 115.75 24.19C115.24 24.19 114.72 24.19 114.21 24.19C113.15 24.21 112.08 24.23 111.02 24.24C109.75 24.26 108.47 24.28 107.2 24.29C105.34 24.3 103.47 24.29 101.61 24.31C100.69 24.33 99.28 24.25 98.75 24.07C100.39 24.07 101.96 24.06 103.52 24.08C104.66 24.09 105.78 24.17 106.91 24.18C108.32 24.19 109.72 24.14 111.13 24.13C112.09 24.12 113.06 24.12 114.02 24.12C114.59 24.12 115.16 24.1 115.73 24.08ZM152.66 1.24C153.52 0.79 153.84 0.75 155.06 0.86C155.18 0.87 155.33 0.87 155.45 0.86C156.66 0.74 157.79 0.87 158.88 0.95C158.5 1.33 157.72 1.25 156.91 1.19C156.29 1.14 155.64 1.1 155.01 1.11C154.31 1.12 153.6 1.19 152.66 1.24ZM333.25 5.36C333.87 5.5 334.4 5.62 334.94 5.74C334.97 5.72 335.01 5.7 335.04 5.67C334.96 5.61 334.89 5.54 334.81 5.48C334.85 5.45 334.9 5.43 334.94 5.4C335.59 5.47 336.24 5.54 337.1 5.63C336.65 5.66 336.41 5.69 336.29 5.7C336.67 5.82 337.05 5.95 337.48 6.09C337.08 6.18 336.97 6.4 336.18 6.2C335.72 6.09 334.95 6.11 334.8 5.84C334.8 5.84 334.75 5.83 334.72 5.83C334.11 5.8 333.49 5.76 332.89 5.72C333.02 5.59 333.12 5.49 333.25 5.36ZM268.82 1.35C268.82 1.37 268.82 1.38 268.82 1.4C267.42 1.43 266.02 1.49 264.61 1.49C263.25 1.49 261.9 1.43 260.54 1.4C260.54 1.39 260.53 1.38 260.53 1.37C261.74 1.35 262.96 1.32 264.3 1.29C263.95 1.21 263.73 1.16 263.5 1.1C263.52 1.08 263.53 1.06 263.55 1.03C265.1 1.03 266.64 1.03 268.19 1.03C268.19 1.06 268.2 1.08 268.2 1.11C267.38 1.11 266.56 1.11 265.74 1.11C265.73 1.14 265.72 1.17 265.71 1.21C266.75 1.25 267.79 1.3 268.82 1.35ZM271.16 1.17C271.17 1.19 271.19 1.21 271.2 1.23C272.38 1.23 273.57 1.23 274.75 1.23C274.67 1.33 274.51 1.41 274.33 1.42C273.35 1.45 272.35 1.47 271.36 1.49C270.78 1.49 270.27 1.28 270.42 1.07C270.58 0.86 270.98 1.02 271.3 1.02C271.51 1.03 271.74 1 271.96 1C272.92 0.99 273.89 0.97 274.87 0.97C274.99 0.97 275.1 1.01 275.22 1.03C275.22 1.04 275.21 1.06 275.21 1.08C273.86 1.11 272.51 1.14 271.16 1.17ZM86.13 23.14C86.13 23.17 86.13 23.2 86.13 23.22C82.53 23.22 78.93 23.22 75.33 23.22C78.92 23.02 82.52 23.09 86.13 23.14ZM291.91 16.1C291.11 16.14 290.31 16.18 289.46 16.22C289.62 16.27 289.74 16.3 289.87 16.34C289.07 16.48 286.46 16.41 286.14 16.25C287.99 15.89 289.98 16.11 291.91 16.1ZM131.95 23.92C131.93 23.96 131.91 23.99 131.89 24.03C129.2 24 126.51 23.97 123.82 23.94C123.82 23.91 123.82 23.88 123.82 23.85C123.93 23.84 124.04 23.83 124.15 23.83C126.15 23.82 128.15 23.8 130.14 23.8C130.75 23.81 131.35 23.88 131.95 23.92ZM310.05 6.32C310.04 6.29 310.02 6.26 310.01 6.24C309.72 6.22 309.43 6.21 309.14 6.19C310.76 5.97 312.26 5.98 312.59 6.16C312.26 6.18 311.91 6.2 311.57 6.22C311.57 6.24 311.59 6.26 311.6 6.28C311.9 6.3 312.2 6.31 312.5 6.33C312.49 6.36 312.48 6.38 312.48 6.41C311.28 6.43 310.07 6.45 308.86 6.47C308.85 6.44 308.85 6.42 308.84 6.39C309.25 6.36 309.64 6.34 310.05 6.32ZM185.07 1C185.92 1 186.67 1 187.43 1C187.44 1.03 187.45 1.06 187.45 1.09C187.12 1.12 186.78 1.16 186.44 1.17C185.55 1.19 184.64 1.2 183.74 1.19C183.62 1.19 183.45 1.05 183.44 0.98C183.44 0.92 183.67 0.81 183.78 0.81C184.32 0.83 184.87 0.88 185.52 0.92C185.31 0.96 185.23 0.97 185.07 1ZM165.83 1.77C164.07 1.82 162.3 1.94 160.7 1.55C162.45 1.48 164.1 1.73 165.83 1.77ZM328.12 5.58C328.55 5.59 329.1 5.66 329.39 5.6C330.23 5.42 330.87 5.62 331.57 5.68C331.96 5.71 332.3 5.79 332.64 5.85C331.45 6.03 330.16 5.99 328.12 5.58ZM168.49 1.53C168.49 1.52 168.49 1.51 168.49 1.5C171.08 1.5 173.68 1.5 176.28 1.5C176.12 1.61 176.03 1.67 175.93 1.74C173.5 1.68 170.99 1.6 168.49 1.53ZM318.8 21.32C318.79 21.35 318.79 21.38 318.78 21.41C316.23 21.41 313.68 21.41 311.12 21.41C311.12 21.38 311.12 21.35 311.12 21.32C313.69 21.32 316.25 21.32 318.8 21.32ZM296.71 20.4C296.7 20.35 296.68 20.3 296.67 20.25C297.85 20.45 298.77 20.13 299.85 20.14C299.92 20.14 299.98 20.18 300.04 20.2C300.09 20.21 300.14 20.23 300.19 20.26C300.04 20.29 299.92 20.32 299.7 20.37C299.97 20.42 300.18 20.45 300.38 20.49C300.32 20.53 300.26 20.56 300.2 20.6C299.03 20.53 297.87 20.46 296.71 20.4ZM339.36 6.25C339.79 6.34 340.21 6.43 340.63 6.53C340.62 6.55 340.61 6.57 340.6 6.59C339.73 6.58 338.86 6.56 337.98 6.54C337.99 6.51 337.99 6.49 338 6.46C338.24 6.41 338.47 6.36 338.78 6.3C338.47 6.25 338.28 6.22 337.86 6.15C338.65 6.11 339.22 5.92 339.62 6.22C339.53 6.23 339.43 6.24 339.36 6.25ZM334.64 9.94C334.64 9.91 334.64 9.9 334.65 9.87C335.3 9.9 335.95 9.93 336.6 9.96C337.17 9.98 337.65 10.05 337.65 10.28C337.65 10.39 337.4 10.5 337.26 10.61C337.01 10.27 336.41 10.27 335.67 10.3C335.36 10.31 335 10.24 334.68 10.21C334.69 10.19 334.7 10.17 334.71 10.15C335.55 10.18 336.4 10.19 337.25 10.22C337.26 10.19 337.28 10.16 337.29 10.13C336.4 10.07 335.52 10 334.64 9.94ZM12.39 16.28C12.4 16.25 12.4 16.22 12.41 16.2C14.73 16.25 17.03 16.3 19.35 16.35C19.34 16.39 19.33 16.43 19.32 16.47C17 16.4 14.7 16.34 12.39 16.28ZM275.8 1.63C275.8 1.66 275.8 1.68 275.79 1.71C274.16 1.71 272.52 1.71 270.88 1.71C272.51 1.54 274.15 1.51 275.8 1.63ZM230.91 23.95C230.92 23.93 230.93 23.91 230.94 23.89C232.27 23.89 233.6 23.9 234.94 23.89C235.58 23.88 235.73 23.99 235.89 24.12C234.2 24.06 232.56 24.01 230.91 23.95ZM218.53 24.2C217.15 24.25 215.76 24.29 214.38 24.34C214.37 24.3 214.36 24.25 214.34 24.21C215.74 24.15 217.14 24.09 218.53 24.04C218.53 24.15 218.53 24.2 218.53 24.2ZM196.97 24.12C196.5 24.22 196.26 24.27 196.01 24.33C196.02 24.34 196.04 24.35 196.05 24.37C196.27 24.35 196.5 24.33 196.73 24.31C196.89 24.39 197.03 24.46 197.3 24.59C196.44 24.52 195.78 24.46 195.27 24.42C195.13 24.31 195.04 24.23 194.91 24.12C195.54 24.12 196.15 24.12 196.97 24.12ZM194.65 24.14C194.14 24.43 192.93 24.49 192.07 24.34C192.43 24.32 192.7 24.3 192.96 24.28C192.96 24.27 192.95 24.26 192.95 24.24C192.74 24.24 192.51 24.23 192.29 24.23C192.29 24.2 192.3 24.17 192.3 24.14C193.01 24.14 193.73 24.14 194.65 24.14ZM310.17 2.72C310.16 2.69 310.16 2.66 310.15 2.64C311.48 2.64 312.81 2.64 314.14 2.64C314.14 2.66 314.14 2.69 314.14 2.72C312.82 2.72 311.49 2.72 310.17 2.72ZM105.45 23.85C104.36 23.79 103.39 23.75 102.51 23.7C103.88 23.7 105.35 23.7 106.81 23.7C106.81 23.73 106.81 23.75 106.8 23.77C106.3 23.8 105.79 23.83 105.45 23.85ZM318.62 6.67C317.84 6.73 317.31 6.77 316.78 6.81C316.99 6.73 317.24 6.71 317.46 6.66C317.64 6.63 317.78 6.56 318.03 6.47C317.35 6.45 316.77 6.43 316.19 6.42C316.2 6.39 316.2 6.36 316.21 6.33C317.06 6.35 317.91 6.37 318.96 6.39C318.59 6.47 318.38 6.51 318.12 6.56C318.27 6.59 318.38 6.62 318.62 6.67ZM292.98 3.91C292.46 3.87 292.17 3.87 291.91 3.84C291.72 3.81 291.57 3.76 291.4 3.72C291.61 3.7 291.83 3.67 292.03 3.67C292.34 3.68 292.64 3.72 292.94 3.75C292.95 3.73 292.96 3.71 292.98 3.69C292.87 3.67 292.76 3.65 292.65 3.63C292.69 3.61 292.74 3.58 292.78 3.56C293.15 3.64 293.51 3.72 293.89 3.8C293.44 3.85 293.1 3.9 292.98 3.91ZM36.27 2.56C36.26 2.59 36.25 2.62 36.24 2.66C35.15 2.6 34.01 2.69 32.93 2.59C32.94 2.55 32.95 2.51 32.96 2.47C34.06 2.5 35.16 2.53 36.27 2.56ZM238.11 24.08C238.1 24.06 238.09 24.04 238.08 24.01C239.7 24.01 241.32 24.01 242.94 24.01C242.94 24.04 242.94 24.06 242.94 24.08C241.33 24.08 239.73 24.08 238.11 24.08ZM335.89 6.77C336.27 6.86 336.79 6.97 337.23 7.07C336.89 7.12 336.71 7.18 336.51 7.18C336.25 7.19 335.97 7.16 335.72 7.13C335.63 7.13 335.52 7.05 335.55 7.02C335.6 6.95 335.73 6.88 335.89 6.77ZM327.81 5.41C326.88 5.37 325.83 5.32 324.69 5.27C326.04 5.07 327.12 5.14 327.81 5.41ZM338.43 11.07C337.77 11.15 337.18 11.22 336.59 11.3C336.57 11.28 336.55 11.27 336.53 11.25C336.65 11.22 336.77 11.19 336.87 11.16C336.68 11.07 336.51 10.98 336.31 10.88C336.98 10.94 337.59 11 338.43 11.07ZM97.71 23.31C97.71 23.33 97.71 23.35 97.71 23.37C96.5 23.37 95.29 23.37 94.09 23.37C94.09 23.35 94.09 23.33 94.09 23.31C95.29 23.31 96.5 23.31 97.71 23.31ZM301.42 15.32C301.43 15.28 301.44 15.24 301.45 15.21C303.03 15.24 304.61 15.27 306.19 15.3C306.19 15.3 306.19 15.31 306.18 15.32C304.6 15.32 303.01 15.32 301.42 15.32ZM302.61 4.28C303.54 4.28 304.37 4.28 305.22 4.28C304.84 4.5 303.57 4.5 302.61 4.28ZM214.57 24.07C214.19 24.3 213.73 24.37 213.1 24.3C212.96 24.28 212.83 24.22 212.78 24.17C212.76 24.15 212.96 24.08 213.07 24.07C213.54 24.06 214.01 24.07 214.57 24.07ZM70.69 23.1C71.99 23.1 73.06 23.1 74.12 23.1C74.11 23.14 74.1 23.17 74.09 23.2C73.01 23.19 71.89 23.29 70.69 23.1ZM324.6 18.87C324.59 18.91 324.58 18.95 324.56 18.99C323.46 18.95 322.36 18.9 321.26 18.86C321.27 18.83 321.28 18.8 321.29 18.77C322.39 18.8 323.5 18.84 324.6 18.87ZM192.98 23.94C192.97 23.96 192.97 23.99 192.96 24.01C191.78 24.01 190.58 24.06 189.42 23.94C190.62 23.94 191.8 23.94 192.98 23.94ZM310.3 16.05C310.3 16.07 310.3 16.09 310.3 16.11C309.18 16.11 308.06 16.11 306.94 16.11C306.94 16.09 306.94 16.07 306.95 16.05C308.07 16.05 309.18 16.05 310.3 16.05ZM178.82 24.51C179.78 24.45 180.7 24.21 181.7 24.41C180.75 24.45 179.79 24.48 178.82 24.51ZM121.88 1.94C121.88 1.92 121.88 1.89 121.87 1.87C123.06 1.87 124.23 1.87 125.41 1.87C125.41 1.89 125.41 1.92 125.41 1.94C124.24 1.94 123.07 1.94 121.88 1.94ZM334.53 6.26C334.5 6.29 334.46 6.33 334.43 6.37C333.55 6.28 332.68 6.18 331.8 6.09C331.83 6.05 331.86 6.02 331.89 5.99C332.76 6.08 333.65 6.17 334.53 6.26ZM226.87 1.44C228.1 1.31 228.39 1.36 228.52 1.64C228 1.64 227.5 1.64 226.83 1.64C227.13 1.6 227.25 1.58 227.49 1.55C227.23 1.51 227.09 1.48 226.87 1.44ZM311.48 20.98C312.5 20.96 313.48 20.95 314.45 20.93C314.11 21.11 312.53 21.13 311.48 20.98ZM322.46 16.57C322.48 16.61 322.49 16.64 322.51 16.67C321.57 16.76 320.65 16.64 319.71 16.57C320.62 16.57 321.54 16.57 322.46 16.57ZM337.75 9.71C338.23 9.71 338.66 9.71 339.09 9.71C339.12 9.74 339.15 9.77 339.17 9.8C338.78 9.87 338.38 9.94 337.93 10.02C337.85 9.87 337.8 9.8 337.75 9.71ZM238.11 1.63C238.93 1.62 239.75 1.6 240.7 1.58C239.83 1.9 238.94 1.64 238.11 1.63ZM132.76 1.88C132.77 1.9 132.77 1.92 132.78 1.94C131.62 1.94 130.46 1.94 129.31 1.94C129.31 1.92 129.31 1.9 129.32 1.88C130.45 1.88 131.6 1.88 132.76 1.88ZM123.46 23.84C123.46 23.86 123.46 23.88 123.45 23.9C122.2 23.9 120.96 23.9 119.7 23.9C119.7 23.88 119.7 23.86 119.7 23.84C120.97 23.84 122.21 23.84 123.46 23.84ZM321.75 5.16C321.75 5.11 321.75 5.06 321.75 5.01C322.5 5.03 323.24 5.05 323.99 5.07C323.99 5.1 323.98 5.13 323.98 5.16C323.23 5.16 322.49 5.16 321.75 5.16ZM18.02 18.22C18.88 18.06 20.18 18.09 20.79 18.27C19.89 18.26 19.03 18.24 18.02 18.22ZM187.59 1.61C187.59 1.63 187.59 1.66 187.59 1.68C186.72 1.68 185.85 1.68 184.98 1.68C184.98 1.66 184.98 1.63 184.98 1.61C185.85 1.61 186.72 1.61 187.59 1.61ZM84.52 1.77C85.08 1.7 85.59 1.41 86.42 1.71C85.66 1.74 85.09 1.75 84.52 1.77ZM307.59 16.7C307.59 16.73 307.58 16.77 307.58 16.8C306.64 16.77 305.7 16.75 304.75 16.73C304.76 16.7 304.76 16.67 304.77 16.65C305.71 16.66 306.65 16.68 307.59 16.7ZM188.18 24.31C188.18 24.29 188.18 24.28 188.18 24.27C188.83 24.23 189.48 24.2 190.1 24.17C190.11 24.23 190.13 24.31 190.15 24.39C189.48 24.36 188.83 24.33 188.18 24.31ZM187.71 1.84C187.71 1.86 187.71 1.88 187.71 1.9C186.84 1.9 185.97 1.9 185.11 1.9C185.11 1.88 185.11 1.86 185.11 1.84C185.97 1.84 186.84 1.84 187.71 1.84ZM314.88 15.18C314.88 15.21 314.88 15.23 314.88 15.25C314.22 15.25 313.56 15.25 312.89 15.25C312.89 15.23 312.89 15.21 312.89 15.18C313.55 15.18 314.22 15.18 314.88 15.18ZM317.44 16.8C317.44 16.82 317.44 16.84 317.45 16.86C316.8 16.84 316.15 16.81 315.38 16.79C315.82 16.7 316.11 16.64 316.24 16.61C316.7 16.69 317.07 16.75 317.44 16.8ZM218.49 23.87C219.53 23.87 220.38 23.87 221.41 23.87C221.06 23.98 220.88 24.04 220.66 24.11C220.23 23.72 219.29 24.01 218.49 23.87ZM76.86 2.35C76.86 2.33 76.86 2.3 76.86 2.28C77.76 2.28 78.67 2.28 79.56 2.28C79.56 2.29 79.56 2.3 79.56 2.31C78.67 2.32 77.76 2.34 76.86 2.35ZM158.36 24.17C157.5 24.27 156.64 24.32 155.66 24.09C156.72 24.12 157.53 24.14 158.36 24.17ZM339 5.64C338.97 5.66 338.94 5.69 338.91 5.72C338.29 5.64 337.51 5.69 337.15 5.4C337.76 5.48 338.37 5.56 339 5.64ZM304.85 18.05C304.85 18.03 304.85 18.01 304.86 18C305.76 18 306.67 18 307.56 18C307.56 18.02 307.55 18.03 307.55 18.05C306.65 18.05 305.75 18.05 304.85 18.05ZM327.42 17.91C327.41 17.88 327.41 17.84 327.4 17.8C328.05 17.79 328.7 17.78 329.35 17.77C329.36 17.8 329.36 17.82 329.37 17.85C328.72 17.87 328.07 17.89 327.42 17.91ZM321.12 2.89C319.69 3.1 319.42 3.1 318.97 2.89C319.63 2.89 320.33 2.89 321.12 2.89ZM320.11 14.87C320.11 14.91 320.11 14.94 320.11 14.98C319.4 14.95 318.69 14.92 317.98 14.88C317.99 14.85 318.01 14.82 318.02 14.79C318.72 14.81 319.41 14.84 320.11 14.87ZM193.79 23.99C193.79 23.97 193.8 23.95 193.8 23.93C194.64 23.93 195.47 23.93 196.3 23.93C196.3 23.95 196.3 23.97 196.29 23.99C195.46 23.99 194.62 23.99 193.79 23.99ZM330.36 16.66C330.36 16.7 330.35 16.73 330.35 16.77C329.74 16.75 329.14 16.73 328.52 16.71C328.53 16.67 328.55 16.62 328.56 16.58C329.16 16.61 329.76 16.63 330.36 16.66ZM253.93 1.21C253.67 1.47 253.1 1.37 252.52 1.36C252.8 1.07 253.47 1.26 253.93 1.21ZM309.82 2.58C309.81 2.61 309.81 2.65 309.8 2.68C309.23 2.68 308.66 2.68 308.09 2.68C308.09 2.66 308.09 2.63 308.09 2.61C308.68 2.6 309.25 2.59 309.82 2.58ZM327.01 11.52C326.99 11.56 326.95 11.6 326.92 11.65C326.35 11.61 325.76 11.58 325.19 11.54C325.21 11.51 325.23 11.48 325.26 11.44C325.84 11.47 326.42 11.49 327.01 11.52ZM179.11 1.83C179.1 1.79 179.08 1.74 179.07 1.7C179.57 1.69 180.08 1.68 180.58 1.67C180.59 1.71 180.6 1.75 180.6 1.8C180.1 1.81 179.6 1.82 179.11 1.83ZM214.53 1.52C214.54 1.49 214.54 1.46 214.54 1.44C215.46 1.45 216.38 1.47 217.29 1.49C217.28 1.5 217.28 1.51 217.27 1.52C216.36 1.52 215.44 1.52 214.53 1.52ZM322.97 16.32C322.97 16.35 322.98 16.39 322.98 16.42C322.09 16.42 321.18 16.42 320.28 16.42C320.28 16.41 320.28 16.4 320.28 16.38C321.17 16.36 322.07 16.34 322.97 16.32ZM167.59 1.84C167.6 1.88 167.61 1.91 167.62 1.95C167.05 1.95 166.48 1.95 165.91 1.95C165.9 1.93 165.9 1.91 165.89 1.89C166.45 1.87 167.02 1.85 167.59 1.84ZM95.37 1.36C95.36 1.34 95.36 1.31 95.35 1.29C96.07 1.29 96.8 1.29 97.52 1.29C97.52 1.31 97.52 1.34 97.52 1.36C96.8 1.36 96.09 1.36 95.37 1.36Z" fill="url(#paint_linear_6249_14191_0)" fill-opacity="1.000000" fill-rule="nonzero"/>
</svg>
