<svg width="122.857666" height="93.508316" viewBox="0 0 122.858 93.5083" fill="none" xmlns="http://www.w3.org/2000/svg" xmlns:xlink="http://www.w3.org/1999/xlink">
	<desc>
			Created with Pixso.
	</desc>
	<defs/>
	<g opacity="0.200000">
		<path id="Vector" d="M104.87 93.09C99.05 89.42 103.2 83.27 97.38 79.6C91.55 75.93 87.4 82.09 81.57 78.42C75.75 74.76 79.9 68.6 74.08 64.93C68.25 61.27 64.1 67.42 58.27 63.76C52.45 60.09 56.6 53.94 50.78 50.27C44.95 46.6 40.8 52.76 34.97 49.09C29.15 45.43 33.3 39.27 27.47 35.6C21.65 31.94 17.5 38.09 11.66 34.42C5.83 30.75 9.99 24.6 4.15 20.92" stroke="#FFFFFF" stroke-opacity="1.000000" stroke-width="1.000000"/>
		<path id="Vector" d="M111.79 82.83C105.96 79.17 110.11 73.01 104.29 69.34C98.46 65.68 94.31 71.83 88.49 68.17C82.66 64.5 86.81 58.34 80.99 54.68C75.16 51.01 71.01 57.17 65.18 53.5C59.36 49.84 63.51 43.68 57.69 40.01C51.86 36.35 47.71 42.5 41.88 38.84C36.06 35.17 40.21 29.01 34.39 25.35C28.56 21.68 24.41 27.84 18.57 24.16C12.75 20.5 16.9 14.34 11.06 10.67" stroke="#FFFFFF" stroke-opacity="1.000000" stroke-width="1.000000"/>
		<path id="Vector" d="M118.7 72.58C112.87 68.91 117.03 62.75 111.2 59.09C105.38 55.42 101.22 61.58 95.4 57.91C89.57 54.24 93.73 48.09 87.9 44.42C82.08 40.75 77.92 46.91 72.1 43.25C66.27 39.58 70.43 33.42 64.6 29.76C58.78 26.09 54.62 32.25 48.8 28.58C42.97 24.91 47.13 18.76 41.3 15.09C35.48 11.42 31.32 17.58 25.48 13.91C19.66 10.24 23.81 4.08 17.97 0.41" stroke="#FFFFFF" stroke-opacity="1.000000" stroke-width="1.000000"/>
	</g>
</svg>
