<svg width="313.955414" height="313.955383" viewBox="0 0 313.955 313.955" fill="none" xmlns="http://www.w3.org/2000/svg" xmlns:xlink="http://www.w3.org/1999/xlink">
	<desc>
			Created with Pixso.
	</desc>
	<defs/>
	<g opacity="0.150000">
		<mask id="mask6256_9103" mask-type="alpha" maskUnits="userSpaceOnUse" x="0.000000" y="0.000000" width="313.955414" height="313.955383">
			<circle id="Ellipse 532" r="111.000000" transform="matrix(0.707107 -0.707107 0.707107 0.707107 156.978 156.978)" fill="#C4C4C4" fill-opacity="1.000000"/>
		</mask>
		<g mask="url(#mask6256_9103)">
			<path id="Union" d="M1.06067 158.038L158.038 1.06042L156.978 -0.000244141L0 156.977L1.06067 158.038ZM8.13171 165.109L165.109 8.13153L164.049 7.07086L7.07108 164.049L8.13171 165.109ZM15.2028 172.18L172.18 15.2026L171.12 14.1419L14.1422 171.12L15.2028 172.18ZM22.2739 179.251L179.252 22.2736L178.191 21.213L21.2132 178.191L22.2739 179.251ZM29.3449 186.322L186.323 29.3447L185.262 28.2841L28.2843 185.262L29.3449 186.322ZM36.416 193.393L193.394 36.4158L192.333 35.3551L35.3553 192.333L36.416 193.393ZM43.4871 200.465L200.465 43.4868L199.404 42.4262L42.4264 199.404L43.4871 200.465ZM50.5581 207.536L207.536 50.5579L206.475 49.4973L49.4975 206.475L50.5581 207.536ZM57.6292 214.607L214.607 57.629L213.546 56.5683L56.5685 213.546L57.6292 214.607ZM64.7003 221.678L221.678 64.7L220.617 63.6394L63.6396 220.617L64.7003 221.678ZM71.7713 228.749L228.749 71.7711L227.688 70.7104L70.7107 227.688L71.7713 228.749ZM78.8424 235.82L235.82 78.8422L234.759 77.7815L77.7817 234.759L78.8424 235.82ZM85.9135 242.891L242.891 85.9133L241.831 84.8526L84.8528 241.83L85.9135 242.891ZM92.9846 249.962L249.962 92.9843L248.902 91.9236L91.9239 248.901L92.9846 249.962ZM100.056 257.033L257.033 100.055L255.973 98.9947L98.9949 255.972L100.056 257.033ZM107.127 264.104L264.104 107.126L263.044 106.066L106.066 263.044L107.127 264.104ZM114.198 271.175L271.175 114.198L270.115 113.137L113.137 270.115L114.198 271.175ZM121.269 278.246L278.247 121.269L277.186 120.208L120.208 277.186L121.269 278.246ZM128.34 285.317L285.318 128.34L284.257 127.279L127.279 284.257L128.34 285.317ZM135.411 292.388L292.389 135.411L291.328 134.35L134.35 291.328L135.411 292.388ZM142.482 299.46L299.46 142.482L298.399 141.421L141.421 298.399L142.482 299.46ZM149.553 306.531L306.531 149.553L305.47 148.492L148.492 305.47L149.553 306.531ZM156.624 313.602L313.602 156.624L312.541 155.563L155.563 312.541L156.624 313.602Z" clip-rule="evenodd" fill="#FFFFFF" fill-opacity="1.000000" fill-rule="evenodd"/>
		</g>
	</g>
</svg>
