<svg width="107.274902" height="106.558228" viewBox="0 0 107.275 106.558" fill="none" xmlns="http://www.w3.org/2000/svg" xmlns:xlink="http://www.w3.org/1999/xlink">
	<desc>
			Created with Pixso.
	</desc>
	<defs/>
	<g opacity="0.200000">
		<path id="XMLID_1140_" d="M65.05 82.36C65.82 81.59 67.06 81.59 67.83 82.36C68.6 83.12 68.6 84.36 67.83 85.12C67.06 85.88 65.82 85.88 65.05 85.12C64.28 84.36 64.28 83.12 65.05 82.36Z" fill="#FFFFFF" fill-opacity="1.000000" fill-rule="nonzero"/>
		<path id="XMLID_1140_" d="M44.05 103.22C44.82 102.45 46.06 102.45 46.83 103.22C47.6 103.98 47.6 105.22 46.83 105.98C46.06 106.74 44.82 106.74 44.05 105.98C43.28 105.22 43.28 103.98 44.05 103.22Z" fill="#FFFFFF" fill-opacity="1.000000" fill-rule="nonzero"/>
		<path id="XMLID_1139_" d="M46.67 62.14C46.67 63.22 45.79 64.09 44.71 64.09C43.62 64.09 42.75 63.22 42.75 62.14C42.75 61.07 43.62 60.2 44.71 60.2C45.79 60.2 46.67 61.07 46.67 62.14Z" fill="#FFFFFF" fill-opacity="1.000000" fill-rule="evenodd"/>
		<path id="XMLID_1139_" d="M25.67 83C25.67 84.08 24.79 84.95 23.71 84.95C22.62 84.95 21.75 84.08 21.75 83C21.75 81.93 22.62 81.06 23.71 81.06C24.79 81.06 25.67 81.93 25.67 83Z" fill="#FFFFFF" fill-opacity="1.000000" fill-rule="evenodd"/>
		<path id="XMLID_1138_" d="M21.57 39.17C22.34 38.4 23.58 38.4 24.35 39.17C25.12 39.93 25.12 41.17 24.35 41.93C23.58 42.7 22.34 42.7 21.57 41.93C20.8 41.17 20.8 39.92 21.57 39.17Z" fill="#FFFFFF" fill-opacity="1.000000" fill-rule="nonzero"/>
		<path id="XMLID_1138_" d="M0.57 60.03C1.34 59.26 2.58 59.26 3.35 60.03C4.12 60.79 4.12 62.03 3.35 62.79C2.58 63.56 1.34 63.56 0.57 62.79C-0.2 62.03 -0.2 60.78 0.57 60.03Z" fill="#FFFFFF" fill-opacity="1.000000" fill-rule="nonzero"/>
		<path id="XMLID_1134_" d="M84.48 63.06C85.25 62.29 86.49 62.29 87.26 63.06C88.03 63.82 88.03 65.05 87.26 65.82C86.49 66.58 85.25 66.58 84.48 65.82C83.71 65.05 83.71 63.82 84.48 63.06Z" fill="#FFFFFF" fill-opacity="1.000000" fill-rule="nonzero"/>
		<path id="XMLID_1133_" d="M66.09 42.84C66.09 43.92 65.22 44.79 64.13 44.79C63.05 44.79 62.17 43.92 62.17 42.84C62.17 41.77 63.05 40.9 64.13 40.9C65.22 40.9 66.09 41.77 66.09 42.84Z" fill="#FFFFFF" fill-opacity="1.000000" fill-rule="evenodd"/>
		<path id="XMLID_1132_" d="M44.34 21.25C44.34 22.32 43.47 23.2 42.38 23.2C41.3 23.2 40.42 22.32 40.42 21.25C40.42 20.17 41.3 19.3 42.38 19.3C43.47 19.3 44.34 20.17 44.34 21.25Z" fill="#FFFFFF" fill-opacity="1.000000" fill-rule="evenodd"/>
		<path id="XMLID_1128_" d="M103.91 43.76C104.68 42.99 105.92 42.99 106.69 43.76C107.46 44.52 107.46 45.75 106.69 46.52C105.92 47.28 104.68 47.28 103.91 46.52C103.14 45.75 103.14 44.52 103.91 43.76Z" fill="#FFFFFF" fill-opacity="1.000000" fill-rule="nonzero"/>
		<path id="XMLID_1127_" d="M82.17 22.16C82.94 21.4 84.18 21.4 84.95 22.16C85.72 22.93 85.72 24.16 84.95 24.92C84.18 25.69 82.94 25.69 82.17 24.92C81.4 24.16 81.4 22.93 82.17 22.16Z" fill="#FFFFFF" fill-opacity="1.000000" fill-rule="nonzero"/>
		<path id="XMLID_1126_" d="M60.42 0.57C61.19 -0.2 62.43 -0.2 63.2 0.57C63.97 1.33 63.97 2.57 63.2 3.33C62.43 4.1 61.19 4.1 60.42 3.33C59.66 2.57 59.66 1.33 60.42 0.57Z" fill="#FFFFFF" fill-opacity="1.000000" fill-rule="nonzero"/>
	</g>
</svg>
