<svg width="166.280350" height="166.294922" viewBox="0 0 166.28 166.295" fill="none" xmlns="http://www.w3.org/2000/svg" xmlns:xlink="http://www.w3.org/1999/xlink">
	<desc>
			Created with Pixso.
	</desc>
	<defs/>
	<g opacity="0.200000">
		<rect id="Element_5" rx="0.000000" width="165.000000" height="165.000000" transform="translate(0.500000 0.500000)" fill="#FFFFFF" fill-opacity="0"/>
		<path id="XMLID_1159_" d="M65.8 162.93C66.57 162.16 67.81 162.16 68.58 162.93C69.35 163.7 69.35 164.94 68.58 165.71C67.81 166.48 66.57 166.48 65.8 165.71C65.03 164.94 65.03 163.7 65.8 162.93Z" fill="#FFFFFF" fill-opacity="1.000000" fill-rule="nonzero"/>
		<path id="XMLID_1158_" d="M44.05 141.19C44.82 140.42 46.06 140.42 46.83 141.19C47.6 141.96 47.6 143.2 46.83 143.97C46.06 144.74 44.82 144.74 44.05 143.97C43.28 143.2 43.28 141.96 44.05 141.19Z" fill="#FFFFFF" fill-opacity="1.000000" fill-rule="nonzero"/>
		<path id="XMLID_1157_" d="M25.66 120.84C25.66 121.93 24.78 122.8 23.7 122.8C22.61 122.8 21.74 121.93 21.74 120.84C21.74 119.76 22.61 118.88 23.7 118.88C24.78 118.88 25.66 119.76 25.66 120.84Z" fill="#FFFFFF" fill-opacity="1.000000" fill-rule="evenodd"/>
		<path id="XMLID_1156_" d="M0.57 97.71C1.34 96.94 2.58 96.94 3.35 97.71C4.12 98.48 4.12 99.72 3.35 100.49C2.58 101.26 1.34 101.26 0.57 100.49C-0.2 99.72 -0.2 98.48 0.57 97.71Z" fill="#FFFFFF" fill-opacity="1.000000" fill-rule="nonzero"/>
		<path id="XMLID_1153_" d="M85.22 143.51C85.99 142.74 87.23 142.74 88 143.51C88.77 144.28 88.77 145.52 88 146.29C87.23 147.06 85.99 147.06 85.22 146.29C84.45 145.52 84.45 144.27 85.22 143.51Z" fill="#FFFFFF" fill-opacity="1.000000" fill-rule="nonzero"/>
		<path id="XMLID_1152_" d="M63.48 121.77C64.25 121 65.49 121 66.26 121.77C67.03 122.54 67.03 123.78 66.26 124.55C65.49 125.32 64.25 125.32 63.48 124.55C62.72 123.77 62.72 122.53 63.48 121.77Z" fill="#FFFFFF" fill-opacity="1.000000" fill-rule="nonzero"/>
		<path id="XMLID_1151_" d="M45.08 101.41C45.08 102.5 44.21 103.37 43.12 103.37C42.04 103.37 41.16 102.5 41.16 101.41C41.16 100.33 42.04 99.45 43.12 99.45C44.21 99.45 45.08 100.33 45.08 101.41Z" fill="#FFFFFF" fill-opacity="1.000000" fill-rule="evenodd"/>
		<path id="XMLID_1150_" d="M23.34 79.67C23.34 80.75 22.47 81.63 21.38 81.63C20.3 81.63 19.42 80.75 19.42 79.67C19.42 78.59 20.3 77.71 21.38 77.71C22.47 77.71 23.34 78.59 23.34 79.67Z" fill="#FFFFFF" fill-opacity="1.000000" fill-rule="evenodd"/>
		<path id="XMLID_1147_" d="M108 125.47C108 126.56 107.12 127.43 106.04 127.43C104.95 127.43 104.08 126.56 104.08 125.47C104.08 124.39 104.95 123.51 106.04 123.51C107.12 123.51 108 124.39 108 125.47Z" fill="#FFFFFF" fill-opacity="1.000000" fill-rule="evenodd"/>
		<path id="XMLID_1146_" d="M82.9 102.34C83.67 101.57 84.91 101.57 85.68 102.34C86.45 103.11 86.45 104.35 85.68 105.12C84.91 105.89 83.67 105.89 82.9 105.12C82.14 104.35 82.14 103.1 82.9 102.34Z" fill="#FFFFFF" fill-opacity="1.000000" fill-rule="nonzero"/>
		<path id="XMLID_1145_" d="M61.17 80.6C61.94 79.83 63.18 79.83 63.95 80.6C64.72 81.37 64.72 82.61 63.95 83.38C63.18 84.15 61.94 84.15 61.17 83.38C60.4 82.61 60.4 81.36 61.17 80.6Z" fill="#FFFFFF" fill-opacity="1.000000" fill-rule="nonzero"/>
		<path id="XMLID_1144_" d="M39.43 58.86C40.2 58.09 41.44 58.09 42.21 58.86C42.98 59.63 42.98 60.87 42.21 61.64C41.44 62.41 40.2 62.41 39.43 61.64C38.66 60.87 38.66 59.62 39.43 58.86Z" fill="#FFFFFF" fill-opacity="1.000000" fill-rule="nonzero"/>
		<path id="XMLID_1141_" d="M124.08 104.65C124.85 103.88 126.09 103.88 126.86 104.65C127.63 105.42 127.63 106.66 126.86 107.43C126.09 108.2 124.85 108.2 124.08 107.43C123.31 106.66 123.31 105.42 124.08 104.65Z" fill="#FFFFFF" fill-opacity="1.000000" fill-rule="nonzero"/>
		<path id="XMLID_1140_" d="M102.34 82.91C103.11 82.14 104.35 82.14 105.12 82.91C105.89 83.68 105.89 84.92 105.12 85.69C104.35 86.46 103.11 86.46 102.34 85.69C101.57 84.92 101.57 83.68 102.34 82.91Z" fill="#FFFFFF" fill-opacity="1.000000" fill-rule="nonzero"/>
		<path id="XMLID_1139_" d="M83.95 62.56C83.95 63.64 83.07 64.52 81.99 64.52C80.9 64.52 80.03 63.64 80.03 62.56C80.03 61.48 80.9 60.6 81.99 60.6C83.07 60.6 83.95 61.48 83.95 62.56Z" fill="#FFFFFF" fill-opacity="1.000000" fill-rule="evenodd"/>
		<path id="XMLID_1138_" d="M58.85 39.43C59.62 38.66 60.86 38.66 61.63 39.43C62.4 40.2 62.4 41.44 61.63 42.21C60.86 42.98 59.62 42.98 58.85 42.21C58.08 41.44 58.08 40.19 58.85 39.43Z" fill="#FFFFFF" fill-opacity="1.000000" fill-rule="nonzero"/>
		<path id="XMLID_1135_" d="M143.5 85.22C144.28 84.45 145.52 84.45 146.28 85.22C147.06 85.99 147.06 87.23 146.28 88C145.52 88.77 144.28 88.77 143.5 88C142.74 87.23 142.74 85.99 143.5 85.22Z" fill="#FFFFFF" fill-opacity="1.000000" fill-rule="nonzero"/>
		<path id="XMLID_1134_" d="M121.77 63.48C122.54 62.71 123.78 62.71 124.55 63.48C125.32 64.25 125.32 65.49 124.55 66.26C123.78 67.03 122.54 67.03 121.77 66.26C121 65.49 121 64.25 121.77 63.48Z" fill="#FFFFFF" fill-opacity="1.000000" fill-rule="nonzero"/>
		<path id="XMLID_1133_" d="M103.38 43.13C103.38 44.21 102.5 45.09 101.42 45.09C100.33 45.09 99.46 44.21 99.46 43.13C99.46 42.05 100.33 41.17 101.42 41.17C102.5 41.17 103.38 42.05 103.38 43.13Z" fill="#FFFFFF" fill-opacity="1.000000" fill-rule="evenodd"/>
		<path id="XMLID_1132_" d="M81.62 21.39C81.62 22.48 80.75 23.35 79.67 23.35C78.58 23.35 77.71 22.48 77.71 21.39C77.71 20.31 78.58 19.43 79.67 19.43C80.75 19.43 81.62 20.31 81.62 21.39Z" fill="#FFFFFF" fill-opacity="1.000000" fill-rule="evenodd"/>
		<path id="XMLID_1129_" d="M166.28 67.18C166.28 68.26 165.4 69.14 164.32 69.14C163.23 69.14 162.36 68.26 162.36 67.18C162.36 66.1 163.23 65.22 164.32 65.22C165.4 65.22 166.28 66.1 166.28 67.18Z" fill="#FFFFFF" fill-opacity="1.000000" fill-rule="evenodd"/>
		<path id="XMLID_1128_" d="M141.2 44.05C141.97 43.28 143.21 43.28 143.98 44.05C144.75 44.82 144.75 46.06 143.98 46.83C143.21 47.6 141.97 47.6 141.2 46.83C140.42 46.06 140.42 44.82 141.2 44.05Z" fill="#FFFFFF" fill-opacity="1.000000" fill-rule="nonzero"/>
		<path id="XMLID_1127_" d="M119.46 22.31C120.23 21.54 121.47 21.54 122.24 22.31C123.01 23.08 123.01 24.32 122.24 25.09C121.47 25.86 120.23 25.86 119.46 25.09C118.69 24.32 118.69 23.08 119.46 22.31Z" fill="#FFFFFF" fill-opacity="1.000000" fill-rule="nonzero"/>
		<path id="XMLID_1126_" d="M97.7 0.57C98.47 -0.2 99.71 -0.2 100.49 0.57C101.26 1.34 101.26 2.58 100.49 3.35C99.71 4.12 98.47 4.12 97.7 3.35C96.94 2.58 96.94 1.34 97.7 0.57Z" fill="#FFFFFF" fill-opacity="1.000000" fill-rule="nonzero"/>
	</g>
</svg>
