<svg width="96.000000" height="24.000000" viewBox="0 0 96 24" fill="none" xmlns="http://www.w3.org/2000/svg" xmlns:xlink="http://www.w3.org/1999/xlink">
	<desc>
			Created with Pixso.
	</desc>
	<defs>
		<linearGradient x1="6.250002" y1="0.000003" x2="16.750000" y2="24.000004" id="paint_linear_6255_9092_0" gradientUnits="userSpaceOnUse">
			<stop stop-color="#68C0FF"/>
			<stop offset="1.000000" stop-color="#207ACC"/>
		</linearGradient>
		<linearGradient x1="51.624992" y1="-0.000002" x2="77.874992" y2="23.999998" id="paint_linear_6255_9093_0" gradientUnits="userSpaceOnUse">
			<stop stop-color="#68C0FF"/>
			<stop offset="1.000000" stop-color="#207ACC"/>
		</linearGradient>
	</defs>
	<rect id="Icon_feature_1" rx="0.000000" width="94.956520" height="22.956522" transform="translate(0.521739 0.521739)" fill="#FFFFFF" fill-opacity="0"/>
	<path id="Union" d="M0 12C0 5.37256 5.37256 0 12 0C18.6274 0 24 5.37256 24 12C24 18.6274 18.6274 24 12 24C5.37256 24 0 18.6274 0 12Z" clip-rule="evenodd" fill="url(#paint_linear_6255_9092_0)" fill-opacity="1.000000" fill-rule="evenodd"/>
	<g opacity="0.200000">
		<path id="Union" d="M48 0C41.3726 0 36 5.37256 36 12C36 18.6274 41.3726 24 48 24C54.6274 24 60 18.6274 60 12C60 5.37256 54.6274 0 48 0ZM84 0C77.3726 0 72 5.37256 72 12C72 18.6274 77.3726 24 84 24C90.6274 24 96 18.6274 96 12C96 5.37256 90.6274 0 84 0Z" clip-rule="evenodd" fill="url(#paint_linear_6255_9093_0)" fill-opacity="1.000000" fill-rule="evenodd"/>
	</g>
</svg>
