<svg width="44" height="44" viewBox="0 0 44 44" fill="none" xmlns="http://www.w3.org/2000/svg">
<circle cx="22" cy="22" r="22" fill="#E84142"/>
<path fill-rule="evenodd" clip-rule="evenodd" d="M23.3167 6.53071C22.5545 5.21417 21.3419 5.21417 20.5797 6.53071L6.73876 30.9039C5.97655 32.2378 6.60017 33.2945 8.12458 33.2945H15.071C16.4742 33.2079 17.7388 32.463 18.501 31.285L26.8679 16.7858C27.4742 15.5386 27.4742 14.0661 26.8679 12.8189L24.3734 8.43622L23.3167 6.53071ZM32.5155 22.5717C31.7533 21.2551 30.5234 21.2551 29.7612 22.5717L24.9281 30.9039C24.1832 32.2205 24.8068 33.2945 26.3139 33.2945H35.8761C37.4005 33.2945 38.0242 32.2205 37.262 30.9039L32.5155 22.5717Z" fill="white"/>
</svg>
