<svg width="166.955444" height="166.955322" viewBox="0 0 166.955 166.955" fill="none" xmlns="http://www.w3.org/2000/svg" xmlns:xlink="http://www.w3.org/1999/xlink">
	<desc>
			Created with Pixso.
	</desc>
	<defs/>
	<g opacity="0.150000">
		<mask id="mask6256_9107" mask-type="alpha" maskUnits="userSpaceOnUse" x="0.000000" y="0.000000" width="166.955444" height="166.955322">
			<circle id="Ellipse 532" r="59.027649" transform="matrix(0.707107 -0.707107 0.707107 0.707107 83.4778 83.4777)" fill="#C4C4C4" fill-opacity="1.000000"/>
		</mask>
		<g mask="url(#mask6256_9107)">
			<path id="Union" d="M-68.4393 16.0381L88.5383 -140.94L87.4777 -142L-69.5 14.9774L-68.4393 16.0381ZM-61.3683 23.1091L95.6094 -133.869L94.5488 -134.929L-62.429 22.0485L-61.3683 23.1091ZM-54.2972 30.1802L102.681 -126.797L101.62 -127.858L-55.3579 29.1195L-54.2972 30.1802ZM-47.2262 37.2512L109.752 -119.726L108.691 -120.787L-48.2867 36.1907L-47.2262 37.2512ZM-40.155 44.3224L116.823 -112.655L115.762 -113.716L-41.2157 43.2617L-40.155 44.3224ZM-33.084 51.3934L123.894 -105.584L122.833 -106.645L-34.1447 50.3328L-33.084 51.3934ZM-26.0129 58.4645L130.965 -98.5132L129.904 -99.5739L-27.0736 57.4038L-26.0129 58.4645ZM-18.9419 65.5355L138.036 -91.4421L136.975 -92.5028L-20.0026 64.4749L-18.9419 65.5355ZM-11.8708 72.6066L145.107 -84.3711L144.046 -85.4318L-12.9314 71.546L-11.8708 72.6066ZM-4.79968 79.6777L152.178 -77.3L151.117 -78.3607L-5.86035 78.6171L-4.79968 79.6777ZM2.27136 86.7488L159.249 -70.229L158.188 -71.2897L1.21069 85.6881L2.27136 86.7488ZM9.34241 93.8198L166.32 -63.1578L165.26 -64.2185L8.28174 92.7592L9.34241 93.8198ZM16.4135 100.891L173.391 -56.0868L172.331 -57.1475L15.3528 99.8302L16.4135 100.891ZM23.4845 107.962L180.462 -49.0157L179.402 -50.0764L22.4238 106.901L23.4845 107.962ZM30.5557 115.033L187.533 -41.9447L186.473 -43.0054L29.495 113.972L30.5557 115.033ZM37.6267 122.104L194.604 -34.8737L193.544 -35.9343L36.566 121.043L37.6267 122.104ZM44.6978 129.175L201.675 -27.8025L200.615 -28.8632L43.6371 128.115L44.6978 129.175ZM51.7688 136.246L208.747 -20.7314L207.686 -21.7921L50.7081 135.186L51.7688 136.246ZM58.8398 143.317L215.818 -13.6604L214.757 -14.7211L57.7792 142.257L58.8398 143.317ZM65.9109 150.388L222.889 -6.58936L221.828 -7.65002L64.8503 149.328L65.9109 150.388ZM72.9821 157.459L229.96 0.481689L228.899 -0.578979L71.9214 156.399L72.9821 157.459ZM80.0531 164.531L237.031 7.55286L235.97 6.49207L78.9924 163.47L80.0531 164.531ZM87.1241 171.602L244.102 14.6239L243.041 13.5632L86.0635 170.541L87.1241 171.602Z" clip-rule="evenodd" fill="#FFFFFF" fill-opacity="1.000000" fill-rule="evenodd"/>
		</g>
	</g>
</svg>
